<svg width="30" height="30" viewBox="0 0 30 30" fill="none" xmlns="http://www.w3.org/2000/svg">
<g clip-path="url(#clip0_2442_600)">
<path d="M18.3864 5.56139C18.3864 5.56139 21.261 1.83049 20.4344 0.760156C20.1527 0.39541 19.9125 0.890762 19.3299 0.890762C18.6453 0.890762 18.6453 0.442871 17.9607 0.442871C17.2762 0.442871 17.2762 0.890762 16.5917 0.890762C15.9073 0.890762 15.9073 0.442871 15.2229 0.442871C14.5384 0.442871 14.5384 0.890762 13.8539 0.890762C13.2706 0.890762 13.0314 0.388965 12.7478 0.753887C11.9208 1.8183 14.7534 5.56133 14.7534 5.56133C2.24336 13.7854 6.27701 24.9699 13.6632 24.9699H19.521C26.9294 24.9699 30.9381 13.8127 18.3864 5.56139Z" fill="#EABC6B"/>
<path d="M18.3859 5.56139C18.3859 5.56139 21.2605 1.83049 20.4339 0.760156C20.1522 0.39541 19.912 0.890762 19.3294 0.890762C18.6448 0.890762 18.6448 0.442871 17.9602 0.442871C17.2757 0.442871 17.2757 0.890762 16.5912 0.890762C16.5575 0.890762 16.5267 0.888887 16.4962 0.886777C16.2212 2.06568 14.9818 3.90236 14.2726 4.88574C14.5519 5.29561 14.7529 5.56133 14.7529 5.56133C14.586 5.67102 14.4227 5.78135 14.2617 5.89209C26.2143 14.1076 22.2149 24.9698 14.905 24.9698H19.5204C26.9289 24.9699 30.9376 13.8127 18.3859 5.56139Z" fill="#E8AE4D"/>
<path d="M18.9203 6.88837C17.25 7.31019 15.5997 7.31025 13.9291 6.88837C13.3476 6.74153 13.018 6.08769 13.2273 5.49337C13.2296 5.48675 13.232 5.48007 13.2343 5.47345C13.4097 4.97517 13.9073 4.69556 14.395 4.81796C15.7628 5.16138 17.0863 5.16144 18.4545 4.81796C18.9422 4.6955 19.4397 4.97517 19.6152 5.47345C19.6175 5.48007 19.6199 5.48675 19.6222 5.49337C19.8314 6.08775 19.5018 6.74153 18.9203 6.88837Z" fill="#FFE07D"/>
<path d="M3.2168 26.8888L9.57809 29.2566C10.1184 29.4576 10.6902 29.5606 11.2666 29.5606H17.8225C18.7399 29.5606 19.6385 29.2999 20.4134 28.8088L28.6219 23.6074C29.1635 23.1265 29.2639 22.3183 28.8564 21.7196C28.4106 21.0644 27.6732 20.9505 26.8617 21.3343L18.8699 24.8531L18.8794 23.5565C18.7736 22.4923 17.9541 21.6381 16.8952 21.4883L12.0284 20.9279C10.9058 20.7691 10.3447 20.3928 9.36603 19.8203C8.02986 19.0387 6.50971 18.6267 4.96172 18.6267H3.2168V26.8888Z" fill="#FFDDCE"/>
<path d="M3.2168 26.8888L9.57809 29.2566C10.1184 29.4576 10.6902 29.5606 11.2666 29.5606H17.8225C18.7399 29.5606 19.6385 29.2999 20.4134 28.8088L28.6219 23.6074C29.1635 23.1265 29.2639 22.3183 28.8564 21.7196C28.4106 21.0644 27.6732 20.9505 26.8617 21.3343L18.8699 24.8531L18.8794 23.5565C18.7736 22.4923 17.9541 21.6381 16.8952 21.4883L12.0284 20.9279C10.9058 20.7691 10.3447 20.3928 9.36603 19.8203C8.02986 19.0387 6.50971 18.6267 4.96172 18.6267H3.2168V26.8888Z" fill="#FFDDCE"/>
<path d="M28.8564 21.7195C28.4106 21.0644 27.6732 20.9505 26.8617 21.3342L24.6635 22.3021C24.77 22.4707 24.8546 22.6051 24.8546 22.6051C25.2621 23.2039 25.1617 24.012 24.6202 24.493L19.8372 27.5237C19.2073 27.8121 18.5204 27.9634 17.8225 27.9634H11.2666C10.6902 27.9634 10.1183 27.8605 9.57809 27.6594L3.2168 25.2916V26.8887L9.57809 29.2565C10.1184 29.4576 10.6902 29.5606 11.2666 29.5606H16.6228H17.8225C18.7399 29.5606 19.6385 29.2998 20.4134 28.8088L28.6219 23.6074C29.1635 23.1265 29.2639 22.3183 28.8564 21.7195Z" fill="#FFCBBE"/>
<path d="M18.2834 22.2209L18.2832 22.2522L18.3038 22.2432C18.2972 22.2356 18.2902 22.2283 18.2834 22.2209Z" fill="#F5DBCC"/>
<path d="M4.5849 28.1559C4.5849 28.6175 4.21072 28.9916 3.74918 28.9916H1.73221C1.27066 28.9916 0.896484 28.6175 0.896484 28.1559V17.9229C0.896484 17.4613 1.27066 17.0872 1.73221 17.0872H3.74918C4.21072 17.0872 4.5849 17.4613 4.5849 17.9229V28.1559Z" fill="#407093"/>
<path d="M29.219 21.4726C28.6593 20.6501 27.71 20.4493 26.6788 20.9346L26.1322 21.1753C26.994 19.3383 27.101 17.2907 26.6719 15.3565C26.1792 13.135 24.9891 10.983 23.1348 8.96016C22.9708 8.78127 22.6929 8.7692 22.5139 8.93321C22.3351 9.09715 22.323 9.37506 22.487 9.55401C24.2358 11.4616 25.3552 13.4779 25.8141 15.5467C26.2974 17.726 26.0162 19.9734 24.7828 21.7694L19.3135 24.1775L19.318 23.5598C19.3181 23.5443 19.3174 23.5287 19.3158 23.5131C19.1896 22.2436 18.2191 21.2321 16.9559 21.0534C16.9522 21.0528 16.9484 21.0523 16.9446 21.0519L12.0836 20.4922C10.2144 20.2262 9.73301 19.106 7.20152 18.4673C7.02662 16.9831 7.25977 15.4029 7.89879 13.8187C8.86119 11.4329 10.744 9.11491 13.3541 7.09735C14.3269 7.78711 18.6672 7.87295 19.6384 6.98315C20.136 7.36102 20.6109 7.75043 21.0533 8.14459C21.137 8.21924 21.2414 8.25592 21.3454 8.25592C21.4664 8.25592 21.5868 8.20629 21.6736 8.10885C21.835 7.92768 21.819 7.64995 21.6378 7.48852C21.1529 7.05651 20.6313 6.63024 20.0842 6.21827C20.2124 5.67463 20.033 5.03836 19.5595 4.65961C20.9353 2.57297 21.3354 1.20721 20.7827 0.491664C20.403 0.00012137 19.9308 0.230805 19.7291 0.32936C19.3873 0.496235 19.2009 0.505024 18.8864 0.299242C18.2863 -0.0933943 17.6556 -0.10605 17.0362 0.299242C16.7177 0.50766 16.4668 0.50766 16.1484 0.299242C15.5483 -0.0933943 14.9179 -0.10605 14.2983 0.299242C13.9802 0.507485 13.7931 0.494594 13.4566 0.327367C13.2552 0.227231 12.7835 -0.00726147 12.4014 0.48434C11.8611 1.17973 12.2226 2.50243 13.5055 4.51811C13.4269 4.56059 13.3521 4.61045 13.2822 4.66741C12.7719 4.12858 11.936 3.56661 10.7271 3.70161C9.72434 3.81381 8.98494 3.48247 8.54115 3.18481C8.33959 3.04981 8.06666 3.1036 7.93154 3.30504C7.79643 3.50661 7.85028 3.77954 8.05178 3.91465C8.6175 4.29393 9.5577 4.71616 10.8246 4.57489C11.7585 4.47012 12.3923 4.94743 12.7868 5.43317C12.7814 5.45192 12.7764 5.47079 12.7718 5.48965C12.4353 5.49493 11.9324 5.52633 11.3786 5.64153C10.0466 5.91862 9.05789 6.55161 8.51924 7.47223C8.39672 7.68164 8.46715 7.95082 8.67656 8.0734C8.88604 8.19592 9.15516 8.12543 9.27768 7.91602C10.0789 6.54674 12.0346 6.37928 12.8113 6.36879C12.8147 6.37846 12.8186 6.38801 12.8221 6.39762C10.0502 8.53588 8.12033 10.9205 7.08393 13.4898C6.42885 15.1139 6.16717 16.7409 6.3 18.2871C5.87865 18.2248 5.45244 18.1913 5.02418 18.1884V17.9227C5.02418 17.2196 4.45219 16.6477 3.74912 16.6477H1.73209C1.02902 16.6477 0.457031 17.2197 0.457031 17.9227V28.1557C0.457031 28.8588 1.02902 29.4308 1.73209 29.4308H3.74906C4.45213 29.4308 5.02412 28.8588 5.02412 28.1557V28.0306L9.42399 29.6682C10.0153 29.8882 10.6349 29.9998 11.2658 29.9998H17.8216C18.8239 29.9998 19.8012 29.7162 20.6478 29.1798C29.3934 23.6357 28.8623 23.9806 28.9129 23.9358C29.6173 23.3105 29.7489 22.2515 29.219 21.4726ZM18.8139 6.46248C17.2071 6.86819 15.6449 6.86819 14.0378 6.46248C13.3482 6.28817 13.548 5.05829 14.2891 5.24414C15.7269 5.60508 17.1247 5.60508 18.5626 5.24414C19.2908 5.06133 19.5145 6.28541 18.8139 6.46248ZM13.0553 1.1093C13.0588 1.111 13.0622 1.11276 13.0655 1.1144C13.6602 1.40995 14.1813 1.426 14.7795 1.03465C15.5281 0.544633 15.6093 1.33032 16.5922 1.33032C17.0654 1.33032 17.3266 1.15946 17.5173 1.03465C17.8358 0.826176 18.0867 0.826293 18.4052 1.03465C19.0061 1.42782 19.5145 1.40842 20.1265 1.11329C20.2169 1.43918 20.0123 2.41073 18.7094 4.35053C18.0624 4.33952 17.1235 4.97496 14.4656 4.38346C13.1655 2.41858 12.9645 1.4376 13.0553 1.1093ZM28.3533 23.2572L20.1775 28.4378C19.4718 28.885 18.6572 29.1214 17.8217 29.1214H11.2659C10.74 29.1214 10.2234 29.0283 9.73055 28.8449L5.02412 27.0931V22.3614C5.02412 22.1187 4.82742 21.922 4.58479 21.922C4.34215 21.922 4.14545 22.1187 4.14545 22.3614V28.1559C4.14545 28.3745 3.96762 28.5523 3.74912 28.5523H1.73209C1.51354 28.5523 1.33576 28.3744 1.33576 28.1559V17.9229C1.33576 17.7043 1.51354 17.5266 1.73209 17.5266H3.74906C3.96762 17.5266 4.14539 17.7044 4.14539 17.9229V20.3073C4.14539 20.55 4.34209 20.7467 4.58473 20.7467C4.82736 20.7467 5.02406 20.55 5.02406 20.3073V19.0673C8.65869 19.0952 9.4759 21.0109 11.966 21.3631C11.9698 21.3637 11.9735 21.3642 11.9773 21.3646L16.838 21.9242C17.6892 22.0471 18.3442 22.7248 18.439 23.5781L18.4329 24.4139H13.8998C13.6572 24.4139 13.4604 24.6106 13.4604 24.8533C13.4604 25.096 13.6571 25.2927 13.8998 25.2927H18.8691C18.9246 25.2927 18.9887 25.2804 19.0444 25.2561C19.0534 25.2521 27.0286 21.7407 27.0379 21.7366C27.6128 21.4812 28.1369 21.4447 28.4923 21.967C28.7687 22.3729 28.7075 22.9216 28.3533 23.2572Z" fill="black"/>
<path d="M16.5425 19.9348C16.7851 19.9348 16.9819 19.7381 16.9819 19.4955V18.7671C18.2154 18.567 18.9351 17.5686 19.0916 16.6372C19.2872 15.4737 18.6778 14.4618 17.5391 14.0594C17.3379 13.9882 17.1527 13.9202 16.9818 13.8545V11.053C17.5016 11.1392 17.8137 11.4082 17.8364 11.4283C18.0149 11.5906 18.2911 11.5786 18.4549 11.4011C18.6194 11.2227 18.6082 10.9447 18.4298 10.7802C18.3988 10.7516 17.8607 10.2671 16.9818 10.1658V9.54096C16.9818 9.29826 16.7851 9.10156 16.5424 9.10156C16.2998 9.10156 16.1031 9.29826 16.1031 9.54096V10.2013C15.9972 10.2216 15.8887 10.2474 15.7771 10.2809C15.0318 10.5054 14.4747 11.1445 14.3231 11.9487C14.1856 12.6785 14.417 13.3803 14.927 13.7803C15.2197 14.0099 15.5883 14.2201 16.1031 14.4449V17.9196C15.595 17.8981 15.2822 17.8027 14.7366 17.4457C14.5336 17.313 14.2612 17.3697 14.1284 17.5729C13.9955 17.7759 14.0524 18.0482 14.2555 18.1811C14.9728 18.6503 15.4522 18.7727 16.1031 18.798V19.4955C16.1031 19.7381 16.2998 19.9348 16.5425 19.9348ZM15.4693 13.0889C15.2185 12.8921 15.1101 12.5176 15.1867 12.1115C15.2577 11.7348 15.5166 11.2772 16.0306 11.1224C16.0551 11.115 16.0791 11.1087 16.1031 11.1022V13.4756C15.84 13.3442 15.6337 13.2178 15.4693 13.0889ZM17.2462 14.8879C18.3396 15.2743 18.2718 16.2131 18.225 16.4916C18.1281 17.0682 17.7048 17.6838 16.9818 17.8691V14.7927C17.0674 14.8239 17.1547 14.8555 17.2462 14.8879Z" fill="black"/>
</g>
<defs>
<clipPath id="clip0_2442_600">
<rect width="30" height="30" fill="white"/>
</clipPath>
</defs>
</svg>
