<svg width="24" height="8" viewBox="0 0 24 8" fill="none" xmlns="http://www.w3.org/2000/svg">
<path d="M19.4737 4.14444L0.375 4.12828C0.275544 4.12828 0.180161 4.08675 0.109835 4.01282C0.0395088 3.93889 0 3.83861 0 3.73406C0 3.62951 0.0395088 3.52924 0.109835 3.45531C0.180161 3.38138 0.275544 3.33984 0.375 3.33984L19.4741 3.35601C19.5736 3.35601 19.669 3.39754 19.7393 3.47147C19.8096 3.5454 19.8491 3.64567 19.8491 3.75022C19.8491 3.85478 19.8096 3.95505 19.7393 4.02898C19.669 4.10291 19.5732 4.14444 19.4737 4.14444Z" fill="#1C1C25"/>
<path d="M24.0004 3.75493C21.87 4.58279 19.2263 5.99882 17.5879 7.5L18.8801 3.7502L17.5928 0C19.2296 1.50315 21.8711 2.92234 24.0004 3.75493Z" fill="#1C1C25"/>
</svg>
