<svg width="30" height="30" viewBox="0 0 30 30" fill="none" xmlns="http://www.w3.org/2000/svg">
<circle cx="15" cy="15" r="15" fill="#00B6B3"/>
<path d="M14.2101 22.9998C14.1556 22.9998 14.1018 22.9885 14.0519 22.9664C14.002 22.9444 13.9572 22.9122 13.9202 22.8719L6.10487 14.3412C6.05277 14.2843 6.01824 14.2134 6.00549 14.137C5.99273 14.0606 6.00233 13.9822 6.03308 13.9112C6.06384 13.8402 6.11443 13.7799 6.17866 13.7375C6.24289 13.6951 6.31798 13.6725 6.39473 13.6725H10.1566C10.2131 13.6725 10.2689 13.6847 10.3203 13.7084C10.3717 13.732 10.4175 13.7665 10.4546 13.8095L13.0665 16.8417C13.3488 16.2328 13.8952 15.219 14.8541 13.9836C16.2717 12.1573 18.9085 9.47141 23.4197 7.04674C23.5069 6.99989 23.6084 6.98773 23.704 7.01266C23.7996 7.0376 23.8825 7.09781 23.9363 7.18142C23.9901 7.26503 24.0109 7.36595 23.9946 7.46426C23.9782 7.56257 23.9259 7.65112 23.848 7.71242C23.8308 7.726 22.0914 9.10818 20.0896 11.6399C18.2473 13.9697 15.7982 17.7792 14.5931 22.6973C14.572 22.7837 14.5227 22.8604 14.4533 22.9153C14.3838 22.9702 14.2982 23 14.21 23L14.2101 22.9998Z" fill="white"/>
</svg>
