<svg width="32" height="32" viewBox="0 0 32 32" fill="none" xmlns="http://www.w3.org/2000/svg">
<path d="M30.7242 12.9155L29.0987 11.293C28.9005 11.0954 28.7434 10.8606 28.6363 10.6021C28.5293 10.3436 28.4745 10.0664 28.475 9.7866V7.88575C28.4738 6.72927 28.014 5.62047 27.1964 4.80257C26.3788 3.98468 25.2701 3.52447 24.1136 3.52289H22.2128C21.6489 3.52137 21.1082 3.29785 20.7079 2.90069L19.0839 1.27522C18.2652 0.458598 17.156 0 15.9997 0C14.8433 0 13.7342 0.458598 12.9155 1.27522L11.293 2.90069C10.8922 3.29821 10.3511 3.52222 9.7866 3.52438H7.88426C6.72778 3.52595 5.61914 3.98617 4.80152 4.80406C3.9839 5.62196 3.52407 6.73076 3.52289 7.88724V9.7866C3.52362 10.0663 3.46903 10.3434 3.36224 10.6019C3.25546 10.8605 3.0986 11.0953 2.90069 11.293L1.27522 12.9155C0.458598 13.7342 0 14.8433 0 15.9997C0 17.156 0.458598 18.2652 1.27522 19.0839L2.90069 20.7064C3.09887 20.9039 3.256 21.1387 3.36305 21.3973C3.47009 21.6558 3.52492 21.933 3.52438 22.2128V24.1136C3.52556 25.2701 3.98539 26.3789 4.80301 27.1968C5.62063 28.0147 6.72927 28.4749 7.88575 28.4765H9.7866C10.3507 28.4784 10.8914 28.7025 11.2915 29.1002L12.9155 30.7242C13.734 31.5412 14.8432 32 15.9997 32C17.1562 32 18.2654 31.5412 19.0839 30.7242L20.7064 29.1002C21.1072 28.7027 21.6483 28.4787 22.2128 28.4765H24.1151C25.2716 28.4749 26.3802 28.0147 27.1979 27.1968C28.0155 26.3789 28.4753 25.2701 28.4765 24.1136V22.2128C28.476 21.933 28.5308 21.6558 28.6378 21.3973C28.7449 21.1387 28.902 20.9039 29.1002 20.7064L30.7242 19.0839C31.5408 18.2652 31.9994 17.156 31.9994 15.9997C31.9994 14.8433 31.5408 13.7342 30.7242 12.9155ZM21.2542 13.8086L15.3001 19.7627C15.1966 19.8666 15.0737 19.949 14.9383 20.0052C14.8029 20.0615 14.6578 20.0904 14.5112 20.0904C14.3646 20.0904 14.2194 20.0615 14.084 20.0052C13.9486 19.949 13.8257 19.8666 13.7223 19.7627L10.7452 16.7856C10.548 16.574 10.4406 16.2941 10.4458 16.0049C10.4509 15.7156 10.568 15.4397 10.7726 15.2352C10.9771 15.0306 11.2531 14.9134 11.5423 14.9083C11.8315 14.9032 12.1114 15.0106 12.323 15.2078L14.5112 17.3974L19.6763 12.2337C19.888 12.0365 20.1679 11.9292 20.4571 11.9343C20.7463 11.9394 21.0223 12.0565 21.2268 12.2611C21.4314 12.4656 21.5485 12.7416 21.5536 13.0308C21.5587 13.32 21.4514 13.5999 21.2542 13.8116V13.8086Z" fill="url(#paint0_linear_1766_7015)"/>
<defs>
<linearGradient id="paint0_linear_1766_7015" x1="28.7014" y1="5.9691" x2="-0.26607" y2="16.0225" gradientUnits="userSpaceOnUse">
<stop stop-color="#FF8139"/>
<stop offset="0.311383" stop-color="#FF4646"/>
<stop offset="1" stop-color="#9A5BEB"/>
</linearGradient>
</defs>
</svg>
