<svg width="40" height="40" viewBox="0 0 40 40" fill="none" xmlns="http://www.w3.org/2000/svg">
<g clip-path="url(#clip0_2471_717)">
<path d="M13.6181 39.9997C10.9246 39.9996 8.29164 39.2008 6.05213 37.7042C3.81262 36.2077 2.06717 34.0807 1.03649 31.5922C0.00581726 29.1037 -0.26379 26.3654 0.261763 23.7237C0.787316 21.082 2.08443 18.6554 3.98907 16.7508C5.89371 14.8463 8.32034 13.5493 10.9621 13.0238C13.6039 12.4984 16.3421 12.7681 18.8306 13.7989C21.319 14.8297 23.446 16.5753 24.9424 18.8149C26.4388 21.0544 27.2375 23.6875 27.2375 26.381C27.2334 29.9917 25.7971 33.4534 23.2439 36.0065C20.6906 38.5597 17.2289 39.9957 13.6181 39.9997ZM13.6181 14.4772C11.2636 14.4772 8.96203 15.1754 7.00435 16.4835C5.04667 17.7916 3.52086 19.6508 2.61986 21.8261C1.71887 24.0014 1.48316 26.395 1.94254 28.7042C2.40192 31.0135 3.53577 33.1346 5.20069 34.7995C6.86561 36.4643 8.98682 37.598 11.2961 38.0573C13.6054 38.5166 15.9989 38.2807 18.1742 37.3796C20.3494 36.4785 22.2086 34.9526 23.5166 32.9948C24.8246 31.0371 25.5226 28.7355 25.5225 26.381C25.5189 23.2249 24.2635 20.1992 22.0317 17.9675C19.8 15.7359 16.7742 14.4807 13.6181 14.4772Z" fill="#00B893"/>
<path d="M28.9321 22.1342C28.7047 22.1342 28.4866 22.0439 28.3258 21.8831C28.165 21.7223 28.0746 21.5042 28.0746 21.2767C28.0746 21.0493 28.165 20.8312 28.3258 20.6704C28.4866 20.5096 28.7047 20.4192 28.9321 20.4192C30.7818 20.4192 32.5899 19.8708 34.1278 18.8431C35.6657 17.8155 36.8644 16.3549 37.5722 14.646C38.28 12.9372 38.4651 11.0568 38.1042 9.24268C37.7434 7.42858 36.8526 5.76223 35.5447 4.45437C34.2367 3.14651 32.5703 2.25588 30.7562 1.89511C28.9421 1.53434 27.0617 1.71962 25.3529 2.42754C23.644 3.13546 22.1835 4.33421 21.156 5.8722C20.1285 7.41019 19.5801 9.21834 19.5802 11.068C19.5802 11.2954 19.4899 11.5135 19.3291 11.6743C19.1683 11.8351 18.9502 11.9255 18.7227 11.9255C18.4953 11.9255 18.2772 11.8351 18.1164 11.6743C17.9556 11.5135 17.8652 11.2954 17.8652 11.068C17.8651 8.87915 18.5141 6.73942 19.73 4.9194C20.946 3.09938 22.6744 1.68081 24.6966 0.843088C26.7188 0.005367 28.944 -0.213883 31.0908 0.213064C33.2376 0.640011 35.2096 1.69398 36.7573 3.24168C38.3051 4.78939 39.3592 6.76132 39.7863 8.9081C40.2134 11.0549 39.9942 13.2801 39.1566 15.3023C38.319 17.3246 36.9006 19.053 35.0806 20.2691C33.2606 21.4852 31.121 22.1342 28.9321 22.1342Z" fill="#00B893"/>
<path d="M14.8941 34.8954C14.6668 34.8951 14.4488 34.8047 14.2881 34.6439C14.1274 34.4832 14.0369 34.2653 14.0366 34.0379V32.7617C14.0366 32.6506 13.9925 32.5441 13.9139 32.4656C13.8354 32.3871 13.7289 32.3429 13.6178 32.3429H12.3422C12.2872 32.3429 12.2326 32.3536 12.1818 32.3746C12.1309 32.3957 12.0847 32.4265 12.0457 32.4654C12.0068 32.5043 11.9759 32.5505 11.9548 32.6013C11.9337 32.6522 11.9228 32.7067 11.9228 32.7617V34.0379C11.9259 34.1525 11.906 34.2664 11.8644 34.3731C11.8227 34.4798 11.76 34.5771 11.6801 34.6592C11.6002 34.7413 11.5047 34.8065 11.3991 34.8511C11.2936 34.8956 11.1802 34.9186 11.0656 34.9186C10.9511 34.9186 10.8377 34.8956 10.7322 34.8511C10.6266 34.8065 10.5311 34.7413 10.4512 34.6592C10.3713 34.5771 10.3086 34.4798 10.2669 34.3731C10.2253 34.2664 10.2054 34.1525 10.2085 34.0379V32.7617C10.2085 32.6506 10.1643 32.5441 10.0858 32.4656C10.0073 32.3871 9.90077 32.3429 9.78971 32.3429H8.51346C8.39895 32.346 8.28497 32.3262 8.17827 32.2845C8.07157 32.2428 7.9743 32.1801 7.89221 32.1002C7.81012 32.0203 7.74487 31.9248 7.70032 31.8193C7.65577 31.7137 7.63281 31.6003 7.63281 31.4858C7.63281 31.3712 7.65577 31.2578 7.70032 31.1523C7.74487 31.0467 7.81012 30.9512 7.89221 30.8713C7.9743 30.7914 8.07157 30.7287 8.17827 30.6871C8.28497 30.6454 8.39895 30.6255 8.51346 30.6286H9.78971C9.90077 30.6286 10.0073 30.5845 10.0858 30.5059C10.1643 30.4274 10.2085 30.3209 10.2085 30.2098V22.5529C10.2085 22.4419 10.1643 22.3354 10.0858 22.2568C10.0073 22.1783 9.90077 22.1342 9.78971 22.1342H8.51346C8.28604 22.1342 8.06793 22.0439 7.90712 21.883C7.7463 21.7222 7.65596 21.5041 7.65596 21.2767C7.65596 21.0493 7.7463 20.8312 7.90712 20.6704C8.06793 20.5095 8.28604 20.4192 8.51346 20.4192H9.78971C9.8447 20.4192 9.89915 20.4084 9.94996 20.3873C10.0008 20.3663 10.0469 20.3354 10.0858 20.2966C10.1247 20.2577 10.1555 20.2115 10.1766 20.1607C10.1976 20.1099 10.2085 20.0554 10.2085 20.0004V18.7242C10.2145 18.5009 10.3074 18.2887 10.4675 18.1329C10.6276 17.977 10.8422 17.8898 11.0656 17.8898C11.2891 17.8898 11.5037 17.977 11.6638 18.1329C11.8238 18.2887 11.9168 18.5009 11.9228 18.7242V19.9998C11.9228 20.0549 11.9337 20.1094 11.9548 20.1602C11.9759 20.2111 12.0068 20.2573 12.0457 20.2961C12.0847 20.335 12.1309 20.3659 12.1818 20.3869C12.2326 20.4079 12.2872 20.4187 12.3422 20.4186H13.6178C13.7289 20.4186 13.8354 20.3745 13.9139 20.2959C13.9925 20.2174 14.0366 20.1109 14.0366 19.9998V18.7242C14.0366 18.4968 14.1269 18.2787 14.2877 18.1179C14.4486 17.957 14.6667 17.8667 14.8941 17.8667C15.1215 17.8667 15.3396 17.957 15.5004 18.1179C15.6612 18.2787 15.7516 18.4968 15.7516 18.7242V20.2361C15.7516 20.3225 15.7783 20.4067 15.8281 20.4774C15.8779 20.548 15.9483 20.6014 16.0297 20.6304C16.4988 20.793 16.9262 21.0572 17.2813 21.4041C17.6365 21.751 17.9106 22.172 18.0842 22.6371C18.2578 23.1023 18.3265 23.6 18.2854 24.0947C18.2443 24.5895 18.0945 25.0691 17.8466 25.4992C17.7925 25.5928 17.7768 25.7037 17.8028 25.8086C17.8288 25.9135 17.8944 26.0042 17.986 26.0617C18.6088 26.4562 19.0868 27.0422 19.3482 27.7315C19.6096 28.4209 19.6402 29.1764 19.4356 29.8847C19.2309 30.593 18.802 31.2158 18.2132 31.6595C17.6244 32.1032 16.9076 32.3439 16.1703 32.3454C16.0593 32.3454 15.9528 32.3896 15.8742 32.4681C15.7957 32.5466 15.7516 32.6531 15.7516 32.7642V34.0404C15.7506 34.2673 15.6599 34.4846 15.4992 34.6448C15.3385 34.805 15.121 34.8951 14.8941 34.8954ZM12.3422 27.2386C12.2872 27.2385 12.2326 27.2493 12.1818 27.2703C12.1309 27.2913 12.0847 27.3221 12.0457 27.361C12.0068 27.3999 11.9759 27.4461 11.9548 27.4969C11.9337 27.5478 11.9228 27.6023 11.9228 27.6573V30.2098C11.9228 30.2649 11.9337 30.3194 11.9548 30.3702C11.9759 30.4211 12.0068 30.4673 12.0457 30.5061C12.0847 30.545 12.1309 30.5759 12.1818 30.5969C12.2326 30.6179 12.2872 30.6287 12.3422 30.6286H16.1703C18.4135 30.6286 18.411 27.2386 16.1703 27.2386H12.3422ZM12.3422 22.1342C12.2872 22.1341 12.2326 22.1449 12.1818 22.1659C12.1309 22.1869 12.0847 22.2177 12.0457 22.2566C12.0068 22.2955 11.9759 22.3417 11.9548 22.3926C11.9337 22.4434 11.9228 22.4979 11.9228 22.5529V25.1048C11.9228 25.1599 11.9337 25.2144 11.9548 25.2652C11.9759 25.3161 12.0068 25.3623 12.0457 25.4011C12.0847 25.44 12.1309 25.4709 12.1818 25.4919C12.2326 25.5129 12.2872 25.5237 12.3422 25.5236H14.8941C17.1378 25.5236 17.1347 22.1342 14.8941 22.1342H12.3422Z" fill="#00B893"/>
<path d="M28.0755 17.4488C28.0611 17.3863 28.1461 16.9795 27.7811 16.8657C27.2849 16.7158 26.8291 16.4556 26.4477 16.1046C26.0662 15.7536 25.7691 15.3209 25.5786 14.8388C25.4984 14.6262 25.5059 14.3903 25.5996 14.1832C25.6932 13.9761 25.8653 13.8147 26.078 13.7345C26.2906 13.6542 26.5265 13.6618 26.7336 13.7554C26.9407 13.8491 27.1021 14.0212 27.1823 14.2338C27.3313 14.5608 27.575 14.8354 27.8819 15.0222C28.1888 15.209 28.5448 15.2993 28.9036 15.2813C30.5092 15.2813 31.9398 13.172 28.6186 11.8657C24.3311 10.1782 24.9311 6.33695 27.7967 5.32383C28.1673 5.19195 28.058 4.77945 28.0755 4.68758C28.0755 4.46016 28.1658 4.24205 28.3266 4.08123C28.4874 3.92042 28.7056 3.83008 28.933 3.83008C29.1604 3.83008 29.3785 3.92042 29.5393 4.08123C29.7001 4.24205 29.7905 4.46016 29.7905 4.68758C29.8048 4.75008 29.7199 5.15695 30.0848 5.2707C30.581 5.42057 31.0368 5.68067 31.4182 6.03156C31.7996 6.38244 32.0967 6.81503 32.2873 7.29695C32.3677 7.50971 32.3603 7.74568 32.2667 7.95297C32.1731 8.16025 32.001 8.32187 31.7883 8.40227C31.5755 8.48266 31.3396 8.47524 31.1323 8.38165C30.925 8.28806 30.7634 8.11596 30.683 7.9032C30.0942 6.3407 27.238 6.5432 27.238 8.41383C27.238 10.4138 32.3423 10.3263 32.3423 13.7226C32.3366 14.4113 32.1139 15.0806 31.7058 15.6354C31.2977 16.1902 30.725 16.6021 30.0692 16.8126C29.698 16.9438 29.808 17.357 29.7905 17.4488C29.7905 17.6763 29.7001 17.8944 29.5393 18.0552C29.3785 18.216 29.1604 18.3063 28.933 18.3063C28.7056 18.3063 28.4874 18.216 28.3266 18.0552C28.1658 17.8944 28.0755 17.6763 28.0755 17.4488Z" fill="#00B893"/>
<path d="M26.3188 37.6494C33.2288 37.1494 38.6976 30.5488 38.2601 23.2425C38.2528 23.0193 38.3328 22.802 38.4833 22.6369C38.6337 22.4718 38.8426 22.3719 39.0655 22.3585C39.2885 22.3451 39.5079 22.4191 39.677 22.565C39.8462 22.7108 39.9518 22.9169 39.9713 23.1394C40.4713 31.5038 34.4044 38.78 26.4432 39.36C26.2164 39.3765 25.9923 39.3022 25.8202 39.1535C25.6481 39.0047 25.5422 38.7937 25.5257 38.5669C25.5092 38.34 25.5835 38.1159 25.7322 37.9439C25.881 37.7718 26.092 37.6659 26.3188 37.6494Z" fill="#00B893"/>
<path d="M0.641569 13.5324C1.02239 9.81732 2.76418 6.37447 5.53157 3.86679C7.05361 2.47365 8.85133 1.41579 10.8083 0.761717C12.7652 0.107645 14.8377 -0.128047 16.8916 0.0699102C17.1145 0.0957569 17.3184 0.207977 17.4596 0.382483C17.6007 0.556989 17.6678 0.779869 17.6464 1.00328C17.6251 1.2267 17.517 1.43284 17.3454 1.57745C17.1737 1.72207 16.9522 1.79363 16.7284 1.77679C13.2399 1.45511 9.76617 2.5308 7.0699 4.76772C4.37364 7.00465 2.67512 10.22 2.34719 13.708C2.31966 13.9307 2.20593 14.1338 2.03041 14.2736C1.85489 14.4134 1.63156 14.4788 1.40834 14.4558C1.18513 14.4328 0.979819 14.3233 0.836467 14.1506C0.693115 13.978 0.623144 13.756 0.641569 13.5324Z" fill="#00B893"/>
</g>
<defs>
<clipPath id="clip0_2471_717">
<rect width="40" height="40" fill="white"/>
</clipPath>
</defs>
</svg>
