<svg width="28" height="28" viewBox="0 0 28 28" fill="none" xmlns="http://www.w3.org/2000/svg">
<path d="M22.1667 11.375C23.94 11.375 25.375 9.94 25.375 8.16667V5.83333C25.375 4.06 23.94 2.625 22.1667 2.625H5.83333C4.06 2.625 2.625 4.06 2.625 5.83333V8.16667C2.625 9.94 4.06 11.375 5.83333 11.375H7.29167V13.125H5.83333C4.06 13.125 2.625 14.56 2.625 16.3333V18.6667C2.625 20.44 4.06 21.875 5.83333 21.875H7.29167V23.625H4.66667C4.18833 23.625 3.79167 24.0217 3.79167 24.5C3.79167 24.9783 4.18833 25.375 4.66667 25.375H23.3333C23.8117 25.375 24.2083 24.9783 24.2083 24.5C24.2083 24.0217 23.8117 23.625 23.3333 23.625H9.04167V21.875H22.1667C23.94 21.875 25.375 20.44 25.375 18.6667V16.3333C25.375 14.56 23.94 13.125 22.1667 13.125H9.04167V11.375H22.1667ZM4.375 18.6667V16.3333C4.375 15.5283 5.02833 14.875 5.83333 14.875H17.7917V20.125H5.83333C5.02833 20.125 4.375 19.4717 4.375 18.6667ZM23.625 16.3333V18.6667C23.625 19.4717 22.9717 20.125 22.1667 20.125H19.5417V14.875H22.1667C22.9717 14.875 23.625 15.5283 23.625 16.3333ZM23.625 5.83333V8.16667C23.625 8.97167 22.9717 9.625 22.1667 9.625H19.5417V4.375H22.1667C22.9717 4.375 23.625 5.02833 23.625 5.83333ZM4.375 8.16667V5.83333C4.375 5.02833 5.02833 4.375 5.83333 4.375H17.7917V9.625H5.83333C5.02833 9.625 4.375 8.97167 4.375 8.16667Z" fill="#00B6B3"/>
<path d="M9.04167 7C9.04167 6.52167 8.645 6.125 8.16667 6.125H7C6.52167 6.125 6.125 6.52167 6.125 7C6.125 7.47833 6.52167 7.875 7 7.875H8.16667C8.645 7.875 9.04167 7.47833 9.04167 7Z" fill="#00B6B3"/>
<path d="M9.04167 17.5C9.04167 17.0217 8.645 16.625 8.16667 16.625H7C6.52167 16.625 6.125 17.0217 6.125 17.5C6.125 17.9783 6.52167 18.375 7 18.375H8.16667C8.645 18.375 9.04167 17.9783 9.04167 17.5Z" fill="#00B6B3"/>
</svg>
