<svg width="40" height="40" viewBox="0 0 40 40" fill="none" xmlns="http://www.w3.org/2000/svg">
<path d="M10.3125 20C10.3125 19.5685 9.96273 19.2188 9.53125 19.2188H0.78125C0.349766 19.2188 0 19.5685 0 20C0 20.4314 0.349766 20.7812 0.78125 20.7812H9.53125C9.96273 20.7812 10.3125 20.4314 10.3125 20Z" fill="#00B893"/>
<path d="M8.80859 11.3896H12.4844C12.9159 11.3896 13.2656 11.0399 13.2656 10.6084C13.2656 10.177 12.9159 9.82715 12.4844 9.82715H8.80859C8.37711 9.82715 8.02734 10.177 8.02734 10.6084C8.02734 11.0398 8.37711 11.3896 8.80859 11.3896Z" fill="#00B893"/>
<path d="M12.4844 28.6104H8.80859C8.37711 28.6104 8.02734 28.9602 8.02734 29.3916C8.02734 29.823 8.37711 30.1729 8.80859 30.1729H12.4844C12.9159 30.1729 13.2656 29.823 13.2656 29.3916C13.2656 28.9602 12.9159 28.6104 12.4844 28.6104Z" fill="#00B893"/>
<path d="M25.9375 5.9375C25.2173 5.9375 24.4943 5.99242 23.7884 6.10086C23.3619 6.16633 23.0692 6.56508 23.1348 6.99156C23.2002 7.41805 23.599 7.71102 24.0255 7.64516C24.3981 7.58797 24.7763 7.54789 25.1562 7.52453V9.0907C22.7272 9.26297 20.5145 10.2315 18.7792 11.7369L17.6693 10.627C17.9627 10.3674 18.269 10.1201 18.5886 9.88742C18.9374 9.63344 19.0143 9.14477 18.7604 8.79594C18.5064 8.44719 18.0178 8.37023 17.669 8.62414C15.9131 9.9025 14.4563 11.5942 13.4558 13.5165C13.2846 13.8454 13.1281 14.1818 12.984 14.5235H4.16797C3.73648 14.5235 3.38672 14.8733 3.38672 15.3048C3.38672 15.7362 3.73648 16.086 4.16797 16.086H12.4313C12.0654 17.3536 11.875 18.6744 11.875 20C11.875 21.3578 12.0691 22.671 12.4298 23.9141H4.16797C3.73648 23.9141 3.38672 24.2638 3.38672 24.6953C3.38672 25.1267 3.73648 25.4766 4.16797 25.4766H12.9854C15.125 30.5177 20.125 34.0625 25.9375 34.0625C33.6916 34.0625 40 27.7541 40 20C40 12.2459 33.6916 5.9375 25.9375 5.9375ZM15.0282 19.2188H13.4627C13.6385 16.4409 14.7459 13.8041 16.5665 11.7338L17.6744 12.8417C16.169 14.577 15.2005 16.7897 15.0282 19.2188ZM15.0282 20.7812C15.2005 23.2103 16.169 25.423 17.6743 27.1583L16.568 28.2645C14.7824 26.2426 13.6398 23.6406 13.4626 20.7812H15.0282ZM18.7792 28.2632C20.5145 29.7685 22.7272 30.737 25.1562 30.9094V32.4749C22.2969 32.2977 19.6949 31.1552 17.673 29.3695L18.7792 28.2632ZM26.7188 30.9093C29.1478 30.737 31.3605 29.7684 33.0958 28.2631L34.202 29.3694C32.1801 31.155 29.5782 32.2976 26.7188 32.4748V30.9093ZM34.2007 27.1583C35.706 25.423 36.6745 23.2103 36.8468 20.7812H38.4123C38.2352 23.6407 37.0925 26.2426 35.3069 28.2645L34.2007 27.1583ZM36.8468 19.2188C36.6745 16.7897 35.706 14.577 34.2007 12.8417L35.307 11.7355C37.0926 13.7574 38.2352 16.3594 38.4124 19.2188H36.8468ZM33.0958 11.7368C31.3605 10.2315 29.1478 9.26297 26.7188 9.09063V7.52516C29.5782 7.70242 32.1801 8.845 34.202 10.6306L33.0958 11.7368ZM25.9375 10.625C31.1069 10.625 35.3125 14.8306 35.3125 20C35.3125 25.1694 31.1069 29.375 25.9375 29.375C20.7681 29.375 16.5625 25.1694 16.5625 20C16.5625 14.8306 20.7681 10.625 25.9375 10.625Z" fill="#00B893"/>
<path d="M25.6322 20.7238C26.9281 21.3352 27.5389 21.6986 27.5413 22.385C27.5413 23.2543 26.807 23.9887 25.9377 23.9887C25.4041 23.9887 24.9069 23.7244 24.6076 23.2817C24.3659 22.9241 23.8801 22.8304 23.5228 23.072C23.1654 23.3137 23.0715 23.7994 23.3131 24.1568C23.7538 24.8088 24.4126 25.2641 25.1564 25.4533V25.8594C25.1564 26.2908 25.5063 26.6406 25.9377 26.6406C26.3691 26.6406 26.7189 26.2908 26.7189 25.8594V25.4534C28.0881 25.1045 29.1038 23.8608 29.1038 22.3823C29.0979 20.6312 27.546 19.899 26.299 19.3106C25.0962 18.7431 24.3621 18.3441 24.3341 17.6035C24.3402 16.7245 25.0573 16.0113 25.9377 16.0113C26.4713 16.0113 26.9684 16.2756 27.2677 16.7183C27.5095 17.0759 27.9954 17.1696 28.3525 16.928C28.7099 16.6863 28.8038 16.2006 28.5622 15.8432C28.1214 15.1913 27.4627 14.7359 26.7189 14.5467V14.1406C26.7189 13.7091 26.3691 13.3594 25.9377 13.3594C25.5063 13.3594 25.1564 13.7091 25.1564 14.1406V14.5466C23.7872 14.8955 22.7715 16.1388 22.7715 17.6151C22.7715 17.6225 22.7716 17.6299 22.7718 17.6373C22.822 19.3979 24.3802 20.133 25.6322 20.7238Z" fill="#00B893"/>
<path d="M20.875 8.49902C21.3065 8.49902 21.6562 8.14925 21.6562 7.71777C21.6562 7.2863 21.3065 6.93652 20.875 6.93652C20.4435 6.93652 20.0938 7.2863 20.0938 7.71777C20.0938 8.14925 20.4435 8.49902 20.875 8.49902Z" fill="#00B893"/>
</svg>
