<svg width="40" height="40" viewBox="0 0 40 40" fill="none" xmlns="http://www.w3.org/2000/svg">
<path d="M19.9985 15.624C17.9047 15.624 16.2012 17.3254 16.2012 19.4167C16.2012 21.5081 17.9047 23.2095 19.9985 23.2095C22.0923 23.2095 23.7958 21.5081 23.7958 19.4167C23.7958 17.3254 22.0923 15.624 19.9985 15.624ZM19.9985 22.0388C18.5507 22.0388 17.373 20.8624 17.373 19.4167C17.373 17.9708 18.5507 16.7944 19.9985 16.7944C21.4462 16.7944 22.6239 17.9708 22.6239 19.4167C22.6239 20.8624 21.4462 22.0388 19.9985 22.0388Z" fill="#00B893"/>
<path d="M26.9109 14.2081L25.2138 12.5131C25.0075 12.3071 24.6807 12.2839 24.4475 12.4591L23.1691 13.4186C22.7965 13.2217 22.4065 13.0606 22.0037 12.9364L21.7791 11.3553C21.7382 11.0666 21.4907 10.8521 21.1989 10.8521H18.799C18.507 10.8521 18.2598 11.0666 18.2186 11.3553L17.994 12.9364C17.5911 13.0606 17.2014 13.2217 16.8288 13.4186L15.5504 12.4591C15.317 12.2839 14.9904 12.3071 14.7838 12.5131L13.087 14.2081C12.8807 14.4144 12.8575 14.7406 13.0327 14.9735L13.9934 16.2506C13.7966 16.6226 13.6348 17.012 13.5106 17.4142L11.9274 17.6389C11.6384 17.6797 11.4238 17.9269 11.4238 18.2184V20.6152C11.4238 20.9067 11.6384 21.1539 11.9274 21.1948L13.5106 21.4194C13.6348 21.8216 13.7963 22.211 13.9934 22.583L13.0327 23.8602C12.8575 24.093 12.8807 24.4193 13.087 24.6256L14.7838 26.3205C14.9904 26.5265 15.317 26.5494 15.5504 26.3745L16.8288 25.415C17.2014 25.6116 17.5911 25.773 17.994 25.8972L18.2186 27.4783C18.2598 27.767 18.507 27.9813 18.799 27.9813H21.1989C21.4907 27.9813 21.7379 27.767 21.7791 27.4783L22.0037 25.8972C22.4065 25.773 22.7965 25.6116 23.1691 25.415L24.4475 26.3745C24.6807 26.5497 25.0075 26.5265 25.2138 26.3205L26.9109 24.6256C27.1172 24.4193 27.1401 24.093 26.9649 23.8602L26.0042 22.583C26.2014 22.211 26.3628 21.8216 26.487 21.4194L28.0703 21.1948C28.3593 21.1539 28.5741 20.9067 28.5741 20.6152V18.2184C28.5741 17.9269 28.3593 17.6797 28.0703 17.6389L26.487 17.4142C26.3628 17.012 26.2014 16.6226 26.0042 16.2506L26.9649 14.9735C27.1401 14.7406 27.1172 14.4144 26.9109 14.2081ZM27.4022 18.7262V20.1071L25.9426 20.3143C25.7054 20.3479 25.5126 20.5222 25.4555 20.7547C25.32 21.3089 25.1009 21.8372 24.8046 22.3245C24.6801 22.529 24.6929 22.7884 24.8369 22.9797L25.7225 24.1571L24.7448 25.1334L23.5662 24.249C23.3745 24.1052 23.1148 24.0921 22.91 24.2166C22.4221 24.5123 21.8932 24.7311 21.3381 24.8669C21.1055 24.9237 20.931 25.1163 20.8971 25.3531L20.6902 26.8109H19.3074L19.1002 25.3531C19.0667 25.1163 18.8918 24.9237 18.6592 24.8669C18.1041 24.7311 17.5756 24.5123 17.0876 24.2166C16.8828 24.0921 16.6231 24.1052 16.4315 24.249L15.2529 25.1334L14.2751 24.1568L15.1607 22.9797C15.3044 22.7884 15.3173 22.529 15.1931 22.3245C14.8967 21.8372 14.6776 21.3089 14.5418 20.7544C14.485 20.5222 14.2922 20.3476 14.0551 20.314L12.5954 20.1071V18.7262L14.0551 18.5193C14.2922 18.4857 14.485 18.3112 14.5418 18.0789C14.6776 17.5244 14.8967 16.9965 15.1931 16.5091C15.3173 16.3043 15.3044 16.0449 15.1607 15.8539L14.2751 14.6765L15.2529 13.7L16.4315 14.5847C16.6231 14.7281 16.8828 14.7412 17.0876 14.617C17.5756 14.321 18.1041 14.1022 18.6592 13.9667C18.8918 13.9096 19.0663 13.7173 19.1002 13.4802L19.3074 12.0224H20.6902L20.8971 13.4802C20.931 13.717 21.1055 13.9096 21.3381 13.9667C21.8932 14.1022 22.4221 14.321 22.91 14.617C23.1148 14.7412 23.3745 14.7281 23.5662 14.5847L24.7448 13.7L25.7225 14.6765L24.8369 15.8539C24.6929 16.0449 24.6801 16.3046 24.8046 16.5091C25.1009 16.9965 25.3197 17.5244 25.4555 18.0786C25.5123 18.3112 25.7051 18.4857 25.9423 18.5193L27.4022 18.7262Z" fill="#00B893"/>
<path d="M20 4.60266C20.3238 4.60266 20.5859 4.34082 20.5859 4.01764V0.585327C20.5859 0.261841 20.3238 0 20 0C19.6765 0 19.4141 0.261841 19.4141 0.585327V4.01764C19.4141 4.34082 19.6765 4.60266 20 4.60266Z" fill="#00B893"/>
<path d="M37.5381 17.5166H34.1016C33.7778 17.5166 33.5156 17.7784 33.5156 18.1016C33.5156 18.4251 33.7778 18.687 34.1016 18.687H37.5381C37.8616 18.687 38.1241 18.4251 38.1241 18.1016C38.1241 17.7784 37.8616 17.5166 37.5381 17.5166Z" fill="#00B893"/>
<path d="M5.89752 17.5166H2.46094C2.13745 17.5166 1.875 17.7784 1.875 18.1016C1.875 18.4251 2.13745 18.687 2.46094 18.687H5.89752C6.22101 18.687 6.48346 18.4251 6.48346 18.1016C6.48346 17.7784 6.22131 17.5166 5.89752 17.5166Z" fill="#00B893"/>
<path d="M9.61327 8.55627C9.8391 8.7818 10.2163 8.7818 10.4418 8.55627C10.6707 8.3277 10.6707 7.95721 10.4418 7.72864L8.01201 5.30157C7.78313 5.0733 7.41203 5.0733 7.18315 5.30157C6.95457 5.53015 6.95457 5.90063 7.18315 6.12952L9.61327 8.55627Z" fill="#00B893"/>
<path d="M7.08298 12.4193L5.89554 11.9545C5.59402 11.8367 5.25436 11.985 5.13626 12.2859C5.01816 12.5868 5.16678 12.9265 5.46799 13.0443L6.65573 13.5091C6.95328 13.6253 7.29843 13.4746 7.41501 13.1776C7.53311 12.8764 7.38449 12.5371 7.08298 12.4193Z" fill="#00B893"/>
<path d="M14.3084 5.20193C14.425 5.49887 14.7702 5.64962 15.0677 5.53335C15.3689 5.41555 15.5175 5.07589 15.3997 4.77499L14.9206 3.55429C14.8028 3.25308 14.4629 3.10476 14.1613 3.22256C13.8601 3.34066 13.7115 3.68002 13.8296 3.98092L14.3084 5.20193Z" fill="#00B893"/>
<path d="M24.9289 5.53323C25.2265 5.6495 25.5716 5.49874 25.6882 5.20181L26.1673 3.98111C26.2851 3.6799 26.1368 3.34054 25.8353 3.22244C25.5341 3.10495 25.1941 3.25296 25.076 3.55386L24.5972 4.77487C24.4791 5.07577 24.6277 5.41513 24.9289 5.53323Z" fill="#00B893"/>
<path d="M29.9709 8.72778C30.1207 8.72778 30.2708 8.67072 30.3853 8.55627L32.8151 6.12952C33.044 5.90063 33.044 5.53015 32.8151 5.30157C32.5862 5.0733 32.2154 5.0733 31.9865 5.30157L29.5564 7.72864C29.3275 7.95721 29.3275 8.3277 29.5564 8.55627C29.6709 8.67072 29.821 8.72778 29.9709 8.72778Z" fill="#00B893"/>
<path d="M34.8623 12.286C34.7442 11.9847 34.4042 11.8367 34.103 11.9545L32.9153 12.4193C32.614 12.5371 32.4654 12.8765 32.5835 13.1777C32.7001 13.4746 33.0453 13.6254 33.3428 13.5091L34.5305 13.0443C34.8318 12.9265 34.9804 12.5869 34.8623 12.286Z" fill="#00B893"/>
<path d="M20.1055 6.02731C17.6644 6.00655 15.2822 6.70175 13.2211 8.03689C12.9495 8.21298 12.8723 8.57522 13.0483 8.84652C13.2241 9.11752 13.5873 9.19473 13.8586 9.01895C15.7003 7.82632 17.8219 7.19735 20.0015 7.19735C20.0329 7.19735 20.0646 7.19735 20.0961 7.19766C23.113 7.22299 25.9454 8.41531 28.0715 10.5558C30.1989 12.6972 31.3705 15.5381 31.3705 18.5551C31.3705 22.2447 29.5648 25.7179 26.5399 27.8462C25.5419 28.5481 24.8895 29.6235 24.7256 30.7993H22.7212C22.3974 30.7993 22.1353 31.0615 22.1353 31.3847C22.1353 31.7078 22.3974 31.97 22.7212 31.97H24.685V34.9711C24.685 35.7127 24.0807 36.316 23.3383 36.316H16.6592C15.9167 36.316 15.3124 35.7127 15.3124 34.9711V31.97H20.3774C20.7012 31.97 20.9634 31.7078 20.9634 31.3847C20.9634 31.0615 20.7012 30.7993 20.3774 30.7993H15.2709C15.1092 29.622 14.4662 28.5523 13.4802 27.862C10.4412 25.7349 8.62695 22.2559 8.62695 18.5554C8.62695 15.4734 9.86353 12.5807 12.1093 10.4099C12.3419 10.185 12.348 9.81454 12.1227 9.5823C11.8978 9.35006 11.527 9.34396 11.2942 9.56887C8.8186 11.9621 7.45508 15.1536 7.45508 18.5554C7.45508 22.6371 9.45612 26.4747 12.8076 28.8206C13.6422 29.4047 14.1406 30.3632 14.1406 31.3847V34.9711C14.1406 36.1875 15.0097 37.205 16.1602 37.4366C16.7968 38.9845 18.294 39.9998 19.9987 39.9998C21.7034 39.9998 23.2006 38.9845 23.8369 37.4366C24.9874 37.205 25.8566 36.1875 25.8566 34.9711V31.3862C25.8566 31.3856 25.8569 31.3853 25.8569 31.3847C25.8569 30.3663 26.3644 29.4013 27.2149 28.8029C30.5505 26.4558 32.5421 22.6249 32.5421 18.5554C32.5421 15.2274 31.2499 12.0939 28.9034 9.73153C26.5582 7.37069 23.4338 6.05508 20.1055 6.02731ZM19.9987 38.8294C18.9681 38.8294 18.0432 38.3128 17.5039 37.4864H22.4935C21.9543 38.3128 21.0293 38.8294 19.9987 38.8294Z" fill="#00B893"/>
</svg>
