<svg width="28" height="28" viewBox="0 0 28 28" fill="none" xmlns="http://www.w3.org/2000/svg">
<path d="M24.0337 14.5247C24.267 14.2097 24.267 13.7897 24.0337 13.4747C20.452 8.70301 15.0503 8.45801 14.0003 8.45801C8.02699 8.45801 4.59699 12.6347 3.96699 13.4747C3.73366 13.7897 3.73366 14.2097 3.96699 14.5247C7.54866 19.2963 12.9503 19.5413 14.0003 19.5413C19.9737 19.5413 23.4037 15.3647 24.0337 14.5247ZM14.0003 17.7913C13.4753 17.7913 8.94866 17.6863 5.79866 14.0113C6.84866 12.833 9.68366 10.208 14.0003 10.208C14.5253 10.208 19.052 10.313 22.202 13.988C21.152 15.1663 18.317 17.7913 14.0003 17.7913Z" fill="#00B6B3"/>
<path d="M3.5 9.04167C3.97833 9.04167 4.375 8.645 4.375 8.16667V4.66667C4.375 4.50333 4.50333 4.375 4.66667 4.375H8.16667C8.645 4.375 9.04167 3.97833 9.04167 3.5C9.04167 3.02167 8.645 2.625 8.16667 2.625H4.66667C3.54667 2.625 2.625 3.54667 2.625 4.66667V8.16667C2.625 8.645 3.02167 9.04167 3.5 9.04167Z" fill="#00B6B3"/>
<path d="M23.333 2.625H19.833C19.3547 2.625 18.958 3.02167 18.958 3.5C18.958 3.97833 19.3547 4.375 19.833 4.375H23.333C23.4963 4.375 23.6247 4.50333 23.6247 4.66667V8.16667C23.6247 8.645 24.0213 9.04167 24.4997 9.04167C24.978 9.04167 25.3747 8.645 25.3747 8.16667V4.66667C25.3747 3.54667 24.453 2.625 23.333 2.625Z" fill="#00B6B3"/>
<path d="M8.16667 23.6247H4.66667C4.50333 23.6247 4.375 23.4963 4.375 23.333V19.833C4.375 19.3547 3.97833 18.958 3.5 18.958C3.02167 18.958 2.625 19.3547 2.625 19.833V23.333C2.625 24.453 3.54667 25.3747 4.66667 25.3747H8.16667C8.645 25.3747 9.04167 24.978 9.04167 24.4997C9.04167 24.0213 8.645 23.6247 8.16667 23.6247Z" fill="#00B6B3"/>
<path d="M24.4997 18.958C24.0213 18.958 23.6247 19.3547 23.6247 19.833V23.333C23.6247 23.4963 23.4963 23.6247 23.333 23.6247H19.833C19.3547 23.6247 18.958 24.0213 18.958 24.4997C18.958 24.978 19.3547 25.3747 19.833 25.3747H23.333C24.453 25.3747 25.3747 24.453 25.3747 23.333V19.833C25.3747 19.3547 24.978 18.958 24.4997 18.958Z" fill="#00B6B3"/>
<path d="M14 11.375C12.5533 11.375 11.375 12.5533 11.375 14C11.375 15.4467 12.5533 16.625 14 16.625C15.4467 16.625 16.625 15.4467 16.625 14C16.625 12.5533 15.4467 11.375 14 11.375ZM14 14.875C13.5217 14.875 13.125 14.4783 13.125 14C13.125 13.5217 13.5217 13.125 14 13.125C14.4783 13.125 14.875 13.5217 14.875 14C14.875 14.4783 14.4783 14.875 14 14.875Z" fill="#00B6B3"/>
</svg>
