<svg width="28" height="28" viewBox="0 0 28 28" fill="none" xmlns="http://www.w3.org/2000/svg">
<path d="M24.6402 19.8103C24.2319 18.5736 23.0069 17.8386 21.7235 18.0486L17.9785 18.6669C16.9169 18.8419 15.8435 18.8069 14.8052 18.5386L13.3819 18.1769C12.8919 18.0603 12.5535 17.6169 12.5535 17.1153C12.5535 16.5086 13.0435 16.0303 13.6385 16.0303H14.5952C16.0419 16.0303 17.2202 14.8519 17.2202 13.4053C17.2202 11.9586 16.0419 10.7803 14.5952 10.7803H11.0135C9.78853 10.7803 8.59853 11.0136 7.46686 11.4686L3.18519 13.1836C2.74186 13.3586 2.52019 13.8719 2.69519 14.3153C2.87019 14.7586 3.38353 14.9803 3.82686 14.8053L8.10853 13.0903C9.03019 12.7169 10.0102 12.5303 11.0019 12.5303H14.5835C15.0619 12.5303 15.4585 12.9269 15.4585 13.4053C15.4585 13.8836 15.0619 14.2803 14.5835 14.2803H13.6269C12.0635 14.2803 10.7919 15.5519 10.7919 17.1153C10.7919 18.4219 11.6785 19.5536 12.9385 19.8686L14.3619 20.2303C15.6452 20.5453 16.9519 20.6036 18.2469 20.3819L21.9919 19.7636C22.4352 19.6936 22.8319 19.9386 22.9719 20.3469L23.0419 20.5453C23.1235 20.7903 23.1002 21.0469 22.9719 21.2569C22.8435 21.4669 22.6335 21.6303 22.3885 21.6769L14.5835 23.2403C13.4635 23.4619 12.2735 23.4386 11.1652 23.1586L3.72186 21.3036C3.25519 21.1869 2.77686 21.4669 2.66019 21.9453C2.54353 22.4236 2.82353 22.8903 3.30186 23.0069L10.7452 24.8619C11.5035 25.0486 12.2852 25.1419 13.0669 25.1419C13.6969 25.1419 14.3269 25.0836 14.9335 24.9553L22.7385 23.3919C23.4735 23.2403 24.1152 22.7853 24.4885 22.1319C24.8619 21.4786 24.9435 20.6969 24.7102 19.9853L24.6402 19.7869V19.8103Z" fill="#00B6B3"/>
<path d="M8.57557 8.96C9.0189 9.17 9.53224 8.98333 9.74224 8.54C10.9439 6.00833 13.5339 4.375 16.3339 4.375C20.3589 4.375 23.6256 7.64167 23.6256 11.6667C23.6256 12.7633 23.3922 13.8133 22.9256 14.7933C22.7156 15.225 22.9022 15.75 23.3339 15.96C23.4506 16.0183 23.5789 16.0417 23.7072 16.0417C24.0339 16.0417 24.3489 15.855 24.5006 15.54C25.0839 14.3267 25.3756 13.02 25.3756 11.6667C25.3756 6.685 21.3156 2.625 16.3339 2.625C12.8572 2.625 9.6489 4.655 8.16723 7.79333C7.95723 8.225 8.1439 8.75 8.58723 8.96H8.57557Z" fill="#00B6B3"/>
</svg>
