<svg width="60" height="60" viewBox="0 0 60 60" fill="none" xmlns="http://www.w3.org/2000/svg">
<path d="M55.701 23.0492C54.1574 21.5057 53.9157 19.0685 55.1279 17.2521L55.9354 16.04C56.4316 15.2966 56.3327 14.306 55.701 13.6742L46.326 4.29925C45.6925 3.6657 44.7019 3.56682 43.9603 4.06487L42.7481 4.87237C40.9665 6.06072 38.4616 5.80987 36.951 4.29925C36.2186 3.56682 35.0321 3.56682 34.2997 4.29925L30.275 8.3239L31.6007 9.64959C31.9669 10.0158 31.9669 10.6091 31.6007 10.9753C31.4176 11.1584 31.1777 11.2499 30.9378 11.2499C30.698 11.2499 30.4581 11.1584 30.275 10.9753L28.9493 9.64959L26.1338 12.4651C26.2026 12.9891 26.2503 13.5196 26.2503 14.0624C26.2503 20.7934 20.7938 26.2499 14.0628 26.2499C13.52 26.2499 12.9895 26.2022 12.4655 26.1334L4.29965 34.2992C3.56723 35.0317 3.56723 36.2182 4.29965 36.9506C5.84232 38.4942 6.08402 40.9313 4.87369 42.7477L4.06528 43.9599C3.56906 44.7033 3.66702 45.6939 4.29965 46.3256L13.6747 55.7006C14.0372 56.0632 14.5169 56.2499 15.0013 56.2499C15.3611 56.2499 15.7227 56.1474 16.0395 55.935L17.2534 55.1275C19.0351 53.9391 21.5399 54.1918 23.0497 55.7006C23.7821 56.433 24.9686 56.433 25.701 55.7006L50.3507 31.051L49.025 29.7253C48.6588 29.3591 48.6588 28.7658 49.025 28.3996C49.3912 28.0334 49.9845 28.0334 50.3507 28.3996L51.6764 29.7253L55.701 25.7006C56.4334 24.9682 56.4334 23.7817 55.701 23.0492ZM34.025 13.3996C34.3912 13.0334 34.9845 13.0334 35.3507 13.3996L39.1007 17.1496C39.4669 17.5158 39.4669 18.1091 39.1007 18.4753C38.9176 18.6584 38.6777 18.7499 38.4378 18.7499C38.198 18.7499 37.9581 18.6584 37.775 18.4753L34.025 14.7253C33.6588 14.3591 33.6588 13.7658 34.025 13.3996ZM40.707 30.4239L22.9243 48.2066C22.1998 48.931 21.0253 48.931 20.3008 48.2066L11.7937 39.6995C11.0692 38.975 11.0692 37.8003 11.7937 37.0759L29.5763 19.2933C30.3009 18.5688 31.4754 18.5688 32.1999 19.2933L40.707 27.8004C41.4315 28.5248 41.4315 29.6994 40.707 30.4239ZM46.6007 25.9753C46.4176 26.1584 46.1777 26.2499 45.9378 26.2499C45.698 26.2499 45.4581 26.1584 45.275 25.9753L41.525 22.2253C41.1588 21.8591 41.1588 21.2658 41.525 20.8996C41.8912 20.5334 42.4845 20.5334 42.8507 20.8996L46.6007 24.6496C46.9669 25.0158 46.9669 25.6091 46.6007 25.9753Z" fill="#3E66F3"/>
<path d="M13.1191 38.3735L30.9023 20.6196L39.381 29.1267L21.6125 46.866L13.1191 38.3735Z" fill="#3E66F3"/>
<path d="M14.0625 3.75C8.37582 3.75 3.75 8.37582 3.75 14.0625C3.75 19.7491 8.37582 24.375 14.0625 24.375C19.7492 24.375 24.375 19.7491 24.375 14.0625C24.375 8.37582 19.7492 3.75 14.0625 3.75ZM20.3503 10.9753L12.8503 18.4753C12.6672 18.6584 12.4274 18.75 12.1875 18.75C11.9476 18.75 11.7078 18.6584 11.5247 18.4753L7.77466 14.7253C7.40845 14.3591 7.40845 13.7659 7.77466 13.3997C8.14087 13.0334 8.73413 13.0334 9.10034 13.3997L12.1875 16.4868L19.0247 9.64966C19.3909 9.28345 19.9841 9.28345 20.3503 9.64966C20.7166 10.0159 20.7166 10.6091 20.3503 10.9753Z" fill="#3E66F3"/>
</svg>
