<svg width="60" height="60" viewBox="0 0 60 60" fill="none" xmlns="http://www.w3.org/2000/svg">
<g clip-path="url(#clip0_2402_70248)">
<path fill-rule="evenodd" clip-rule="evenodd" d="M16.875 4.6875H14.0625C11.5781 4.6875 9.18755 5.67561 7.43443 7.43342C5.67193 9.19124 4.6875 11.5763 4.6875 14.0625V16.875H1.875C0.84375 16.875 0 17.715 0 18.75C0 19.785 0.84375 20.625 1.875 20.625H4.6875V24.375H1.875C0.84375 24.375 0 25.215 0 26.25C0 27.285 0.84375 28.125 1.875 28.125H4.6875V31.875H1.875C0.84375 31.875 0 32.715 0 33.75C0 34.785 0.84375 35.625 1.875 35.625H4.6875V39.375H1.875C0.84375 39.375 0 40.215 0 41.25C0 42.285 0.84375 43.125 1.875 43.125H4.6875V45.9375C4.6875 48.4238 5.67193 50.8088 7.43443 52.5666C9.18755 54.3244 11.5781 55.3125 14.0625 55.3125H16.875V58.125C16.875 59.16 17.7188 60 18.75 60C19.7812 60 20.625 59.16 20.625 58.125V55.3125H24.375V58.125C24.375 59.16 25.2188 60 26.25 60C27.2812 60 28.125 59.16 28.125 58.125V55.3125H31.875V58.125C31.875 59.16 32.7188 60 33.75 60C34.7812 60 35.625 59.16 35.625 58.125V55.3125H39.375V58.125C39.375 59.16 40.2188 60 41.25 60C42.2812 60 43.125 59.16 43.125 58.125V55.3125H45.9375C48.4219 55.3125 50.8125 54.3244 52.5656 52.5666C54.3281 50.8088 55.3125 48.4238 55.3125 45.9375V43.125H58.125C59.1562 43.125 60 42.285 60 41.25C60 40.215 59.1562 39.375 58.125 39.375H55.3125V35.625H58.125C59.1562 35.625 60 34.785 60 33.75C60 32.715 59.1562 31.875 58.125 31.875H55.3125V28.125H58.125C59.1562 28.125 60 27.285 60 26.25C60 25.215 59.1562 24.375 58.125 24.375H55.3125V20.625H58.125C59.1562 20.625 60 19.785 60 18.75C60 17.715 59.1562 16.875 58.125 16.875H55.3125V14.0625C55.3125 11.5763 54.3281 9.19124 52.5656 7.43342C50.8125 5.67561 48.4219 4.6875 45.9375 4.6875H43.125V1.875C43.125 0.84 42.2812 0 41.25 0C40.2188 0 39.375 0.84 39.375 1.875V4.6875H35.625V1.875C35.625 0.84 34.7812 0 33.75 0C32.7188 0 31.875 0.84 31.875 1.875V4.6875H28.125V1.875C28.125 0.84 27.2812 0 26.25 0C25.2188 0 24.375 0.84 24.375 1.875V4.6875H20.625V1.875C20.625 0.84 19.7812 0 18.75 0C17.7188 0 16.875 0.84 16.875 1.875V4.6875ZM51.5625 14.0625V45.9375C51.5625 47.4291 50.9719 48.8597 49.9125 49.9153C48.8625 50.97 47.4281 51.5625 45.9375 51.5625H14.0625C12.5719 51.5625 11.1375 50.97 10.0875 49.9153C9.02813 48.8597 8.4375 47.4291 8.4375 45.9375V14.0625C8.4375 12.5709 9.02813 11.1403 10.0875 10.0847C11.1375 9.02999 12.5719 8.4375 14.0625 8.4375H45.9375C47.4281 8.4375 48.8625 9.02999 49.9125 10.0847C50.9719 11.1403 51.5625 12.5709 51.5625 14.0625ZM49.6875 14.0625C49.6875 13.0678 49.2937 12.1144 48.5906 11.4112C47.8875 10.7072 46.9313 10.3125 45.9375 10.3125C39.7781 10.3125 20.2219 10.3125 14.0625 10.3125C13.0688 10.3125 12.1125 10.7072 11.4094 11.4112C10.7063 12.1144 10.3125 13.0678 10.3125 14.0625V45.9375C10.3125 46.9322 10.7063 47.8856 11.4094 48.5888C12.1125 49.2928 13.0688 49.6875 14.0625 49.6875H45.9375C46.9313 49.6875 47.8875 49.2928 48.5906 48.5888C49.2937 47.8856 49.6875 46.9322 49.6875 45.9375V14.0625ZM32.8125 38.4375V24.375C32.8125 20.7506 29.8781 17.8125 26.25 17.8125C22.6219 17.8125 19.6875 20.7506 19.6875 24.375V38.4375C19.6875 39.4725 20.5312 40.3125 21.5625 40.3125C22.5938 40.3125 23.4375 39.4725 23.4375 38.4375V33.75H29.0625V38.4375C29.0625 39.4725 29.9062 40.3125 30.9375 40.3125C31.9688 40.3125 32.8125 39.4725 32.8125 38.4375ZM36.5625 19.6875V38.4375C36.5625 39.4725 37.4062 40.3125 38.4375 40.3125C39.4688 40.3125 40.3125 39.4725 40.3125 38.4375V19.6875C40.3125 18.6525 39.4688 17.8125 38.4375 17.8125C37.4062 17.8125 36.5625 18.6525 36.5625 19.6875ZM23.4375 30H29.0625V24.375C29.0625 22.8216 27.8062 21.5625 26.25 21.5625C24.6938 21.5625 23.4375 22.8216 23.4375 24.375V30Z" fill="#3E66F3"/>
</g>
<defs>
<clipPath id="clip0_2402_70248">
<rect width="60" height="60" fill="white"/>
</clipPath>
</defs>
</svg>
