<svg width="44" height="44" viewBox="0 0 44 44" fill="none" xmlns="http://www.w3.org/2000/svg">
<path d="M17.416 25.2083C17.416 26.9866 18.791 28.4166 20.4777 28.4166H23.9243C25.391 28.4166 26.5827 27.1699 26.5827 25.6116C26.5827 23.9433 25.8494 23.3383 24.7677 22.9533L19.2493 21.0283C18.1677 20.6433 17.4344 20.0566 17.4344 18.3699C17.4344 16.8299 18.626 15.5649 20.0927 15.5649H23.5393C25.226 15.5649 26.601 16.9949 26.601 18.7733" stroke="white" stroke-width="3" stroke-linecap="round" stroke-linejoin="round"/>
<path d="M22 13.75V30.25" stroke="white" stroke-width="3" stroke-linecap="round" stroke-linejoin="round"/>
<path d="M40.3327 21.9998C40.3327 32.1198 32.1193 40.3332 21.9993 40.3332C11.8793 40.3332 3.66602 32.1198 3.66602 21.9998C3.66602 11.8798 11.8793 3.6665 21.9993 3.6665" stroke="white" stroke-width="3" stroke-linecap="round" stroke-linejoin="round"/>
<path d="M40.3333 10.9998V3.6665H33" stroke="white" stroke-width="3" stroke-linecap="round" stroke-linejoin="round"/>
<path d="M31.166 12.8332L40.3327 3.6665" stroke="white" stroke-width="3" stroke-linecap="round" stroke-linejoin="round"/>
</svg>
