<svg width="60" height="60" viewBox="0 0 60 60" fill="none" xmlns="http://www.w3.org/2000/svg">
<path d="M36.8905 5.7157L38.5183 2.90098C38.631 2.70621 38.8164 2.56418 39.0338 2.50613C39.2511 2.44808 39.4827 2.47876 39.6774 2.59143C39.8722 2.70409 40.0142 2.88951 40.0723 3.1069C40.1303 3.32428 40.0997 3.55582 39.987 3.75059L38.3593 6.56531C38.3035 6.66175 38.2292 6.74625 38.1408 6.814C38.0523 6.88175 37.9514 6.93141 37.8438 6.96016C37.7362 6.9889 37.6239 6.99616 37.5135 6.98153C37.403 6.96689 37.2965 6.93065 37.2001 6.87486C37.1037 6.81908 37.0192 6.74484 36.9514 6.6564C36.8837 6.56795 36.834 6.46703 36.8053 6.35939C36.7765 6.25176 36.7692 6.13951 36.7839 6.02907C36.7985 5.91862 36.8348 5.81214 36.8905 5.7157ZM43.3067 12.5142C43.4553 12.5141 43.6014 12.4752 43.7303 12.4012L46.448 10.8319C46.5449 10.7764 46.6299 10.7023 46.6981 10.6139C46.7663 10.5255 46.8163 10.4246 46.8454 10.3168C46.8745 10.209 46.882 10.0965 46.8675 9.98581C46.853 9.87511 46.8168 9.76837 46.7609 9.6717C46.7051 9.57503 46.6307 9.49033 46.542 9.42247C46.4534 9.35462 46.3522 9.30493 46.2443 9.27626C46.1364 9.2476 46.0239 9.24052 45.9133 9.25543C45.8026 9.27034 45.696 9.30696 45.5996 9.36316L42.8819 10.9314C42.72 11.0247 42.5935 11.1688 42.5219 11.3415C42.4504 11.5141 42.4379 11.7055 42.4863 11.886C42.5347 12.0664 42.6414 12.2259 42.7898 12.3395C42.9381 12.4531 43.1198 12.5145 43.3067 12.5142ZM29.9999 4.98984C30.2249 4.98981 30.4407 4.90041 30.5998 4.74131C30.7589 4.5822 30.8483 4.36642 30.8484 4.14141V0.848437C30.8484 0.623418 30.759 0.407614 30.5999 0.248502C30.4407 0.0893887 30.2249 0 29.9999 0C29.7749 0 29.5591 0.0893887 29.4 0.248502C29.2409 0.407614 29.1515 0.623418 29.1515 0.848437V4.14141C29.1515 4.36642 29.2409 4.5822 29.4 4.74131C29.5591 4.90041 29.7749 4.98981 29.9999 4.98984ZM21.6406 6.56777C21.6961 6.66465 21.7701 6.74963 21.8585 6.81782C21.9469 6.88601 22.0479 6.93608 22.1557 6.96515C22.2635 6.99423 22.376 7.00173 22.4867 6.98724C22.5974 6.97274 22.7041 6.93653 22.8008 6.88069C22.8974 6.82484 22.9821 6.75046 23.05 6.66181C23.1178 6.57316 23.1675 6.47198 23.1962 6.36408C23.2249 6.25618 23.2319 6.14369 23.217 6.03304C23.2021 5.9224 23.1655 5.8158 23.1093 5.71934L21.4816 2.90098C21.369 2.70621 21.1836 2.56415 20.9663 2.50605C20.749 2.44794 20.5175 2.47855 20.3227 2.59113C20.1279 2.70372 19.9859 2.88907 19.9278 3.1064C19.8697 3.32373 19.9003 3.55524 20.0129 3.75L21.6406 6.56777ZM13.5518 10.8319L16.2695 12.4012C16.366 12.457 16.4726 12.4931 16.5831 12.5076C16.6936 12.5222 16.8058 12.5148 16.9135 12.486C17.0211 12.4571 17.122 12.4073 17.2104 12.3395C17.2988 12.2716 17.373 12.187 17.4287 12.0905C17.4844 11.994 17.5206 11.8875 17.5351 11.777C17.5496 11.6665 17.5423 11.5542 17.5134 11.4466C17.4845 11.339 17.4348 11.2381 17.3669 11.1497C17.2991 11.0613 17.2145 10.9871 17.118 10.9314L14.4003 9.36328C14.3038 9.30707 14.1972 9.27046 14.0866 9.25555C13.9759 9.24064 13.8634 9.24771 13.7555 9.27638C13.6476 9.30505 13.5465 9.35473 13.4578 9.42259C13.3691 9.49045 13.2948 9.57514 13.2389 9.67181C13.1831 9.76848 13.1469 9.87523 13.1324 9.98593C13.1179 10.0966 13.1254 10.2091 13.1545 10.3169C13.1835 10.4247 13.2336 10.5257 13.3018 10.6141C13.37 10.7025 13.455 10.7764 13.5518 10.8319ZM25.8852 18.3573C25.5398 18.3573 25.2085 18.4945 24.9643 18.7388C24.72 18.983 24.5828 19.3143 24.5828 19.6597C24.5828 20.0051 24.72 20.3364 24.9643 20.5807C25.2085 20.8249 25.5398 20.9621 25.8852 20.9621H27.1874V19.6597C27.187 19.3145 27.0497 18.9835 26.8056 18.7393C26.5614 18.4952 26.2305 18.3578 25.8852 18.3573ZM35.4183 19.6597C35.4183 19.3141 35.281 18.9827 35.0367 18.7384C34.7923 18.494 34.4609 18.3567 34.1153 18.3567C33.7697 18.3567 33.4383 18.494 33.1939 18.7384C32.9496 18.9827 32.8123 19.3141 32.8123 19.6597V20.9621H34.1159C34.4612 20.9617 34.7922 20.8243 35.0363 20.5802C35.2805 20.336 35.4179 20.005 35.4183 19.6597ZM26.5407 38.1457H33.4592C33.4668 37.7455 33.4973 37.346 33.5507 36.9492H26.4491C26.5025 37.346 26.5331 37.7455 26.5407 38.1457ZM28.8832 22.6577V35.252H31.1166V22.6577H28.8832ZM27.468 41.0391H32.5319C32.7769 41.0388 33.0119 40.9415 33.1852 40.7684C33.3586 40.5952 33.4563 40.3604 33.4568 40.1154V39.8426H26.5428V40.1157C26.5434 40.3607 26.6412 40.5955 26.8146 40.7686C26.988 40.9416 27.223 41.0389 27.468 41.0391ZM28.865 43.8404H31.1324C31.2788 43.8403 31.4192 43.7821 31.5227 43.6786C31.6263 43.575 31.6845 43.4347 31.6846 43.2882V42.7359H28.3152V43.2891C28.317 43.4345 28.3754 43.5735 28.4781 43.6765C28.5807 43.7796 28.7195 43.8385 28.865 43.8408V43.8404ZM52.6523 26.991C52.5696 26.9558 52.4882 26.9207 52.4062 26.8855V53.164C52.4058 53.3047 52.3704 53.4432 52.3032 53.5669C52.2361 53.6906 52.1392 53.7957 52.0214 53.8727C51.9036 53.9497 51.7685 53.9962 51.6282 54.0081C51.488 54.02 51.347 53.9968 51.2179 53.9407C43.7143 50.655 36.8989 50.649 30.382 53.9214C30.2637 53.9805 30.1333 54.0113 30.0011 54.0113C29.8689 54.0113 29.7385 53.9805 29.6202 53.9214C23.1033 50.649 16.2879 50.655 8.7843 53.9407C8.65524 53.9974 8.51409 54.021 8.37362 54.0093C8.23315 53.9977 8.0978 53.9512 7.97982 53.8741C7.86184 53.797 7.76495 53.6917 7.69794 53.5677C7.63092 53.4437 7.59589 53.3049 7.59602 53.164V26.8842C7.51469 26.9194 7.43195 26.9558 7.34992 26.9923L3.90039 28.504V60L11.9684 56.4679C17.689 53.959 22.5973 53.9177 27.4163 56.3389L29.9999 57.6343L32.5865 56.338C37.4016 53.9189 42.3114 53.9591 48.0332 56.4679L56.1012 60V28.5034L52.6523 26.991ZM19.9466 49.7839C23.1214 49.8411 26.2521 50.5372 29.1521 51.8305V45.5365H28.8655C28.2699 45.5354 27.6991 45.2983 27.278 44.877C26.857 44.4557 26.6202 43.8847 26.6195 43.2891V42.5918C26.1032 42.4148 25.655 42.0812 25.3373 41.6373C25.0197 41.1935 24.8484 40.6616 24.8474 40.1157V38.3438C24.8474 35.1309 23.2015 33.1622 21.2966 30.8827C19.363 28.5691 17.194 25.9704 16.8456 21.7429C14.4047 22.039 11.8679 22.7345 9.29102 23.8147V51.8906C12.951 50.4414 16.528 49.7313 19.9461 49.7835L19.9466 49.7839ZM26.0594 35.2527H27.1874V22.6577H25.8852C25.2921 22.6579 24.7122 22.4821 24.219 22.1527C23.7257 21.8232 23.3413 21.3549 23.1142 20.8069C22.8872 20.2589 22.8277 19.6559 22.9434 19.0742C23.0591 18.4924 23.3447 17.958 23.7641 17.5386C24.1835 17.1192 24.7179 16.8336 25.2997 16.7179C25.8814 16.6022 26.4844 16.6617 27.0324 16.8887C27.5804 17.1158 28.0487 17.5002 28.3782 17.9935C28.7076 18.4867 28.8834 19.0666 28.8832 19.6597V20.9621H31.1166V19.6597C31.1165 19.0666 31.2922 18.4868 31.6216 17.9936C31.951 17.5004 32.4192 17.1159 32.9671 16.8888C33.515 16.6617 34.118 16.6022 34.6997 16.7178C35.2814 16.8334 35.8158 17.1189 36.2353 17.5382C36.6547 17.9574 36.9405 18.4917 37.0563 19.0734C37.1721 19.6551 37.1129 20.258 36.886 20.806C36.6591 21.354 36.2749 21.8224 35.7818 22.152C35.2887 22.4816 34.709 22.6576 34.1159 22.6577H32.8124V35.252H33.9412C34.6537 33.0854 36.0435 31.42 37.4017 29.7948C39.5137 27.2666 41.508 24.8802 41.508 20.5433C41.508 17.4913 40.2955 14.5642 38.1374 12.4061C35.9793 10.2479 33.0522 9.03551 30.0002 9.03551C26.9481 9.03551 24.021 10.2479 21.8629 12.4061C19.7048 14.5642 18.4923 17.4913 18.4923 20.5433C18.4923 24.8802 20.4866 27.2666 22.5986 29.7948C23.9577 31.4201 25.3463 33.0854 26.0588 35.252L26.0594 35.2527ZM50.7084 51.8906V23.8145C48.1279 22.7343 45.5922 22.04 43.1538 21.7426C42.8054 25.9702 40.6363 28.5689 38.7027 30.8824C36.7983 33.162 35.152 35.1307 35.152 38.3435V40.1157C35.151 40.6616 34.9797 41.1935 34.6621 41.6373C34.3444 42.0812 33.8962 42.4148 33.3798 42.5918V43.2891C33.3791 43.885 33.142 44.4563 32.7206 44.8777C32.2992 45.2991 31.7279 45.5362 31.132 45.537H30.8484V51.8305C33.7483 50.5372 36.879 49.8411 40.0538 49.7839C43.4705 49.735 47.0488 50.4414 50.7084 51.8906Z" fill="#3E66F3"/>
</svg>
