<svg width="24" height="24" viewBox="0 0 24 24" fill="none" xmlns="http://www.w3.org/2000/svg">
<g clip-path="url(#clip0_1683_550)">
<path fill-rule="evenodd" clip-rule="evenodd" d="M2.66546 15.5312C1.81836 14.6868 1.14606 13.6838 0.687017 12.5793C0.227973 11.4749 -0.00880201 10.2908 -0.00976269 9.09472C-0.0107234 7.89868 0.22415 6.71419 0.681418 5.60902C1.13869 4.50384 1.80938 3.49967 2.65512 2.65395C3.50086 1.80824 4.50505 1.13758 5.61024 0.68034C6.71543 0.223104 7.89992 -0.0117346 9.09596 -0.010739C10.292 -0.0097435 11.4761 0.227066 12.5805 0.686142C13.685 1.14522 14.688 1.81755 15.5324 2.66467C16.3795 3.50903 17.0518 4.51212 17.5108 5.61656C17.9699 6.721 18.2066 7.90511 18.2076 9.10115C18.2085 10.2972 17.9737 11.4817 17.5164 12.5869C17.0591 13.692 16.3884 14.6962 15.5427 15.5419C14.697 16.3876 13.6928 17.0583 12.5876 17.5155C11.4824 17.9728 10.2979 18.2076 9.10186 18.2066C7.90582 18.2056 6.72172 17.9688 5.61729 17.5097C4.51286 17.0507 3.50979 16.3783 2.66546 15.5312ZM23.4856 23.4845C23.8141 23.1532 23.9985 22.7055 23.9985 22.239C23.9985 21.7724 23.8141 21.3248 23.4856 20.9935L17.5504 15.0583C17.2088 15.5397 16.8273 15.9914 16.4099 16.4087C15.9928 16.8265 15.5409 17.2081 15.0591 17.5493L20.9943 23.4845C21.3249 23.8144 21.7729 23.9996 22.24 23.9996C22.707 23.9996 23.155 23.8144 23.4856 23.4845ZM14.0778 4.47667C11.7866 4.64875 10.3398 4.05719 9.65588 2.66762C9.60466 2.56361 9.52534 2.47601 9.4269 2.41476C9.32846 2.3535 9.21483 2.32104 9.09889 2.32104C8.98295 2.32104 8.86932 2.3535 8.77088 2.41476C8.67244 2.47601 8.59312 2.56361 8.5419 2.66762C7.85804 4.05719 6.41152 4.64875 4.11994 4.47658C3.96546 4.46511 3.81227 4.51176 3.6904 4.60738C3.56853 4.703 3.48678 4.84069 3.46116 4.99347C3.05696 7.41906 3.43491 9.77594 4.55513 11.8095C5.55826 13.6314 7.08455 15.0576 8.85249 15.8238C8.9303 15.8577 9.01426 15.8752 9.09912 15.8752C9.18399 15.8752 9.26795 15.8577 9.34576 15.8238C11.1137 15.0576 12.64 13.6314 13.6431 11.8095C14.7634 9.77594 15.1413 7.41906 14.7371 4.99347C14.7118 4.84051 14.63 4.70261 14.508 4.60693C14.386 4.51125 14.2326 4.46475 14.078 4.47658L14.0778 4.47667ZM9.09873 14.5717C11.7013 13.3151 14.0899 10.1088 13.5893 5.74314C13.5084 5.74533 13.4283 5.74642 13.3488 5.74642C11.4335 5.74642 10.0106 5.18889 9.09877 4.08381C8.14923 5.23511 6.64435 5.79114 4.60857 5.74319C4.10785 10.1088 6.49651 13.3151 9.09873 14.5717ZM11.7412 7.92264C11.7918 7.85856 11.8294 7.7851 11.8516 7.70649C11.8738 7.62787 11.8802 7.54564 11.8706 7.46452C11.861 7.3834 11.8354 7.30498 11.7954 7.23376C11.7554 7.16254 11.7017 7.09992 11.6374 7.04951C11.5731 6.99909 11.4995 6.96186 11.4208 6.93995C11.3421 6.91805 11.2598 6.9119 11.1788 6.92186C11.0977 6.93182 11.0194 6.95769 10.9483 6.99799C10.8772 7.03829 10.8148 7.09223 10.7647 7.1567L8.72813 9.75302L7.35812 8.53005C7.29741 8.47534 7.2265 8.43317 7.14946 8.40595C7.07241 8.37873 6.99075 8.367 6.90915 8.37142C6.82756 8.37585 6.74765 8.39635 6.674 8.43175C6.60035 8.46715 6.53442 8.51675 6.47999 8.5777C6.42557 8.63865 6.38372 8.70975 6.35684 8.78691C6.32997 8.86408 6.31861 8.9458 6.3234 9.02737C6.3282 9.10894 6.34906 9.18876 6.3848 9.26225C6.42053 9.33574 6.47042 9.40144 6.53162 9.45559L8.39494 11.1193C8.50881 11.2207 8.65594 11.2767 8.80838 11.2767C8.82664 11.2769 8.8449 11.2762 8.86308 11.2745C8.94758 11.267 9.02965 11.2423 9.1042 11.2018C9.17875 11.1613 9.2442 11.106 9.29649 11.0392L11.7412 7.92264Z" fill="white"/>
</g>
<defs>
<clipPath id="clip0_1683_550">
<rect width="24" height="24" fill="white"/>
</clipPath>
</defs>
</svg>
