<svg width="40" height="41" viewBox="0 0 40 41" fill="none" xmlns="http://www.w3.org/2000/svg">
<g clip-path="url(#clip0_1752_3448)">
<path d="M35.6398 36.5405L31.122 24.6621C31.5684 24.3953 31.9564 24.0411 32.2628 23.6209C32.5919 23.1685 32.8172 22.6491 32.9226 22.0996C33.028 21.5502 33.0109 20.9842 32.8725 20.4421C32.7555 19.9681 32.7752 19.4707 32.9292 19.0074C33.0833 18.5441 33.3654 18.134 33.7429 17.8244C34.1799 17.4662 34.5318 17.0154 34.7732 16.5045C35.0146 15.9937 35.1395 15.4355 35.1388 14.8705C35.1381 14.3055 35.0118 13.7477 34.7691 13.2374C34.5264 12.7272 34.1734 12.2772 33.7355 11.9201C33.3594 11.6093 33.0789 11.1984 32.9266 10.7349C32.7742 10.2714 32.7562 9.77417 32.8746 9.30083C33.0119 8.75969 33.0282 8.19494 32.9225 7.64675C32.8168 7.09856 32.5917 6.58039 32.263 6.12908C31.926 5.6655 31.491 5.28192 30.9888 5.00568C30.4866 4.72944 29.9297 4.56733 29.3578 4.53089C28.8657 4.49778 28.3926 4.32842 27.9912 4.04176C27.5899 3.7551 27.2763 3.36244 27.0854 2.90771C26.8717 2.38714 26.547 1.91948 26.1339 1.53734C25.7208 1.15519 25.2294 0.86778 24.6938 0.695144C24.1505 0.517515 23.5751 0.4605 23.0075 0.528073C22.44 0.595645 21.894 0.786179 21.4076 1.08639C20.9836 1.34549 20.4962 1.48258 19.9993 1.48258C19.5023 1.48258 19.015 1.34549 18.5909 1.08639C18.1045 0.786167 17.5586 0.595626 16.991 0.528054C16.4235 0.460481 15.848 0.517503 15.3048 0.695144C14.7694 0.867921 14.2781 1.15539 13.8652 1.53751C13.4523 1.91963 13.1277 2.38721 12.914 2.90764C12.7225 3.36322 12.408 3.75646 12.0055 4.04327C11.6031 4.33007 11.1287 4.49909 10.6356 4.53139C10.0646 4.5684 9.50877 4.7308 9.00768 5.00703C8.50659 5.28326 8.07253 5.66653 7.73639 6.12958C7.40723 6.58197 7.18193 7.10141 7.07653 7.65086C6.97113 8.20031 6.98824 8.76625 7.12664 9.30833C7.24362 9.78234 7.22395 10.2798 7.06991 10.7431C6.91588 11.2064 6.63378 11.6165 6.25627 11.9261C5.81929 12.2843 5.46737 12.7351 5.22595 13.246C4.98454 13.7568 4.85968 14.315 4.86038 14.88C4.86109 15.445 4.98735 16.0028 5.23004 16.5131C5.47272 17.0233 5.82577 17.4732 6.26364 17.8303C6.63974 18.1411 6.92019 18.552 7.07254 19.0155C7.2249 19.479 7.24294 19.9761 7.12458 20.4495C6.9873 20.9906 6.97092 21.5553 7.07662 22.1035C7.18232 22.6517 7.4075 23.1699 7.73614 23.6212C8.04263 24.0412 8.43065 24.3951 8.87702 24.6618L4.35933 36.5405C4.31676 36.6522 4.30712 36.7738 4.33156 36.8907C4.356 37.0077 4.41349 37.1153 4.49722 37.2006C4.58094 37.2859 4.68738 37.3453 4.8039 37.372C4.92042 37.3986 5.04213 37.3912 5.15458 37.3507L10.0753 35.582L12.5759 40.1739C12.6296 40.2726 12.7088 40.355 12.8054 40.4124C12.902 40.4698 13.0122 40.5001 13.1246 40.5001C13.1386 40.5001 13.1526 40.4995 13.1667 40.4986C13.286 40.4906 13.4004 40.4485 13.4965 40.3774C13.5925 40.3062 13.6662 40.209 13.7087 40.0973L17.9384 28.9823C18.1655 28.8965 18.3841 28.7898 18.5915 28.6636C19.0155 28.4046 19.5027 28.2676 19.9996 28.2676C20.4964 28.2676 20.9836 28.4046 21.4076 28.6636L21.4083 28.6639C21.6151 28.7884 21.833 28.8935 22.0592 28.978L26.2905 40.0968C26.333 40.2085 26.4066 40.3057 26.5027 40.3768C26.5987 40.4479 26.7132 40.49 26.8325 40.4981C26.8465 40.499 26.8605 40.4996 26.8746 40.4996C26.9869 40.4996 27.0972 40.4693 27.1937 40.4118C27.2903 40.3544 27.3696 40.272 27.4233 40.1733L29.9239 35.5814L34.8446 37.3501C34.957 37.3906 35.0787 37.398 35.1953 37.3714C35.3118 37.3448 35.4182 37.2853 35.5019 37.2C35.5857 37.1147 35.6432 37.0072 35.6676 36.8902C35.692 36.7732 35.6824 36.6522 35.6398 36.5405ZM13.0239 38.3828L10.917 34.5141C10.8456 34.3832 10.7298 34.2821 10.5905 34.2291C10.4511 34.176 10.2974 34.1745 10.1571 34.2248L6.01033 35.715L10.0379 25.1261C10.2365 25.1726 10.4383 25.2038 10.6416 25.2194C11.1337 25.2525 11.6069 25.4219 12.0082 25.7085C12.4095 25.9952 12.7231 26.3878 12.914 26.8426C13.1277 27.3631 13.4524 27.8307 13.8654 28.2129C14.2784 28.595 14.7699 28.8824 15.3054 29.0551C15.6916 29.1798 16.0948 29.2443 16.5006 29.2462L13.0239 38.3828ZM17.9341 27.6001C17.6024 27.805 17.2299 27.935 16.8427 27.981C16.4555 28.027 16.0629 27.988 15.6923 27.8665C15.3295 27.7499 14.9965 27.5555 14.7165 27.2969C14.4365 27.0383 14.2163 26.7218 14.0712 26.3693C13.7904 25.6979 13.3282 25.118 12.7364 24.6946C12.1446 24.2711 11.4465 24.0209 10.7204 23.9719C10.3322 23.947 9.9542 23.8369 9.61336 23.6494C9.27252 23.4618 8.97718 23.2015 8.74833 22.887C8.52697 22.5828 8.37548 22.2335 8.3047 21.864C8.23391 21.4945 8.24557 21.1139 8.33883 20.7495C8.51308 20.0459 8.48473 19.3074 8.25706 18.6193C8.02939 17.9311 7.61169 17.3214 7.0522 16.8606C6.75725 16.6197 6.51968 16.3161 6.35677 15.9718C6.19385 15.6276 6.10969 15.2514 6.11039 14.8705C6.11109 14.4897 6.19664 14.1138 6.36081 13.7701C6.52499 13.4265 6.76368 13.1237 7.05952 12.8839C7.61764 12.422 8.03375 11.8116 8.25981 11.1233C8.48587 10.435 8.51266 9.69678 8.33708 8.99389C8.2449 8.63033 8.23396 8.25092 8.30507 7.88266C8.37617 7.51439 8.52755 7.16632 8.74846 6.86321C8.97819 6.54793 9.27464 6.28721 9.61668 6.09962C9.95872 5.91204 10.3379 5.80221 10.7273 5.77796C11.4522 5.72803 12.1489 5.47736 12.7395 5.05401C13.3301 4.63066 13.7912 4.05133 14.0713 3.38083C14.2163 3.02836 14.4365 2.7118 14.7165 2.45325C14.9965 2.19471 15.3296 2.00042 15.6925 1.88396C16.0631 1.76263 16.4558 1.72361 16.8431 1.76962C17.2304 1.81562 17.603 1.94555 17.9349 2.15033C18.5568 2.53009 19.2713 2.73102 20 2.73102C20.7287 2.73102 21.4433 2.53009 22.0651 2.15033C22.397 1.9456 22.7695 1.8157 23.1566 1.7697C23.5438 1.72369 23.9364 1.76268 24.307 1.88396C24.6698 2.00062 25.0028 2.19502 25.2828 2.4536C25.5628 2.71218 25.783 3.02872 25.9281 3.38114C26.2088 4.05253 26.6711 4.63245 27.2629 5.0559C27.8547 5.47935 28.5528 5.72959 29.2789 5.77858C29.6671 5.8035 30.0451 5.91362 30.3859 6.10114C30.7267 6.28865 31.0221 6.54895 31.251 6.86352C31.4723 7.1677 31.6238 7.51701 31.6946 7.8865C31.7654 8.25599 31.7537 8.63655 31.6605 9.00102C31.4862 9.70458 31.5146 10.4431 31.7422 11.1312C31.9699 11.8193 32.3876 12.429 32.9471 12.8898C33.242 13.1308 33.4796 13.4344 33.6425 13.7786C33.8054 14.1229 33.8896 14.4991 33.8889 14.8799C33.8882 15.2608 33.8026 15.6367 33.6385 15.9803C33.4743 16.324 33.2356 16.6267 32.9398 16.8666C32.3817 17.3285 31.9655 17.9388 31.7395 18.6271C31.5134 19.3153 31.4866 20.0535 31.6621 20.7564C31.7543 21.12 31.7652 21.4994 31.6941 21.8676C31.623 22.2359 31.4716 22.584 31.2507 22.8871C31.021 23.2024 30.7245 23.4631 30.3825 23.6507C30.0405 23.8383 29.6612 23.9481 29.2719 23.9723C28.547 24.0223 27.8502 24.2729 27.2596 24.6963C26.6691 25.1196 26.2079 25.699 25.9278 26.3695C25.7829 26.7219 25.5627 27.0385 25.2827 27.297C25.0027 27.5556 24.6696 27.7499 24.3067 27.8663C23.9361 27.988 23.5434 28.0272 23.156 27.9812C22.7687 27.9352 22.3961 27.8051 22.0643 27.6C21.4424 27.2202 20.7278 27.0194 19.9992 27.0194C19.2705 27.0194 18.556 27.2204 17.9341 27.6001ZM29.8421 34.2245C29.7017 34.1742 29.548 34.1757 29.4087 34.2287C29.2693 34.2818 29.1535 34.3829 29.0822 34.5138L26.9753 38.3826L23.499 29.2476C23.9048 29.2453 24.3077 29.1805 24.6938 29.0555C25.2294 28.8827 25.7209 28.5952 26.134 28.213C26.5471 27.8308 26.8719 27.3632 27.0858 26.8426C27.277 26.387 27.5914 25.9937 27.9938 25.7068C28.3962 25.42 28.8705 25.2511 29.3636 25.2189C29.565 25.2034 29.7649 25.1725 29.9615 25.1265L33.9888 35.7148L29.8421 34.2245Z" fill="#D9F900"/>
<path d="M29.375 14.875C29.375 13.0208 28.8252 11.2082 27.795 9.66653C26.7649 8.12482 25.3007 6.92321 23.5877 6.21363C21.8746 5.50406 19.9896 5.31841 18.171 5.68014C16.3525 6.04188 14.682 6.93476 13.3709 8.24588C12.0598 9.557 11.1669 11.2275 10.8051 13.046C10.4434 14.8646 10.6291 16.7496 11.3386 18.4627C12.0482 20.1757 13.2498 21.6399 14.7915 22.67C16.3332 23.7002 18.1458 24.25 20 24.25C22.4856 24.2472 24.8685 23.2586 26.6261 21.5011C28.3836 19.7435 29.3722 17.3606 29.375 14.875ZM20 23C18.393 23 16.8221 22.5235 15.486 21.6307C14.1498 20.7379 13.1084 19.469 12.4935 17.9843C11.8785 16.4997 11.7176 14.866 12.0311 13.2899C12.3446 11.7138 13.1185 10.2661 14.2548 9.12976C15.3911 7.99346 16.8388 7.21963 18.4149 6.90612C19.991 6.59262 21.6247 6.75352 23.1093 7.36848C24.594 7.98344 25.8629 9.02485 26.7557 10.361C27.6485 11.6971 28.125 13.268 28.125 14.875C28.1226 17.0291 27.2658 19.0944 25.7426 20.6176C24.2194 22.1408 22.1541 22.9976 20 23Z" fill="#D9F900"/>
<path d="M24.9711 12.8029L21.9236 12.36L20.5607 9.59879C20.5032 9.50133 20.4213 9.42056 20.323 9.36444C20.2248 9.30832 20.1135 9.27881 20.0004 9.27881C19.8872 9.27881 19.776 9.30832 19.6778 9.36444C19.5795 9.42056 19.4976 9.50133 19.4401 9.59879L18.0772 12.36L15.0297 12.8029C14.9142 12.8196 14.8057 12.8682 14.7165 12.9434C14.6273 13.0186 14.5608 13.1172 14.5248 13.2282C14.4887 13.3391 14.4844 13.458 14.5124 13.5712C14.5403 13.6845 14.5994 13.7877 14.683 13.8691L16.8888 16.0185L16.3682 19.0535C16.3486 19.1683 16.3614 19.2864 16.4053 19.3944C16.4493 19.5023 16.5225 19.5958 16.6167 19.6643C16.711 19.7329 16.8225 19.7737 16.9387 19.7821C17.055 19.7906 17.1712 19.7665 17.2745 19.7124L20.0004 18.2795L22.7262 19.7124C22.8294 19.7665 22.9457 19.7906 23.0619 19.7821C23.1781 19.7737 23.2897 19.7329 23.3839 19.6643C23.4782 19.5958 23.5514 19.5023 23.5953 19.3944C23.6392 19.2864 23.6521 19.1683 23.6325 19.0535L23.1118 16.0185L25.3176 13.8691C25.4012 13.7877 25.4603 13.6845 25.4883 13.5712C25.5163 13.458 25.512 13.3391 25.4759 13.2282C25.4398 13.1172 25.3734 13.0186 25.2842 12.9434C25.1949 12.8682 25.0865 12.8196 24.9711 12.8029ZM22.0042 15.3529C21.9317 15.4237 21.8775 15.511 21.8463 15.6074C21.815 15.7037 21.8076 15.8062 21.8247 15.9061L22.1866 18.0167L20.2909 17.0203C20.2013 16.9732 20.1015 16.9485 20.0003 16.9485C19.899 16.9485 19.7993 16.9732 19.7096 17.0203L17.8141 18.0165L18.1761 15.9059C18.1932 15.806 18.1858 15.7035 18.1545 15.6071C18.1232 15.5107 18.069 15.4234 17.9966 15.3526L16.4629 13.8579L18.5821 13.5499C18.6824 13.5354 18.7777 13.4966 18.8596 13.437C18.9416 13.3774 19.0079 13.2987 19.0526 13.2078L20.0004 11.2878L20.9483 13.2079C20.993 13.2989 21.0593 13.3775 21.1413 13.4371C21.2232 13.4967 21.3185 13.5355 21.4188 13.55L23.538 13.858L22.0042 15.3529Z" fill="#D9F900"/>
</g>
<defs>
<clipPath id="clip0_1752_3448">
<rect width="40" height="40" fill="white" transform="translate(0 0.5)"/>
</clipPath>
</defs>
</svg>
