<svg width="42" height="44" viewBox="0 0 42 44" fill="none" xmlns="http://www.w3.org/2000/svg">
<path d="M38.5 10.9998V15.4365C38.5 18.3332 36.75 20.1665 33.985 20.1665H28V7.3515C28 5.3165 29.5925 3.6665 31.535 3.6665C33.4425 3.68484 35.1925 4.4915 36.4525 5.8115C37.7125 7.14984 38.5 8.98317 38.5 10.9998Z" stroke="white" stroke-width="3" stroke-miterlimit="10" stroke-linecap="round" stroke-linejoin="round"/>
<path d="M3.5 12.8332V38.4998C3.5 40.0215 5.14496 40.8832 6.29996 39.9665L9.2925 37.6198C9.9925 37.0698 10.9725 37.1432 11.6025 37.8032L14.5075 40.8648C15.19 41.5798 16.31 41.5798 16.9925 40.8648L19.9325 37.7848C20.545 37.1432 21.525 37.0698 22.2075 37.6198L25.2 39.9665C26.355 40.8648 28 40.0032 28 38.4998V7.33317C28 5.3165 29.575 3.6665 31.5 3.6665H12.25H10.5C5.25 3.6665 3.5 6.94817 3.5 10.9998V12.8332Z" stroke="white" stroke-width="3" stroke-miterlimit="10" stroke-linecap="round" stroke-linejoin="round"/>
<path d="M10.5 16.5H21" stroke="white" stroke-width="3" stroke-linecap="round" stroke-linejoin="round"/>
<path d="M11.8125 23.8335H19.6875" stroke="white" stroke-width="3" stroke-linecap="round" stroke-linejoin="round"/>
</svg>
