<svg width="41" height="41" viewBox="0 0 41 41" fill="none" xmlns="http://www.w3.org/2000/svg">
<g clip-path="url(#clip0_1750_383)">
<path d="M29.3213 3.64587C26.0191 0.962431 21.7028 -0.070382 17.4785 0.812274C12.1996 1.91532 7.89268 6.24087 6.76143 11.5759C5.80761 16.0745 6.983 20.591 9.98628 23.9671C11.4758 25.6417 12.2961 27.7364 12.2961 29.8716V32.2153C12.2961 33.7431 13.2759 35.0456 14.6399 35.5294V36.9809C14.6399 38.9195 16.217 40.4966 18.1555 40.4966H22.843C24.7815 40.4966 26.3586 38.9195 26.3586 36.9809V35.5294C27.7226 35.0456 28.7024 33.7431 28.7024 32.2153V29.8716C28.7024 27.7638 29.5471 25.6393 31.0807 23.8896C33.3255 21.3286 34.5617 18.0427 34.5617 14.6372C34.5617 10.3585 32.6517 6.35227 29.3213 3.64587ZM24.0149 36.9809C24.0149 37.6271 23.4892 38.1528 22.843 38.1528H18.1555C17.5093 38.1528 16.9836 37.6271 16.9836 36.9809V35.7309H24.0149V36.9809ZM26.3586 32.2153C26.3586 32.8615 25.8329 33.3872 25.1867 33.3872H15.8117C15.1656 33.3872 14.6399 32.8615 14.6399 32.2153V31.0435H26.3586V32.2153ZM20.4992 20.3932C21.2906 20.3932 22.0817 20.2667 22.843 20.0155V28.6998H18.1555V20.0155C18.9167 20.2667 19.7078 20.3932 20.4992 20.3932ZM18.5403 17.6599L20.4992 13.742L22.4582 17.6599C21.2025 18.1766 19.796 18.1766 18.5403 17.6599ZM29.3182 22.3448C27.6887 24.2038 26.6842 26.4243 26.4254 28.6997H25.1867V18.161C25.1867 18.1595 25.1867 18.158 25.1867 18.1564C25.1867 17.9965 25.1521 17.8203 25.0742 17.6549C25.0701 17.6463 25.0672 17.6373 25.063 17.6288L21.5474 10.5976C21.3489 10.2006 20.9431 9.94978 20.4992 9.94978C20.0553 9.94978 19.6496 10.2006 19.451 10.5976L15.9353 17.6288C15.8578 17.7843 15.8117 17.9734 15.8117 18.1556C15.8117 18.1577 15.8117 18.1597 15.8117 18.1618V28.6998H14.576C14.3247 26.4086 13.3389 24.2099 11.7375 22.4095C9.23456 19.5957 8.25651 15.8243 9.05425 12.0621C9.99581 7.62149 13.5739 4.02251 17.9579 3.10649C21.4882 2.36884 25.0912 3.22845 27.8432 5.46478C30.6235 7.72415 32.218 11.0674 32.218 14.6372C32.218 17.4741 31.1882 20.2113 29.3182 22.3448Z" fill="#D9F900"/>
<path d="M4.01562 14.637H1.67188C1.02469 14.637 0.5 15.1617 0.5 15.8088C0.5 16.456 1.02469 16.9807 1.67188 16.9807H4.01562C4.66281 16.9807 5.1875 16.456 5.1875 15.8088C5.1875 15.1617 4.66281 14.637 4.01562 14.637Z" fill="#D9F900"/>
<path d="M4.50152 8.77736L2.84426 7.1201C2.3866 6.66244 1.64465 6.66244 1.18699 7.1201C0.729336 7.57775 0.729336 8.31971 1.18699 8.77736L2.84426 10.4346C3.30199 10.8924 4.04395 10.8922 4.50152 10.4346C4.95918 9.97697 4.95918 9.23502 4.50152 8.77736Z" fill="#D9F900"/>
<path d="M4.50146 21.1826C4.04381 20.7249 3.30186 20.7249 2.8442 21.1826L1.18693 22.8399C0.729355 23.2975 0.729355 24.0395 1.18693 24.4971C1.64451 24.9547 2.38646 24.9548 2.8442 24.4971L4.50146 22.8399C4.95904 22.3822 4.95904 21.6403 4.50146 21.1826Z" fill="#D9F900"/>
<path d="M39.3281 14.637H36.9844C36.3372 14.637 35.8125 15.1617 35.8125 15.8088C35.8125 16.456 36.3372 16.9807 36.9844 16.9807H39.3281C39.9753 16.9807 40.5 16.456 40.5 15.8088C40.5 15.1617 39.9753 14.637 39.3281 14.637Z" fill="#D9F900"/>
<path d="M39.814 7.1201C39.3564 6.66244 38.6144 6.66244 38.1568 7.1201L36.4995 8.77736C36.0418 9.23502 36.0418 9.97697 36.4995 10.4346C36.9571 10.8923 37.6991 10.8923 38.1568 10.4346L39.814 8.77736C40.2717 8.31971 40.2717 7.57775 39.814 7.1201Z" fill="#D9F900"/>
<path d="M39.8141 22.8399L38.1568 21.1826C37.6993 20.7249 36.9573 20.7249 36.4995 21.1826C36.0418 21.6403 36.0419 22.3822 36.4995 22.8399L38.1568 24.4971C38.6143 24.9548 39.3564 24.9548 39.8141 24.4971C40.2717 24.0395 40.2717 23.2975 39.8141 22.8399Z" fill="#D9F900"/>
</g>
<defs>
<clipPath id="clip0_1750_383">
<rect width="40" height="40" fill="white" transform="translate(0.5 0.5)"/>
</clipPath>
</defs>
</svg>
