<svg width="28" height="36" viewBox="0 0 28 36" fill="none" xmlns="http://www.w3.org/2000/svg">
<path d="M26.3942 10.2533V25.7463C26.3942 31.9435 24.8449 33.4928 18.6477 33.4928H9.35195C3.15476 33.4928 1.60547 31.9435 1.60547 25.7463V10.2533C1.60547 4.05613 3.15476 2.50684 9.35195 2.50684H18.6477C24.8449 2.50684 26.3942 4.05613 26.3942 10.2533Z" stroke="white" stroke-width="3.09859" stroke-linecap="round" stroke-linejoin="round"/>
<path d="M17.0976 7.9292H10.9004" stroke="white" stroke-width="2.32394" stroke-linecap="round" stroke-linejoin="round"/>
<path d="M13.9991 28.9996C15.3253 28.9996 16.4005 27.9244 16.4005 26.5982C16.4005 25.2719 15.3253 24.1968 13.9991 24.1968C12.6728 24.1968 11.5977 25.2719 11.5977 26.5982C11.5977 27.9244 12.6728 28.9996 13.9991 28.9996Z" stroke="white" stroke-width="2.32394" stroke-linecap="round" stroke-linejoin="round"/>
</svg>
