<svg width="70" height="70" viewBox="0 0 70 70" fill="none" xmlns="http://www.w3.org/2000/svg">
<path fill-rule="evenodd" clip-rule="evenodd" d="M15.4102 56.7902V50.6694H47.7523V56.7902C47.7523 61.1275 40.5123 64.6436 31.5812 64.6436C22.6502 64.6436 15.4102 61.1275 15.4102 56.7902Z" fill="#10ADAB"/>
<path fill-rule="evenodd" clip-rule="evenodd" d="M19.5635 50.6696H47.7528V56.7903C47.7528 61.1276 40.5128 64.6437 31.5817 64.6437C27.4498 64.6437 23.6805 63.8907 20.822 62.6524C20.0116 61.7167 19.5635 60.6889 19.5635 59.6102V50.6694V50.6696Z" fill="#00B6B3"/>
<path fill-rule="evenodd" clip-rule="evenodd" d="M15.4102 50.6692V44.5483H47.7523V50.6692C47.7523 55.0065 40.5123 58.5226 31.5812 58.5226C22.6502 58.5226 15.4102 55.0065 15.4102 50.6692Z" fill="#35DAD7"/>
<path fill-rule="evenodd" clip-rule="evenodd" d="M19.5635 44.5488H47.7528V50.6697C47.7528 55.007 40.5128 58.5231 31.5817 58.5231C26.8111 58.5231 22.5234 57.5196 19.5635 55.9238V44.5488Z" fill="#38E1DE"/>
<path fill-rule="evenodd" clip-rule="evenodd" d="M15.4102 44.5485V38.4277H47.7523V44.5485C47.7523 48.8859 40.5123 52.4019 31.5812 52.4019C22.6502 52.4019 15.4102 48.8858 15.4102 44.5485Z" fill="#10ADAB"/>
<path fill-rule="evenodd" clip-rule="evenodd" d="M19.5635 38.4279H47.7528V44.5486C47.7528 48.886 40.5128 52.402 31.5817 52.402C26.8111 52.402 22.5234 51.3985 19.5635 49.8027V38.4277V38.4279Z" fill="#00B6B3"/>
<path fill-rule="evenodd" clip-rule="evenodd" d="M15.4102 38.4279V32.3071H47.7523V38.4279C47.7523 42.7653 40.5123 46.2813 31.5812 46.2813C22.6502 46.2813 15.4102 42.7652 15.4102 38.4279Z" fill="#35DAD7"/>
<path fill-rule="evenodd" clip-rule="evenodd" d="M19.5635 32.3068H47.7528V38.4275C47.7528 42.7649 40.5128 46.2809 31.5817 46.2809C26.8111 46.2809 22.5234 45.2774 19.5635 43.6816V32.3068Z" fill="#38E1DE"/>
<path fill-rule="evenodd" clip-rule="evenodd" d="M15.4102 32.3068V26.186H47.7523V32.3068C47.7523 36.6442 40.5123 40.1602 31.5812 40.1602C22.6502 40.1602 15.4102 36.6441 15.4102 32.3068Z" fill="#10ADAB"/>
<path fill-rule="evenodd" clip-rule="evenodd" d="M19.5635 26.1862H47.7528V32.3069C47.7528 36.6443 40.5128 40.1603 31.5817 40.1603C26.8111 40.1603 22.5234 39.1568 19.5635 37.561V26.1862Z" fill="#00B6B3"/>
<path d="M31.5812 34.0398C40.5123 34.0398 47.7523 30.5237 47.7523 26.1864C47.7523 21.8491 40.5123 18.333 31.5812 18.333C22.6502 18.333 15.4102 21.8491 15.4102 26.1864C15.4102 30.5237 22.6502 34.0398 31.5812 34.0398Z" fill="#38E1DE"/>
<path d="M31.5813 32.126C39.4552 32.126 45.8383 29.4668 45.8383 26.1865C45.8383 22.9063 39.4552 20.2471 31.5813 20.2471C23.7073 20.2471 17.3242 22.9063 17.3242 26.1865C17.3242 29.4668 23.7073 32.126 31.5813 32.126Z" fill="#10ADAB"/>
<path fill-rule="evenodd" clip-rule="evenodd" d="M32.1965 20.2529C39.7849 20.3872 45.8383 22.9921 45.8383 26.1864C45.8383 29.3807 39.7849 31.9856 32.1965 32.12C24.608 31.9857 18.5547 29.3807 18.5547 26.1864C18.5547 22.9921 24.608 20.3872 32.1965 20.2529Z" fill="#00B6B3"/>
<path fill-rule="evenodd" clip-rule="evenodd" d="M35.4755 23.6995C35.5698 24.0637 35.3511 24.4356 34.9869 24.53C34.6226 24.6243 34.2508 24.4055 34.1564 24.0413C34.1217 23.9067 34.0487 23.7831 33.9466 23.6716C33.6379 23.3349 33.0887 23.11 32.464 22.9999C32.3982 22.9883 32.3319 22.9781 32.2652 22.9692V25.6809C32.3701 25.7042 32.4711 25.7278 32.5663 25.7515C32.768 25.802 32.9798 25.8634 33.2016 25.9369C33.8997 26.1687 34.5096 26.485 34.9236 26.9116C35.4205 27.4236 35.6443 28.0566 35.4492 28.8363C35.4384 28.8797 35.4201 28.94 35.3943 29.0178C35.1284 29.8189 34.3358 30.3546 33.345 30.617C33.0066 30.7065 32.641 30.7656 32.2652 30.793V31.6173C32.2652 31.9948 31.9591 32.3009 31.5816 32.3009C31.2041 32.3009 30.898 31.9948 30.898 31.6173V30.7548C30.5222 30.7057 30.1539 30.6245 29.8093 30.5102C28.7682 30.1646 27.9307 29.5154 27.6701 28.5313C27.5742 28.1671 27.7918 27.794 28.156 27.6981C28.5202 27.6023 28.8933 27.8198 28.9891 28.184C29.1164 28.6645 29.6089 29.0093 30.2366 29.2176C30.4457 29.2871 30.6685 29.3405 30.898 29.3786V26.7836C30.1737 26.6219 29.4537 26.4186 28.8975 26.0388C28.6979 25.9025 28.5266 25.7543 28.3831 25.5976C28.0195 25.2011 27.8274 24.7508 27.7938 24.2921C27.7599 23.8302 27.8891 23.3736 28.1673 22.9663C28.2747 22.8091 28.4037 22.6605 28.5531 22.5235C28.9507 22.1588 29.4925 21.8991 30.0977 21.7428C30.3536 21.6768 30.6227 21.6287 30.898 21.5984V20.7549C30.898 20.3774 31.2041 20.0713 31.5816 20.0713C31.9591 20.0713 32.2652 20.3774 32.2652 20.7549V21.5941C32.4116 21.6091 32.5565 21.6292 32.699 21.6542C33.599 21.8128 34.4263 22.1761 34.9505 22.7478C35.1997 23.0196 35.3817 23.3367 35.4755 23.6995ZM30.898 22.9715C30.7402 22.9938 30.5867 23.0239 30.4395 23.0619C30.0426 23.1644 29.7031 23.3203 29.477 23.5275C29.4037 23.5948 29.3424 23.6645 29.294 23.7355C29.1922 23.8845 29.1443 24.0432 29.1555 24.1961C29.167 24.352 29.2422 24.516 29.3869 24.6738C29.4625 24.7562 29.5556 24.8362 29.6664 24.912C29.9705 25.1196 30.4153 25.264 30.8979 25.3831V22.9714L30.898 22.9715ZM32.2652 29.4257C32.5207 29.4017 32.7679 29.359 32.9979 29.298C33.5651 29.1478 33.9974 28.9054 34.1019 28.5906C34.106 28.5782 34.1138 28.5494 34.1247 28.5053C34.1894 28.2467 34.1136 28.0349 33.9462 27.8623C33.6957 27.6042 33.276 27.396 32.7743 27.2295C32.6271 27.1805 32.4556 27.1319 32.2652 27.0836V29.4257Z" fill="#38E1DE"/>
<path fill-rule="evenodd" clip-rule="evenodd" d="M11.2218 23.4887V14.9117C11.2218 14.5686 10.9419 14.2886 10.5986 14.2886H6.86303C6.51986 14.2886 6.23986 14.5684 6.23986 14.9116V23.4887H4.39935C4.17527 23.4887 3.98373 23.6131 3.89254 23.8176C3.80135 24.0223 3.83703 24.2479 3.98687 24.4144L8.3184 29.2284C8.4275 29.3495 8.56777 29.4121 8.73074 29.4121C8.89371 29.4121 9.03412 29.3496 9.14308 29.2284L13.4746 24.4144C13.6245 24.2479 13.6601 24.0223 13.5689 23.8176C13.4778 23.6129 13.2862 23.4887 13.0623 23.4887H11.2218Z" fill="#00B6B3"/>
<path fill-rule="evenodd" clip-rule="evenodd" d="M11.2216 23.4887V14.9117C11.2216 14.5686 10.9417 14.2886 10.5984 14.2886H8.01635C7.67318 14.2886 7.39318 14.5684 7.39318 14.9116V23.4887H5.75775C5.53381 23.4887 5.34213 23.6131 5.25094 23.8176C5.15975 24.0223 5.19543 24.2479 5.34527 24.4144L9.40978 28.9317L13.4743 24.4144C13.6241 24.2479 13.6598 24.0223 13.5686 23.8176C13.4774 23.6129 13.2859 23.4887 13.062 23.4887H11.2213H11.2216Z" fill="#38E1DE"/>
<path fill-rule="evenodd" clip-rule="evenodd" d="M34.0723 10.704V2.12693C34.0723 1.78377 33.7925 1.50391 33.4492 1.50391H29.7136C29.3704 1.50391 29.0904 1.78377 29.0904 2.12693V10.704H27.2499C27.0259 10.704 26.8343 10.8284 26.7431 11.0329C26.6519 11.2376 26.6876 11.4632 26.8375 11.6297L31.169 16.4437C31.2781 16.5648 31.4184 16.6275 31.5813 16.6275C31.7443 16.6275 31.8847 16.565 31.9937 16.4437L36.3252 11.6297C36.475 11.4632 36.5107 11.2376 36.4195 11.0329C36.3283 10.8283 36.1368 10.704 35.9128 10.704H34.0723Z" fill="#00B6B3"/>
<path fill-rule="evenodd" clip-rule="evenodd" d="M34.0722 10.704V2.12693C34.0722 1.78377 33.7923 1.50391 33.449 1.50391H30.8669C30.5238 1.50391 30.2438 1.78377 30.2438 2.12693V10.704H28.6083C28.3844 10.704 28.1927 10.8284 28.1015 11.0329C28.0103 11.2376 28.046 11.4632 28.1959 11.6297L32.2604 16.147L36.3249 11.6297C36.4747 11.4632 36.5104 11.2376 36.4192 11.0329C36.328 10.8283 36.1365 10.704 35.9125 10.704H34.0719H34.0722Z" fill="#38E1DE"/>
<path fill-rule="evenodd" clip-rule="evenodd" d="M56.9239 23.4887V14.9117C56.9239 14.5686 56.644 14.2886 56.3007 14.2886H52.5652C52.222 14.2886 51.942 14.5684 51.942 14.9116V23.4887H50.1015C49.8774 23.4887 49.6859 23.6131 49.5947 23.8176C49.5035 24.0223 49.5392 24.2479 49.689 24.4144L54.0205 29.2284C54.1296 29.3495 54.2699 29.4121 54.4329 29.4121C54.5959 29.4121 54.7363 29.3496 54.8452 29.2284L59.1768 24.4144C59.3266 24.2479 59.3623 24.0223 59.2711 23.8176C59.1799 23.6129 58.9884 23.4887 58.7644 23.4887H56.9239Z" fill="#00B6B3"/>
<path fill-rule="evenodd" clip-rule="evenodd" d="M56.9237 23.4887V14.9117C56.9237 14.5686 56.6439 14.2886 56.3006 14.2886H53.7185C53.3753 14.2886 53.0953 14.5684 53.0953 14.9116V23.4887H51.4599C51.236 23.4887 51.0443 23.6131 50.9531 23.8176C50.8619 24.0223 50.8976 24.2479 51.0474 24.4144L55.1119 28.9317L59.1764 24.4144C59.3263 24.2479 59.362 24.0223 59.2708 23.8176C59.1796 23.6129 58.988 23.4887 58.7641 23.4887H56.9236H56.9237Z" fill="#38E1DE"/>
<path fill-rule="evenodd" clip-rule="evenodd" d="M33.8145 60.6427V54.522H66.1566V60.6427C66.1566 64.98 58.9166 68.4961 49.9855 68.4961C41.0545 68.4961 33.8145 64.98 33.8145 60.6427Z" fill="#35DAD7"/>
<path fill-rule="evenodd" clip-rule="evenodd" d="M37.9668 54.5221H66.1562V60.6429C66.1562 64.9801 58.9161 68.4963 49.9851 68.4963C45.2144 68.4963 40.9268 67.4928 37.9668 65.897V54.522V54.5221Z" fill="#38E1DE"/>
<path fill-rule="evenodd" clip-rule="evenodd" d="M33.8145 54.5221V48.4014H66.1566V54.5221C66.1566 58.8594 58.9166 62.3755 49.9855 62.3755C41.0545 62.3755 33.8145 58.8594 33.8145 54.5221Z" fill="#10ADAB"/>
<path fill-rule="evenodd" clip-rule="evenodd" d="M37.9668 48.401H66.1562V54.5218C66.1562 58.859 58.9161 62.3752 49.9851 62.3752C45.2144 62.3752 40.9268 61.3717 37.9668 59.7759V48.4009V48.401Z" fill="#00B6B3"/>
<path d="M49.9855 56.2546C58.9166 56.2546 66.1566 52.7386 66.1566 48.4013C66.1566 44.0639 58.9166 40.5479 49.9855 40.5479C41.0545 40.5479 33.8145 44.0639 33.8145 48.4013C33.8145 52.7386 41.0545 56.2546 49.9855 56.2546Z" fill="#38E1DE"/>
<path d="M49.9855 54.3409C57.8595 54.3409 64.2426 51.6817 64.2426 48.4014C64.2426 45.1211 57.8595 42.4619 49.9855 42.4619C42.1116 42.4619 35.7285 45.1211 35.7285 48.4014C35.7285 51.6817 42.1116 54.3409 49.9855 54.3409Z" fill="#10ADAB"/>
<path fill-rule="evenodd" clip-rule="evenodd" d="M50.6008 42.4678C58.1892 42.602 64.2426 45.2069 64.2426 48.4012C64.2426 51.5955 58.1892 54.2004 50.6008 54.3348C43.0123 54.2006 36.959 51.5955 36.959 48.4012C36.959 45.2069 43.0123 42.602 50.6008 42.4678Z" fill="#00B6B3"/>
<path fill-rule="evenodd" clip-rule="evenodd" d="M53.8798 45.9146C53.9741 46.2789 53.7554 46.6507 53.3912 46.7451C53.0269 46.8394 52.6551 46.6207 52.5607 46.2564C52.526 46.1218 52.453 45.9982 52.3509 45.8868C52.0421 45.55 51.493 45.3251 50.8683 45.2151C50.8025 45.2034 50.7362 45.1932 50.6695 45.1843V47.896C50.7744 47.9194 50.8754 47.9429 50.9705 47.9667C51.1723 48.0171 51.3841 48.0785 51.6059 48.1521C52.304 48.3838 52.9139 48.7002 53.3279 49.1267C53.8248 49.6387 54.0486 50.2717 53.8535 51.0514C53.8427 51.0948 53.8244 51.1551 53.7986 51.2329C53.5327 52.034 52.7401 52.5697 51.7493 52.8321C51.4109 52.9216 51.0453 52.9807 50.6695 53.0082V53.8324C50.6695 54.2099 50.3634 54.516 49.9859 54.516C49.6084 54.516 49.3023 54.2099 49.3023 53.8324V52.9699C48.9265 52.9208 48.5581 52.8396 48.2136 52.7253C47.1725 52.3797 46.335 51.7305 46.0744 50.7464C45.9785 50.3822 46.1961 50.0091 46.5603 49.9133C46.9245 49.8174 47.2976 50.0349 47.3934 50.3992C47.5207 50.8796 48.0132 51.2244 48.6409 51.4328C48.85 51.5022 49.0728 51.5557 49.3023 51.5937V48.9986C48.578 48.8369 47.858 48.6336 47.3018 48.2538C47.1022 48.1175 46.9309 47.9693 46.7872 47.8126C46.4237 47.4161 46.2316 46.9657 46.198 46.5071C46.1641 46.0452 46.2933 45.5886 46.5715 45.1813C46.6788 45.0241 46.8079 44.8755 46.9573 44.7385C47.3549 44.3738 47.8967 44.1141 48.5018 43.9578C48.7578 43.8918 49.0268 43.8436 49.3022 43.8133V42.9697C49.3022 42.5922 49.6083 42.2861 49.9858 42.2861C50.3632 42.2861 50.6694 42.5922 50.6694 42.9697V43.8089C50.8158 43.8239 50.9607 43.844 51.1032 43.8691C52.0032 44.0277 52.8305 44.3909 53.3547 44.9627C53.6039 45.2345 53.7859 45.5515 53.8797 45.9144L53.8798 45.9146ZM49.3023 45.1866C49.1445 45.2089 48.991 45.239 48.8438 45.277C48.4469 45.3795 48.1074 45.5354 47.8812 45.7427C47.808 45.8099 47.7467 45.8796 47.6983 45.9506C47.5965 46.0996 47.5486 46.2584 47.5598 46.4112C47.5713 46.5671 47.6465 46.7311 47.7912 46.8889C47.8668 46.9713 47.9599 47.0513 48.0707 47.1271C48.3748 47.3347 48.8196 47.4791 49.3022 47.5982V45.1865L49.3023 45.1866ZM50.6695 51.6408C50.925 51.6168 51.1722 51.5741 51.4022 51.5131C51.9694 51.3629 52.4017 51.1205 52.5062 50.8058C52.5103 50.7933 52.5181 50.7645 52.529 50.7205C52.5937 50.4618 52.5179 50.25 52.3505 50.0775C52.1 49.8193 51.6803 49.6111 51.1786 49.4446C51.0314 49.3958 50.8599 49.347 50.6695 49.2987V51.641V51.6408Z" fill="#38E1DE"/>
</svg>
