<svg width="38" height="38" viewBox="0 0 38 38" fill="none" xmlns="http://www.w3.org/2000/svg">
<path fill-rule="evenodd" clip-rule="evenodd" d="M5.05516 3.50732C5.91081 3.50732 6.60445 4.20097 6.60445 5.05662V29.8454C6.60445 30.701 7.29809 31.3946 8.15375 31.3946H32.9425C33.7981 31.3946 34.4918 32.0883 34.4918 32.9439C34.4918 33.7996 33.7981 34.4932 32.9425 34.4932H8.15375C5.58679 34.4932 3.50586 32.4123 3.50586 29.8454V5.05662C3.50586 4.20097 4.1995 3.50732 5.05516 3.50732Z" fill="white"/>
<path fill-rule="evenodd" clip-rule="evenodd" d="M34.0393 13.257C34.6443 13.862 34.6443 14.843 34.0393 15.448L26.9346 22.5528C25.1194 24.3679 22.1766 24.3679 20.3614 22.5528L16.997 19.1884C16.392 18.5833 15.411 18.5833 14.806 19.1884L11.5745 22.4199C10.9695 23.0249 9.9885 23.0249 9.38347 22.4199C8.77843 21.8148 8.77843 20.8339 9.38347 20.2288L12.615 16.9973C14.4301 15.1822 17.373 15.1822 19.1881 16.9973L22.5525 20.3617C23.1575 20.9668 24.1385 20.9668 24.7435 20.3617L31.8483 13.257C32.4533 12.652 33.4343 12.652 34.0393 13.257Z" fill="white"/>
</svg>
