<svg width="29" height="24" viewBox="0 0 29 24" fill="none" xmlns="http://www.w3.org/2000/svg">
<path d="M17.21 4.11929C18.5286 4.94607 19.4533 6.34514 19.6216 7.96916C20.1594 8.22043 20.7562 8.36493 21.3891 8.36493C23.6993 8.36493 25.5717 6.49249 25.5717 4.18264C25.5717 1.87244 23.6993 0 21.3891 0C19.1009 0.000711818 17.2449 1.83969 17.21 4.11929ZM14.4698 12.6832C16.78 12.6832 18.6525 10.8104 18.6525 8.50053C18.6525 6.19068 16.7797 4.31824 14.4698 4.31824C12.16 4.31824 10.2865 6.19103 10.2865 8.50088C10.2865 10.8107 12.16 12.6832 14.4698 12.6832ZM16.244 12.9683H12.6949C9.74194 12.9683 7.33955 15.371 7.33955 18.324V22.6643L7.35058 22.7323L7.64955 22.8259C10.4676 23.7064 12.9159 24 14.9311 24C18.8671 24 21.1485 22.8778 21.289 22.8063L21.5684 22.665H21.5983V18.324C21.5994 15.371 19.197 12.9683 16.244 12.9683ZM23.164 8.65036H19.6423C19.6042 10.0594 19.0027 11.3282 18.0513 12.2408C20.6762 13.0213 22.5967 15.4553 22.5967 18.3304V19.6679C26.0739 19.5405 28.0776 18.555 28.2097 18.4888L28.4891 18.3471H28.519V14.0054C28.519 11.0527 26.1166 8.65036 23.164 8.65036ZM7.13063 8.36564C7.94887 8.36564 8.71016 8.12682 9.35506 7.72002C9.56007 6.38287 10.2769 5.21442 11.3008 4.41861C11.3051 4.34031 11.3126 4.26272 11.3126 4.18371C11.3126 1.8735 9.43977 0.00106765 7.13063 0.00106765C4.82007 0.00106765 2.94799 1.8735 2.94799 4.18371C2.94799 6.49285 4.82007 8.36564 7.13063 8.36564ZM10.8869 12.2408C9.94018 11.3328 9.34083 10.0708 9.29705 8.6703C9.16643 8.66069 9.03724 8.65036 8.90413 8.65036H5.35536C2.40238 8.65036 0 11.0527 0 14.0054V18.3464L0.0110332 18.4133L0.309997 18.5076C2.57073 19.2134 4.58838 19.5387 6.34087 19.6412V18.3304C6.34158 15.4553 8.26136 13.022 10.8869 12.2408Z" fill="white"/>
</svg>
