<svg width="60" height="60" viewBox="0 0 60 60" fill="none" xmlns="http://www.w3.org/2000/svg">
<g clip-path="url(#clip0_2402_70061)">
<path d="M14.5467 28.8565C14.7919 28.8822 15.0377 28.8129 15.2334 28.663C15.4292 28.5131 15.56 28.2938 15.5991 28.0504C15.6188 27.9046 15.6404 27.7594 15.6641 27.6148C15.684 27.4933 15.6799 27.369 15.6518 27.2491C15.6237 27.1292 15.5723 27.016 15.5004 26.916C15.4286 26.816 15.3378 26.7311 15.2331 26.6662C15.1285 26.6013 15.0121 26.5576 14.8905 26.5377C14.769 26.5178 14.6447 26.522 14.5249 26.5502C14.405 26.5783 14.2918 26.6298 14.1918 26.7017C14.0918 26.7735 14.007 26.8644 13.9421 26.9691C13.8772 27.0738 13.8336 27.1902 13.8138 27.3118C13.7872 27.4749 13.7621 27.6391 13.7406 27.8041C13.7244 27.9261 13.7324 28.0501 13.7641 28.1691C13.7959 28.288 13.8508 28.3995 13.9256 28.4972C14.0005 28.595 14.0939 28.677 14.2004 28.7386C14.307 28.8003 14.4246 28.8403 14.5467 28.8565Z" fill="#3E66F3"/>
<path d="M13.6886 31.7696C13.7065 31.9365 13.7269 32.1022 13.75 32.2668C13.7811 32.4906 13.892 32.6957 14.0624 32.8442C14.2327 32.9927 14.451 33.0746 14.677 33.075C14.8103 33.0726 14.9417 33.0423 15.0626 32.986C15.1835 32.9297 15.2912 32.8486 15.3788 32.7481C15.4664 32.6476 15.532 32.5297 15.5712 32.4023C15.6105 32.2748 15.6226 32.1406 15.6067 32.0081C15.587 31.8639 15.5687 31.7191 15.5536 31.5733C15.5273 31.3262 15.404 31.0996 15.2107 30.9434C15.0175 30.7871 14.7702 30.714 14.523 30.74C14.2759 30.766 14.0492 30.8891 13.8928 31.0822C13.7363 31.2752 13.6629 31.5225 13.6886 31.7696Z" fill="#3E66F3"/>
<path d="M43.9891 21.4235C43.9249 21.3184 43.8405 21.227 43.7409 21.1546C43.6413 21.0821 43.5284 21.0299 43.4086 21.0011C43.2889 20.9723 43.1646 20.9674 43.0429 20.9866C42.9213 21.0058 42.8046 21.0489 42.6995 21.1132C42.5945 21.1776 42.5032 21.262 42.4308 21.3617C42.3584 21.4614 42.3064 21.5744 42.2777 21.6942C42.249 21.814 42.2442 21.9382 42.2636 22.0599C42.283 22.1815 42.3261 22.2982 42.3906 22.4031C42.4675 22.5288 42.5427 22.6556 42.6163 22.7835C42.7463 22.9924 42.9507 23.1442 43.1883 23.2082C43.4258 23.2723 43.6788 23.2438 43.8962 23.1285C44.0029 23.0671 44.0965 22.9853 44.1717 22.8877C44.2468 22.7902 44.3019 22.6788 44.334 22.5599C44.3661 22.441 44.3744 22.317 44.3585 22.1949C44.3426 22.0728 44.3028 21.955 44.2414 21.8483C44.1594 21.7057 44.0753 21.5641 43.9891 21.4235Z" fill="#3E66F3"/>
<path d="M16.3859 22.5906C16.2744 22.5384 16.1537 22.5086 16.0307 22.5029C15.9077 22.4973 15.7848 22.516 15.669 22.5579C15.5532 22.5998 15.4468 22.6641 15.3558 22.7471C15.2649 22.8301 15.1912 22.9302 15.1389 23.0418C15.0689 23.1921 15.0002 23.3439 14.9343 23.4968C14.8855 23.6098 14.8594 23.7313 14.8575 23.8544C14.8557 23.9775 14.8781 24.0998 14.9235 24.2142C14.9689 24.3286 15.0364 24.433 15.1221 24.5214C15.2079 24.6097 15.3102 24.6803 15.4232 24.7291C15.6518 24.8248 15.9087 24.8273 16.1391 24.7359C16.3694 24.6445 16.5548 24.4666 16.6555 24.2402C16.7141 24.1047 16.7747 23.9704 16.8373 23.8373C16.9426 23.6121 16.9542 23.3543 16.8696 23.1206C16.785 22.8868 16.611 22.6962 16.3859 22.5906Z" fill="#3E66F3"/>
<path d="M14.9602 36.5633C15.0646 36.7869 15.2509 36.9618 15.4806 37.0519C15.7103 37.142 15.9658 37.1404 16.1943 37.0474C16.4222 36.9479 16.6012 36.762 16.6921 36.5305C16.7829 36.2991 16.7781 36.041 16.6786 35.8131C16.62 35.6792 16.5634 35.5442 16.5088 35.4082C16.463 35.2939 16.3952 35.1898 16.3092 35.1017C16.2231 35.0136 16.1206 34.9434 16.0074 34.8949C15.8943 34.8465 15.7727 34.8208 15.6496 34.8194C15.5265 34.818 15.4043 34.8408 15.29 34.8866C15.1757 34.9323 15.0716 35.0002 14.9835 35.0862C14.8955 35.1722 14.8252 35.2747 14.7768 35.3879C14.7283 35.5011 14.7027 35.6227 14.7012 35.7458C14.6998 35.8689 14.7226 35.9911 14.7684 36.1054C14.8302 36.2594 14.8941 36.412 14.9602 36.5633Z" fill="#3E66F3"/>
<path d="M28.831 13.6349C28.5887 13.6518 28.3624 13.7622 28.1998 13.9427C28.0373 14.1232 27.9511 14.3598 27.9595 14.6026C27.968 14.8454 28.0703 15.0754 28.245 15.2442C28.4197 15.4131 28.6531 15.5075 28.896 15.5076C28.918 15.5076 29.2563 15.4868 29.4042 15.4808C29.6524 15.4702 29.8862 15.3616 30.0544 15.1788C30.2226 14.9959 30.3113 14.7538 30.3011 14.5056C30.2909 14.2574 30.1827 14.0234 30.0001 13.8549C29.8175 13.6865 29.5755 13.5974 29.3273 13.6072C29.1611 13.614 28.9957 13.6233 28.831 13.6349Z" fill="#3E66F3"/>
<path d="M46.3999 30.4966C46.3985 30.3099 46.4086 30.1231 46.4068 29.9365C46.4068 29.6879 46.308 29.4494 46.1322 29.2736C45.9563 29.0978 45.7179 28.999 45.4693 28.999C45.2206 28.999 44.9822 29.0978 44.8063 29.2736C44.6305 29.4494 44.5318 29.6879 44.5318 29.9365C44.533 30.1049 44.5305 30.2733 44.5258 30.4417C44.5222 30.5647 44.5428 30.6873 44.5866 30.8024C44.6303 30.9174 44.6963 31.0228 44.7808 31.1123C44.8653 31.2019 44.9665 31.274 45.0789 31.3244C45.1912 31.3748 45.3123 31.4026 45.4354 31.4062C45.561 31.4217 45.6886 31.4093 45.8089 31.3699C45.9292 31.3304 46.0393 31.265 46.1314 31.1781C46.2235 31.0912 46.2954 30.9851 46.3418 30.8673C46.3882 30.7495 46.408 30.6229 46.3999 30.4966Z" fill="#3E66F3"/>
<path d="M36.6433 17.0723C36.8938 17.2474 37.1829 17.3592 37.4861 17.398C37.694 17.3982 37.8961 17.3293 38.0605 17.2021C38.225 17.0749 38.3425 16.8966 38.3946 16.6953C38.4467 16.494 38.4305 16.2811 38.3484 16.0901C38.2663 15.899 38.123 15.7407 37.9411 15.64C37.796 15.5597 37.6493 15.4814 37.5012 15.4051C37.2801 15.2914 37.0229 15.2701 36.7861 15.346C36.5493 15.4219 36.3524 15.5887 36.2386 15.8098C36.1249 16.0309 36.1036 16.2881 36.1795 16.5249C36.2554 16.7617 36.4222 16.9586 36.6433 17.0723Z" fill="#3E66F3"/>
<path d="M32.1808 14.6562C32.1563 14.7769 32.1559 14.9012 32.1795 15.022C32.2031 15.1429 32.2503 15.2579 32.3183 15.3605C32.3864 15.4631 32.474 15.5512 32.5761 15.62C32.6783 15.6887 32.793 15.7366 32.9137 15.761C33.1244 15.8216 33.3406 15.8616 33.5591 15.8802C33.7889 15.88 34.0106 15.7953 34.1821 15.6424C34.3535 15.4895 34.4629 15.2789 34.4894 15.0507C34.5159 14.8225 34.4576 14.5925 34.3257 14.4043C34.1938 14.2162 33.9974 14.0831 33.7738 14.0302C33.6122 13.992 33.4494 13.9563 33.2854 13.9231C33.0417 13.8743 32.7887 13.924 32.5816 14.0615C32.3746 14.1989 32.2305 14.4127 32.1808 14.6562Z" fill="#3E66F3"/>
<path d="M44.4856 35.5163C44.7229 35.5877 44.9788 35.5634 45.1985 35.4485C45.4181 35.3336 45.584 35.1372 45.6606 34.9015C45.7101 34.7431 45.7572 34.5839 45.8021 34.4238C45.869 34.1843 45.838 33.928 45.7159 33.7113C45.5938 33.4947 45.3907 33.3353 45.1512 33.2684C44.9116 33.2016 44.6553 33.2326 44.4386 33.3546C44.222 33.4767 44.0627 33.6799 43.9958 33.9194C43.9564 34.0611 43.9147 34.2018 43.8708 34.3417C43.7967 34.579 43.8198 34.836 43.9351 35.0562C44.0503 35.2765 44.2483 35.4419 44.4856 35.5163Z" fill="#3E66F3"/>
<path d="M43.9812 26.0232C44.021 26.1649 44.059 26.3073 44.0952 26.4505C44.1617 26.6881 44.317 26.8911 44.529 27.0176C44.7409 27.144 44.9933 27.1842 45.2341 27.1299C45.4751 27.0689 45.6821 26.9148 45.8094 26.7013C45.9368 26.4878 45.9742 26.2325 45.9134 25.9914C45.8727 25.8303 45.8298 25.6704 45.7848 25.5119C45.7513 25.3933 45.6948 25.2825 45.6185 25.1858C45.5422 25.0891 45.4476 25.0084 45.34 24.9483C45.2325 24.8882 45.1142 24.8498 44.9918 24.8355C44.8695 24.8211 44.7455 24.831 44.627 24.8646C44.5085 24.8982 44.3977 24.9549 44.3011 25.0313C44.2045 25.1077 44.1239 25.2025 44.0639 25.3101C44.0039 25.4177 43.9658 25.536 43.9516 25.6584C43.9374 25.7808 43.9474 25.9047 43.9812 26.0232Z" fill="#3E66F3"/>
<path d="M24.7774 16.37C25.0308 16.3451 25.2786 16.2794 25.5111 16.1755C25.7461 16.0976 25.9408 15.9299 26.0526 15.7089C26.1644 15.488 26.1842 15.2318 26.1078 14.9963C26.0314 14.7608 25.8649 14.5651 25.6447 14.4519C25.4245 14.3387 25.1685 14.3172 24.9325 14.3921C24.7741 14.4436 24.6169 14.4972 24.461 14.553C24.227 14.6368 24.0359 14.8102 23.9297 15.035C23.8235 15.2598 23.8109 15.5176 23.8948 15.7516C23.9632 15.9311 24.0838 16.086 24.2412 16.1963C24.3985 16.3065 24.5853 16.367 24.7774 16.37Z" fill="#3E66F3"/>
<path d="M17.3865 20.9944C17.5816 21.1463 17.8279 21.2168 18.0738 21.1909C18.3197 21.1651 18.5461 21.045 18.7053 20.8559C18.7973 20.7422 18.8912 20.6298 18.9869 20.5188C19.0677 20.4257 19.1293 20.3176 19.1683 20.2007C19.2073 20.0837 19.2228 19.9603 19.214 19.8373C19.2052 19.7144 19.1723 19.5944 19.117 19.4842C19.0618 19.374 18.9854 19.2758 18.8921 19.1952C18.7989 19.1145 18.6907 19.0531 18.5737 19.0143C18.4567 18.9756 18.3332 18.9603 18.2102 18.9693C18.0873 18.9784 17.9674 19.0115 17.8573 19.067C17.7472 19.1224 17.6491 19.199 17.5687 19.2924C17.4593 19.4185 17.3523 19.5463 17.2478 19.6758C17.0914 19.8691 17.0182 20.1166 17.0442 20.3638C17.0702 20.6111 17.1933 20.8379 17.3865 20.9944Z" fill="#3E66F3"/>
<path d="M21.048 18.315C21.3851 18.2712 21.7008 18.1259 21.9533 17.8983C22.0558 17.83 22.1438 17.7421 22.2123 17.6398C22.2808 17.5374 22.3285 17.4226 22.3526 17.3018C22.3768 17.181 22.3769 17.0567 22.3529 16.9359C22.329 16.8151 22.2814 16.7002 22.2131 16.5977C22.1447 16.4953 22.0568 16.4073 21.9544 16.3389C21.852 16.2704 21.7372 16.2228 21.6164 16.1987C21.4956 16.1747 21.3713 16.1746 21.2505 16.1987C21.1297 16.2227 21.0148 16.2703 20.9124 16.3387C20.775 16.4305 20.6389 16.5242 20.504 16.62C20.3013 16.7639 20.1641 16.9825 20.1226 17.2277C20.081 17.4728 20.1385 17.7244 20.2825 17.9271C20.3706 18.0474 20.4859 18.1452 20.6189 18.2126C20.7518 18.28 20.8989 18.3151 21.048 18.315Z" fill="#3E66F3"/>
<path d="M25.1481 43.7019C25.0089 43.6527 24.871 43.6014 24.7343 43.5481C24.5025 43.458 24.2444 43.4637 24.0168 43.5638C23.7893 43.664 23.6108 43.8505 23.5207 44.0823C23.4306 44.314 23.4363 44.5721 23.5365 44.7997C23.6367 45.0273 23.8232 45.2057 24.0549 45.2958C24.2997 45.4175 24.5641 45.4946 24.8359 45.5235C25.0571 45.5235 25.2711 45.4453 25.4402 45.3027C25.6093 45.1601 25.7225 44.9623 25.7599 44.7443C25.7972 44.5263 25.7563 44.3021 25.6444 44.1113C25.5324 43.9206 25.3566 43.7756 25.1481 43.7019Z" fill="#3E66F3"/>
<path d="M29.0233 44.4992C28.8772 44.4896 28.7312 44.4777 28.5861 44.4635C28.4636 44.4514 28.3399 44.4636 28.2221 44.4993C28.1043 44.535 27.9946 44.5936 27.8995 44.6717C27.8043 44.7498 27.7254 44.8458 27.6674 44.9544C27.6093 45.063 27.5733 45.1819 27.5612 45.3044C27.5491 45.4269 27.5613 45.5506 27.597 45.6684C27.6327 45.7863 27.6913 45.8959 27.7694 45.991C27.8474 46.0862 27.9435 46.1651 28.0521 46.2231C28.1606 46.2812 28.2796 46.3173 28.4021 46.3294C28.5673 46.3458 28.9422 46.3722 28.9628 46.3722C29.2061 46.372 29.4398 46.2772 29.6145 46.108C29.7893 45.9387 29.8913 45.7081 29.8992 45.4649C29.907 45.2218 29.82 44.9851 29.6566 44.8049C29.4931 44.6247 29.266 44.5151 29.0233 44.4992Z" fill="#3E66F3"/>
<path d="M36.6949 42.9007C36.5649 42.9684 36.433 43.0341 36.3007 43.0982C36.0769 43.2065 35.9053 43.3993 35.8236 43.6341C35.7419 43.8689 35.7567 44.1266 35.8649 44.3504C35.9795 44.5683 36.1726 44.7345 36.4052 44.8154C36.6377 44.8963 36.8923 44.8858 37.1174 44.786C37.2661 44.7141 37.4137 44.6402 37.56 44.5642C37.6693 44.5074 37.7662 44.4296 37.8454 44.3353C37.9246 44.2411 37.9844 44.1321 38.0215 44.0147C38.0585 43.8973 38.0721 43.7737 38.0614 43.6511C38.0507 43.5284 38.016 43.4091 37.9592 43.2999C37.9024 43.1906 37.8246 43.0937 37.7303 43.0145C37.6361 42.9353 37.5271 42.8755 37.4097 42.8384C37.2923 42.8014 37.1687 42.7878 37.0461 42.7985C36.9234 42.8091 36.8041 42.8439 36.6949 42.9007Z" fill="#3E66F3"/>
<path d="M34.0794 44.9543C34.0545 44.8337 34.006 44.7192 33.9368 44.6174C33.8675 44.5155 33.7789 44.4284 33.6759 44.3608C33.5729 44.2933 33.4576 44.2468 33.3366 44.2239C33.2156 44.201 33.0913 44.2021 32.9707 44.2273C32.8275 44.2571 32.6833 44.2848 32.5391 44.3102C32.4178 44.3315 32.3019 44.3764 32.198 44.4424C32.0941 44.5085 32.0043 44.5944 31.9336 44.6952C31.8629 44.796 31.8128 44.9097 31.786 45.0298C31.7593 45.15 31.7565 45.2743 31.7778 45.3955C31.8266 45.6374 31.9665 45.8513 32.1685 45.9929C32.3704 46.1346 32.6192 46.1933 32.8632 46.1568C33.0266 46.1282 33.1897 46.0969 33.3525 46.063C33.4731 46.0379 33.5875 45.9893 33.6892 45.9201C33.791 45.8508 33.8781 45.7621 33.9456 45.6592C34.0131 45.5562 34.0597 45.441 34.0826 45.32C34.1056 45.1991 34.1045 45.0748 34.0794 44.9543Z" fill="#3E66F3"/>
<path d="M42.4585 39.2165C42.668 39.3479 42.9202 39.393 43.1622 39.3421C43.4042 39.2913 43.617 39.1485 43.7558 38.9439C43.8469 38.8045 43.9353 38.6635 44.0222 38.5211C44.0862 38.4159 44.1289 38.2992 44.1477 38.1775C44.1666 38.0558 44.1613 37.9316 44.1322 37.812C44.103 37.6923 44.0506 37.5796 43.9779 37.4802C43.9052 37.3808 43.8136 37.2967 43.7084 37.2328C43.6032 37.1688 43.4865 37.1261 43.3648 37.1073C43.2431 37.0884 43.1189 37.0937 42.9992 37.1228C42.8796 37.152 42.7669 37.2044 42.6675 37.2771C42.5681 37.3498 42.484 37.4414 42.42 37.5466C42.3441 37.672 42.2659 37.7961 42.1857 37.919C42.1184 38.0221 42.072 38.1374 42.0493 38.2584C42.0266 38.3794 42.0279 38.5037 42.0533 38.6242C42.0786 38.7447 42.1274 38.8591 42.197 38.9607C42.2665 39.0623 42.3554 39.1492 42.4585 39.2165Z" fill="#3E66F3"/>
<path d="M40.8357 42.3198C40.9612 42.2097 41.0845 42.0979 41.2056 41.9843C41.2954 41.9 41.3678 41.799 41.4185 41.6868C41.4693 41.5746 41.4974 41.4535 41.5014 41.3305C41.5053 41.2074 41.485 41.0848 41.4416 40.9696C41.3981 40.8544 41.3324 40.7488 41.2482 40.659C41.164 40.5692 41.0629 40.4969 40.9507 40.4461C40.8385 40.3954 40.7175 40.3672 40.5944 40.3633C40.4713 40.3593 40.3487 40.3796 40.2335 40.4231C40.1183 40.4665 40.0128 40.5322 39.923 40.6165C39.8163 40.7165 39.708 40.8149 39.5979 40.9117C39.5054 40.993 39.4299 41.0917 39.3755 41.2022C39.3212 41.3127 39.2891 41.4328 39.2812 41.5557C39.2733 41.6785 39.2897 41.8018 39.3294 41.9183C39.3692 42.0348 39.4315 42.1424 39.5128 42.2349C39.6798 42.4169 39.9107 42.5274 40.1572 42.5433C40.4037 42.5591 40.6468 42.479 40.8357 42.3198Z" fill="#3E66F3"/>
<path d="M41.5172 18.3163C41.3986 18.1989 41.2781 18.0836 41.1555 17.9703C40.973 17.8018 40.7311 17.7127 40.483 17.7224C40.2348 17.7321 40.0006 17.8399 39.8318 18.0221C39.6631 18.2043 39.5734 18.446 39.5827 18.6942C39.5919 18.9423 39.6993 19.1767 39.8811 19.3459C39.9887 19.4452 40.0943 19.5462 40.1979 19.6489C40.376 19.8212 40.6145 19.917 40.8624 19.9158C41.1102 19.9145 41.3477 19.8162 41.524 19.642C41.6989 19.4653 41.7964 19.2264 41.7951 18.9778C41.7938 18.7292 41.6938 18.4913 41.5172 18.3163Z" fill="#3E66F3"/>
<path d="M21.634 41.8833C21.5141 41.7988 21.3957 41.7126 21.2788 41.6246C21.0802 41.4751 20.8303 41.4105 20.5841 41.4452C20.3379 41.4799 20.1155 41.611 19.9659 41.8096C19.8164 42.0082 19.7518 42.2581 19.7865 42.5043C19.8212 42.7505 19.9523 42.9729 20.1509 43.1224C20.2841 43.2227 20.419 43.3208 20.5555 43.4168C20.7598 43.5571 21.0108 43.6118 21.2549 43.5693C21.499 43.5269 21.7167 43.3905 21.8615 43.1895C21.9324 43.0888 21.9828 42.9751 22.0097 42.855C22.0366 42.7348 22.0396 42.6106 22.0185 42.4892C21.9974 42.3679 21.9525 42.252 21.8866 42.148C21.8206 42.044 21.7348 41.9541 21.634 41.8833Z" fill="#3E66F3"/>
<path d="M18.6061 40.5053C18.7015 40.4274 18.7806 40.3315 18.8389 40.223C18.8972 40.1146 18.9336 39.9957 18.946 39.8732C18.9584 39.7507 18.9465 39.627 18.911 39.509C18.8756 39.3911 18.8172 39.2814 18.7393 39.186C18.6464 39.0722 18.5553 38.9571 18.466 38.8406C18.3145 38.6436 18.091 38.5149 17.8446 38.4826C17.5983 38.4503 17.3491 38.5171 17.152 38.6684C16.9548 38.8197 16.8258 39.043 16.7932 39.2894C16.7607 39.5357 16.8272 39.785 16.9783 39.9823C17.0795 40.1139 17.1825 40.2438 17.2873 40.3721C17.4484 40.5587 17.6749 40.6765 17.9202 40.7013C18.1655 40.7261 18.411 40.6559 18.6061 40.5053Z" fill="#3E66F3"/>
<path d="M30 6.5625C31.8122 6.5625 33.2812 5.09343 33.2812 3.28125C33.2812 1.46907 31.8122 0 30 0C28.1878 0 26.7188 1.46907 26.7188 3.28125C26.7188 5.09343 28.1878 6.5625 30 6.5625Z" fill="#3E66F3"/>
<path d="M30 60C31.8122 60 33.2812 58.5309 33.2812 56.7188C33.2812 54.9066 31.8122 53.4375 30 53.4375C28.1878 53.4375 26.7188 54.9066 26.7188 56.7188C26.7188 58.5309 28.1878 60 30 60Z" fill="#3E66F3"/>
<path d="M56.7188 33.2812C58.5309 33.2812 60 31.8122 60 30C60 28.1878 58.5309 26.7188 56.7188 26.7188C54.9066 26.7188 53.4375 28.1878 53.4375 30C53.4375 31.8122 54.9066 33.2812 56.7188 33.2812Z" fill="#3E66F3"/>
<path d="M3.28125 33.2812C5.09343 33.2812 6.5625 31.8122 6.5625 30C6.5625 28.1878 5.09343 26.7188 3.28125 26.7188C1.46907 26.7188 0 28.1878 0 30C0 31.8122 1.46907 33.2812 3.28125 33.2812Z" fill="#3E66F3"/>
<path d="M48.893 52.1726C49.6517 52.1721 50.3868 51.9086 50.9731 51.4269C51.5593 50.9452 51.9604 50.2751 52.108 49.5309C52.2556 48.7866 52.1405 48.0142 51.7825 47.3453C51.4245 46.6763 50.8455 46.1522 50.1444 45.8622C49.4432 45.5723 48.6632 45.5344 47.9373 45.755C47.2113 45.9756 46.5843 46.4412 46.1631 47.0723C45.7419 47.7033 45.5525 48.461 45.6273 49.216C45.702 49.9711 46.0363 50.6769 46.573 51.2131C46.8775 51.5179 47.2392 51.7598 47.6373 51.9244C48.0355 52.089 48.4622 52.1733 48.893 52.1726Z" fill="#3E66F3"/>
<path d="M8.78737 8.78679C8.17309 9.40271 7.82812 10.2371 7.82812 11.107C7.82812 11.9768 8.17309 12.8112 8.78737 13.4271C9.24628 13.886 9.83096 14.1988 10.4675 14.3254C11.104 14.452 11.7638 14.387 12.3634 14.1387C12.963 13.8903 13.4755 13.4697 13.836 12.9301C14.1966 12.3905 14.389 11.7561 14.389 11.1071C14.389 10.4581 14.1966 9.82365 13.836 9.28403C13.4755 8.74441 12.963 8.32383 12.3634 8.07547C11.7638 7.82711 11.104 7.76212 10.4675 7.88874C9.83096 8.01535 9.24628 8.32788 8.78737 8.78679Z" fill="#3E66F3"/>
<path d="M46.5723 8.78637C46.5723 9.40171 46.8168 9.99206 47.2519 10.4272C47.687 10.8623 48.2772 11.1067 48.8925 11.1067C49.5078 11.1066 50.098 10.8622 50.5331 10.4271C50.9682 9.99196 51.2126 9.40182 51.2126 8.78649C51.2126 8.17115 50.9682 7.58101 50.5331 7.14589C50.098 6.71078 49.5078 6.46632 48.8925 6.46631C48.2772 6.46629 47.687 6.71072 47.2519 7.14581C46.8168 7.58091 46.5723 8.17103 46.5723 8.78637Z" fill="#3E66F3"/>
<path d="M30.9375 8.34814C30.3182 8.46758 29.6818 8.46758 29.0625 8.34814V11.7427C29.3731 11.727 30.6269 11.727 30.9375 11.7427V8.34814Z" fill="#3E66F3"/>
<path d="M29.0625 51.6519C29.6818 51.5325 30.3182 51.5325 30.9375 51.6519V48.2573C30.6269 48.2731 29.3731 48.2731 29.0625 48.2573V51.6519Z" fill="#3E66F3"/>
<path d="M48.2578 29.0605C48.2736 29.3717 48.2736 30.6256 48.2579 30.9355H51.6522C51.5329 30.3162 51.5331 29.6798 51.6528 29.0605H48.2578Z" fill="#3E66F3"/>
<path d="M8.34766 29.0605C8.46728 29.6798 8.46748 30.3162 8.34823 30.9355H11.7425C11.7268 30.6256 11.7268 29.3717 11.7426 29.0605H8.34766Z" fill="#3E66F3"/>
<path d="M45.2458 45.2473C45.4695 45.0254 45.7131 44.8244 45.9735 44.6469L43.5658 42.2393C43.1467 42.7034 42.7043 43.1459 42.2402 43.5651L44.6475 45.9722C44.8244 45.7129 45.0247 45.4702 45.2458 45.2473Z" fill="#3E66F3"/>
<path d="M14.7529 14.7529C14.5298 14.9742 14.2869 15.1747 14.0273 15.3518L16.4347 17.7589C16.8539 17.2949 17.2964 16.8525 17.7605 16.4334L15.3528 14.0259C15.1755 14.286 14.9746 14.5294 14.7529 14.7529Z" fill="#3E66F3"/>
<path d="M44.646 14.0259L42.2383 16.4334C42.7024 16.8525 43.1449 17.2949 43.5641 17.759L45.9714 15.3519C45.449 14.9985 44.9992 14.5484 44.646 14.0259Z" fill="#3E66F3"/>
<path d="M15.3513 45.9723L17.7585 43.5651C17.2945 43.1459 16.8521 42.7034 16.433 42.2393L14.0254 44.6468C14.5478 45 14.9979 45.4499 15.3513 45.9723Z" fill="#3E66F3"/>
<path d="M11.1059 52.1731C11.8646 52.1726 12.5997 51.9091 13.186 51.4274C13.7722 50.9457 14.1733 50.2757 14.3209 49.5314C14.4685 48.7871 14.3534 48.0147 13.9954 47.3458C13.6374 46.6768 13.0584 46.1527 12.3573 45.8627C11.6561 45.5728 10.8761 45.5349 10.1502 45.7555C9.42423 45.9761 8.79722 46.4416 8.37601 47.0727C7.9548 47.7038 7.76543 48.4614 7.84018 49.2165C7.91492 49.9716 8.24915 50.6773 8.78593 51.2136C9.0904 51.5184 9.45208 51.7602 9.85021 51.9249C10.2483 52.0895 10.675 52.1738 11.1059 52.1731Z" fill="#3E66F3"/>
<path d="M39.4952 36.0535L39.9901 35.1965C40.1006 35.0052 40.1723 34.794 40.2012 34.5749C40.2301 34.3558 40.2155 34.1332 40.1583 33.9198C40.1012 33.7063 40.0025 33.5063 39.868 33.331C39.7334 33.1557 39.5657 33.0086 39.3743 32.8981L39.0395 32.7046C39.0914 32.5306 39.1384 32.3549 39.1803 32.1775H39.5673C40.0135 32.177 40.4412 31.9996 40.7566 31.6841C41.0721 31.3687 41.2495 30.941 41.25 30.4949V29.5051C41.2495 29.059 41.0721 28.6313 40.7566 28.3158C40.4412 28.0004 40.0135 27.8229 39.5673 27.8224H39.1803C39.1386 27.6454 39.0917 27.4697 39.0395 27.2951L39.3743 27.1018C39.7604 26.8784 40.042 26.5109 40.1575 26.08C40.2729 25.6491 40.2127 25.19 39.9901 24.8035L39.4954 23.947C39.3851 23.7556 39.238 23.5877 39.0628 23.4531C38.8875 23.3185 38.6874 23.2198 38.474 23.1625C38.2605 23.1053 38.0379 23.0906 37.8188 23.1195C37.5997 23.1483 37.3884 23.22 37.197 23.3306L36.86 23.5251C36.7354 23.3932 36.607 23.2649 36.475 23.1401L36.6697 22.8025C36.8922 22.4159 36.9523 21.957 36.8367 21.5262C36.7212 21.0955 36.4395 20.7281 36.0535 20.5048L35.1965 20.01C35.0052 19.8994 34.794 19.8276 34.5749 19.7987C34.3558 19.7698 34.1332 19.7843 33.9197 19.8415C33.7063 19.8987 33.5062 19.9974 33.3309 20.1319C33.1556 20.2665 33.0085 20.4343 32.8981 20.6257L32.7046 20.9605C32.5306 20.9086 32.3549 20.8616 32.1776 20.8197V20.4327C32.1771 19.9865 31.9996 19.5588 31.6842 19.2434C31.3687 18.9279 30.941 18.7505 30.4949 18.75H29.5051C29.059 18.7505 28.6313 18.9279 28.3158 19.2434C28.0004 19.5588 27.8229 19.9865 27.8224 20.4327V20.8197C27.6454 20.8614 27.4697 20.9083 27.2951 20.9605L27.1021 20.6261C26.9917 20.4347 26.8447 20.2668 26.6694 20.1322C26.4941 19.9975 26.294 19.8988 26.0805 19.8416C25.867 19.7843 25.6444 19.7697 25.4252 19.7986C25.2061 19.8275 24.9948 19.8993 24.8035 20.0099L23.947 20.5045C23.5608 20.7278 23.279 21.0953 23.1634 21.5262C23.0478 21.9571 23.1079 22.4163 23.3306 22.8029L23.5251 23.14C23.3932 23.2646 23.2649 23.393 23.1401 23.525L22.8025 23.3303C22.6112 23.2199 22.4 23.1482 22.1809 23.1194C21.9619 23.0906 21.7394 23.1052 21.526 23.1625C21.3126 23.2197 21.1126 23.3184 20.9374 23.4529C20.7622 23.5874 20.6152 23.7552 20.5048 23.9465L20.01 24.8035C19.7873 25.19 19.7271 25.6491 19.8426 26.08C19.958 26.5108 20.2396 26.8783 20.6257 27.1018L20.9605 27.2953C20.9086 27.4694 20.8616 27.6451 20.8197 27.8224H20.4327C19.9866 27.8229 19.5588 28.0004 19.2434 28.3158C18.9279 28.6313 18.7505 29.059 18.75 29.5051V30.4949C18.7505 30.941 18.9279 31.3687 19.2434 31.6841C19.5588 31.9996 19.9865 32.177 20.4327 32.1775H20.8197C20.8614 32.3546 20.9083 32.5303 20.9605 32.7049L20.6262 32.8979C20.4347 33.0083 20.2669 33.1553 20.1323 33.3306C19.9977 33.5059 19.899 33.706 19.8417 33.9195C19.7845 34.133 19.7699 34.3556 19.7988 34.5748C19.8276 34.7939 19.8994 35.0052 20.0099 35.1965L20.5046 36.0529C20.6149 36.2444 20.762 36.4122 20.9372 36.5469C21.1125 36.6815 21.3126 36.7802 21.526 36.8375C21.7395 36.8947 21.9621 36.9094 22.1812 36.8805C22.4003 36.8517 22.6116 36.78 22.803 36.6694L23.14 36.4749C23.2646 36.6067 23.393 36.7351 23.525 36.8599L23.3306 37.197C23.2201 37.3884 23.1484 37.5996 23.1195 37.8186C23.0907 38.0377 23.1053 38.2603 23.1625 38.4737C23.2197 38.6871 23.3184 38.8871 23.4529 39.0624C23.5874 39.2377 23.7552 39.3847 23.9465 39.4951L24.8035 39.99C24.9948 40.1006 25.206 40.1724 25.4251 40.2013C25.6442 40.2302 25.8668 40.2156 26.0803 40.1585C26.2937 40.1013 26.4938 40.0026 26.6691 39.868C26.8444 39.7335 26.9915 39.5657 27.1019 39.3743L27.2954 39.0395C27.4694 39.0914 27.6451 39.1383 27.8225 39.1803V39.5673C27.8229 40.0134 28.0004 40.4412 28.3158 40.7566C28.6313 41.0721 29.059 41.2495 29.5051 41.25H30.4949C30.941 41.2495 31.3687 41.0721 31.6841 40.7566C31.9996 40.4412 32.177 40.0135 32.1775 39.5673V39.1803C32.3546 39.1386 32.5303 39.0917 32.7049 39.0395L32.8979 39.3738C33.0083 39.5653 33.1553 39.7332 33.3306 39.8678C33.5059 40.0024 33.706 40.1012 33.9195 40.1584C34.133 40.2156 34.3556 40.2302 34.5748 40.2013C34.7939 40.1725 35.0052 40.1007 35.1965 39.9901L36.053 39.4954C36.2444 39.385 36.4122 39.238 36.5468 39.0627C36.6814 38.8875 36.7802 38.6874 36.8374 38.474C36.8947 38.2605 36.9093 38.0379 36.8805 37.8188C36.8516 37.5997 36.7799 37.3884 36.6694 37.197L36.4749 36.86C36.6068 36.7354 36.7351 36.607 36.8599 36.4749L37.1975 36.6697C37.3888 36.7801 37.6 36.8518 37.8191 36.8806C38.0381 36.9094 38.2606 36.8947 38.474 36.8375C38.6874 36.7803 38.8874 36.6816 39.0626 36.5471C39.2378 36.4125 39.3848 36.2448 39.4952 36.0535ZM30 33.75C29.2583 33.75 28.5333 33.5301 27.9166 33.118C27.2999 32.706 26.8193 32.1203 26.5355 31.4351C26.2516 30.7498 26.1774 29.9958 26.3221 29.2684C26.4667 28.541 26.8239 27.8728 27.3484 27.3484C27.8728 26.8239 28.541 26.4667 29.2684 26.3221C29.9958 26.1774 30.7498 26.2516 31.4351 26.5355C32.1203 26.8193 32.706 27.2999 33.118 27.9166C33.5301 28.5333 33.75 29.2583 33.75 30C33.75 30.9946 33.3549 31.9484 32.6516 32.6516C31.9484 33.3549 30.9946 33.75 30 33.75Z" fill="#3E66F3"/>
</g>
<defs>
<clipPath id="clip0_2402_70061">
<rect width="60" height="60" fill="white"/>
</clipPath>
</defs>
</svg>
