<svg width="70" height="70" viewBox="0 0 70 70" fill="none" xmlns="http://www.w3.org/2000/svg">
<path d="M64.357 12.7299V32.2866C64.357 50.0969 52.2621 65.6268 34.9858 70C17.7384 65.6412 5.64355 50.0969 5.64355 32.2866V12.7299C19.225 11.2 26.9178 6.03299 35.0003 0C43.0827 6.03299 50.7755 11.2 64.357 12.7299Z" fill="#38E1DE"/>
<path d="M34.9997 62.2784C21.9955 58.1506 13.0615 46.0846 13.0615 32.2867V19.0372C22.1976 17.0455 28.9089 13.365 34.9997 9.16504C41.2203 13.4805 47.8017 17.0888 56.9378 19.0516V32.3011C56.9378 46.0846 48.0038 58.1506 34.9997 62.2784Z" fill="#00B6B3"/>
<path d="M30.1362 46.9649L22.9053 39.7339L26.5713 36.0535L30.1362 39.604L43.429 26.3257L47.095 29.9917L30.1362 46.9649Z" fill="white"/>
</svg>
