<svg width="18" height="24" viewBox="0 0 18 24" fill="none" xmlns="http://www.w3.org/2000/svg">
<path d="M14.7024 16.1289C14.1773 16.429 13.5772 16.579 12.902 16.579C12.3394 16.579 11.7768 16.804 11.3642 17.2166C10.9141 17.6667 10.3515 18.0043 9.71387 18.1543L11.4392 23.6305C11.5518 24.0431 12.0769 24.1181 12.3394 23.818L13.5397 22.3177C13.6522 22.1677 13.8772 22.0927 14.1023 22.1677L15.9027 22.7303C16.2777 22.8428 16.6528 22.4677 16.5403 22.0927L14.7024 16.1289Z" fill="white"/>
<path d="M4.65075 16.579C4.01311 16.579 3.37548 16.429 2.85037 16.1289L1.01249 22.0927C0.899962 22.4677 1.27504 22.8428 1.65012 22.7303L3.4505 22.1677C3.63803 22.0927 3.86308 22.1677 4.01311 22.3177L5.21336 23.818C5.47592 24.1181 5.96352 24.0431 6.11355 23.6305L7.80141 18.1543C7.20128 18.0043 6.63866 17.6667 6.18857 17.2166C5.77598 16.804 5.21336 16.579 4.65075 16.579Z" fill="white"/>
<path d="M16.691 6.71439C16.1284 6.15178 15.8283 5.43913 15.8283 4.65146C15.8283 3.03862 14.5155 1.72585 12.9027 1.72585C12.115 1.72585 11.4024 1.42579 10.8398 0.863169C10.2772 0.300551 9.52699 0.000488281 8.77684 0.000488281C8.02668 0.000488281 7.27652 0.300551 6.7139 0.863169C6.15129 1.38828 5.43864 1.72585 4.65097 1.72585C3.03814 1.72585 1.72536 3.03862 1.72536 4.65146C1.72536 5.43913 1.4253 6.15178 0.86268 6.71439C0.300063 7.27701 0 8.02717 0 8.77733C0 9.52748 0.300063 10.2776 0.86268 10.8403C1.4253 11.4029 1.72536 12.1155 1.72536 12.9032C1.72536 14.516 3.03814 15.8288 4.65097 15.8288C5.43864 15.8288 6.15129 16.1289 6.7139 16.6915C7.87665 17.8167 9.71453 17.8167 10.8398 16.6915C11.4024 16.1289 12.1525 15.8288 12.9027 15.8288C14.5155 15.8288 15.8283 14.516 15.8283 12.9032C15.8283 12.1155 16.1284 11.4029 16.691 10.8403C17.2536 10.2776 17.5537 9.52748 17.5537 8.77733C17.5537 8.02717 17.2536 7.27701 16.691 6.71439ZM8.77684 14.1785C5.77621 14.1785 3.37571 11.7404 3.37571 8.77733C3.37571 5.7767 5.77621 3.37619 8.77684 3.37619C11.7775 3.37619 14.178 5.81421 14.178 8.77733C14.178 11.778 11.7775 14.1785 8.77684 14.1785Z" fill="white"/>
<path d="M11.5898 7.76468L10.0895 7.53963C9.97696 7.53963 9.86444 7.42711 9.78942 7.31459L9.11428 5.9643C8.96425 5.66424 8.55166 5.66424 8.40163 5.9643L7.72649 7.31459C7.65148 7.42711 7.57646 7.50213 7.42643 7.53963L5.92611 7.76468C5.58854 7.80219 5.47602 8.21478 5.70107 8.43982L6.7888 9.49004C6.86381 9.56506 6.93883 9.71509 6.90132 9.82761L6.63876 11.3279C6.60126 11.6655 6.93883 11.8905 7.20138 11.7405L8.55166 11.0279C8.66419 10.9528 8.81422 10.9528 8.92674 11.0279L10.277 11.7405C10.5771 11.8905 10.9147 11.6655 10.8396 11.3279L10.5771 9.82761C10.5396 9.71509 10.6146 9.56506 10.6896 9.49004L11.7773 8.43982C12.0774 8.21478 11.9274 7.80219 11.5898 7.76468Z" fill="white"/>
</svg>
