<svg width="20" height="24" viewBox="0 0 20 24" fill="none" xmlns="http://www.w3.org/2000/svg">
<path d="M13.5173 14.3291H5.78347C2.54027 14.6254 0 17.3518 0 20.6726C0 23.8446 2.3176 24.0003 5.3528 24.0003C5.684 24.0003 6.02347 23.9987 6.37067 23.9987H12.9317C13.2765 23.9987 13.6168 24.0003 13.948 24.0003C16.9832 24.0003 19.3021 23.8448 19.3021 20.6726C19.3011 17.3515 16.7605 14.6248 13.5173 14.3291Z" fill="white"/>
<path d="M10.8217 11.0508H11.7966C12.1179 11.0508 12.4235 11.1601 12.6697 11.3548C13.2307 11.2796 13.7606 11.1337 14.2198 10.9351C14.3523 10.7388 14.4675 10.5303 14.5737 10.3167V8.18306C14.5737 7.70066 14.7531 7.25132 15.0643 6.90892C14.6097 4.32786 12.3617 2.36572 9.6502 2.36572C6.93953 2.36572 4.69099 4.32812 4.23633 6.90919C4.54726 7.25132 4.72699 7.70066 4.72699 8.18306V10.3167C5.62859 12.1263 7.4918 13.3721 9.64993 13.3721C9.68353 13.3721 9.71606 13.3679 9.74939 13.3671C9.54113 13.1209 9.41046 12.8073 9.41046 12.4607C9.41073 11.6833 10.0438 11.0508 10.8217 11.0508Z" fill="white"/>
<path d="M2.76608 11.8584H2.82768C3.50395 11.8584 4.05275 11.3096 4.05275 10.6309V8.1824C4.05275 7.70133 3.77515 7.28693 3.37115 7.08613C3.54582 3.7728 6.29568 1.13147 9.65142 1.13147C13.0071 1.13147 15.7581 3.77253 15.9322 7.08613C15.5282 7.28667 15.2509 7.70133 15.2509 8.1824V10.6309C15.2509 10.7936 15.2826 10.9451 15.3381 11.0869C14.6237 11.5971 13.5845 11.9613 12.4141 12.0621C12.2815 11.8608 12.0557 11.7261 11.7975 11.7261H10.8226C10.4162 11.7261 10.0877 12.0552 10.0877 12.46C10.0877 12.8653 10.4159 13.1949 10.8226 13.1949H11.7975C12.0815 13.1949 12.3237 13.0331 12.4458 12.7984C13.8048 12.6912 14.9863 12.2763 15.8165 11.6627C16.0066 11.7859 16.2322 11.8581 16.4757 11.8581H16.537C17.2141 11.8581 17.7618 11.3093 17.7618 10.6307V8.18213C17.7618 7.6944 17.4759 7.27333 17.0634 7.07787C16.8837 3.14613 13.6282 0 9.65168 0C5.67515 0 2.41915 3.14613 2.24075 7.0784C1.82768 7.2736 1.54102 7.69493 1.54102 8.18267V10.6312C1.54102 11.3096 2.09035 11.8584 2.76608 11.8584Z" fill="white"/>
</svg>
