<svg width="40" height="41" viewBox="0 0 40 41" fill="none" xmlns="http://www.w3.org/2000/svg">
<g clip-path="url(#clip0_1752_3433)">
<path d="M39.4135 19.914H29.9793V18.5809H32.5247C32.8483 18.5809 33.1106 18.3185 33.1106 17.9949C33.1106 17.6713 32.8483 17.409 32.5247 17.409H29.9793V16.0758H31.7465C32.4048 16.0758 33.0238 15.8195 33.4893 15.3539L37.3429 11.5003C37.594 11.6254 37.8723 11.692 38.1611 11.692C38.6522 11.692 39.1138 11.5007 39.4611 11.1536C39.8083 10.8063 39.9996 10.3446 39.9996 9.85356C39.9996 9.36246 39.8083 8.90083 39.4611 8.55356C39.1139 8.2063 38.6522 8.01505 38.1611 8.01505C37.67 8.01505 37.2083 8.2063 36.8611 8.55348C36.5138 8.90075 36.3226 9.36239 36.3226 9.85348C36.3226 10.1422 36.3891 10.4206 36.5142 10.6717L32.6606 14.5253C32.4165 14.7694 32.0918 14.9039 31.7464 14.9039H29.9792V13.6111C29.9792 11.9068 28.5926 10.5202 26.8883 10.5202H25.5955V5.33311C26.3227 5.08787 26.848 4.39983 26.848 3.59093C26.848 2.57718 26.0232 1.7525 25.0096 1.7525C23.9959 1.7525 23.1711 2.57726 23.1711 3.59093C23.1711 4.39983 23.6964 5.08779 24.4236 5.33311V10.5201H23.0905V7.97474C23.0905 7.65114 22.8282 7.3888 22.5046 7.3888C22.181 7.3888 21.9186 7.65114 21.9186 7.97474V10.5201H20.5854V1.08594C20.5854 0.762343 20.3231 0.5 19.9995 0.5C19.6759 0.5 19.4136 0.762343 19.4136 1.08594V10.5201H18.0804V7.97474C18.0804 7.65114 17.8181 7.3888 17.4945 7.3888C17.1709 7.3888 16.9086 7.65114 16.9086 7.97474V10.5201H15.5755V8.75301C15.5755 8.09466 15.3191 7.47568 14.8535 7.01021L10.9986 3.1553C11.3391 2.46773 11.225 1.61039 10.6532 1.03851C9.93634 0.321719 8.77001 0.321798 8.05322 1.03851C7.33643 1.75531 7.33643 2.92163 8.05322 3.6385C8.41166 3.99686 8.88244 4.17608 9.35322 4.17608C9.63353 4.17608 9.91337 4.111 10.17 3.98389L14.0249 7.83888C14.2691 8.08302 14.4036 8.4077 14.4036 8.75301V10.5201H13.1108C12.8495 10.5201 12.5895 10.5529 12.3383 10.6175C12.0249 10.6982 11.8363 11.0176 11.9169 11.3311C11.9975 11.6445 12.317 11.8332 12.6304 11.7525C12.7862 11.7124 12.9478 11.692 13.1107 11.692H26.8883C27.9465 11.692 28.8074 12.5529 28.8074 13.611V27.3887C28.8074 27.5515 28.787 27.7129 28.747 27.8686C28.6665 28.1821 28.8552 28.5015 29.1686 28.582C29.2175 28.5946 29.2666 28.6006 29.3149 28.6006C29.5759 28.6006 29.814 28.4249 29.882 28.1604C29.9465 27.9094 29.9792 27.6497 29.9792 27.3886V26.0958H35.1662C35.4115 26.823 36.0995 27.3483 36.9084 27.3483C37.9222 27.3483 38.7469 26.5236 38.7469 25.5099C38.7469 24.4962 37.9221 23.6715 36.9084 23.6715C36.0995 23.6715 35.4116 24.1968 35.1662 24.924H29.9792V23.5908H32.5246C32.8482 23.5908 33.1105 23.3284 33.1105 23.0048C33.1105 22.6812 32.8482 22.4189 32.5246 22.4189H29.9792V21.0859H39.4135C39.7371 21.0859 39.9994 20.8235 39.9994 20.4999C39.9994 20.1763 39.7371 19.914 39.4135 19.914ZM37.6897 9.38223C37.8156 9.25629 37.9829 9.187 38.161 9.187C38.339 9.187 38.5064 9.25629 38.6323 9.38223C38.7583 9.50817 38.8276 9.67551 38.8276 9.85356C38.8276 10.0316 38.7583 10.1989 38.6323 10.3249C38.5064 10.4508 38.339 10.5201 38.161 10.5201C37.9829 10.5201 37.8156 10.4508 37.6897 10.3249C37.5637 10.1989 37.4944 10.0316 37.4944 9.85356C37.4944 9.67551 37.5637 9.50809 37.6897 9.38223ZM9.82446 2.80991C9.56462 3.06968 9.14173 3.06976 8.88173 2.80983C8.62181 2.54991 8.62181 2.12702 8.88173 1.86718C9.01173 1.73718 9.18236 1.67226 9.35314 1.67226C9.52384 1.67226 9.69454 1.73726 9.82446 1.86718C10.0844 2.1271 10.0844 2.54999 9.82446 2.80991ZM25.0096 4.25749C24.6421 4.25749 24.343 3.95842 24.343 3.59093C24.343 3.22343 24.642 2.92437 25.0096 2.92437C25.3771 2.92437 25.6761 3.22343 25.6761 3.59093C25.6761 3.95842 25.3771 4.25749 25.0096 4.25749ZM36.9085 24.8434C37.2761 24.8434 37.5751 25.1425 37.5751 25.51C37.5751 25.8776 37.276 26.1765 36.9085 26.1765C36.541 26.1765 36.2419 25.8775 36.2419 25.51C36.2419 25.1424 36.5409 24.8434 36.9085 24.8434Z" fill="#D9F900"/>
<path d="M31.9463 37.3615C31.3745 36.7897 30.5171 36.6755 29.8295 37.0161L25.9746 33.1611C25.7304 32.917 25.5959 32.5923 25.5959 32.247V30.4799H26.8887C27.15 30.4799 27.4099 30.447 27.6611 30.3824C27.9744 30.3018 28.1631 29.9824 28.0825 29.6689C28.0018 29.3556 27.6825 29.1669 27.369 29.2475C27.2132 29.2876 27.0516 29.3079 26.8887 29.3079H13.1111C12.0529 29.3079 11.1921 28.447 11.1921 27.3888V13.6112C11.1921 13.4484 11.2124 13.2868 11.2525 13.1311C11.3332 12.8177 11.1445 12.4983 10.8311 12.4176C10.5177 12.3369 10.1982 12.5255 10.1176 12.8389C10.0529 13.09 10.0202 13.3498 10.0202 13.6112V14.9041H4.83311C4.58787 14.1769 3.89983 13.6516 3.09092 13.6516C2.07718 13.6516 1.25249 14.4762 1.25249 15.49C1.25249 16.5037 2.07726 17.3284 3.09092 17.3284C3.89983 17.3284 4.58779 16.8031 4.83311 16.0759H10.0201V17.4091H7.47474C7.15114 17.4091 6.8888 17.6715 6.8888 17.9951C6.8888 18.3186 7.15114 18.581 7.47474 18.581H10.0201V19.9141H0.585935C0.262343 19.9141 0 20.1765 0 20.5C0 20.8236 0.262343 21.086 0.585935 21.086H10.0201V22.4191H7.47474C7.15114 22.4191 6.8888 22.6814 6.8888 23.005C6.8888 23.3286 7.15114 23.591 7.47474 23.591H10.0201V24.9242H8.25294C7.59458 24.9242 6.9756 25.1805 6.51013 25.646L2.65655 29.4996C2.40546 29.3745 2.1271 29.308 1.83835 29.308C1.34726 29.308 0.885621 29.4992 0.538357 29.8464C0.191249 30.1937 0 30.6554 0 31.1464C0 31.6374 0.191249 32.0991 0.538513 32.4464C0.8857 32.7937 1.34742 32.9848 1.83851 32.9848C2.3296 32.9848 2.79124 32.7936 3.1385 32.4464C3.48577 32.0991 3.67702 31.6375 3.67702 31.1464C3.67702 30.8577 3.61045 30.5793 3.48538 30.3282L7.33896 26.4746C7.5831 26.2305 7.90778 26.096 8.25317 26.096H10.0204V27.3888C10.0204 29.0931 11.407 30.4797 13.1113 30.4797H14.4041V35.6667C13.6769 35.9119 13.1516 36.6 13.1516 37.4089C13.1516 38.4226 13.9764 39.2473 14.99 39.2473C16.0037 39.2473 16.8284 38.4226 16.8284 37.4089C16.8284 36.6 16.3031 35.912 15.576 35.6667V30.4797H16.9091V33.0251C16.9091 33.3487 17.1714 33.611 17.495 33.611C17.8186 33.611 18.0809 33.3487 18.0809 33.0251V30.4797H19.414V39.914C19.414 40.2376 19.6763 40.5 19.9999 40.5C20.3235 40.5 20.5859 40.2376 20.5859 39.914V30.4799H21.919V33.0252C21.919 33.3488 22.1813 33.6112 22.5049 33.6112C22.8285 33.6112 23.0908 33.3488 23.0908 33.0252V30.4799H24.424V32.247C24.424 32.9053 24.6804 33.5243 25.1459 33.9898L29.0008 37.8447C28.6603 38.5322 28.7744 39.3896 29.3463 39.9615C29.7046 40.3199 30.1755 40.499 30.6463 40.499C31.1171 40.499 31.5879 40.3199 31.9463 39.9615C32.6631 39.2447 32.6631 38.0783 31.9463 37.3615ZM3.09092 16.1565C2.72335 16.1565 2.42437 15.8575 2.42437 15.49C2.42437 15.1224 2.72343 14.8234 3.09092 14.8234C3.45842 14.8234 3.75748 15.1225 3.75748 15.49C3.75756 15.8576 3.4585 16.1565 3.09092 16.1565ZM2.30976 31.6177C2.18382 31.7437 2.01648 31.813 1.83843 31.813C1.66038 31.813 1.49304 31.7437 1.3671 31.6177C1.24117 31.4918 1.17187 31.3245 1.17187 31.1464C1.17187 30.9684 1.24117 30.801 1.3671 30.6751C1.49304 30.5491 1.66038 30.4799 1.83843 30.4799C2.01648 30.4799 2.18382 30.5491 2.30976 30.6751C2.43569 30.801 2.50499 30.9684 2.50499 31.1464C2.50499 31.3245 2.43569 31.4919 2.30976 31.6177ZM15.6564 37.409C15.6564 37.7765 15.3574 38.0756 14.9899 38.0756C14.6223 38.0756 14.3233 37.7765 14.3233 37.409C14.3233 37.0415 14.6224 36.7425 14.9899 36.7425C15.3574 36.7425 15.6564 37.0415 15.6564 37.409ZM31.1177 39.1329C30.8578 39.3928 30.4349 39.3927 30.175 39.1329C29.915 38.8729 29.915 38.4501 30.175 38.1902C30.305 38.0603 30.4757 37.9953 30.6464 37.9953C30.8171 37.9953 30.9878 38.0603 31.1177 38.1902C31.3775 38.4501 31.3775 38.8729 31.1177 39.1329Z" fill="#D9F900"/>
<path d="M26.2217 18.9343C26.2217 17.6812 25.3051 16.6197 24.0504 16.2748C24.0875 16.1216 24.1081 15.964 24.1081 15.803C24.1081 14.6166 23.055 13.6514 21.7608 13.6514C21.0597 13.6514 20.43 13.9349 19.9995 14.383C19.569 13.9349 18.9392 13.6514 18.2382 13.6514C16.9439 13.6514 15.8909 14.6166 15.8909 15.803C15.8909 15.964 15.9116 16.1216 15.9487 16.2748C14.6939 16.6196 13.7773 17.6811 13.7773 18.9343C13.7773 19.5467 13.9941 20.1245 14.3945 20.6017C14.003 21.1085 13.7773 21.7238 13.7773 22.3788C13.7772 23.375 14.3095 24.3052 15.1863 24.8823C15.1863 24.8827 15.1863 24.8832 15.1863 24.8837C15.1863 26.2427 16.3973 27.3484 17.8859 27.3484C18.7414 27.3484 19.5046 26.9829 19.9995 26.4143C20.4944 26.9829 21.2576 27.3484 22.1131 27.3484C23.5457 27.3484 24.7206 26.3242 24.807 25.0358C25.6771 24.5309 26.2217 23.6466 26.2217 22.6918C26.2217 21.9895 25.9222 21.3195 25.4068 20.8131C25.9221 20.3067 26.2217 19.6366 26.2217 18.9343ZM24.1479 21.3312C24.7125 21.6291 25.0496 22.1378 25.0496 22.6918C25.0496 23.1048 24.8576 23.4988 24.5334 23.7934C24.2254 23.223 23.6809 22.769 22.993 22.5529C22.6844 22.4559 22.3554 22.6276 22.2584 22.9363C22.1614 23.245 22.3331 23.5739 22.6418 23.6709C23.2391 23.8586 23.6405 24.346 23.6405 24.8837C23.6405 25.5966 22.9552 26.1766 22.1128 26.1766C21.2704 26.1766 20.5851 25.5966 20.5851 24.8837V21.1262C20.5851 20.4133 21.2704 19.8334 22.1128 19.8334C22.4364 19.8334 22.6987 19.571 22.6987 19.2474C22.6987 18.9238 22.4364 18.6615 22.1128 18.6615C21.5461 18.6615 21.0198 18.8221 20.5851 19.0956V18.3472C20.5851 18.0236 20.3228 17.7613 19.9992 17.7613C19.6756 17.7613 19.4133 18.0236 19.4133 18.3472V21.6001C19.2161 21.4763 18.9998 21.3739 18.7659 21.3004C18.457 21.2034 18.1283 21.3751 18.0313 21.6837C17.9343 21.9924 18.1059 22.3213 18.4146 22.4184C19.0119 22.6061 19.4133 23.0935 19.4133 23.6312V24.8837C19.4133 25.5966 18.7279 26.1766 17.8856 26.1766C17.0432 26.1766 16.3579 25.5966 16.3579 24.8837C16.3579 24.5781 16.4874 24.2811 16.7226 24.0473C16.9521 23.8192 16.9532 23.4482 16.7251 23.2187C16.4969 22.9891 16.126 22.988 15.8965 23.2162C15.7561 23.3558 15.6352 23.5083 15.5348 23.6704C15.1648 23.3204 14.9487 22.8599 14.9487 22.3786C14.9487 21.5105 15.6301 20.7478 16.6056 20.524C16.921 20.4517 17.118 20.1373 17.0457 19.8219C16.9733 19.5064 16.6589 19.3095 16.3436 19.3818C15.9509 19.4719 15.5893 19.6223 15.2687 19.8197C15.0608 19.5586 14.9488 19.2528 14.9488 18.9342C14.9491 18.0528 15.7845 17.3353 16.8144 17.3285C16.8197 17.3287 16.8249 17.3294 16.8301 17.3294C16.9638 17.3294 17.0983 17.2839 17.2083 17.1907C17.433 17.0005 17.478 16.6778 17.3273 16.4351C17.3228 16.4279 17.3187 16.4206 17.314 16.4136C17.3116 16.4101 17.3087 16.4067 17.3062 16.4032C17.2972 16.3905 17.2879 16.378 17.2778 16.366C17.2775 16.3656 17.2773 16.3652 17.2769 16.3649C17.1792 16.2493 17.0626 16.0581 17.0626 15.8029C17.0626 15.2627 17.5899 14.8232 18.238 14.8232C18.886 14.8232 19.4133 15.2627 19.4133 15.8029C19.4133 16.1265 19.6757 16.3889 19.9993 16.3889C20.3229 16.3889 20.5852 16.1265 20.5852 15.8029C20.5852 15.2627 21.1125 14.8232 21.7606 14.8232C22.4086 14.8232 22.936 15.2627 22.936 15.8029C22.936 15.9473 22.8982 16.0704 22.8481 16.1717C22.5148 16.2032 22.1925 16.2837 21.8865 16.4128C21.5883 16.5385 21.4485 16.8821 21.5742 17.1803C21.6999 17.4785 22.0436 17.6184 22.3418 17.4926C22.595 17.3858 22.8675 17.3309 23.1518 17.3287C23.1574 17.3289 23.1629 17.3294 23.1686 17.3294C23.1738 17.3294 23.1789 17.3287 23.1842 17.3285C24.2141 17.3353 25.0496 18.0528 25.0496 18.9342C25.0496 19.4881 24.7125 19.9967 24.1479 20.2948C23.9557 20.3962 23.8354 20.5956 23.8354 20.813C23.8354 21.0303 23.9557 21.2298 24.1479 21.3312Z" fill="#D9F900"/>
</g>
<defs>
<clipPath id="clip0_1752_3433">
<rect width="40" height="40" fill="white" transform="translate(0 0.5)"/>
</clipPath>
</defs>
</svg>
