<svg width="40" height="40" viewBox="0 0 40 40" fill="none" xmlns="http://www.w3.org/2000/svg">
<path d="M7.5 12.5C10.2575 12.5 12.5 10.2575 12.5 7.5C12.5 4.7425 10.2575 2.5 7.5 2.5C4.7425 2.5 2.5 4.7425 2.5 7.5C2.5 10.2575 4.7425 12.5 7.5 12.5ZM7.5 5C8.87875 5 10 6.12125 10 7.5C10 8.87875 8.87875 10 7.5 10C6.12125 10 5 8.87875 5 7.5C5 6.12125 6.12125 5 7.5 5Z" fill="white"/>
<path d="M20 12.5C22.7575 12.5 25 10.2575 25 7.5C25 4.7425 22.7575 2.5 20 2.5C17.2425 2.5 15 4.7425 15 7.5C15 10.2575 17.2425 12.5 20 12.5ZM20 5C21.3787 5 22.5 6.12125 22.5 7.5C22.5 8.87875 21.3787 10 20 10C18.6212 10 17.5 8.87875 17.5 7.5C17.5 6.12125 18.6212 5 20 5Z" fill="white"/>
<path d="M32.5 12.5C35.2575 12.5 37.5 10.2575 37.5 7.5C37.5 4.7425 35.2575 2.5 32.5 2.5C29.7425 2.5 27.5 4.7425 27.5 7.5C27.5 10.2575 29.7425 12.5 32.5 12.5ZM32.5 5C33.8787 5 35 6.12125 35 7.5C35 8.87875 33.8787 10 32.5 10C31.1212 10 30 8.87875 30 7.5C30 6.12125 31.1212 5 32.5 5Z" fill="white"/>
<path d="M7.5 25C10.2575 25 12.5 22.7575 12.5 20C12.5 17.2425 10.2575 15 7.5 15C4.7425 15 2.5 17.2425 2.5 20C2.5 22.7575 4.7425 25 7.5 25ZM7.5 17.5C8.87875 17.5 10 18.6212 10 20C10 21.3787 8.87875 22.5 7.5 22.5C6.12125 22.5 5 21.3787 5 20C5 18.6212 6.12125 17.5 7.5 17.5Z" fill="white"/>
<path d="M20 25C22.7575 25 25 22.7575 25 20C25 17.2425 22.7575 15 20 15C17.2425 15 15 17.2425 15 20C15 22.7575 17.2425 25 20 25ZM20 17.5C21.3787 17.5 22.5 18.6212 22.5 20C22.5 21.3787 21.3787 22.5 20 22.5C18.6212 22.5 17.5 21.3787 17.5 20C17.5 18.6212 18.6212 17.5 20 17.5Z" fill="white"/>
<path d="M32.5 15C29.7425 15 27.5 17.2425 27.5 20C27.5 22.7575 29.7425 25 32.5 25C35.2575 25 37.5 22.7575 37.5 20C37.5 17.2425 35.2575 15 32.5 15ZM32.5 22.5C31.1212 22.5 30 21.3787 30 20C30 18.6212 31.1212 17.5 32.5 17.5C33.8787 17.5 35 18.6212 35 20C35 21.3787 33.8787 22.5 32.5 22.5Z" fill="white"/>
<path d="M7.5 37.5C10.2575 37.5 12.5 35.2575 12.5 32.5C12.5 29.7425 10.2575 27.5 7.5 27.5C4.7425 27.5 2.5 29.7425 2.5 32.5C2.5 35.2575 4.7425 37.5 7.5 37.5ZM7.5 30C8.87875 30 10 31.1212 10 32.5C10 33.8787 8.87875 35 7.5 35C6.12125 35 5 33.8787 5 32.5C5 31.1212 6.12125 30 7.5 30Z" fill="white"/>
<path d="M20 37.5C22.7575 37.5 25 35.2575 25 32.5C25 29.7425 22.7575 27.5 20 27.5C17.2425 27.5 15 29.7425 15 32.5C15 35.2575 17.2425 37.5 20 37.5ZM20 30C21.3787 30 22.5 31.1212 22.5 32.5C22.5 33.8787 21.3787 35 20 35C18.6212 35 17.5 33.8787 17.5 32.5C17.5 31.1212 18.6212 30 20 30Z" fill="white"/>
<path d="M32.5 27.5C29.7425 27.5 27.5 29.7425 27.5 32.5C27.5 35.2575 29.7425 37.5 32.5 37.5C35.2575 37.5 37.5 35.2575 37.5 32.5C37.5 29.7425 35.2575 27.5 32.5 27.5ZM32.5 35C31.1212 35 30 33.8787 30 32.5C30 31.1212 31.1212 30 32.5 30C33.8787 30 35 31.1212 35 32.5C35 33.8787 33.8787 35 32.5 35Z" fill="white"/>
</svg>
