<svg width="60" height="60" viewBox="0 0 60 60" fill="none" xmlns="http://www.w3.org/2000/svg">
<path d="M31.603 28.892C30.5082 28.505 29.2972 28.0374 28.6156 27.5028C28.1004 27.0986 28.318 25.7075 29.298 25.4123C30.5566 25.0337 31.4798 25.7188 31.5811 25.7984C32.0782 26.2121 32.8165 26.1447 33.2305 25.6481C33.6449 25.1512 33.5778 24.4121 33.0811 23.9975C33.0688 23.9896 32.3412 23.3642 31.1723 23.0861V21.7637C31.1723 21.1164 30.6476 20.5918 30.0005 20.5918C29.3533 20.5918 28.8286 21.1164 28.8286 21.7637V23.1109C25.8019 23.8888 25.1386 27.7544 27.1692 29.3471C27.9335 29.9465 28.9919 30.4549 30.8218 31.1019C32.0683 31.5425 32.041 32.5522 31.9715 32.9659C31.8313 33.8008 31.1288 34.7032 29.9184 34.7111C28.7421 34.719 28.3763 34.6606 27.4718 34.0691C26.9303 33.7146 26.2039 33.8666 25.8496 34.4082C25.4953 34.9498 25.6469 35.6761 26.1887 36.0304C27.1885 36.6846 27.9155 36.935 28.8286 37.0186V38.2371C28.8286 38.8842 29.3533 39.4089 30.0005 39.4089C30.6477 39.4089 31.1723 38.8842 31.1723 38.2371V36.8768C32.9154 36.369 34.0311 34.8516 34.2828 33.3545C34.6165 31.3699 33.5396 29.5766 31.603 28.892Z" fill="white"/>
<path d="M59.6068 16.7695L49.0169 7.35639C48.2636 6.68631 47.0664 7.22233 47.0664 8.23226V11.767H34.1183C33.4711 11.767 32.9464 12.2918 32.9464 12.9389V16.1955C24.1994 14.3307 15.8847 21.0082 15.8847 30.0005C15.8847 32.3338 16.4542 34.5362 17.4608 36.4771H12.9334V32.9422C12.9334 31.9329 11.7371 31.3959 10.983 32.0663L0.393137 41.4796C-0.130929 41.9454 -0.131163 42.765 0.393137 43.2313L10.9831 52.6445C11.7317 53.3101 12.9336 52.7826 12.9336 51.7686V48.2339H25.8817C26.5289 48.2339 27.0536 47.7091 27.0536 47.062V43.8053C35.8005 45.6701 44.1152 38.9926 44.1152 30.0003C44.1152 27.6671 43.5457 25.4647 42.5392 23.5238H47.0665V27.0587C47.0665 28.0703 48.2671 28.6012 49.017 27.9345L59.6069 18.5211C60.1309 18.0556 60.1311 17.2358 59.6068 16.7695ZM24.7098 45.8902H11.7617C11.1146 45.8902 10.5898 46.415 10.5898 47.0621V49.1592L2.93553 42.3555L10.5897 35.5516V37.6488C10.5897 38.296 11.1144 38.8207 11.7616 38.8207H18.9884C20.4893 40.6906 22.4553 42.1714 24.7097 43.0861V45.8902H24.7098ZM29.9999 41.772C23.5091 41.772 18.2285 36.4914 18.2285 30.0005C18.2285 23.5097 23.5091 18.2291 29.9999 18.2291C36.4907 18.2291 41.7713 23.5097 41.7713 30.0005C41.7713 36.4914 36.4907 41.772 29.9999 41.772ZM49.4101 24.4492V22.352C49.4101 21.7049 48.8855 21.1801 48.2383 21.1801H41.0114C39.5106 19.3103 37.5445 17.8295 35.2901 16.9147V14.1105H48.2383C48.8855 14.1105 49.4101 13.5858 49.4101 12.9387V10.8418L57.0643 17.6455L49.4101 24.4492Z" fill="white"/>
</svg>
