<svg width="32" height="32" viewBox="0 0 32 32" fill="none" xmlns="http://www.w3.org/2000/svg">
<g clip-path="url(#clip0_1669_682)">
<path d="M1 5.64106H16.2253C16.6842 7.72975 18.5494 9.29781 20.7739 9.29781C22.9984 9.29781 24.8637 7.72981 25.3226 5.64106H31C31.5522 5.64106 32 5.19331 32 4.64106C32 4.08881 31.5522 3.64106 31 3.64106H25.3221C24.8623 1.55344 22.9945 -0.015625 20.7739 -0.015625C18.5522 -0.015625 16.6852 1.55319 16.2257 3.64106H1C0.44775 3.64106 0 4.08881 0 4.64106C0 5.19331 0.44775 5.64106 1 5.64106ZM18.1173 4.64369C18.1173 4.64013 18.1174 4.6365 18.1174 4.63294C18.1217 3.1725 19.3134 1.98444 20.7739 1.98444C22.2324 1.98444 23.4241 3.17088 23.4304 4.63063L23.4306 4.64531C23.4283 6.10825 22.2374 7.29787 20.7739 7.29787C19.3111 7.29787 18.1206 6.10944 18.1173 4.64738L18.1173 4.64369ZM31 26.3586H25.3221C24.8623 24.2711 22.9945 22.7019 20.7739 22.7019C18.5522 22.7019 16.6852 24.2708 16.2257 26.3586H1C0.44775 26.3586 0 26.8063 0 27.3586C0 27.9109 0.44775 28.3586 1 28.3586H16.2253C16.6842 30.4473 18.5494 32.0154 20.7739 32.0154C22.9984 32.0154 24.8637 30.4473 25.3226 28.3586H31C31.5522 28.3586 32 27.9109 32 27.3586C32 26.8063 31.5522 26.3586 31 26.3586ZM20.7739 30.0154C19.3111 30.0154 18.1206 28.8269 18.1173 27.3649L18.1173 27.3612C18.1173 27.3576 18.1174 27.3541 18.1174 27.3505C18.1217 25.8901 19.3134 24.7019 20.7739 24.7019C22.2324 24.7019 23.4241 25.8884 23.4304 27.3481L23.4306 27.3627C23.4285 28.8259 22.2376 30.0154 20.7739 30.0154ZM31 14.9999H15.7747C15.3158 12.9112 13.4506 11.3432 11.2261 11.3432C9.00156 11.3432 7.13631 12.9112 6.67744 14.9999H1C0.44775 14.9999 0 15.4476 0 15.9999C0 16.5522 0.44775 16.9999 1 16.9999H6.67794C7.13775 19.0874 9.0055 20.6566 11.2261 20.6566C13.4478 20.6566 15.3148 19.0877 15.7743 16.9999H31C31.5522 16.9999 32 16.5522 32 15.9999C32 15.4476 31.5522 14.9999 31 14.9999ZM13.8827 15.9972C13.8827 16.0009 13.8826 16.0044 13.8826 16.008C13.8782 17.4684 12.6866 18.6565 11.2261 18.6565C9.76763 18.6565 8.57588 17.4701 8.56956 16.0104L8.56938 15.9958C8.57156 14.5326 9.7625 13.3432 11.2261 13.3432C12.6889 13.3432 13.8794 14.5316 13.8827 15.9937L13.8827 15.9972Z" fill="white"/>
</g>
<defs>
<clipPath id="clip0_1669_682">
<rect width="32" height="32" fill="white"/>
</clipPath>
</defs>
</svg>
