<svg width="32" height="32" viewBox="0 0 32 32" fill="none" xmlns="http://www.w3.org/2000/svg">
<path d="M31.7101 15.0542C31.5346 14.9815 31.3326 15.0217 31.1982 15.156L29.7916 16.5627V6.99822C29.7916 6.73878 29.5812 6.52853 29.3219 6.52853H25.7131L27.0231 5.21853C27.0232 5.21834 27.0234 5.21809 27.0236 5.2179L28.2859 3.95565C28.5563 3.68521 28.7052 3.32546 28.7052 2.94296C28.7052 2.56046 28.5563 2.20084 28.2859 1.93027L26.8262 0.470645C26.5558 0.200207 26.1961 0.0512695 25.8136 0.0512695C25.4311 0.0512695 25.0714 0.200207 24.8009 0.470645L23.538 1.73352L22.012 3.25953L18.743 6.52847H4.16376V1.8819C4.16376 1.62246 3.95345 1.41221 3.69407 1.41221C1.65719 1.41233 0 3.0694 0 5.1064V25.0556C0 25.0903 0.00400001 25.124 0.011125 25.1565C0.0760002 26.0208 0.449938 26.8239 1.07488 27.4335C1.74288 28.085 2.62469 28.4438 3.55794 28.4438H17.9103L15.2073 31.1469C15.073 31.2813 15.0328 31.4832 15.1055 31.6588C15.1782 31.8343 15.3495 31.9487 15.5394 31.9487H31.5304C31.7898 31.9487 32.0001 31.7385 32.0001 31.479V15.4882C32.0001 15.2982 31.8856 15.1269 31.7101 15.0542ZM25.4652 1.13496C25.6572 0.942834 25.9701 0.942834 26.1621 1.13496L27.6217 2.59465C27.8139 2.78671 27.8139 3.0994 27.6217 3.29153L26.6911 4.22228L24.5344 2.06571L25.4652 1.13496ZM23.8702 2.72996L26.0267 4.88647L25.1649 5.74828L23.0085 3.59178L23.8702 2.72996ZM31.0608 20.7658H30.1942C29.9348 20.7658 29.7246 20.9761 29.7246 21.2355C29.7246 21.4949 29.9348 21.7052 30.1942 21.7052H31.0608V23.1206H30.1942C29.9348 23.1206 29.7246 23.3308 29.7246 23.5903C29.7246 23.8497 29.9348 24.0599 30.1942 24.0599H31.0608V25.4753H30.1942C29.9348 25.4753 29.7246 25.6855 29.7246 25.9449C29.7246 26.2044 29.9348 26.4146 30.1942 26.4146H31.0608V27.83H30.1942C29.9348 27.83 29.7246 28.0403 29.7246 28.2997C29.7246 28.5591 29.9348 28.7694 30.1942 28.7694H31.0608V31.0095H16.6733L21.4175 26.2653C21.601 26.0818 21.601 25.7845 21.4175 25.6011C21.3965 25.58 21.3739 25.5618 21.3502 25.5455C21.1673 25.4203 20.9157 25.4387 20.7532 25.6011L18.8497 27.5046H3.55801C2.1335 27.5046 0.986752 26.3924 0.941627 24.9705C0.944314 24.8813 0.951252 24.7928 0.962377 24.7053C0.962439 24.7048 0.962502 24.7043 0.962564 24.7038C0.967814 24.6622 0.974127 24.6208 0.981314 24.5797C0.982127 24.575 0.983002 24.5703 0.983814 24.5656C0.990377 24.5289 0.997752 24.4924 1.00581 24.4561C1.00806 24.4459 1.01044 24.4358 1.01281 24.4258C1.01994 24.395 1.02763 24.3644 1.03588 24.334C1.04038 24.3175 1.04506 24.3012 1.04988 24.2848C1.05675 24.2609 1.06388 24.2371 1.07144 24.2135C1.079 24.1899 1.08706 24.1666 1.09525 24.1433C1.10094 24.127 1.10656 24.1107 1.11269 24.0945C1.12413 24.0638 1.13625 24.0333 1.14875 24.0031C1.15231 23.9944 1.15581 23.9856 1.1595 23.9769C1.17556 23.9394 1.19225 23.9024 1.20988 23.8658C1.21063 23.8642 1.21131 23.8626 1.21206 23.8611C1.57944 23.1008 2.286 22.534 3.13394 22.3581C3.13632 22.3576 3.13869 22.3571 3.14107 22.3566C3.17994 22.3486 3.21919 22.3418 3.25869 22.3355C3.26526 22.3344 3.27182 22.3331 3.27851 22.3321C3.31419 22.3267 3.35026 22.3224 3.38632 22.3184C3.39644 22.3172 3.40651 22.3157 3.41669 22.3147C3.45151 22.3112 3.48663 22.3089 3.52176 22.3067C3.53288 22.306 3.54401 22.3048 3.55513 22.3042C3.60113 22.3019 3.64751 22.3007 3.69407 22.3007C3.95345 22.3007 4.16376 22.0905 4.16376 21.8311V18.4255C4.16376 18.1661 3.95345 17.9558 3.69407 17.9558C3.43469 17.9558 3.22438 18.1661 3.22438 18.4255V21.3909C2.43125 21.4912 1.69507 21.845 1.11456 22.4119C1.0535 22.4715 0.995627 22.5335 0.939252 22.5965V5.1064C0.939252 3.74759 1.92838 2.61527 3.22432 2.39165V6.99822V16.5468V16.5469C3.22432 16.8062 3.43463 17.0166 3.69401 17.0166C3.95338 17.0166 4.1637 16.8062 4.1637 16.5469V16.5468V7.46791H17.8037L15.2072 10.0644C15.0238 10.2479 15.0238 10.5452 15.2072 10.7287C15.3907 10.912 15.688 10.912 15.8714 10.7287L19.2697 7.33035C19.2699 7.33022 19.2699 7.3301 19.27 7.33003L22.3441 4.25597L24.5005 6.41253L24.2475 6.66553C24.2474 6.66572 24.2471 6.66591 24.2469 6.66609L14.7764 16.1367L12.6199 13.9802L14.4867 12.1135C14.6701 11.93 14.6701 11.6327 14.4867 11.4492C14.3032 11.2659 14.0058 11.2659 13.8225 11.4492L11.6235 13.6481C11.6118 13.6599 11.6008 13.6723 11.5905 13.685C11.587 13.6893 11.584 13.6939 11.5807 13.6983C11.5741 13.7071 11.5676 13.716 11.5615 13.7252C11.5581 13.7306 11.555 13.7361 11.5517 13.7417C11.5465 13.7504 11.5415 13.7593 11.537 13.7684C11.534 13.7742 11.5313 13.7802 11.5285 13.7863C11.5243 13.7955 11.5205 13.8049 11.5169 13.8142C11.5156 13.8175 11.514 13.8207 11.5128 13.824L10.5978 16.4162L9.9739 18.1836C9.96564 18.2071 9.95971 18.231 9.95527 18.2551H8.39327C8.13389 18.2551 7.92358 18.4653 7.92358 18.7247C7.92358 18.9842 8.13389 19.1944 8.39327 19.1944H21.4004C21.6599 19.1944 21.8701 18.9842 21.8701 18.7247C21.8701 18.4653 21.6599 18.2551 21.4004 18.2551H12.0683L14.9327 17.2439C14.9351 17.2431 14.9373 17.2419 14.9397 17.241C14.9508 17.2369 14.9618 17.2322 14.9726 17.2273C14.9769 17.2253 14.9812 17.2234 14.9854 17.2214C14.9967 17.2157 15.0077 17.2096 15.0186 17.2029C15.0221 17.2008 15.0257 17.1989 15.0292 17.1967C15.0405 17.1894 15.0515 17.1815 15.0623 17.1731C15.065 17.1711 15.0678 17.1692 15.0704 17.1671C15.0835 17.1566 15.0963 17.1453 15.1084 17.1332L24.7737 7.46797H28.8521V17.5021L22.1336 24.2207C21.9502 24.4042 21.9502 24.7015 22.1336 24.8849C22.145 24.8964 22.157 24.9071 22.1693 24.9172C22.2554 24.9874 22.3606 25.0225 22.4657 25.0225C22.5709 25.0225 22.6761 24.9874 22.7622 24.9172C22.7745 24.9072 22.7864 24.8964 22.7979 24.8849C22.798 24.8848 22.7979 24.8849 22.798 24.8848L31.0608 16.6219V20.7658ZM13.9173 16.6061L12.572 17.081L11.6756 16.1846L12.1505 14.8392L13.9173 16.6061Z" fill="white"/>
</svg>
