<svg width="40" height="40" viewBox="0 0 40 40" fill="none" xmlns="http://www.w3.org/2000/svg">
<path d="M5.00498 35.2285H2.49439C2.18145 35.2285 1.92969 34.9767 1.92969 34.6638V18.5203C1.92969 18.2073 2.18145 17.9556 2.49439 17.9556H5.00498C5.83322 17.9556 6.50616 18.6285 6.50616 19.4567V33.7273C6.50616 34.5556 5.83322 35.2285 5.00498 35.2285ZM3.0591 34.0991H5.00498C5.20969 34.0991 5.37675 33.932 5.37675 33.7273V19.4567C5.37675 19.252 5.20969 19.085 5.00498 19.085H3.0591V34.0991Z" fill="url(#paint0_linear_2908_765)"/>
<path d="M9.39107 31.6236H5.94166C5.62872 31.6236 5.37695 31.3718 5.37695 31.0589V22.1248C5.37695 21.8118 5.62872 21.5601 5.94166 21.5601H9.38872C9.70166 21.5601 9.95342 21.8118 9.95342 22.1248V31.0589C9.95578 31.3718 9.70401 31.6236 9.39107 31.6236ZM6.50636 30.4942H8.82401V22.6895H6.50636V30.4942Z" fill="url(#paint1_linear_2908_765)"/>
<path d="M14.6544 28.8805H9.39088C9.07794 28.8805 8.82617 28.6287 8.82617 28.3158V24.8664C8.82617 24.5534 9.07794 24.3017 9.39088 24.3017H13.2285C13.4615 24.3017 13.6826 24.2099 13.8473 24.0452L17.0309 20.8617C17.2521 20.6405 17.6097 20.6405 17.8285 20.8617C18.0473 21.0829 18.0497 21.4405 17.8285 21.6593L14.645 24.8429C14.2662 25.2217 13.7626 25.4311 13.2285 25.4311H9.95558V27.7511H14.6544C14.8873 27.7511 15.1085 27.6593 15.2732 27.4946L20.4473 22.3229C20.6685 22.1017 21.0262 22.1017 21.245 22.3229C21.4662 22.544 21.4662 22.9017 21.245 23.1205L16.0709 28.2946C15.6944 28.6734 15.1909 28.8805 14.6544 28.8805Z" fill="url(#paint2_linear_2908_765)"/>
<path d="M33.0992 22.1462C32.4662 22.1462 31.831 22.0168 31.231 21.7603L12.9557 13.958C12.471 13.7509 12.0968 13.3697 11.9015 12.8803C11.7062 12.3909 11.711 11.8568 11.918 11.3721L12.9933 8.85207C13.4192 7.85207 14.5792 7.38854 15.5792 7.81442L37.2804 17.0803C37.8051 17.3038 38.0474 17.9132 37.8239 18.4356L37.4757 19.2521C36.9768 20.4215 36.0521 21.325 34.871 21.8003C34.2992 22.0309 33.6992 22.1462 33.0992 22.1462ZM14.8074 8.78619C14.4804 8.78619 14.1698 8.97677 14.0333 9.29677L12.958 11.8168C12.871 12.0238 12.8662 12.2521 12.951 12.4591C13.0357 12.6662 13.1933 12.8309 13.4004 12.918L31.6733 20.7203C32.5651 21.1015 33.551 21.1109 34.4521 20.7509C35.3533 20.3909 36.0568 19.6991 36.438 18.8074L36.7486 18.0803L15.1368 8.85442C15.0286 8.80736 14.918 8.78619 14.8074 8.78619Z" fill="url(#paint3_linear_2908_765)"/>
<path d="M31.9962 19.492C32.568 19.492 33.0315 19.0285 33.0315 18.4567C33.0315 17.8849 32.568 17.4214 31.9962 17.4214C31.4245 17.4214 30.9609 17.8849 30.9609 18.4567C30.9609 19.0285 31.4245 19.492 31.9962 19.492Z" fill="url(#paint4_linear_2908_765)"/>
<path d="M26.4878 25.5723C26.2289 25.5723 25.9678 25.5205 25.716 25.4146L12.2525 19.6664C11.2525 19.2405 10.7889 18.0805 11.2148 17.0805L12.8336 13.2923C12.8925 13.1535 13.003 13.0452 13.1419 12.9911C13.2807 12.9346 13.436 12.937 13.5748 12.9958L29.6242 19.8476C29.9113 19.9699 30.0454 20.3017 29.9207 20.5888L28.3019 24.377C27.9819 25.1252 27.2525 25.5723 26.4878 25.5723ZM26.1607 24.377C26.5866 24.5582 27.0807 24.3605 27.2642 23.9346L28.6595 20.6641L13.6501 14.2546L12.2548 17.5252C12.0736 17.9511 12.2713 18.4452 12.6972 18.6288L26.1607 24.377Z" fill="url(#paint5_linear_2908_765)"/>
<path d="M29.53 24.5181C29.0195 24.5181 28.5112 24.4146 28.0289 24.2075C27.9395 24.1699 27.8524 24.1275 27.7677 24.0852C27.49 23.9416 27.3818 23.6005 27.5253 23.3228C27.6689 23.0452 28.01 22.9369 28.2877 23.0805C28.3465 23.1111 28.41 23.1416 28.4736 23.1675C29.1371 23.4499 29.8689 23.4593 30.5371 23.1911C31.2053 22.9228 31.73 22.4099 32.0124 21.7464C32.0383 21.6828 32.0642 21.6193 32.0853 21.5558C32.1865 21.2616 32.5065 21.104 32.803 21.2028C33.0971 21.304 33.2547 21.624 33.1559 21.9205C33.1253 22.0099 33.09 22.1016 33.0524 22.1911C32.65 23.1299 31.9065 23.8593 30.9583 24.2405C30.4947 24.4263 30.0124 24.5181 29.53 24.5181Z" fill="url(#paint6_linear_2908_765)"/>
<path d="M33.0324 13.7599C32.8089 13.7599 32.5971 13.6281 32.5101 13.4069C32.1713 12.574 31.5289 11.9246 30.703 11.5763C29.8748 11.2281 28.9619 11.221 28.1289 11.5599C27.8395 11.6775 27.5101 11.5387 27.3924 11.2493C27.2748 10.9599 27.4136 10.6305 27.703 10.5128C28.8136 10.061 30.0348 10.0681 31.1407 10.534C32.2466 10.9999 33.103 11.8705 33.5571 12.981C33.6748 13.2705 33.536 13.5999 33.2466 13.7175C33.176 13.7458 33.103 13.7599 33.0324 13.7599Z" fill="url(#paint7_linear_2908_765)"/>
<path d="M35.2703 12.4096C35.0467 12.4096 34.835 12.2778 34.7479 12.0566C33.5973 9.23074 30.3644 7.86603 27.5361 9.01426C27.2467 9.13191 26.9173 8.99309 26.7997 8.70368C26.682 8.41426 26.8208 8.08485 27.1103 7.96721C28.7597 7.29662 30.5691 7.30838 32.2091 8.00015C33.8491 8.69191 35.122 9.98132 35.7926 11.6307C35.9103 11.9201 35.7714 12.2496 35.482 12.3672C35.4114 12.3954 35.3408 12.4096 35.2703 12.4096Z" fill="url(#paint8_linear_2908_765)"/>
<path d="M37.5057 11.0589C37.2822 11.0589 37.0704 10.9272 36.9834 10.706C36.2069 8.8001 34.7363 7.30833 32.8398 6.50833C30.9434 5.70833 28.8492 5.69421 26.9434 6.47068C26.6539 6.58833 26.3245 6.44951 26.2069 6.1601C26.0892 5.87068 26.2281 5.54127 26.5175 5.42363C27.621 4.97421 28.781 4.75539 29.9645 4.77186C31.1057 4.78833 32.221 5.02127 33.2798 5.46833C34.3363 5.91304 35.2822 6.54833 36.0916 7.35539C36.9292 8.19068 37.581 9.17421 38.0304 10.2801C38.1481 10.5695 38.0092 10.8989 37.7198 11.0166C37.6492 11.0448 37.5763 11.0589 37.5057 11.0589Z" fill="url(#paint9_linear_2908_765)"/>
<defs>
<linearGradient id="paint0_linear_2908_765" x1="6.03448" y1="21.1776" x2="1.43155" y2="21.6008" gradientUnits="userSpaceOnUse">
<stop stop-color="#FF8139"/>
<stop offset="0.311383" stop-color="#FF4646"/>
<stop offset="1" stop-color="#9A5BEB"/>
</linearGradient>
<linearGradient id="paint1_linear_2908_765" x1="9.48176" y1="23.4373" x2="4.95272" y2="24.1521" gradientUnits="userSpaceOnUse">
<stop stop-color="#FF8139"/>
<stop offset="0.311383" stop-color="#FF4646"/>
<stop offset="1" stop-color="#9A5BEB"/>
</linearGradient>
<linearGradient id="paint2_linear_2908_765" x1="20.1138" y1="22.2225" x2="10.1786" y2="27.5244" gradientUnits="userSpaceOnUse">
<stop stop-color="#FF8139"/>
<stop offset="0.311383" stop-color="#FF4646"/>
<stop offset="1" stop-color="#9A5BEB"/>
</linearGradient>
<linearGradient id="paint3_linear_2908_765" x1="35.2121" y1="10.3591" x2="16.1626" y2="22.2899" gradientUnits="userSpaceOnUse">
<stop stop-color="#FF8139"/>
<stop offset="0.311383" stop-color="#FF4646"/>
<stop offset="1" stop-color="#9A5BEB"/>
</linearGradient>
<linearGradient id="paint4_linear_2908_765" x1="32.8181" y1="17.8076" x2="30.9437" y2="18.4582" gradientUnits="userSpaceOnUse">
<stop stop-color="#FF8139"/>
<stop offset="0.311383" stop-color="#FF4646"/>
<stop offset="1" stop-color="#9A5BEB"/>
</linearGradient>
<linearGradient id="paint5_linear_2908_765" x1="28.0183" y1="15.3047" x2="12.9198" y2="23.1556" gradientUnits="userSpaceOnUse">
<stop stop-color="#FF8139"/>
<stop offset="0.311383" stop-color="#FF4646"/>
<stop offset="1" stop-color="#9A5BEB"/>
</linearGradient>
<linearGradient id="paint6_linear_2908_765" x1="32.5955" y1="21.7973" x2="28.3039" y2="24.346" gradientUnits="userSpaceOnUse">
<stop stop-color="#FF8139"/>
<stop offset="0.311383" stop-color="#FF4646"/>
<stop offset="1" stop-color="#9A5BEB"/>
</linearGradient>
<linearGradient id="paint7_linear_2908_765" x1="32.955" y1="10.8471" x2="28.3181" y2="13.6554" gradientUnits="userSpaceOnUse">
<stop stop-color="#FF8139"/>
<stop offset="0.311383" stop-color="#FF4646"/>
<stop offset="1" stop-color="#9A5BEB"/>
</linearGradient>
<linearGradient id="paint8_linear_2908_765" x1="34.899" y1="8.39356" x2="28.3565" y2="12.5682" gradientUnits="userSpaceOnUse">
<stop stop-color="#FF8139"/>
<stop offset="0.311383" stop-color="#FF4646"/>
<stop offset="1" stop-color="#9A5BEB"/>
</linearGradient>
<linearGradient id="paint9_linear_2908_765" x1="36.8451" y1="5.94391" x2="28.4108" y2="11.4871" gradientUnits="userSpaceOnUse">
<stop stop-color="#FF8139"/>
<stop offset="0.311383" stop-color="#FF4646"/>
<stop offset="1" stop-color="#9A5BEB"/>
</linearGradient>
</defs>
</svg>
