<svg width="40" height="40" viewBox="0 0 40 40" fill="none" xmlns="http://www.w3.org/2000/svg">
<g clip-path="url(#clip0_2195_1568)">
<path d="M40 18.3001C40 15.6968 38.6683 13.2635 36.49 11.8218C36.5067 11.6601 36.515 11.4968 36.515 11.3318C36.515 8.07846 34.39 5.47512 31.5233 5.09179C30.9567 2.20846 28.4033 0.043457 25.4167 0.043457C23.1033 0.043457 21.0817 1.30512 20 3.17846C18.9183 1.30512 16.8967 0.043457 14.5833 0.043457C11.5983 0.043457 9.045 2.20679 8.47667 5.08679C5.62667 5.45179 3.48333 8.06346 3.48333 11.3301C3.48333 11.4968 3.49167 11.6601 3.50833 11.8201C1.33 13.2618 0 15.6951 0 18.2985C0 19.8568 0.47 21.3501 1.36333 22.6551C0.468333 23.9601 0 25.4535 0 27.0118C0 29.7485 1.45167 32.2701 3.815 33.6818C4.85167 37.4451 8.23167 40.0418 12.16 40.0418C15.6167 40.0418 18.6083 38.0085 20.0017 35.0751C21.395 38.0085 24.385 40.0418 27.8433 40.0418C31.7717 40.0418 35.1517 37.4451 36.1883 33.6818C38.55 32.2701 40.0033 29.7485 40.0033 27.0118C40.0033 25.4535 39.5333 23.9601 38.64 22.6551C39.535 21.3501 40.0033 19.8568 40.0033 18.2985L40 18.3001ZM12.1583 38.3768C8.88667 38.3768 6.08333 36.1435 5.34667 32.9468L5.26167 32.5785L4.92833 32.4001C2.91667 31.3235 1.66667 29.2585 1.66667 27.0151C1.66667 25.6285 2.145 24.3035 3.05167 23.1818L3.47333 22.6585L3.05167 22.1351C2.14667 21.0135 1.66667 19.6885 1.66667 18.3018C1.66667 16.1085 2.875 14.0668 4.82 12.9751L5.33667 12.6851C5.33667 12.6851 5.15167 11.5968 5.15167 11.3318C5.15167 9.06012 6.65333 6.71179 9.21 6.71179H9.98167L10.0417 5.94346C10.225 3.57179 12.22 1.71179 14.585 1.71179C17.1133 1.71179 19.1683 3.76679 19.1683 6.29512V15.0018H14.0633C13.6917 13.5651 12.3867 12.5018 10.835 12.5018C8.99667 12.5018 7.50167 13.9968 7.50167 15.8351C7.50167 17.6735 8.99667 19.1685 10.835 19.1685C12.385 19.1685 13.6917 18.1051 14.0633 16.6685H19.1683V26.6685H14.0633C13.6917 25.2318 12.3867 24.1685 10.835 24.1685C8.99667 24.1685 7.50167 25.6635 7.50167 27.5018C7.50167 29.3401 8.99667 30.8351 10.835 30.8351C12.385 30.8351 13.6917 29.7718 14.0633 28.3351H19.1683V31.3701C19.1683 35.2335 16.025 38.3785 12.16 38.3785L12.1583 38.3768ZM12.5 15.8335C12.5 16.7518 11.7517 17.5001 10.8333 17.5001C9.915 17.5001 9.16667 16.7518 9.16667 15.8335C9.16667 14.9151 9.915 14.1668 10.8333 14.1668C11.7517 14.1668 12.5 14.9151 12.5 15.8335ZM12.5 27.5001C12.5 28.4185 11.7517 29.1668 10.8333 29.1668C9.915 29.1668 9.16667 28.4185 9.16667 27.5001C9.16667 26.5818 9.915 25.8335 10.8333 25.8335C11.7517 25.8335 12.5 26.5818 12.5 27.5001ZM36.9483 23.1801C37.8533 24.3018 38.3333 25.6268 38.3333 27.0135C38.3333 29.2585 37.0833 31.3218 35.0717 32.3985L34.7383 32.5768L34.6533 32.9451C33.915 36.1418 31.1133 38.3751 27.8417 38.3751C23.9783 38.3751 20.8333 35.2318 20.8333 31.3668V24.9985H30V19.0601C31.4367 18.6885 32.5 17.3835 32.5 15.8318C32.5 13.9935 31.005 12.4985 29.1667 12.4985C27.3283 12.4985 25.8333 13.9935 25.8333 15.8318C25.8333 17.3818 26.8967 18.6885 28.3333 19.0601V23.3318H20.8333V6.29346C20.8333 3.76512 22.8883 1.71012 25.4167 1.71012C27.7817 1.71012 29.7767 3.56846 29.96 5.94179L30.0617 6.71012H30.8333C33.3467 6.71012 34.8483 9.06012 34.8483 11.3301C34.8483 11.5951 34.665 12.6835 34.665 12.6835L35.18 12.9735C37.125 14.0651 38.3333 16.1068 38.3333 18.3001C38.3333 19.6868 37.855 21.0118 36.9483 22.1335L36.5267 22.6568L36.9483 23.1801ZM29.1667 17.5001C28.2483 17.5001 27.5 16.7518 27.5 15.8335C27.5 14.9151 28.2483 14.1668 29.1667 14.1668C30.085 14.1668 30.8333 14.9151 30.8333 15.8335C30.8333 16.7518 30.085 17.5001 29.1667 17.5001Z" fill="#08E4DC"/>
</g>
<defs>
<clipPath id="clip0_2195_1568">
<rect width="40" height="40" fill="white"/>
</clipPath>
</defs>
</svg>
