<svg width="60" height="60" viewBox="0 0 60 60" fill="none" xmlns="http://www.w3.org/2000/svg">
<g clip-path="url(#clip0_2410_1433)">
<path d="M47.2734 26.1428V33.8421C47.2738 34.8635 47.675 35.8432 48.3891 36.5664C49.1032 37.2896 50.0719 37.6974 51.0831 37.7003C51.375 37.7 51.6659 37.6664 51.9503 37.6002L55.3508 36.8081C56.675 36.5042 57.857 35.7535 58.7022 34.6798C59.5473 33.6061 60.0051 32.2736 60 30.9019V26.894C60.0051 25.5223 59.5473 24.1898 58.7022 23.1161C57.857 22.0424 56.675 21.2917 55.3508 20.9878L51.9503 20.1957C51.3814 20.0648 50.7906 20.0661 50.2223 20.1995C49.3982 15.385 46.9174 11.0192 43.2175 7.87235C39.5176 4.72554 34.8364 2.99994 29.9998 3C25.1632 3.00006 20.482 4.72579 16.7822 7.87269C13.0824 11.0196 10.6017 15.3855 9.77774 20.2C9.20956 20.0659 8.61858 20.0644 8.04974 20.1956L4.64919 20.9877C3.32503 21.2916 2.14293 22.0423 1.29779 23.116C0.45264 24.1897 -0.00509746 25.5223 4.28253e-05 26.894V30.9019C-0.00507261 32.2736 0.452676 33.6061 1.29782 34.6798C2.14297 35.7535 3.32505 36.5042 4.64919 36.8081L8.04974 37.6002C8.33418 37.6663 8.62506 37.6998 8.91692 37.7003C9.92808 37.6974 10.8969 37.2896 11.6109 36.5664C12.325 35.8432 12.7262 34.8635 12.7266 33.8421V23.7547C12.7266 19.1268 14.5464 14.6884 17.7858 11.4159C21.0252 8.14345 25.4188 6.305 30 6.305C34.5812 6.305 38.9748 8.14345 42.2142 11.4159C45.4536 14.6884 47.2734 19.1268 47.2734 23.7547V26.1428Z" fill="#3E66F3"/>
<path d="M35.4531 52.0405C35.4515 50.7257 34.9338 49.4652 34.0135 48.5356C33.0932 47.6059 31.8455 47.0829 30.544 47.0813C30.4145 47.0813 30.2931 47.1098 30.1663 47.12C30.0231 47.0941 29.8769 47.0887 29.7321 47.1039C25.6127 47.8532 21.3642 47.0478 17.7939 44.8406C16.2735 43.8447 14.9379 42.5869 13.8479 41.1245C13.7182 40.9515 13.5561 40.806 13.3707 40.6964C13.1854 40.5867 12.9805 40.5149 12.7677 40.4853C12.5549 40.4556 12.3384 40.4685 12.1306 40.5234C11.9227 40.5782 11.7276 40.6739 11.5564 40.8049C11.3851 40.9359 11.2411 41.0997 11.1325 41.2869C11.024 41.4742 10.953 41.6812 10.9236 41.8962C10.8942 42.1111 10.907 42.3298 10.9613 42.5398C11.0156 42.7497 11.1103 42.9468 11.24 43.1198C12.5595 44.892 14.178 46.4152 16.0212 47.6195C18.9674 49.511 22.3677 50.5566 25.8575 50.6442C25.7166 51.0962 25.6416 51.5666 25.6349 52.0405C25.6349 53.3557 26.1521 54.6171 27.0727 55.5471C27.9934 56.4772 29.242 56.9996 30.544 56.9996C31.846 56.9996 33.0946 56.4772 34.0152 55.5471C34.9359 54.6171 35.4531 53.3557 35.4531 52.0405Z" fill="#3E66F3"/>
<path d="M44.5773 24.5436C44.0278 20.7478 42.0484 17.313 39.0521 14.9562C36.0558 12.5994 32.2743 11.5027 28.4967 11.8949C24.7192 12.2872 21.2376 14.1382 18.7786 17.0615C16.3196 19.9848 15.0732 23.7546 15.2997 27.584C15.5764 31.4171 17.291 34.999 20.0932 37.5985C22.8955 40.198 26.5743 41.619 30.3785 41.5715H41.1278C41.6088 41.5718 42.0777 41.4193 42.468 41.1354C42.8584 40.8515 43.1504 40.4507 43.3027 39.9898C43.455 39.5288 43.4598 39.0312 43.3165 38.5674C43.1732 38.1035 42.889 37.697 42.5042 37.4055L41.1576 36.3863C42.5308 34.773 43.5465 32.8815 44.1363 30.8389C44.7261 28.7963 44.8765 26.6498 44.5773 24.5436ZM24.5468 28.347C24.2232 28.347 23.9068 28.25 23.6377 28.0684C23.3686 27.8867 23.1589 27.6286 23.035 27.3265C22.9112 27.0245 22.8788 26.6921 22.9419 26.3714C23.005 26.0508 23.1609 25.7562 23.3897 25.525C23.6186 25.2938 23.9102 25.1364 24.2276 25.0726C24.545 25.0088 24.874 25.0416 25.173 25.1667C25.472 25.2918 25.7276 25.5037 25.9074 25.7755C26.0872 26.0474 26.1832 26.367 26.1832 26.6939C26.1831 27.1323 26.0107 27.5527 25.7038 27.8627C25.397 28.1727 24.9808 28.3469 24.5468 28.347ZM30.0013 28.347C29.6777 28.347 29.3613 28.25 29.0922 28.0684C28.8231 27.8867 28.6134 27.6286 28.4895 27.3265C28.3657 27.0245 28.3333 26.6921 28.3964 26.3714C28.4596 26.0508 28.6154 25.7562 28.8443 25.525C29.0731 25.2938 29.3647 25.1364 29.6821 25.0726C29.9995 25.0088 30.3286 25.0416 30.6276 25.1667C30.9266 25.2918 31.1821 25.5037 31.3619 25.7755C31.5417 26.0474 31.6377 26.367 31.6377 26.6939C31.6376 27.1323 31.4652 27.5527 31.1584 27.8627C30.8515 28.1727 30.4353 28.3469 30.0013 28.347ZM35.4559 28.347C35.1322 28.347 34.8159 28.25 34.5468 28.0684C34.2777 27.8867 34.0679 27.6286 33.9441 27.3265C33.8202 27.0245 33.7878 26.6921 33.851 26.3714C33.9141 26.0508 34.07 25.7562 34.2988 25.525C34.5277 25.2938 34.8192 25.1364 35.1366 25.0726C35.4541 25.0088 35.7831 25.0416 36.0821 25.1667C36.3811 25.2918 36.6367 25.5037 36.8165 25.7755C36.9963 26.0474 37.0922 26.367 37.0922 26.6939C37.0922 27.1323 36.9198 27.5527 36.6129 27.8627C36.306 28.1727 35.8899 28.3469 35.4559 28.347Z" fill="#3E66F3"/>
</g>
<defs>
<clipPath id="clip0_2410_1433">
<rect width="60" height="60" fill="white"/>
</clipPath>
</defs>
</svg>
