<svg width="41" height="40" viewBox="0 0 41 40" fill="none" xmlns="http://www.w3.org/2000/svg">
<path d="M40.3683 1.26777C40.3617 1.17176 40.3361 1.07802 40.293 0.991965C40.25 0.905908 40.1903 0.829244 40.1174 0.766408C40.0445 0.703572 39.9599 0.65581 39.8684 0.625887C39.777 0.595963 39.6805 0.584471 39.5845 0.592075L37.2256 0.795437C37.131 0.803578 37.0389 0.830272 36.9547 0.873996C36.8704 0.91772 36.7956 0.977616 36.7345 1.05026C36.6734 1.12291 36.6272 1.20689 36.5985 1.29739C36.5699 1.3879 36.5593 1.48316 36.5675 1.57774C36.5744 1.67277 36.6003 1.76545 36.6437 1.85031C36.687 1.93516 36.7469 2.01048 36.8198 2.07182C36.8927 2.13315 36.9772 2.17926 37.0682 2.20743C37.1593 2.23559 37.255 2.24524 37.3498 2.2358L37.985 2.18117L33.8016 6.1721C33.3436 5.84742 32.7946 5.67584 32.2331 5.68187C31.6717 5.6879 31.1265 5.87124 30.6755 6.20568L28.1009 3.76011C28.2844 3.3536 28.363 2.90753 28.3293 2.4628C28.2956 2.01807 28.1508 1.58892 27.9081 1.21469C27.6655 0.84047 27.3328 0.533154 26.9405 0.320929C26.5482 0.108703 26.1089 -0.00164007 25.6629 1.8423e-05C25.1883 0.00450192 24.7234 0.134841 24.3156 0.377731C23.9078 0.620621 23.5717 0.967364 23.3417 1.38257C23.1117 1.79777 22.996 2.26657 23.0064 2.74111C23.0168 3.21564 23.1529 3.67893 23.4008 4.08367L22.0076 5.81473C21.5788 5.17357 21.0886 4.5757 20.544 4.02957C19.1831 2.66784 17.5156 1.65215 15.6813 1.0676C15.5907 1.03877 15.4953 1.02809 15.4005 1.03617C15.3058 1.04426 15.2136 1.07095 15.1292 1.11472C15.0448 1.15848 14.9698 1.21847 14.9086 1.29124C14.8474 1.36401 14.8012 1.44813 14.7725 1.5388C14.7439 1.62946 14.7334 1.72489 14.7417 1.81961C14.75 1.91433 14.7769 2.00648 14.8208 2.0908C14.8648 2.17512 14.9249 2.24994 14.9978 2.31099C15.0707 2.37203 15.1549 2.4181 15.2456 2.44655C16.8587 2.96081 18.325 3.85423 19.5216 5.05196C20.1077 5.63886 20.6212 6.29395 21.0513 7.00318L16.7866 12.3022C16.2414 12.002 15.6079 11.9033 14.9972 12.0235C14.3865 12.1437 13.8376 12.475 13.4467 12.9594L9.42987 10.8681C10.0853 7.00995 4.34032 6.3807 4.14655 10.2988C4.15247 10.8294 4.31561 11.3463 4.61536 11.7841C4.9151 12.2219 5.33797 12.561 5.83047 12.7585C6.32297 12.9559 6.86297 13.0029 7.38215 12.8934C7.90133 12.7839 8.37638 12.5228 8.74718 12.1433L12.8726 14.2911C12.5064 18.0363 18.03 18.4022 18.185 14.6371C18.1821 14.1739 18.0575 13.7195 17.8235 13.3197L21.7716 8.41454C22.5921 10.3517 22.8162 12.4895 22.4154 14.5547C22.0146 16.6199 21.0071 18.5186 19.5216 20.0082C12.9369 26.6604 1.43449 21.8712 1.47129 12.5273C1.33882 6.64422 6.7192 1.56237 12.5792 1.96583C12.6742 1.97068 12.7691 1.95676 12.8587 1.92487C12.9482 1.89298 13.0306 1.84374 13.1011 1.77997C13.1716 1.71621 13.2289 1.63917 13.2696 1.55326C13.3103 1.46735 13.3336 1.37426 13.3383 1.27931C13.343 1.18436 13.3289 1.08943 13.2969 0.999928C13.2648 0.910432 13.2154 0.828133 13.1515 0.757742C13.0877 0.687351 13.0105 0.630248 12.9245 0.589703C12.8385 0.549157 12.7454 0.525964 12.6505 0.52145C10.9732 0.442123 9.29786 0.713062 7.73112 1.317C6.16438 1.92094 4.74064 2.84463 3.55061 4.02921C-5.8234 13.4958 4.99825 28.9573 17.0473 23.4605L26.6158 34.3031C26.6249 34.3135 29.9853 38.1211 29.9961 38.1335C35.2958 43.6117 43.1395 35.8044 37.6534 30.475C36.0952 29.1041 29.6075 23.3817 28.2034 22.1459C28.0589 22.0235 27.8721 21.9626 27.6832 21.9764C27.4943 21.9902 27.3183 22.0775 27.1931 22.2197C27.0679 22.3618 27.0035 22.5474 27.0136 22.7365C27.0238 22.9257 27.1077 23.1033 27.2474 23.2312L28.6702 24.4851L24.0001 29.1552L18.3583 22.7634C19.9497 21.7748 21.2908 20.4314 22.2766 18.8384L25.0783 21.3075C25.2228 21.4299 25.4095 21.4909 25.5983 21.4771C25.7872 21.4634 25.9631 21.3762 26.0883 21.2341C26.2135 21.0921 26.278 20.9065 26.2679 20.7175C26.2578 20.5284 26.1739 20.3508 26.0343 20.2229L22.9735 17.5255C23.7231 15.8935 24.0954 14.1137 24.0631 12.3182C24.0307 10.5226 23.5944 8.75741 22.7865 7.15353L24.4746 5.05617C24.8995 5.27145 25.3746 5.36822 25.8498 5.33633C26.325 5.30443 26.7829 5.14503 27.1752 4.8749L29.7824 7.35129C29.618 7.75905 29.5568 8.20105 29.6042 8.63812C29.6516 9.07518 29.8062 9.49379 30.0541 9.85683C30.302 10.2199 30.6357 10.5161 31.0256 10.7193C31.4155 10.9225 31.8494 11.0263 32.289 11.0216C32.7286 11.0169 33.1603 10.9037 33.5457 10.6922C33.9311 10.4807 34.2584 10.1774 34.4984 9.8091C34.7385 9.44082 34.884 9.01898 34.922 8.581C34.96 8.14302 34.8894 7.70243 34.7163 7.2983L39.0376 3.17582L39.0712 3.72028C39.0769 3.81518 39.1012 3.90802 39.1428 3.99351C39.1844 4.07899 39.2424 4.15544 39.3136 4.21847C39.3847 4.28149 39.4676 4.32987 39.5575 4.36082C39.6474 4.39178 39.7425 4.4047 39.8374 4.39885C39.9323 4.39301 40.0251 4.3685 40.1105 4.32675C40.1959 4.285 40.2722 4.22681 40.3351 4.15552C40.398 4.08423 40.4462 4.00124 40.477 3.9113C40.5077 3.82135 40.5205 3.72622 40.5144 3.63135L40.3683 1.26777ZM6.82006 11.5266C6.49756 11.5219 6.18986 11.3905 5.96346 11.1608C5.73706 10.9311 5.61015 10.6215 5.61015 10.2989C5.61016 9.9764 5.73708 9.66681 5.96349 9.43709C6.1899 9.20738 6.49761 9.07597 6.82012 9.07128C7.14249 9.07617 7.45001 9.20767 7.67625 9.43738C7.90249 9.66708 8.0293 9.97656 8.02929 10.299C8.02929 10.6214 7.90246 10.9309 7.67621 11.1606C7.44996 11.3903 7.14244 11.5218 6.82006 11.5266ZM29.757 25.443L32.2652 27.6535L30.215 29.7037C30.0838 29.8402 30.0114 30.0227 30.0133 30.212C30.0152 30.4012 30.0912 30.5822 30.225 30.7161C30.3589 30.8499 30.5399 30.9259 30.7292 30.9278C30.9185 30.9297 31.1009 30.8572 31.2374 30.7261L33.3521 28.6114L36.696 31.5585C40.7273 35.4307 34.9468 41.2086 31.0799 37.176L28.1264 33.83L29.1912 32.7652C29.2583 32.6981 29.3116 32.6184 29.3479 32.5307C29.3842 32.443 29.4029 32.349 29.4029 32.254C29.4029 32.1591 29.3842 32.0651 29.3479 31.9774C29.3116 31.8897 29.2583 31.81 29.1912 31.7428C29.1241 31.6757 29.0444 31.6224 28.9567 31.5861C28.8689 31.5498 28.7749 31.5311 28.68 31.5311C28.5851 31.5311 28.4911 31.5498 28.4033 31.5861C28.3156 31.6224 28.2359 31.6757 28.1688 31.7428L27.1678 32.7439L24.9588 30.2412L29.757 25.443ZM15.5111 15.8651C15.1886 15.8604 14.8809 15.7289 14.6545 15.4992C14.4281 15.2695 14.3012 14.9599 14.3012 14.6374C14.3012 14.3148 14.4281 14.0052 14.6545 13.7755C14.8809 13.5458 15.1886 13.4144 15.5111 13.4097C15.8336 13.4144 16.1413 13.5458 16.3677 13.7756C16.5941 14.0053 16.721 14.3149 16.721 14.6374C16.721 14.9599 16.5941 15.2695 16.3677 15.4993C16.1413 15.729 15.8336 15.8604 15.5111 15.8651ZM24.4351 2.67356C24.4399 2.35109 24.5714 2.04347 24.8012 1.81714C25.0309 1.59081 25.3405 1.46395 25.663 1.46396C25.9855 1.46397 26.295 1.59084 26.5248 1.81718C26.7545 2.04351 26.886 2.35114 26.8908 2.67361C26.886 2.99607 26.7545 3.3037 26.5247 3.53002C26.295 3.75635 25.9854 3.88321 25.6629 3.88321C25.3404 3.8832 25.0309 3.75633 24.8011 3.52999C24.5714 3.30365 24.4399 2.99602 24.4351 2.67356ZM32.2591 9.57574C31.9365 9.57117 31.6286 9.43981 31.4021 9.21007C31.1756 8.98033 31.0487 8.67066 31.0487 8.34804C31.0487 8.02541 31.1757 7.71575 31.4022 7.48602C31.6287 7.25629 31.9365 7.12494 32.2591 7.12038C32.5817 7.12495 32.8895 7.25631 33.1161 7.48606C33.3426 7.7158 33.4695 8.02546 33.4695 8.34809C33.4695 8.67071 33.3425 8.98037 33.116 9.2101C32.8895 9.43984 32.5817 9.57119 32.2591 9.57574Z" fill="#00E3DB"/>
</svg>
