<svg width="36" height="32" viewBox="0 0 36 32" fill="none" xmlns="http://www.w3.org/2000/svg">
<path d="M35.1487 6.92438C35.1487 7.20575 35.1494 24.0382 35.1474 24.1135C35.075 26.8839 32.8587 29.1312 30.0812 29.1312C27.2869 29.1312 25.0136 26.8579 25.0136 24.0636C25.0136 20.448 28.6258 18.1078 31.8562 19.3158C32.1593 19.4292 32.3132 19.7668 32.1998 20.07C32.0864 20.3733 31.7486 20.5272 31.4455 20.4136C28.9093 19.465 26.1856 21.3344 26.1856 24.0636C26.1856 26.2116 27.9331 27.9591 30.0811 27.9591C32.2291 27.9591 33.9766 26.2117 33.9766 24.0636V11.6573L19.7834 13.8408C19.4643 13.89 19.1644 13.6712 19.1151 13.3508C19.0658 13.0309 19.2853 12.7316 19.6051 12.6824L33.9766 10.4714V6.92445C33.9766 6.56609 33.6583 6.29007 33.3015 6.34523L17.4627 8.78203C16.8868 8.8706 16.4688 9.35774 16.4688 9.9404V26.9454C16.4688 29.7326 14.2014 32 11.4143 32C8.62717 32 6.35972 29.7326 6.35972 26.9454C6.35972 23.5653 9.61141 21.1377 12.854 22.0991C13.1643 22.1912 13.3412 22.5174 13.2492 22.8276C13.1572 23.1378 12.831 23.3147 12.5207 23.2228C10.033 22.4847 7.53179 24.3475 7.53179 26.9454C7.53179 29.0863 9.27342 30.8279 11.4143 30.8279C13.5551 30.8279 15.2968 29.0863 15.2968 26.9454V9.94033C15.2968 8.775 16.1327 7.80064 17.2845 7.62344L33.1233 5.18664C34.194 5.02284 35.1487 5.85215 35.1487 6.92438ZM7.49824 11.7559C7.54769 11.6151 7.53179 12.1968 7.53179 2.29426C8.32719 3.08548 9.3036 3.66375 10.388 3.97208C10.6995 4.06072 11.0234 3.87992 11.112 3.56859C11.2004 3.25734 11.0198 2.93319 10.7085 2.84462C9.32755 2.45205 8.20126 1.56838 7.45129 0.289216C7.15014 -0.224077 6.35972 -0.0101746 6.35972 0.585676C6.35972 12.8608 6.3324 11.4338 6.3324 11.5456C6.3324 12.9683 5.17491 14.1258 3.75223 14.1258C2.32956 14.1259 1.17207 12.9684 1.17207 11.5457C1.17207 10.123 2.32956 8.96546 3.75231 8.96546C4.07595 8.96546 4.33834 8.70306 4.33834 8.37943C4.33834 8.05579 4.07595 7.79339 3.75231 7.79339C1.68331 7.79339 0 9.4767 0 11.5457C0 13.6147 1.68331 15.2979 3.75231 15.2979C5.75076 15.2979 7.38887 13.7274 7.49824 11.7559Z" fill="#1C1C25"/>
</svg>
