<svg width="40" height="40" viewBox="0 0 40 40" fill="none" xmlns="http://www.w3.org/2000/svg">
<g clip-path="url(#clip0_2908_727)">
<path d="M39.4145 17.5366C39.0911 17.5366 38.8291 17.7987 38.8291 18.122V21.8782C38.8291 22.6107 39.9998 22.6441 39.9998 21.8782V18.122C39.9998 17.7987 39.7378 17.5366 39.4145 17.5366Z" fill="url(#paint0_linear_2908_727)"/>
<path d="M36.9906 13.7183C36.6673 13.7183 36.4053 13.9803 36.4053 14.3036V25.6965C36.4053 26.4291 37.576 26.4624 37.576 25.6965V14.3036C37.576 13.9803 37.3139 13.7183 36.9906 13.7183Z" fill="url(#paint1_linear_2908_727)"/>
<path d="M34.5658 14.9932C34.2425 14.9932 33.9805 15.2553 33.9805 15.5785V24.4218C33.9805 25.1543 35.1512 25.1877 35.1512 24.4218V15.5785C35.1512 15.2553 34.8892 14.9932 34.5658 14.9932Z" fill="url(#paint2_linear_2908_727)"/>
<path d="M32.141 11.063C31.8177 11.063 31.5557 11.3251 31.5557 11.6484V28.3521C31.5557 29.0847 32.7264 29.118 32.7264 28.3521V11.6484C32.7264 11.3251 32.4643 11.063 32.141 11.063Z" fill="url(#paint3_linear_2908_727)"/>
<path d="M0.585366 17.5366C0.26201 17.5366 0 17.7987 0 18.122V21.8782C0 22.6107 1.17073 22.6441 1.17073 21.8782V18.122C1.17073 17.7987 0.908722 17.5366 0.585366 17.5366Z" fill="url(#paint4_linear_2908_727)"/>
<path d="M3.01017 13.7183C2.68681 13.7183 2.4248 13.9803 2.4248 14.3036V25.6965C2.4248 26.4291 3.59554 26.4624 3.59554 25.6965V14.3036C3.59554 13.9803 3.33345 13.7183 3.01017 13.7183Z" fill="url(#paint5_linear_2908_727)"/>
<path d="M5.434 14.9932C5.11064 14.9932 4.84863 15.2553 4.84863 15.5785V24.4218C4.84863 25.1543 6.01936 25.1877 6.01936 24.4218V15.5785C6.01936 15.2553 5.75735 14.9932 5.434 14.9932Z" fill="url(#paint6_linear_2908_727)"/>
<path d="M7.8588 11.063C7.53545 11.063 7.27344 11.3251 7.27344 11.6484V28.3521C7.27344 29.0847 8.44417 29.118 8.44417 28.3521V11.6484C8.44417 11.3251 8.18208 11.063 7.8588 11.063Z" fill="url(#paint7_linear_2908_727)"/>
<path d="M30.2855 15.7157C30.2961 15.6717 30.3024 15.6258 30.3024 15.5785V9.27891C30.3024 8.54635 29.1316 8.51302 29.1316 9.27891V13.6261C28.7573 13.0925 28.3378 12.5929 27.8779 12.1335V4.15618C27.8779 3.42361 26.7072 3.39029 26.7072 4.15618V11.116C26.3092 10.8157 25.8904 10.5417 25.4535 10.2961V5.75618C25.4535 5.02361 24.2828 4.99029 24.2828 5.75618V9.72543C23.8764 9.55614 23.458 9.41011 23.0291 9.28945V2.43911C23.0291 1.70654 21.8584 1.67321 21.8584 2.43911V9.02837C21.4349 8.95766 21.0037 8.91037 20.5656 8.88906V0.60496C20.5656 -0.127606 19.3949 -0.160933 19.3949 0.60496V8.89335C18.9702 8.917 18.552 8.96469 18.1412 9.03485V2.43911C18.1412 1.70654 16.9705 1.67321 16.9705 2.43911V9.30022C16.5415 9.4226 16.1231 9.57034 15.7168 9.74143V5.75618C15.7168 5.02361 14.546 4.99029 14.546 5.75618V10.3181C14.1089 10.5662 13.6902 10.843 13.2923 11.146V4.15618C13.2923 3.42361 12.1216 3.39029 12.1216 4.15618V12.1733C11.6611 12.6379 11.2415 13.143 10.8679 13.6823V9.27891C10.8679 8.54635 9.69719 8.51302 9.69719 9.27891V15.7464C9.69719 15.7764 9.70015 15.8056 9.70452 15.8344C9.18269 17.1217 8.89453 18.5278 8.89453 20.0001C8.89453 21.4378 9.16489 22.8343 9.69719 24.1545V30.7213C9.69719 31.4538 10.8679 31.4871 10.8679 30.7213V24.2732C10.8679 22.8416 10.0653 22.2635 10.0653 20.0001C10.0653 14.5115 14.5306 10.0462 20.0191 10.0462C25.5077 10.0462 29.973 14.5115 29.973 20.0001C29.973 25.4887 25.508 29.954 20.0194 29.954C17.4629 29.954 15.0329 28.9865 13.1773 27.2296C12.8091 26.8809 12.1219 27.1443 12.1219 27.6546V35.844C12.1219 36.5765 13.2927 36.6099 13.2927 35.844V28.8607C13.6934 29.1657 14.1121 29.4418 14.5464 29.6877V34.2441C14.5464 34.9766 15.7171 35.01 15.7171 34.2441V30.2623C16.1254 30.4336 16.544 30.5801 16.9708 30.7013V37.5611C16.9708 38.2937 18.1415 38.327 18.1415 37.5611V30.9665C18.5543 31.0366 18.9728 31.0833 19.3952 31.1068V39.3952C19.3952 40.1278 20.5659 40.1611 20.5659 39.3952V31.1111C21.004 31.0898 21.4352 31.0425 21.8587 30.9718V37.5611C21.8587 38.2936 23.0294 38.327 23.0294 37.5611V30.7107C23.4583 30.5901 23.8767 30.444 24.2831 30.2747V34.244C24.2831 34.9766 25.4538 35.0099 25.4538 34.244V29.704C25.8907 29.4583 26.3096 29.1844 26.7075 28.8841V35.8439C26.7075 36.5765 27.8783 36.6098 27.8783 35.8439V27.8666C28.3381 27.4072 28.7576 26.9076 29.132 26.374V30.7212C29.132 31.4537 30.3027 31.4871 30.3027 30.7212V24.4216C30.3027 24.3742 30.2964 24.3284 30.2858 24.2843C30.8385 22.965 31.1444 21.5176 31.1444 20C31.1444 18.4824 30.8382 17.0351 30.2855 15.7157Z" fill="url(#paint8_linear_2908_727)"/>
<path d="M22.1534 15.4269C22.8432 15.1806 22.4808 14.0667 21.7596 14.3244L17.5615 15.8237C17.3307 15.906 17.173 16.1311 17.173 16.375V21.9778C16.8773 21.8251 16.5422 21.7383 16.187 21.7383C14.9978 21.7383 14.0303 22.7058 14.0303 23.895C14.0303 25.0843 14.9978 26.0518 16.187 26.0518C17.3762 26.0518 18.3437 25.0843 18.3437 23.895V18.8078L23.4583 16.9812V19.7332C23.1626 19.5804 22.8275 19.4936 22.4723 19.4936C21.2832 19.4936 20.3156 20.4611 20.3156 21.6504C20.3156 22.8396 21.2831 23.8071 22.4723 23.8071C23.6616 23.8071 24.6291 22.8396 24.6291 21.6504V14.1304C24.6291 13.3978 23.4583 13.3645 23.4583 14.1304V15.7382L18.3437 17.5648V16.7877L22.1534 15.4269ZM22.4724 22.6362C21.9287 22.6362 21.4864 22.1939 21.4864 21.6502C21.4864 21.1065 21.9287 20.6642 22.4724 20.6642C23.0161 20.6642 23.4584 21.1065 23.4584 21.6502C23.4584 22.1939 23.0161 22.6362 22.4724 22.6362ZM16.1871 24.881C15.6434 24.881 15.2011 24.4387 15.2011 23.895C15.2011 23.3513 15.6434 22.909 16.1871 22.909C16.7308 22.909 17.1731 23.3513 17.1731 23.895C17.1731 24.4387 16.7307 24.881 16.1871 24.881Z" fill="url(#paint9_linear_2908_727)"/>
</g>
<defs>
<linearGradient id="paint0_linear_2908_727" x1="39.8792" y1="18.4513" x2="38.6998" y2="18.549" gradientUnits="userSpaceOnUse">
<stop stop-color="#FF8139"/>
<stop offset="0.311383" stop-color="#FF4646"/>
<stop offset="1" stop-color="#9A5BEB"/>
</linearGradient>
<linearGradient id="paint1_linear_2908_727" x1="37.4553" y1="16.0574" x2="36.2691" y2="16.0959" gradientUnits="userSpaceOnUse">
<stop stop-color="#FF8139"/>
<stop offset="0.311383" stop-color="#FF4646"/>
<stop offset="1" stop-color="#9A5BEB"/>
</linearGradient>
<linearGradient id="paint2_linear_2908_727" x1="35.0305" y1="16.8568" x2="33.845" y2="16.905" gradientUnits="userSpaceOnUse">
<stop stop-color="#FF8139"/>
<stop offset="0.311383" stop-color="#FF4646"/>
<stop offset="1" stop-color="#9A5BEB"/>
</linearGradient>
<linearGradient id="paint3_linear_2908_727" x1="32.6057" y1="14.3928" x2="31.4189" y2="14.4199" gradientUnits="userSpaceOnUse">
<stop stop-color="#FF8139"/>
<stop offset="0.311383" stop-color="#FF4646"/>
<stop offset="1" stop-color="#9A5BEB"/>
</linearGradient>
<linearGradient id="paint4_linear_2908_727" x1="1.05007" y1="18.4513" x2="-0.129289" y2="18.549" gradientUnits="userSpaceOnUse">
<stop stop-color="#FF8139"/>
<stop offset="0.311383" stop-color="#FF4646"/>
<stop offset="1" stop-color="#9A5BEB"/>
</linearGradient>
<linearGradient id="paint5_linear_2908_727" x1="3.47487" y1="16.0574" x2="2.28866" y2="16.0959" gradientUnits="userSpaceOnUse">
<stop stop-color="#FF8139"/>
<stop offset="0.311383" stop-color="#FF4646"/>
<stop offset="1" stop-color="#9A5BEB"/>
</linearGradient>
<linearGradient id="paint6_linear_2908_727" x1="5.8987" y1="16.8568" x2="4.71321" y2="16.905" gradientUnits="userSpaceOnUse">
<stop stop-color="#FF8139"/>
<stop offset="0.311383" stop-color="#FF4646"/>
<stop offset="1" stop-color="#9A5BEB"/>
</linearGradient>
<linearGradient id="paint7_linear_2908_727" x1="8.32351" y1="14.3928" x2="7.13667" y2="14.4199" gradientUnits="userSpaceOnUse">
<stop stop-color="#FF8139"/>
<stop offset="0.311383" stop-color="#FF4646"/>
<stop offset="1" stop-color="#9A5BEB"/>
</linearGradient>
<linearGradient id="paint8_linear_2908_727" x1="28.8512" y1="7.48835" x2="7.09772" y2="11.6969" gradientUnits="userSpaceOnUse">
<stop stop-color="#FF8139"/>
<stop offset="0.311383" stop-color="#FF4646"/>
<stop offset="1" stop-color="#9A5BEB"/>
</linearGradient>
<linearGradient id="paint9_linear_2908_727" x1="23.5367" y1="15.8969" x2="13.6454" y2="18.8116" gradientUnits="userSpaceOnUse">
<stop stop-color="#FF8139"/>
<stop offset="0.311383" stop-color="#FF4646"/>
<stop offset="1" stop-color="#9A5BEB"/>
</linearGradient>
<clipPath id="clip0_2908_727">
<rect width="40" height="40" fill="white"/>
</clipPath>
</defs>
</svg>
