<svg width="38" height="40" viewBox="0 0 38 40" fill="none" xmlns="http://www.w3.org/2000/svg">
<path d="M32.1331 0H4.99848C3.67328 0.00154481 2.40279 0.528664 1.46573 1.46573C0.528668 2.40279 0.0015467 3.67327 0 4.99848V21.9321C0.0015467 23.2573 0.528668 24.5278 1.46573 25.4649C2.40279 26.402 3.67328 26.9291 4.99848 26.9306H5.71255V28.9811L4.49361 30.2001C4.3597 30.334 4.28445 30.5156 4.28441 30.7049V32.6066C3.71076 32.7781 3.21797 33.1503 2.89611 33.6551C2.57425 34.16 2.44482 34.7638 2.53146 35.3562C2.61811 35.9487 2.91505 36.4901 3.36801 36.8817C3.82098 37.2732 4.39971 37.4887 4.99844 37.4887C5.59716 37.4887 6.1759 37.2732 6.62886 36.8817C7.08182 36.4901 7.37876 35.9487 7.46541 35.3562C7.55205 34.7638 7.42262 34.16 7.10076 33.6551C6.7789 33.1503 6.28611 32.7781 5.71246 32.6066L5.71255 31.0006L6.93148 29.7817C7.0654 29.6478 7.14065 29.4662 7.14069 29.2768V26.9306H9.99696V31.062C9.99694 31.1795 10.026 31.2953 10.0814 31.3989C10.1369 31.5026 10.2171 31.5909 10.3149 31.6561L12.1392 32.8722V35.1065C11.564 35.2786 11.0701 35.6519 10.7476 36.1582C10.4251 36.6645 10.2956 37.27 10.3828 37.8639C10.47 38.4579 10.7681 39.0006 11.2225 39.3928C11.677 39.785 12.2574 40.0006 12.8577 40C13.458 39.9994 14.0381 39.7828 14.4918 39.3898C14.9455 38.9967 15.2426 38.4535 15.3287 37.8594C15.4149 37.2653 15.2843 36.6601 14.9608 36.1543C14.6374 35.6486 14.1427 35.2762 13.5673 35.1052V32.4901C13.5673 32.3725 13.5383 32.2568 13.4828 32.1531C13.4274 32.0495 13.3471 31.9612 13.2493 31.896L11.4251 30.6798V26.9306H17.8517V30.4644C17.2781 30.6359 16.7853 31.0081 16.4634 31.5129C16.1416 32.0178 16.0121 32.6216 16.0988 33.214C16.1854 33.8065 16.4824 34.3479 16.9353 34.7395C17.3883 35.131 17.967 35.3464 18.5657 35.3464C19.1645 35.3464 19.7432 35.131 20.1962 34.7395C20.6491 34.3479 20.9461 33.8065 21.0327 33.214C21.1194 32.6216 20.9899 32.0178 20.6681 31.5129C20.3462 31.0081 19.8534 30.6359 19.2798 30.4644L19.2799 26.9306H25.7065V30.6798L23.8822 31.896C23.7844 31.9612 23.7042 32.0495 23.6487 32.1531C23.5932 32.2568 23.5642 32.3725 23.5643 32.4901V35.1065C22.9891 35.2786 22.4952 35.6519 22.1727 36.1582C21.8502 36.6645 21.7207 37.27 21.8079 37.8639C21.8951 38.4579 22.1932 39.0006 22.6476 39.3928C23.1021 39.785 23.6825 40.0006 24.2828 40C24.8831 39.9994 25.4632 39.7828 25.9169 39.3898C26.3706 38.9967 26.6677 38.4535 26.7538 37.8594C26.8399 37.2653 26.7094 36.6601 26.3859 36.1543C26.0625 35.6486 25.5678 35.2762 24.9924 35.1052V32.8722L26.8166 31.6561C26.9144 31.5909 26.9947 31.5026 27.0501 31.3989C27.1056 31.2953 27.1346 31.1795 27.1346 31.062V26.9306H29.9909V29.2768C29.9909 29.4662 30.0661 29.6478 30.2001 29.7817L31.419 31.0006V32.6066C30.8454 32.7781 30.3526 33.1503 30.0307 33.6551C29.7088 34.16 29.5794 34.7638 29.666 35.3562C29.7527 35.9487 30.0496 36.4901 30.5026 36.8817C30.9556 37.2732 31.5343 37.4887 32.133 37.4887C32.7317 37.4887 33.3105 37.2732 33.7634 36.8817C34.2164 36.4901 34.5134 35.9487 34.6 35.3562C34.6866 34.7638 34.5572 34.16 34.2353 33.6551C33.9135 33.1503 33.4207 32.7781 32.847 32.6066L32.8471 30.7049C32.8471 30.5156 32.7719 30.334 32.6379 30.2001L31.419 28.9811V26.9306C32.1299 27.0167 32.8509 26.9522 33.5351 26.7411C34.2194 26.5301 34.8516 26.1773 35.3904 25.7058C35.9293 25.2343 36.3629 24.6545 36.6628 24.0043C36.9628 23.3541 37.1225 22.6481 37.1315 21.9321L37.1315 4.99848C37.13 3.67328 36.6029 2.4028 35.6658 1.46574C34.7287 0.528675 33.4583 0.00155237 32.1331 0ZM6.06958 34.9893C6.06553 35.2707 5.9509 35.5393 5.75046 35.7368C5.55003 35.9344 5.27989 36.0451 4.99846 36.0451C4.71702 36.0451 4.44689 35.9344 4.24646 35.7368C4.04604 35.5392 3.93141 35.2707 3.92738 34.9893C3.93143 34.7079 4.04606 34.4394 4.24649 34.2418C4.44693 34.0442 4.71706 33.9335 4.9985 33.9335C5.27994 33.9335 5.55007 34.0443 5.75049 34.2418C5.95092 34.4394 6.06554 34.7079 6.06958 34.9893ZM13.9264 37.4886C13.9224 37.77 13.8077 38.0385 13.6073 38.2361C13.4069 38.4336 13.1367 38.5444 12.8553 38.5444C12.5739 38.5444 12.3037 38.4336 12.1033 38.236C11.9029 38.0385 11.7883 37.7699 11.7842 37.4885C11.7883 37.2071 11.9029 36.9386 12.1033 36.741C12.3038 36.5435 12.5739 36.4327 12.8553 36.4327C13.1368 36.4327 13.4069 36.5435 13.6073 36.7411C13.8078 36.9387 13.9224 37.2072 13.9264 37.4886ZM25.3515 37.4886C25.3475 37.77 25.2328 38.0385 25.0324 38.2361C24.832 38.4336 24.5618 38.5444 24.2804 38.5444C23.999 38.5444 23.7288 38.4336 23.5284 38.236C23.328 38.0385 23.2133 37.7699 23.2093 37.4885C23.2134 37.2071 23.328 36.9386 23.5284 36.741C23.7289 36.5435 23.999 36.4327 24.2804 36.4327C24.5619 36.4327 24.832 36.5435 25.0324 36.7411C25.2329 36.9387 25.3475 37.2072 25.3515 37.4886ZM19.6369 32.8471C19.6329 33.1286 19.5183 33.3971 19.3179 33.5948C19.1174 33.7924 18.8473 33.9032 18.5658 33.9032C18.2843 33.9032 18.0141 33.7924 17.8137 33.5948C17.6133 33.3971 17.4987 33.1286 17.4947 32.8471C17.4987 32.5657 17.6133 32.2971 17.8137 32.0995C18.0141 31.9018 18.2843 31.791 18.5658 31.791C18.8473 31.791 19.1174 31.9018 19.3179 32.0995C19.5183 32.2971 19.6329 32.5657 19.6369 32.8471ZM32.1331 33.9182C32.4144 33.9223 32.6829 34.037 32.8804 34.2374C33.0779 34.4378 33.1886 34.7079 33.1886 34.9893C33.1886 35.2707 33.0779 35.5408 32.8804 35.7412C32.6828 35.9416 32.4144 36.0563 32.133 36.0604C31.852 36.0559 31.5839 35.941 31.3868 35.7406C31.1896 35.5403 31.0791 35.2704 31.0791 34.9893C31.0791 34.7082 31.1896 34.4383 31.3868 34.238C31.584 34.0376 31.852 33.9227 32.1331 33.9182ZM35.7034 21.9321C35.7023 22.8787 35.3258 23.7861 34.6565 24.4555C33.9871 25.1248 33.0796 25.5013 32.1331 25.5024C32.1331 25.5024 5.94019 25.5039 4.99849 25.5024C4.05192 25.5013 3.14443 25.1248 2.47511 24.4555C1.80578 23.7861 1.42926 22.8787 1.42815 21.9321V4.99848C1.42926 4.0519 1.80578 3.14442 2.47511 2.47509C3.14443 1.80576 4.05192 1.42925 4.99849 1.42813H32.1331C33.0796 1.42925 33.9871 1.80577 34.6564 2.47509C35.3258 3.14442 35.7023 4.0519 35.7034 4.99848L35.7034 21.9321Z" fill="#00E3DB"/>
<path d="M22.6746 13.4675L33.4007 4.37284C33.5406 4.24911 33.6265 4.07544 33.64 3.8891C33.6534 3.70276 33.5932 3.51858 33.4724 3.37607C33.3516 3.23356 33.1798 3.14406 32.9937 3.12679C32.8077 3.10951 32.6223 3.16583 32.4773 3.28366L20.6939 13.2743C20.1022 13.7728 19.3525 14.0448 18.5788 14.0416C17.8051 14.0384 17.0577 13.7603 16.4701 13.2569C16.4701 13.2569 7.10635 5.15595 4.8205 3.18703C4.67638 3.06822 4.49145 3.01061 4.30535 3.02653C4.11926 3.04245 3.9468 3.13064 3.82495 3.2722C3.70311 3.41376 3.64157 3.59743 3.65353 3.78382C3.66549 3.97021 3.74999 4.14451 3.88893 4.26933C6.17405 6.23751 14.4774 13.4204 14.4774 13.4204L3.66711 22.5188C3.52663 22.642 3.44002 22.8154 3.42588 23.0017C3.41173 23.188 3.47118 23.3724 3.59145 23.5154C3.71172 23.6584 3.88325 23.7485 4.06923 23.7665C4.25521 23.7844 4.44082 23.7288 4.58624 23.6115L15.5746 14.3633C16.4116 15.0686 17.4692 15.4585 18.5638 15.4652C19.6583 15.4719 20.7207 15.095 21.5662 14.3999L32.4844 23.6527C32.6129 23.7622 32.7764 23.8223 32.9453 23.8221C33.0903 23.8196 33.2312 23.7732 33.3493 23.6891C33.4675 23.6051 33.5575 23.4872 33.6075 23.3511C33.6575 23.2149 33.6652 23.0669 33.6295 22.9263C33.5938 22.7857 33.5165 22.6592 33.4076 22.5634L22.6746 13.4675Z" fill="#00E3DB"/>
</svg>
