<svg width="32" height="32" viewBox="0 0 32 32" fill="none" xmlns="http://www.w3.org/2000/svg">
<path d="M31.6964 30.2591L23.4345 22.1292C25.598 19.7786 26.9274 16.6699 26.9274 13.2491C26.9263 5.93136 20.8989 0 13.4632 0C6.02741 0 0 5.93136 0 13.2491C0 20.5668 6.02741 26.4982 13.4632 26.4982C16.6759 26.4982 19.6226 25.387 21.9372 23.5395L30.2311 31.7014C30.6352 32.0995 31.2913 32.0995 31.6955 31.7014C32.1005 31.3034 32.1005 30.6572 31.6964 30.2591ZM13.4632 24.4597C7.17171 24.4597 2.0715 19.4406 2.0715 13.2491C2.0715 7.05762 7.17171 2.03845 13.4632 2.03845C19.7547 2.03845 24.8548 7.05762 24.8548 13.2491C24.8548 19.4406 19.7547 24.4597 13.4632 24.4597Z" fill="black"/>
</svg>
