<svg width="40" height="40" viewBox="0 0 40 40" fill="none" xmlns="http://www.w3.org/2000/svg">
<path d="M12.9968 17.3419L12.995 17.3419C12.9071 17.342 12.8223 17.3073 12.7589 17.244C12.6968 17.1818 12.6615 17.0969 12.6615 17.0079C12.6615 15.7188 13.7064 14.6742 14.9952 14.6742C16.284 14.6742 17.3288 15.7188 17.3288 17.0079C17.3288 17.1923 17.1795 17.3419 16.9944 17.3419C16.8099 17.3419 16.6604 17.1924 16.6604 17.0079C16.6604 16.0883 15.9148 15.3426 14.9952 15.3426C14.0756 15.3426 13.3299 16.0883 13.3299 17.0079L13.3299 17.0088C13.3301 17.0966 13.2951 17.1815 13.2323 17.2443C13.1696 17.307 13.0846 17.342 12.9968 17.3419ZM13.7028 17.7148C13.8903 17.5274 13.9957 17.2729 13.9954 17.0079L12.2886 17.7148C12.4764 17.9023 12.7305 18.0077 12.9959 18.0073C13.261 18.0077 13.5154 17.9023 13.7028 17.7148Z" fill="white" stroke="#00E3DB" stroke-width="1.33084"/>
<path d="M26.8423 25.2055L26.8425 25.2053C27.0074 25.1228 27.2082 25.1895 27.2911 25.355C27.3726 25.5186 27.3075 25.717 27.1464 25.8008C24.9135 26.8523 22.4704 27.3823 20.0025 27.35L19.9938 27.3499L19.9851 27.35C17.5171 27.3823 15.0744 26.8526 12.8412 25.8009C12.6804 25.7171 12.6152 25.5188 12.697 25.3548C12.7799 25.1894 12.9806 25.1229 13.1454 25.2053L13.1457 25.2055C15.1244 26.1944 17.5729 26.6755 19.9943 26.6755C22.4156 26.6755 24.864 26.1944 26.8423 25.2055Z" fill="white" stroke="#00E3DB" stroke-width="1.33084"/>
<path d="M35.3236 16.6731V16.0077V13.0092C35.3213 10.6169 33.3823 8.67789 30.99 8.67567H27.9916H27.3261V8.01025V5.82646V5.35586L27.7699 5.19906C28.8411 4.82052 29.4841 3.72466 29.2918 2.60462L29.2918 2.60459C29.0995 1.48408 28.1284 0.665421 26.9917 0.665421C25.8551 0.665421 24.884 1.48408 24.6917 2.60459L24.6917 2.60462C24.4994 3.72466 25.1424 4.82052 26.2136 5.19906L26.6573 5.35586V5.82646V8.01025V8.67567H25.9919H13.9956H13.3302V8.01025V5.82646V5.35582L13.7739 5.19904C14.8454 4.82054 15.4882 3.7248 15.2962 2.60459L35.3236 16.6731ZM35.3236 16.6731H35.989M35.3236 16.6731H35.989M35.989 16.6731H36.9881C38.2766 16.6745 39.321 17.7189 39.3225 19.0075V23.0049C39.321 24.2935 38.2766 25.3379 36.9881 25.3393H35.989H35.3236V26.0047V30.0027C35.3213 32.3953 33.3823 34.3343 30.99 34.3366H23.2799H23.089L22.9272 34.4377L15.1725 39.2837L15.1723 39.2839C15.0696 39.3481 14.9398 39.3516 14.8336 39.2927C14.7273 39.2338 14.6611 39.1218 14.661 38.9999V35.002V34.3366H13.9956H8.99795C6.60579 34.334 4.66709 32.3955 4.66432 30.003C4.66432 30.0029 4.66432 30.0027 4.66432 30.0026L4.66432 26.0047V25.3393H3.9989H2.99982C1.71136 25.3379 0.667036 24.2937 0.665421 23.0053V19.0071C0.667036 17.7187 1.71136 16.6745 2.99982 16.6731H3.9989H4.66432V16.0077L4.66432 13.0093C4.66432 13.0092 4.66432 13.009 4.66432 13.0089C4.66709 10.6167 6.60576 8.6782 8.99795 8.67567H11.9963H12.6618V8.01025V5.82646V5.35582L12.218 5.19904C11.1465 4.82052 10.5038 3.72476 10.6961 2.60462L10.6961 2.60443M35.989 16.6731L10.6961 2.60443M10.6961 2.60443C10.8881 1.48418 11.8594 0.665421 12.9961 0.665421C14.1327 0.665421 15.1038 1.48401 15.2962 2.60446L10.6961 2.60443ZM26.9917 1.34666L26.9904 1.34666C26.0724 1.34849 25.3283 2.09224 25.3265 3.0102V3.01153C25.3265 3.93163 26.0723 4.67677 26.9917 4.67677C27.9112 4.67677 28.657 3.93163 28.657 3.01153C28.657 2.09163 27.911 1.34666 26.9917 1.34666ZM12.9961 1.34666L12.9953 1.34666C12.0765 1.34788 11.3321 2.09197 11.3309 3.01065V3.01153C11.3309 3.93163 12.0767 4.67677 12.9961 4.67677C13.9159 4.67677 14.661 3.93132 14.661 3.01153C14.661 2.09195 13.9157 1.34666 12.9961 1.34666ZM2.99864 24.6705H2.99908H3.9989H4.66432V24.0051V18.0069V17.3415H3.9989H2.99908H2.9982C2.07968 17.3427 1.33507 18.0874 1.33385 19.0059V19.0068L1.33385 23.0057L1.33385 23.0065C1.33506 23.925 2.07969 24.6699 2.99864 24.6705ZM34.6551 30.004V30.0033V13.0086V13.0079C34.6529 10.9854 33.0138 9.34633 30.9914 9.34409H30.9906L8.99725 9.34409L8.99651 9.34409C6.97409 9.34633 5.33498 10.9854 5.33274 13.0079V13.0086L5.33274 30.0033L5.33274 30.004C5.33498 32.0267 6.97404 33.666 8.99666 33.6678H8.99725H14.9954C15.0839 33.6678 15.1691 33.703 15.2318 33.7658L15.2323 33.7662C15.2945 33.8283 15.3298 33.9131 15.3298 34.0022V37.1964V38.3968L16.3478 37.7607L22.8164 33.719L22.8178 33.7181C22.8701 33.6853 22.9308 33.6678 22.9928 33.6678H30.9906H30.9912C33.0139 33.666 34.6529 32.0267 34.6551 30.004ZM38.6537 23.0065V23.0057V19.0068V19.0059C38.6525 18.0873 37.9082 17.3434 36.9901 17.3415H36.9888H35.989H35.3236V18.0069V24.0051V24.6705H35.989H36.9888H36.9897C37.9082 24.6693 38.6525 23.9251 38.6537 23.0065Z" fill="white" stroke="#00E3DB" stroke-width="1.33084"/>
<mask id="path-4-inside-1_2195_1696" fill="white">
<path d="M24.9913 14.0088C23.3358 14.0106 21.994 15.3524 21.9922 17.0079C21.9922 17.5599 22.4396 18.0073 22.9916 18.0073C23.5441 18.0073 23.9915 17.5599 23.9915 17.0079C23.9915 16.4558 24.4392 16.0081 24.9913 16.0081C25.5433 16.0081 25.9907 16.4558 25.9907 17.0079C25.9907 17.5599 26.4385 18.0073 26.9905 18.0073C27.5426 18.0073 27.9904 17.5599 27.9904 17.0079C27.9885 15.3524 26.6468 14.0106 24.9913 14.0088Z"/>
</mask>
<path d="M24.9913 14.0088C23.3358 14.0106 21.994 15.3524 21.9922 17.0079C21.9922 17.5599 22.4396 18.0073 22.9916 18.0073C23.5441 18.0073 23.9915 17.5599 23.9915 17.0079C23.9915 16.4558 24.4392 16.0081 24.9913 16.0081C25.5433 16.0081 25.9907 16.4558 25.9907 17.0079C25.9907 17.5599 26.4385 18.0073 26.9905 18.0073C27.5426 18.0073 27.9904 17.5599 27.9904 17.0079C27.9885 15.3524 26.6468 14.0106 24.9913 14.0088Z" fill="white"/>
<path d="M24.9913 14.0088L24.9927 12.6779L24.9898 12.6779L24.9913 14.0088ZM21.9922 17.0079L20.6613 17.0064V17.0079H21.9922ZM27.9904 17.0079H29.3212L29.3212 17.0064L27.9904 17.0079ZM24.9898 12.6779C22.6004 12.6806 20.664 14.617 20.6613 17.0064L23.323 17.0093C23.324 16.0877 24.0711 15.3406 24.9927 15.3396L24.9898 12.6779ZM20.6613 17.0079C20.6613 18.295 21.7046 19.3382 22.9916 19.3382V16.6765C23.1746 16.6765 23.323 16.8249 23.323 17.0079H20.6613ZM22.9916 19.3382C24.2788 19.3382 25.3223 18.2953 25.3223 17.0079H22.6606C22.6606 16.8246 22.8094 16.6765 22.9916 16.6765V19.3382ZM25.3223 17.0079C25.3223 17.1908 25.1742 17.3389 24.9913 17.3389V14.6772C23.7042 14.6772 22.6606 15.7208 22.6606 17.0079H25.3223ZM24.9913 17.3389C24.8077 17.3389 24.6599 17.1902 24.6599 17.0079H27.3216C27.3216 15.7214 26.279 14.6772 24.9913 14.6772V17.3389ZM24.6599 17.0079C24.6599 18.2956 25.7041 19.3382 26.9905 19.3382V16.6765C27.1728 16.6765 27.3216 16.8243 27.3216 17.0079H24.6599ZM26.9905 19.3382C28.277 19.3382 29.3212 18.2956 29.3212 17.0079H26.6595C26.6595 16.8243 26.8082 16.6765 26.9905 16.6765V19.3382ZM29.3212 17.0064C29.3186 14.617 27.3821 12.6806 24.9927 12.6779L24.9898 15.3396C25.9114 15.3406 26.6585 16.0877 26.6595 17.0093L29.3212 17.0064Z" fill="#00E3DB" mask="url(#path-4-inside-1_2195_1696)"/>
</svg>
