<svg width="40" height="40" viewBox="0 0 40 40" fill="none" xmlns="http://www.w3.org/2000/svg">
<path d="M31.875 20C31.875 17.6514 31.1785 15.3554 29.8737 13.4026C28.5689 11.4498 26.7142 9.92773 24.5444 9.02894C22.3745 8.13015 19.9868 7.89498 17.6833 8.35318C15.3798 8.81138 13.2639 9.94236 11.6031 11.6031C9.94236 13.2639 8.81138 15.3798 8.35318 17.6833C7.89498 19.9868 8.13015 22.3745 9.02894 24.5444C9.92773 26.7142 11.4498 28.5689 13.4026 29.8737C15.3554 31.1785 17.6514 31.875 20 31.875C23.1484 31.8715 26.1668 30.6193 28.3931 28.3931C30.6193 26.1668 31.8715 23.1484 31.875 20ZM20 30.625C17.8986 30.625 15.8443 30.0019 14.0971 28.8344C12.3498 27.6669 10.988 26.0075 10.1838 24.066C9.3796 22.1246 9.16919 19.9882 9.57916 17.9272C9.98913 15.8661 11.0011 13.9729 12.487 12.487C13.9729 11.0011 15.8661 9.98913 17.9272 9.57916C19.9882 9.16919 22.1246 9.3796 24.066 10.1838C26.0075 10.988 27.6669 12.3498 28.8344 14.0971C30.0019 15.8443 30.625 17.8986 30.625 20C30.6219 22.817 29.5014 25.5177 27.5095 27.5095C25.5177 29.5014 22.817 30.6219 20 30.625Z" fill="url(#paint0_linear_2908_703)"/>
<path d="M38.75 3.75V2.5H36.25V1.875C36.25 1.70924 36.1842 1.55027 36.0669 1.43306C35.9497 1.31585 35.7908 1.25 35.625 1.25H33.125C32.4051 1.25184 31.7078 1.50133 31.1501 1.95657C30.5925 2.4118 30.2084 3.04506 30.0625 3.75H24.375C23.8782 3.75148 23.4021 3.9495 23.0508 4.30081C22.6995 4.65212 22.5015 5.12818 22.5 5.625V6.875H23.75V5.625C23.75 5.45924 23.8158 5.30027 23.9331 5.18306C24.0503 5.06585 24.2092 5 24.375 5H30.0625C30.2084 5.70494 30.5925 6.3382 31.1501 6.79343C31.7078 7.24867 32.4051 7.49816 33.125 7.5H35.625C35.7908 7.5 35.9497 7.43415 36.0669 7.31694C36.1842 7.19973 36.25 7.04076 36.25 6.875V6.25H38.75V5H36.25V3.75H38.75ZM35 6.25H33.125C32.6277 6.25 32.1508 6.05246 31.7992 5.70083C31.4475 5.3492 31.25 4.87228 31.25 4.375C31.25 3.87772 31.4475 3.40081 31.7992 3.04917C32.1508 2.69754 32.6277 2.5 33.125 2.5H35V6.25Z" fill="url(#paint1_linear_2908_703)"/>
<path d="M38.75 35V33.75H36.25V33.125C36.25 32.9592 36.1842 32.8003 36.0669 32.6831C35.9497 32.5658 35.7908 32.5 35.625 32.5H33.125C32.4051 32.5018 31.7078 32.7513 31.1501 33.2066C30.5925 33.6618 30.2084 34.2951 30.0625 35H24.375C24.2092 35 24.0503 34.9342 23.9331 34.8169C23.8158 34.6997 23.75 34.5408 23.75 34.375V33.125H22.5V34.375C22.5015 34.8718 22.6995 35.3479 23.0508 35.6992C23.4021 36.0505 23.8782 36.2485 24.375 36.25H30.0625C30.2084 36.9549 30.5925 37.5882 31.1501 38.0434C31.7078 38.4987 32.4051 38.7482 33.125 38.75H35.625C35.7908 38.75 35.9497 38.6842 36.0669 38.5669C36.1842 38.4497 36.25 38.2908 36.25 38.125V37.5H38.75V36.25H36.25V35H38.75ZM35 37.5H33.125C32.6277 37.5 32.1508 37.3025 31.7992 36.9508C31.4475 36.5992 31.25 36.1223 31.25 35.625C31.25 35.1277 31.4475 34.6508 31.7992 34.2992C32.1508 33.9475 32.6277 33.75 33.125 33.75H35V37.5Z" fill="url(#paint2_linear_2908_703)"/>
<path d="M15.625 3.75H9.9375C9.79157 3.04506 9.40753 2.4118 8.84987 1.95657C8.2922 1.50133 7.59488 1.25184 6.875 1.25H4.375C4.20924 1.25 4.05027 1.31585 3.93306 1.43306C3.81585 1.55027 3.75 1.70924 3.75 1.875V2.5H1.25V3.75H3.75V5H1.25V6.25H3.75V6.875C3.75 7.04076 3.81585 7.19973 3.93306 7.31694C4.05027 7.43415 4.20924 7.5 4.375 7.5H6.875C7.59488 7.49816 8.2922 7.24867 8.84987 6.79343C9.40753 6.3382 9.79157 5.70494 9.9375 5H15.625C15.7908 5 15.9497 5.06585 16.0669 5.18306C16.1842 5.30027 16.25 5.45924 16.25 5.625V6.875H17.5V5.625C17.4985 5.12818 17.3005 4.65212 16.9492 4.30081C16.5979 3.9495 16.1218 3.75148 15.625 3.75ZM6.875 6.25H5V2.5H6.875C7.37228 2.5 7.8492 2.69754 8.20083 3.04917C8.55246 3.40081 8.75 3.87772 8.75 4.375C8.75 4.87228 8.55246 5.3492 8.20083 5.70083C7.8492 6.05246 7.37228 6.25 6.875 6.25Z" fill="url(#paint3_linear_2908_703)"/>
<path d="M16.25 33.125V34.375C16.25 34.5408 16.1842 34.6997 16.0669 34.8169C15.9497 34.9342 15.7908 35 15.625 35H9.9375C9.79157 34.2951 9.40753 33.6618 8.84987 33.2066C8.2922 32.7513 7.59488 32.5018 6.875 32.5H4.375C4.20924 32.5 4.05027 32.5658 3.93306 32.6831C3.81585 32.8003 3.75 32.9592 3.75 33.125V33.75H1.25V35H3.75V36.25H1.25V37.5H3.75V38.125C3.75 38.2908 3.81585 38.4497 3.93306 38.5669C4.05027 38.6842 4.20924 38.75 4.375 38.75H6.875C7.59488 38.7482 8.2922 38.4987 8.84987 38.0434C9.40753 37.5882 9.79157 36.9549 9.9375 36.25H15.625C16.1218 36.2485 16.5979 36.0505 16.9492 35.6992C17.3005 35.3479 17.4985 34.8718 17.5 34.375V33.125H16.25ZM6.875 37.5H5V33.75H6.875C7.37228 33.75 7.8492 33.9475 8.20083 34.2992C8.55246 34.6508 8.75 35.1277 8.75 35.625C8.75 36.1223 8.55246 36.5992 8.20083 36.9508C7.8492 37.3025 7.37228 37.5 6.875 37.5Z" fill="url(#paint4_linear_2908_703)"/>
<path d="M23.7503 18.1251H20.6253V13.7501C20.6254 13.6092 20.5779 13.4724 20.4905 13.3618C20.4031 13.2513 20.2809 13.1736 20.1438 13.1412C20.0066 13.1089 19.8626 13.1238 19.735 13.1836C19.6074 13.2434 19.5038 13.3446 19.4409 13.4707L15.6909 20.9707C15.6433 21.066 15.6208 21.1719 15.6256 21.2784C15.6305 21.3848 15.6624 21.4882 15.7185 21.5789C15.7745 21.6695 15.8528 21.7443 15.9459 21.7961C16.039 21.848 16.1437 21.8751 16.2503 21.8751H19.3753V26.2501C19.3752 26.391 19.4228 26.5279 19.5102 26.6384C19.5977 26.7489 19.72 26.8266 19.8572 26.8588C19.9041 26.8695 19.9521 26.8749 20.0003 26.8751C20.117 26.8757 20.2315 26.8437 20.3309 26.7826C20.4303 26.7215 20.5106 26.6338 20.5628 26.5295L24.3128 19.0295C24.3605 18.9339 24.383 18.8277 24.378 18.721C24.3731 18.6143 24.3408 18.5107 24.2844 18.42C24.228 18.3293 24.1493 18.2546 24.0558 18.2029C23.9623 18.1513 23.8571 18.1245 23.7503 18.1251ZM20.6253 23.6026V21.2501C20.6253 21.0843 20.5594 20.9254 20.4422 20.8082C20.325 20.6909 20.1661 20.6251 20.0003 20.6251H17.2615L19.3753 16.3976V18.7501C19.3753 18.9159 19.4411 19.0748 19.5583 19.192C19.6756 19.3092 19.8345 19.3751 20.0003 19.3751H22.739L20.6253 23.6026Z" fill="url(#paint5_linear_2908_703)"/>
<defs>
<linearGradient id="paint0_linear_2908_703" x1="29.4272" y1="12.5552" x2="7.92761" y2="20.0169" gradientUnits="userSpaceOnUse">
<stop stop-color="#FF8139"/>
<stop offset="0.311383" stop-color="#FF4646"/>
<stop offset="1" stop-color="#9A5BEB"/>
</linearGradient>
<linearGradient id="paint1_linear_2908_703" x1="37.0752" y1="2.41584" x2="27.9904" y2="10.6136" gradientUnits="userSpaceOnUse">
<stop stop-color="#FF8139"/>
<stop offset="0.311383" stop-color="#FF4646"/>
<stop offset="1" stop-color="#9A5BEB"/>
</linearGradient>
<linearGradient id="paint2_linear_2908_703" x1="37.0752" y1="33.6658" x2="27.9904" y2="41.8636" gradientUnits="userSpaceOnUse">
<stop stop-color="#FF8139"/>
<stop offset="0.311383" stop-color="#FF4646"/>
<stop offset="1" stop-color="#9A5BEB"/>
</linearGradient>
<linearGradient id="paint3_linear_2908_703" x1="15.8252" y1="2.41584" x2="6.74044" y2="10.6136" gradientUnits="userSpaceOnUse">
<stop stop-color="#FF8139"/>
<stop offset="0.311383" stop-color="#FF4646"/>
<stop offset="1" stop-color="#9A5BEB"/>
</linearGradient>
<linearGradient id="paint4_linear_2908_703" x1="15.8252" y1="33.6658" x2="6.74044" y2="41.8636" gradientUnits="userSpaceOnUse">
<stop stop-color="#FF8139"/>
<stop offset="0.311383" stop-color="#FF4646"/>
<stop offset="1" stop-color="#9A5BEB"/>
</linearGradient>
<linearGradient id="paint5_linear_2908_703" x1="23.4765" y1="15.6895" x2="15.011" y2="17.5599" gradientUnits="userSpaceOnUse">
<stop stop-color="#FF8139"/>
<stop offset="0.311383" stop-color="#FF4646"/>
<stop offset="1" stop-color="#9A5BEB"/>
</linearGradient>
</defs>
</svg>
