<svg width="40" height="40" viewBox="0 0 40 40" fill="none" xmlns="http://www.w3.org/2000/svg">
<path fill-rule="evenodd" clip-rule="evenodd" d="M2.5 19.3096V29.1667C2.5 29.6267 2.875 30 3.33333 30C3.79167 30 4.16667 29.6267 4.16667 29.1667V20.1792L5.83333 21.0487V31.25C5.83333 32.69 6.88748 34.0975 8.83748 35.1771C11.3541 36.5729 15.4167 37.5 20 37.5C24.5833 37.5 28.6458 36.5729 31.1625 35.1771C33.1125 34.0975 34.1667 32.69 34.1667 31.25V21.0487L39.5541 18.2388C39.8291 18.095 40 17.8104 40 17.5C40 17.1896 39.8291 16.905 39.5541 16.7612L34.6625 14.21C34.2541 13.9975 33.75 14.1558 33.5375 14.5633C33.325 14.9712 33.4834 15.475 33.8917 15.6879L37.3666 17.5L20 26.56L5.52083 19.005L7.87079 17.8288C8.28329 17.6229 8.45002 17.1221 8.24585 16.7108C8.04168 16.2992 7.53754 16.1321 7.12921 16.3379L3.69588 18.0538L2.63336 17.5L20 8.44L21.2834 9.10833C21.6875 9.32124 22.1917 9.16291 22.4042 8.755C22.6167 8.34708 22.4583 7.84333 22.0541 7.63083L20.3875 6.76125C20.1458 6.635 19.8584 6.635 19.6167 6.76125L0.450033 16.7612C0.170866 16.905 0 17.1896 0 17.5C0 17.8104 0.170866 18.095 0.450033 18.2388L2.5 19.3096ZM32.5 21.9183L20.3875 28.2388C20.1458 28.365 19.8584 28.365 19.6167 28.2388L7.5 21.9183V31.25C7.5 32.2025 8.35413 33.005 9.64579 33.7192C11.9791 35.0129 15.75 35.8333 20 35.8333C24.25 35.8333 28.0209 35.0129 30.3542 33.7192C31.6459 33.005 32.5 32.2025 32.5 31.25V21.9183ZM22.45 13.8775C22.3291 13.5504 22.0167 13.3333 21.6667 13.3333C21.3167 13.3333 21.0042 13.5504 20.8834 13.8775L19.8917 16.5596L17.2125 17.5517C16.8834 17.6729 16.6667 17.9846 16.6667 18.3333C16.6667 18.6821 16.8834 18.9938 17.2125 19.115L19.8917 20.1071L20.8834 22.7892C21.0042 23.1162 21.3167 23.3333 21.6667 23.3333C22.0167 23.3333 22.3291 23.1162 22.45 22.7892L23.4417 20.1071L26.1208 19.115C26.45 18.9938 26.6667 18.6821 26.6667 18.3333C26.6667 17.9846 26.45 17.6729 26.1208 17.5517L23.4417 16.5596L22.45 13.8775ZM21.6667 16.5679L22.0125 17.4971C22.0959 17.7254 22.275 17.905 22.5042 17.9896L23.4333 18.3333L22.5042 18.6771C22.275 18.7617 22.0959 18.9412 22.0125 19.1696L21.6667 20.0987L21.325 19.1696C21.2375 18.9412 21.0583 18.7617 20.8292 18.6771L19.9 18.3333L20.8292 17.9896C21.0583 17.905 21.2375 17.7254 21.325 17.4971L21.6667 16.5679ZM29.9334 3.04417C29.8125 2.71708 29.5 2.5 29.1542 2.5C28.8042 2.5 28.4917 2.71708 28.3709 3.04417L26.3667 8.46334L20.9458 10.4683C20.6208 10.5896 20.4042 10.9012 20.4042 11.25C20.4042 11.5988 20.6208 11.9104 20.9458 12.0317L26.3667 14.0367L28.3709 19.4558C28.4917 19.7829 28.8042 20 29.1542 20C29.5 20 29.8125 19.7829 29.9334 19.4558L31.9416 14.0367L37.3583 12.0317C37.6875 11.9104 37.9042 11.5988 37.9042 11.25C37.9042 10.9012 37.6875 10.5896 37.3583 10.4683L31.9416 8.46334L29.9334 3.04417ZM29.1542 5.73458L30.5083 9.40084C30.5958 9.62917 30.775 9.80874 31.0041 9.89333L34.6666 11.25L31.0041 12.6067C30.775 12.6913 30.5958 12.8708 30.5083 13.0992L29.1542 16.7654L27.7958 13.0992C27.7125 12.8708 27.5333 12.6913 27.3042 12.6067L23.6375 11.25L27.3042 9.89333C27.5333 9.80874 27.7125 9.62917 27.7958 9.40084L29.1542 5.73458ZM34.9875 5H34.1542C33.6917 5 33.3208 5.37333 33.3208 5.83333C33.3208 6.29333 33.6917 6.66667 34.1542 6.66667H34.9875V7.5C34.9875 7.96 35.3583 8.33333 35.8208 8.33333C36.2792 8.33333 36.6542 7.96 36.6542 7.5V6.66667H37.4875C37.9458 6.66667 38.3208 6.29333 38.3208 5.83333C38.3208 5.37333 37.9458 5 37.4875 5H36.6542V4.16667C36.6542 3.70667 36.2792 3.33333 35.8208 3.33333C35.3583 3.33333 34.9875 3.70667 34.9875 4.16667V5Z" fill="#00E3DB"/>
</svg>
