<svg width="32" height="32" viewBox="0 0 32 32" fill="none" xmlns="http://www.w3.org/2000/svg">
<g clip-path="url(#clip0_1646_613)">
<path d="M18.1794 13.0736H25.4423C25.8435 13.0736 26.1686 12.7484 26.1686 12.3474C26.1686 11.9463 25.8434 11.6211 25.4423 11.6211H18.1794C17.7782 11.6211 17.4531 11.9463 17.4531 12.3474C17.4531 12.7484 17.7782 13.0736 18.1794 13.0736Z" fill="black"/>
<path d="M18.1794 15.9779H21.0845C21.4857 15.9779 21.8108 15.6527 21.8108 15.2517C21.8108 14.8506 21.4856 14.5254 21.0845 14.5254H18.1794C17.7782 14.5254 17.4531 14.8506 17.4531 15.2517C17.4531 15.6527 17.7782 15.9779 18.1794 15.9779Z" fill="black"/>
<path d="M18.1794 10.1684H22.5371C22.9383 10.1684 23.2634 9.84317 23.2634 9.44209C23.2634 9.04094 22.9382 8.71582 22.5371 8.71582H18.1794C17.7782 8.71582 17.4531 9.04101 17.4531 9.44209C17.4531 9.84317 17.7782 10.1684 18.1794 10.1684Z" fill="black"/>
<path d="M30.5257 1.4526H17.4525C17.4525 0.65037 16.8021 0 15.9999 0C15.1977 0 14.5473 0.65037 14.5473 1.4526H1.47408C0.671854 1.4526 0.0214844 2.10297 0.0214844 2.90519V4.35779C0.0214844 5.16002 0.671854 5.81039 1.47408 5.81039V23.2414C1.47408 24.0436 2.12445 24.694 2.92668 24.694H15.2736V26.575L11.1265 30.7222C10.8218 30.9831 10.7863 31.4416 11.0472 31.7462C11.3081 32.0509 11.7667 32.0864 12.0713 31.8254C12.0997 31.8011 12.1262 31.7746 12.1505 31.7462L15.9999 27.8969L19.8419 31.7389C20.1028 32.0436 20.5613 32.0791 20.866 31.8181C21.1706 31.5572 21.2061 31.0987 20.9452 30.7941C20.9208 30.7657 20.8944 30.7391 20.866 30.7149L16.7261 26.575V24.694H29.073C29.8753 24.694 30.5256 24.0436 30.5256 23.2414V5.81032C31.3279 5.81032 31.9782 5.15995 31.9782 4.35773V2.90513C31.9782 2.1029 31.3279 1.4526 30.5257 1.4526ZM29.0731 23.2413H2.92668V5.81032H29.0731V23.2413ZM30.5257 4.35773H1.47408V2.90513H30.5257V4.35773Z" fill="black"/>
<path d="M18.1794 18.8832H25.4423C25.8435 18.8832 26.1686 18.558 26.1686 18.1569C26.1686 17.7558 25.8434 17.4307 25.4423 17.4307H18.1794C17.7782 17.4307 17.4531 17.7558 17.4531 18.1569C17.4531 18.558 17.7782 18.8832 18.1794 18.8832Z" fill="black"/>
<path d="M7.28463 18.8839H13.095C13.8972 18.8839 14.5475 18.2335 14.5475 17.4313V10.1684C14.5475 9.36619 13.8972 8.71582 13.095 8.71582H7.28463C6.4824 8.71582 5.83203 9.36619 5.83203 10.1684V17.4313C5.83203 18.2336 6.4824 18.8839 7.28463 18.8839ZM7.28463 10.1684H13.095V17.4313H7.28463V10.1684Z" fill="black"/>
</g>
<defs>
<clipPath id="clip0_1646_613">
<rect width="32" height="32" fill="white"/>
</clipPath>
</defs>
</svg>
