<svg width="40" height="40" viewBox="0 0 40 40" fill="none" xmlns="http://www.w3.org/2000/svg">
<g clip-path="url(#clip0_1828_3540)">
<path d="M39.4135 19.414H29.9793V18.0809H32.5247C32.8483 18.0809 33.1106 17.8185 33.1106 17.4949C33.1106 17.1713 32.8483 16.909 32.5247 16.909H29.9793V15.5758H31.7465C32.4048 15.5758 33.0238 15.3195 33.4893 14.8539L37.3429 11.0003C37.594 11.1254 37.8723 11.192 38.1611 11.192C38.6522 11.192 39.1138 11.0007 39.4611 10.6536C39.8083 10.3063 39.9996 9.84465 39.9996 9.35356C39.9996 8.86246 39.8083 8.40083 39.4611 8.05356C39.1139 7.7063 38.6522 7.51505 38.1611 7.51505C37.67 7.51505 37.2083 7.7063 36.8611 8.05348C36.5138 8.40075 36.3226 8.86239 36.3226 9.35348C36.3226 9.64223 36.3891 9.92059 36.5142 10.1717L32.6606 14.0253C32.4165 14.2694 32.0918 14.4039 31.7464 14.4039H29.9792V13.1111C29.9792 11.4068 28.5926 10.0202 26.8883 10.0202H25.5955V4.83311C26.3227 4.58787 26.848 3.89983 26.848 3.09093C26.848 2.07718 26.0232 1.2525 25.0096 1.2525C23.9959 1.2525 23.1711 2.07726 23.1711 3.09093C23.1711 3.89983 23.6964 4.58779 24.4236 4.83311V10.0201H23.0905V7.47474C23.0905 7.15114 22.8282 6.8888 22.5046 6.8888C22.181 6.8888 21.9186 7.15114 21.9186 7.47474V10.0201H20.5854V0.585935C20.5854 0.262343 20.3231 0 19.9995 0C19.6759 0 19.4136 0.262343 19.4136 0.585935V10.0201H18.0804V7.47474C18.0804 7.15114 17.8181 6.8888 17.4945 6.8888C17.1709 6.8888 16.9086 7.15114 16.9086 7.47474V10.0201H15.5755V8.25301C15.5755 7.59466 15.3191 6.97568 14.8535 6.51021L10.9986 2.6553C11.3391 1.96773 11.225 1.11039 10.6532 0.538514C9.93634 -0.178281 8.77001 -0.178202 8.05322 0.538514C7.33643 1.25531 7.33643 2.42163 8.05322 3.1385C8.41166 3.49686 8.88244 3.67608 9.35322 3.67608C9.63353 3.67608 9.91337 3.611 10.17 3.48389L14.0249 7.33888C14.2691 7.58302 14.4036 7.9077 14.4036 8.25301V10.0201H13.1108C12.8495 10.0201 12.5895 10.0529 12.3383 10.1175C12.0249 10.1982 11.8363 10.5176 11.9169 10.8311C11.9975 11.1445 12.317 11.3332 12.6304 11.2525C12.7862 11.2124 12.9478 11.192 13.1107 11.192H26.8883C27.9465 11.192 28.8074 12.0529 28.8074 13.111V26.8887C28.8074 27.0515 28.787 27.2129 28.747 27.3686C28.6665 27.6821 28.8552 28.0015 29.1686 28.082C29.2175 28.0946 29.2666 28.1006 29.3149 28.1006C29.5759 28.1006 29.814 27.9249 29.882 27.6604C29.9465 27.4094 29.9792 27.1497 29.9792 26.8886V25.5958H35.1662C35.4115 26.323 36.0995 26.8483 36.9084 26.8483C37.9222 26.8483 38.7469 26.0236 38.7469 25.0099C38.7469 23.9962 37.9221 23.1715 36.9084 23.1715C36.0995 23.1715 35.4116 23.6968 35.1662 24.424H29.9792V23.0908H32.5246C32.8482 23.0908 33.1105 22.8284 33.1105 22.5048C33.1105 22.1812 32.8482 21.9189 32.5246 21.9189H29.9792V20.5859H39.4135C39.7371 20.5859 39.9994 20.3235 39.9994 19.9999C39.9994 19.6763 39.7371 19.414 39.4135 19.414ZM37.6897 8.88223C37.8156 8.75629 37.9829 8.687 38.161 8.687C38.339 8.687 38.5064 8.75629 38.6323 8.88223C38.7583 9.00817 38.8276 9.17551 38.8276 9.35356C38.8276 9.5316 38.7583 9.69895 38.6323 9.82488C38.5064 9.95082 38.339 10.0201 38.161 10.0201C37.9829 10.0201 37.8156 9.95082 37.6897 9.82488C37.5637 9.69895 37.4944 9.5316 37.4944 9.35356C37.4944 9.17551 37.5637 9.00809 37.6897 8.88223ZM9.82446 2.30991C9.56462 2.56968 9.14173 2.56976 8.88173 2.30983C8.62181 2.04991 8.62181 1.62702 8.88173 1.36718C9.01173 1.23718 9.18236 1.17226 9.35314 1.17226C9.52384 1.17226 9.69454 1.23726 9.82446 1.36718C10.0844 1.6271 10.0844 2.04999 9.82446 2.30991ZM25.0096 3.75749C24.6421 3.75749 24.343 3.45842 24.343 3.09093C24.343 2.72343 24.642 2.42437 25.0096 2.42437C25.3771 2.42437 25.6761 2.72343 25.6761 3.09093C25.6761 3.45842 25.3771 3.75749 25.0096 3.75749ZM36.9085 24.3434C37.2761 24.3434 37.5751 24.6425 37.5751 25.01C37.5751 25.3776 37.276 25.6765 36.9085 25.6765C36.541 25.6765 36.2419 25.3775 36.2419 25.01C36.2419 24.6424 36.5409 24.3434 36.9085 24.3434Z" fill="url(#paint0_linear_1828_3540)"/>
<path d="M31.9463 36.8615C31.3745 36.2897 30.5171 36.1755 29.8295 36.5161L25.9746 32.6611C25.7304 32.417 25.5959 32.0923 25.5959 31.747V29.9799H26.8887C27.15 29.9799 27.4099 29.947 27.6611 29.8824C27.9744 29.8018 28.1631 29.4824 28.0825 29.1689C28.0018 28.8556 27.6825 28.6669 27.369 28.7475C27.2132 28.7876 27.0516 28.8079 26.8887 28.8079H13.1111C12.0529 28.8079 11.1921 27.947 11.1921 26.8888V13.1112C11.1921 12.9484 11.2124 12.7868 11.2525 12.6311C11.3332 12.3177 11.1445 11.9983 10.8311 11.9176C10.5177 11.8369 10.1982 12.0255 10.1176 12.3389C10.0529 12.59 10.0202 12.8498 10.0202 13.1112V14.4041H4.83311C4.58787 13.6769 3.89983 13.1516 3.09092 13.1516C2.07718 13.1516 1.25249 13.9762 1.25249 14.99C1.25249 16.0037 2.07726 16.8284 3.09092 16.8284C3.89983 16.8284 4.58779 16.3031 4.83311 15.5759H10.0201V16.9091H7.47474C7.15114 16.9091 6.8888 17.1715 6.8888 17.4951C6.8888 17.8186 7.15114 18.081 7.47474 18.081H10.0201V19.4141H0.585935C0.262343 19.4141 0 19.6765 0 20C0 20.3236 0.262343 20.586 0.585935 20.586H10.0201V21.9191H7.47474C7.15114 21.9191 6.8888 22.1814 6.8888 22.505C6.8888 22.8286 7.15114 23.091 7.47474 23.091H10.0201V24.4242H8.25294C7.59458 24.4242 6.9756 24.6805 6.51013 25.146L2.65655 28.9996C2.40546 28.8745 2.1271 28.808 1.83835 28.808C1.34726 28.808 0.885621 28.9992 0.538357 29.3464C0.191249 29.6937 0 30.1554 0 30.6464C0 31.1374 0.191249 31.5991 0.538513 31.9464C0.8857 32.2937 1.34742 32.4848 1.83851 32.4848C2.3296 32.4848 2.79124 32.2936 3.1385 31.9464C3.48577 31.5991 3.67702 31.1375 3.67702 30.6464C3.67702 30.3577 3.61045 30.0793 3.48538 29.8282L7.33896 25.9746C7.5831 25.7305 7.90778 25.596 8.25317 25.596H10.0204V26.8888C10.0204 28.5931 11.407 29.9797 13.1113 29.9797H14.4041V35.1667C13.6769 35.4119 13.1516 36.1 13.1516 36.9089C13.1516 37.9226 13.9764 38.7473 14.99 38.7473C16.0037 38.7473 16.8284 37.9226 16.8284 36.9089C16.8284 36.1 16.3031 35.412 15.576 35.1667V29.9797H16.9091V32.5251C16.9091 32.8487 17.1714 33.111 17.495 33.111C17.8186 33.111 18.0809 32.8487 18.0809 32.5251V29.9797H19.414V39.414C19.414 39.7376 19.6763 40 19.9999 40C20.3235 40 20.5859 39.7376 20.5859 39.414V29.9799H21.919V32.5252C21.919 32.8488 22.1813 33.1112 22.5049 33.1112C22.8285 33.1112 23.0908 32.8488 23.0908 32.5252V29.9799H24.424V31.747C24.424 32.4053 24.6804 33.0243 25.1459 33.4898L29.0008 37.3447C28.6603 38.0322 28.7744 38.8896 29.3463 39.4615C29.7046 39.8199 30.1755 39.999 30.6463 39.999C31.1171 39.999 31.5879 39.8199 31.9463 39.4615C32.6631 38.7447 32.6631 37.5783 31.9463 36.8615ZM3.09092 15.6565C2.72335 15.6565 2.42437 15.3575 2.42437 14.99C2.42437 14.6224 2.72343 14.3234 3.09092 14.3234C3.45842 14.3234 3.75748 14.6225 3.75748 14.99C3.75756 15.3576 3.4585 15.6565 3.09092 15.6565ZM2.30976 31.1177C2.18382 31.2437 2.01648 31.313 1.83843 31.313C1.66038 31.313 1.49304 31.2437 1.3671 31.1177C1.24117 30.9918 1.17187 30.8245 1.17187 30.6464C1.17187 30.4684 1.24117 30.301 1.3671 30.1751C1.49304 30.0491 1.66038 29.9799 1.83843 29.9799C2.01648 29.9799 2.18382 30.0491 2.30976 30.1751C2.43569 30.301 2.50499 30.4684 2.50499 30.6464C2.50499 30.8245 2.43569 30.9919 2.30976 31.1177ZM15.6564 36.909C15.6564 37.2765 15.3574 37.5756 14.9899 37.5756C14.6223 37.5756 14.3233 37.2765 14.3233 36.909C14.3233 36.5415 14.6224 36.2425 14.9899 36.2425C15.3574 36.2425 15.6564 36.5415 15.6564 36.909ZM31.1177 38.6329C30.8578 38.8928 30.4349 38.8927 30.175 38.6329C29.915 38.3729 29.915 37.9501 30.175 37.6902C30.305 37.5603 30.4757 37.4953 30.6464 37.4953C30.8171 37.4953 30.9878 37.5603 31.1177 37.6902C31.3775 37.9501 31.3775 38.3729 31.1177 38.6329Z" fill="url(#paint1_linear_1828_3540)"/>
<path d="M26.2217 18.4343C26.2217 17.1812 25.3051 16.1197 24.0504 15.7748C24.0875 15.6216 24.1081 15.464 24.1081 15.303C24.1081 14.1166 23.055 13.1514 21.7608 13.1514C21.0597 13.1514 20.43 13.4349 19.9995 13.883C19.569 13.4349 18.9392 13.1514 18.2382 13.1514C16.9439 13.1514 15.8909 14.1166 15.8909 15.303C15.8909 15.464 15.9116 15.6216 15.9487 15.7748C14.6939 16.1196 13.7773 17.1811 13.7773 18.4343C13.7773 19.0467 13.9941 19.6245 14.3945 20.1017C14.003 20.6085 13.7773 21.2238 13.7773 21.8788C13.7772 22.875 14.3095 23.8052 15.1863 24.3823C15.1863 24.3827 15.1863 24.3832 15.1863 24.3837C15.1863 25.7427 16.3973 26.8484 17.8859 26.8484C18.7414 26.8484 19.5046 26.4829 19.9995 25.9143C20.4944 26.4829 21.2576 26.8484 22.1131 26.8484C23.5457 26.8484 24.7206 25.8242 24.807 24.5358C25.6771 24.0309 26.2217 23.1466 26.2217 22.1918C26.2217 21.4895 25.9222 20.8195 25.4068 20.3131C25.9221 19.8067 26.2217 19.1366 26.2217 18.4343ZM24.1479 20.8312C24.7125 21.1291 25.0496 21.6378 25.0496 22.1918C25.0496 22.6048 24.8576 22.9988 24.5334 23.2934C24.2254 22.723 23.6809 22.269 22.993 22.0529C22.6844 21.9559 22.3554 22.1276 22.2584 22.4363C22.1614 22.745 22.3331 23.0739 22.6418 23.1709C23.2391 23.3586 23.6405 23.846 23.6405 24.3837C23.6405 25.0966 22.9552 25.6766 22.1128 25.6766C21.2704 25.6766 20.5851 25.0966 20.5851 24.3837V20.6262C20.5851 19.9133 21.2704 19.3334 22.1128 19.3334C22.4364 19.3334 22.6987 19.071 22.6987 18.7474C22.6987 18.4238 22.4364 18.1615 22.1128 18.1615C21.5461 18.1615 21.0198 18.3221 20.5851 18.5956V17.8472C20.5851 17.5236 20.3228 17.2613 19.9992 17.2613C19.6756 17.2613 19.4133 17.5236 19.4133 17.8472V21.1001C19.2161 20.9763 18.9998 20.8739 18.7659 20.8004C18.457 20.7034 18.1283 20.8751 18.0313 21.1837C17.9343 21.4924 18.1059 21.8213 18.4146 21.9184C19.0119 22.1061 19.4133 22.5935 19.4133 23.1312V24.3837C19.4133 25.0966 18.7279 25.6766 17.8856 25.6766C17.0432 25.6766 16.3579 25.0966 16.3579 24.3837C16.3579 24.0781 16.4874 23.7811 16.7226 23.5473C16.9521 23.3192 16.9532 22.9482 16.7251 22.7187C16.4969 22.4891 16.126 22.488 15.8965 22.7162C15.7561 22.8558 15.6352 23.0083 15.5348 23.1704C15.1648 22.8204 14.9487 22.3599 14.9487 21.8786C14.9487 21.0105 15.6301 20.2478 16.6056 20.024C16.921 19.9517 17.118 19.6373 17.0457 19.3219C16.9733 19.0064 16.6589 18.8095 16.3436 18.8818C15.9509 18.9719 15.5893 19.1223 15.2687 19.3197C15.0608 19.0586 14.9488 18.7528 14.9488 18.4342C14.9491 17.5528 15.7845 16.8353 16.8144 16.8285C16.8197 16.8287 16.8249 16.8294 16.8301 16.8294C16.9638 16.8294 17.0983 16.7839 17.2083 16.6907C17.433 16.5005 17.478 16.1778 17.3273 15.9351C17.3228 15.9279 17.3187 15.9206 17.314 15.9136C17.3116 15.9101 17.3087 15.9067 17.3062 15.9032C17.2972 15.8905 17.2879 15.878 17.2778 15.866C17.2775 15.8656 17.2773 15.8652 17.2769 15.8649C17.1792 15.7493 17.0626 15.5581 17.0626 15.3029C17.0626 14.7627 17.5899 14.3232 18.238 14.3232C18.886 14.3232 19.4133 14.7627 19.4133 15.3029C19.4133 15.6265 19.6757 15.8889 19.9993 15.8889C20.3229 15.8889 20.5852 15.6265 20.5852 15.3029C20.5852 14.7627 21.1125 14.3232 21.7606 14.3232C22.4086 14.3232 22.936 14.7627 22.936 15.3029C22.936 15.4473 22.8982 15.5704 22.8481 15.6717C22.5148 15.7032 22.1925 15.7837 21.8865 15.9128C21.5883 16.0385 21.4485 16.3821 21.5742 16.6803C21.6999 16.9785 22.0436 17.1184 22.3418 16.9926C22.595 16.8858 22.8675 16.8309 23.1518 16.8287C23.1574 16.8289 23.1629 16.8294 23.1686 16.8294C23.1738 16.8294 23.1789 16.8287 23.1842 16.8285C24.2141 16.8353 25.0496 17.5528 25.0496 18.4342C25.0496 18.9881 24.7125 19.4967 24.1479 19.7948C23.9557 19.8962 23.8354 20.0956 23.8354 20.313C23.8354 20.5303 23.9557 20.7298 24.1479 20.8312Z" fill="url(#paint2_linear_1828_3540)"/>
</g>
<defs>
<linearGradient id="paint0_linear_1828_3540" x1="36.6516" y1="5.24173" x2="8.27171" y2="16.6278" gradientUnits="userSpaceOnUse">
<stop stop-color="#FF8139"/>
<stop offset="0.311383" stop-color="#FF4646"/>
<stop offset="1" stop-color="#9A5BEB"/>
</linearGradient>
<linearGradient id="paint1_linear_1828_3540" x1="29.1359" y1="17.1407" x2="0.755939" y2="28.5266" gradientUnits="userSpaceOnUse">
<stop stop-color="#FF8139"/>
<stop offset="0.311383" stop-color="#FF4646"/>
<stop offset="1" stop-color="#9A5BEB"/>
</linearGradient>
<linearGradient id="paint2_linear_1828_3540" x1="24.9391" y1="15.7063" x2="13.4585" y2="19.3264" gradientUnits="userSpaceOnUse">
<stop stop-color="#FF8139"/>
<stop offset="0.311383" stop-color="#FF4646"/>
<stop offset="1" stop-color="#9A5BEB"/>
</linearGradient>
<clipPath id="clip0_1828_3540">
<rect width="40" height="40" fill="white"/>
</clipPath>
</defs>
</svg>
