<svg width="40" height="40" viewBox="0 0 40 40" fill="none" xmlns="http://www.w3.org/2000/svg">
<path d="M24.589 12.834C24.8503 12.8371 25.1003 12.6596 25.1809 12.4096L27.144 6.62461C27.259 6.28898 27.0378 5.91336 26.7009 5.81148C23.184 4.61836 19.3515 6.50836 18.1578 10.0252C18.0465 10.3521 18.2221 10.7071 18.5484 10.8177L24.3884 12.8002C24.4534 12.8227 24.5215 12.834 24.589 12.834ZM19.5753 9.84648C20.6703 7.52523 23.2603 6.26461 25.7515 6.83836L24.1984 11.4159L19.5753 9.84648ZM38.4778 24.9746C38.384 24.7665 38.1846 24.6265 37.9571 24.609L32.8309 24.2052C32.009 24.1584 31.9153 25.3721 32.7328 25.4515L35.4478 25.6652L30.4571 27.9559L28.9953 25.0584C36.8996 22.3415 39.2809 11.6521 33.2471 5.82211C24.5834 -2.65039 10.4946 5.82961 13.7528 17.3484L10.5396 17.919L10.8653 15.2515C10.8871 15.074 10.8315 14.8952 10.7128 14.7615C10.5946 14.6277 10.424 14.5509 10.2446 14.5509H2.74152C1.92277 14.564 1.91777 15.7865 2.74152 15.8009H9.53902L9.19652 18.6065C9.17215 18.8034 9.2434 18.9996 9.38715 19.1359C9.5309 19.2721 9.7334 19.3321 9.9259 19.2971L14.164 18.544C14.5009 19.3602 14.9465 20.1421 15.479 20.8834L12.209 24.1534L11.9415 23.8859C11.6971 23.6415 11.3021 23.6415 11.0578 23.8859L1.6509 33.2927C1.5334 33.4102 1.46777 33.569 1.46777 33.7346C1.46777 33.9002 1.5334 34.0596 1.6509 34.1765L4.8934 37.419C5.01527 37.5409 5.17527 37.6021 5.33527 37.6021C5.49527 37.6021 5.65527 37.5409 5.77715 37.419L15.184 28.0121C15.4284 27.7677 15.4284 27.3727 15.184 27.1284L14.9159 26.8602L18.184 23.5921C21.0246 25.6227 24.4896 26.259 27.7828 25.4284L29.6134 29.0565C29.7653 29.3596 30.1334 29.4815 30.4321 29.3427L35.9396 26.8152L34.3228 28.9696C34.0078 29.3615 34.3259 29.9852 34.8221 29.9696C35.0121 29.9696 35.1996 29.8834 35.3228 29.7196L38.409 25.6071C38.5459 25.4246 38.5728 25.1827 38.479 24.9746H38.4778ZM17.599 6.70586C21.6696 2.63523 28.2934 2.63523 32.364 6.70586C37.7996 11.9546 35.5746 21.589 28.4315 23.9402L26.7396 20.5871C32.709 19.3996 34.1546 11.4102 28.8821 8.20961C28.7203 8.11211 28.5228 8.09336 28.3453 8.15898C28.1678 8.22398 28.0296 8.36586 27.969 8.54461L25.9178 14.5896L19.5909 12.4427C18.0628 12.0771 18.8221 15.7034 19.1309 16.3921L14.9865 17.1284C13.8953 13.5377 14.7978 9.50648 17.599 6.70461V6.70586ZM20.5784 16.559C20.5703 16.5446 20.5646 16.529 20.5546 16.5152C20.1415 15.7177 19.9203 14.8171 19.9403 13.8827L26.1078 15.9752C26.434 16.0865 26.7896 15.9109 26.9003 15.5846L28.8846 9.73648C30.6278 11.1621 31.3546 13.5715 30.6165 15.7465C29.1159 20.2809 22.7453 20.7652 20.5784 16.559ZM5.33527 36.0934L2.97652 33.7352L11.4996 25.2121L13.8578 27.5702L5.33465 36.0934H5.33527ZM13.0934 25.0377L16.2553 21.8759C16.5534 22.2115 16.8578 22.5165 17.1934 22.814L14.0315 25.9759L13.0934 25.0377ZM18.5059 22.2834C17.1771 21.2459 16.1078 19.8459 15.4371 18.319L19.7115 17.5596C20.839 19.4459 23.154 20.7602 25.4084 20.7252L27.2046 24.2852C24.239 24.9334 21.0365 24.289 18.5053 22.284L18.5059 22.2834Z" fill="url(#paint0_linear_2908_744)"/>
<defs>
<linearGradient id="paint0_linear_2908_744" x1="34.714" y1="8.9556" x2="1.54445" y2="21.0727" gradientUnits="userSpaceOnUse">
<stop stop-color="#FF8139"/>
<stop offset="0.311383" stop-color="#FF4646"/>
<stop offset="1" stop-color="#9A5BEB"/>
</linearGradient>
</defs>
</svg>
