<svg width="42" height="42" viewBox="0 0 42 42" fill="none" xmlns="http://www.w3.org/2000/svg">
<path d="M25.1394 33.4146H27.898C28.3118 33.4146 28.5876 33.6904 28.4497 34.1042C28.1738 34.9318 27.3463 35.4835 26.5187 35.4835C25.6911 35.4835 24.8635 34.9318 24.5876 34.1042C24.4497 33.6904 24.7256 33.4146 25.1394 33.4146Z" fill="#00E3DB"/>
<path d="M31.3428 10.5176V10.6555" stroke="#00E3DB" stroke-width="2" stroke-miterlimit="10" stroke-linecap="round" stroke-linejoin="round"/>
<path d="M31.3428 7.7583V7.89623" stroke="#00E3DB" stroke-width="2" stroke-miterlimit="10" stroke-linecap="round" stroke-linejoin="round"/>
<path d="M31.3428 5V5.13793" stroke="#00E3DB" stroke-width="2" stroke-miterlimit="10" stroke-linecap="round" stroke-linejoin="round"/>
<path d="M14.792 30.6549V28.5859" stroke="#00E3DB" stroke-width="2" stroke-miterlimit="10" stroke-linecap="round" stroke-linejoin="round"/>
<path d="M24.447 20.3103H21.6884C17.8263 20.3103 14.7918 23.3448 14.7918 27.2068V28.5862H13.4125C12.7229 28.5862 12.0332 29.2758 12.0332 29.9655V32.7241C12.0332 33.4137 12.7229 34.1034 13.4125 34.1034H14.7918V35.4827C14.7918 38.5172 17.2746 40.9999 20.3091 40.9999H32.7229C35.7573 40.9999 38.2401 38.5172 38.2401 35.4827V34.1034H39.6194C40.3091 34.1034 40.9987 33.4137 40.9987 32.7241V29.9655C40.9987 29.2758 40.3091 28.5862 39.6194 28.5862H38.2401V30.6551V27.2068C38.2401 23.3448 35.2056 20.3103 31.3435 20.3103H27.2056V16.1724" stroke="#00E3DB" stroke-width="2" stroke-miterlimit="10" stroke-linecap="round" stroke-linejoin="round"/>
<path d="M31.3435 31.7587C31.572 31.7587 31.7573 31.5735 31.7573 31.3449C31.7573 31.1164 31.572 30.9312 31.3435 30.9312C31.1149 30.9312 30.9297 31.1164 30.9297 31.3449C30.9297 31.5735 31.1149 31.7587 31.3435 31.7587Z" fill="#00E3DB" stroke="#00E3DB" stroke-width="2" stroke-miterlimit="10" stroke-linecap="round" stroke-linejoin="round"/>
<path d="M21.6882 31.7587C21.9167 31.7587 22.102 31.5735 22.102 31.3449C22.102 31.1164 21.9167 30.9312 21.6882 30.9312C21.4597 30.9312 21.2744 31.1164 21.2744 31.3449C21.2744 31.5735 21.4597 31.7587 21.6882 31.7587Z" fill="#00E3DB" stroke="#00E3DB" stroke-width="2" stroke-miterlimit="10" stroke-linecap="round" stroke-linejoin="round"/>
<path d="M32.7232 38.2414H20.3094C18.7922 38.2414 17.5508 37.0001 17.5508 35.4828V29.9656C17.5508 27.7587 19.3439 25.8276 21.6887 25.8276H31.3439C33.6887 25.8276 35.4818 27.7587 35.4818 29.9656V35.4828C35.4818 37.0001 34.2404 38.2414 32.7232 38.2414Z" stroke="#00E3DB" stroke-width="2" stroke-miterlimit="10" stroke-linecap="round" stroke-linejoin="round"/>
<path d="M9.13793 29.1379C4.44828 27.2069 1 22.5172 1 17C1 13.9655 1.96552 11.2069 3.62069 9" stroke="#00E3DB" stroke-width="2" stroke-miterlimit="10" stroke-linecap="round" stroke-linejoin="round"/>
<path d="M22.2412 6.65527C24.3102 8.31045 25.8274 10.5173 26.655 13.138" stroke="#00E3DB" stroke-width="2" stroke-miterlimit="10" stroke-linecap="round" stroke-linejoin="round"/>
<path d="M6.10352 6.65511C8.31041 4.862 11.069 3.89648 14.1035 3.89648C16.0346 3.89648 17.8277 4.31028 19.3449 4.99993" stroke="#00E3DB" stroke-width="2" stroke-miterlimit="10" stroke-linecap="round" stroke-linejoin="round"/>
<path d="M22.2402 6.65492L23.6195 4.86182" stroke="#00E3DB" stroke-width="2" stroke-miterlimit="10" stroke-linecap="round" stroke-linejoin="round"/>
<path d="M4.58691 4.86182L5.96622 6.65492" stroke="#00E3DB" stroke-width="2" stroke-miterlimit="10" stroke-linecap="round" stroke-linejoin="round"/>
<path d="M14.1035 1V3.89655" stroke="#00E3DB" stroke-width="2" stroke-miterlimit="10" stroke-linecap="round" stroke-linejoin="round"/>
<path d="M12.5859 1H15.6204" stroke="#00E3DB" stroke-width="2" stroke-miterlimit="10" stroke-linecap="round" stroke-linejoin="round"/>
<path d="M19.0693 8.31029L19.2073 8.17236" stroke="#00E3DB" stroke-width="2" stroke-miterlimit="10" stroke-linecap="round" stroke-linejoin="round"/>
<path d="M9.13793 25.6895L9 25.8274" stroke="#00E3DB" stroke-width="2" stroke-miterlimit="10" stroke-linecap="round" stroke-linejoin="round"/>
<path d="M22.7939 12.0344L22.9319 11.8965" stroke="#00E3DB" stroke-width="2" stroke-miterlimit="10" stroke-linecap="round" stroke-linejoin="round"/>
<path d="M5.4143 22.1035H5.27637" stroke="#00E3DB" stroke-width="2" stroke-miterlimit="10" stroke-linecap="round" stroke-linejoin="round"/>
<path d="M24.1729 17H24.3108" stroke="#00E3DB" stroke-width="2" stroke-miterlimit="10" stroke-linecap="round" stroke-linejoin="round"/>
<path d="M4.03442 17H3.89648" stroke="#00E3DB" stroke-width="2" stroke-miterlimit="10" stroke-linecap="round" stroke-linejoin="round"/>
<path d="M5.4143 12.0344L5.27637 11.8965" stroke="#00E3DB" stroke-width="2" stroke-miterlimit="10" stroke-linecap="round" stroke-linejoin="round"/>
<path d="M9.13793 8.31029L9 8.17236" stroke="#00E3DB" stroke-width="2" stroke-miterlimit="10" stroke-linecap="round" stroke-linejoin="round"/>
<path d="M14.1035 6.9309V6.79297" stroke="#00E3DB" stroke-width="2" stroke-miterlimit="10" stroke-linecap="round" stroke-linejoin="round"/>
<path d="M14.1035 15.6205V9.96533" stroke="#00E3DB" stroke-width="2" stroke-miterlimit="10" stroke-linecap="round" stroke-linejoin="round"/>
<path d="M14.1032 18.5174C14.9411 18.5174 15.6204 17.8381 15.6204 17.0002C15.6204 16.1622 14.9411 15.4829 14.1032 15.4829C13.2652 15.4829 12.5859 16.1622 12.5859 17.0002C12.5859 17.8381 13.2652 18.5174 14.1032 18.5174Z" stroke="#00E3DB" stroke-width="2" stroke-miterlimit="10" stroke-linecap="round" stroke-linejoin="round"/>
</svg>
