<svg width="40" height="40" viewBox="0 0 40 40" fill="none" xmlns="http://www.w3.org/2000/svg">
<g clip-path="url(#clip0_2908_680)">
<path d="M20 40C8.97167 40 0 31.0283 0 20C0 8.97167 8.97167 0 20 0C31.0283 0 40 8.97167 40 20C40 31.0283 31.0283 40 20 40ZM20 1.66667C9.89167 1.66667 1.66667 9.89167 1.66667 20C1.66667 30.1083 9.89167 38.3333 20 38.3333C30.1083 38.3333 38.3333 30.1083 38.3333 20C38.3333 9.89167 30.1083 1.66667 20 1.66667Z" fill="url(#paint0_linear_2908_680)"/>
<path d="M20 30C14.485 30 10 25.515 10 20C10 14.485 14.485 10 20 10C22.6733 10 25.185 11.04 27.0717 12.9267C27.3967 13.2517 27.3967 13.78 27.0717 14.105C26.7467 14.43 26.2183 14.43 25.8933 14.105C24.3217 12.5333 22.2283 11.6667 20 11.6667C15.405 11.6667 11.6667 15.405 11.6667 20C11.6667 24.595 15.405 28.3333 20 28.3333C22.2283 28.3333 24.3217 27.4667 25.8933 25.895C26.2183 25.57 26.7467 25.57 27.0717 25.895C27.3967 26.22 27.3967 26.7483 27.0717 27.0733C25.185 28.96 22.6733 30 20 30Z" fill="url(#paint1_linear_2908_680)"/>
<path d="M20 35C11.7283 35 5 28.27 5 20C5 11.73 11.7283 5 20 5C24.005 5 27.7717 6.56167 30.605 9.395C30.93 9.72 30.93 10.2483 30.605 10.5733C30.28 10.8983 29.7517 10.8983 29.4267 10.5733C26.9083 8.055 23.56 6.66667 20 6.66667C12.6483 6.66667 6.66667 12.6483 6.66667 20C6.66667 27.3517 12.6483 33.3333 20 33.3333C23.56 33.3333 26.9083 31.945 29.4267 29.4267C29.7517 29.1017 30.28 29.1017 30.605 29.4267C30.93 29.7517 30.93 30.28 30.605 30.605C27.7717 33.4383 24.005 35 20 35Z" fill="url(#paint2_linear_2908_680)"/>
<path d="M20 25C17.2433 25 15 22.7567 15 20C15 17.2433 17.2433 15 20 15C21.3233 15 22.6117 15.5333 23.5383 16.4617C23.8633 16.7867 23.8633 17.315 23.5383 17.64C23.2133 17.9633 22.685 17.965 22.36 17.6383C21.7433 17.02 20.8833 16.6667 20 16.6667C18.1617 16.6667 16.6667 18.1617 16.6667 20C16.6667 21.8383 18.1617 23.3333 20 23.3333C20.8833 23.3333 21.7433 22.98 22.36 22.3617C22.685 22.035 23.2133 22.0367 23.5383 22.36C23.8633 22.685 23.8633 23.2133 23.5383 23.5383C22.6117 24.4667 21.3233 25 20 25Z" fill="url(#paint3_linear_2908_680)"/>
<path d="M19.9998 20.8331C19.7864 20.8331 19.5731 20.7514 19.4098 20.5898C19.0848 20.2648 19.0848 19.7364 19.4098 19.4114L32.9598 5.86143C33.2848 5.53643 33.8131 5.53643 34.1381 5.86143C34.4631 6.18643 34.4631 6.71476 34.1381 7.03976L20.5881 20.5898C20.4264 20.7514 20.2131 20.8331 19.9998 20.8331Z" fill="url(#paint4_linear_2908_680)"/>
<path d="M31.6663 23.3332C29.828 23.3332 28.333 21.8382 28.333 19.9998C28.333 18.1615 29.828 16.6665 31.6663 16.6665C33.5047 16.6665 34.9997 18.1615 34.9997 19.9998C34.9997 21.8382 33.5047 23.3332 31.6663 23.3332ZM31.6663 18.3332C30.7463 18.3332 29.9997 19.0815 29.9997 19.9998C29.9997 20.9182 30.7463 21.6665 31.6663 21.6665C32.5863 21.6665 33.333 20.9182 33.333 19.9998C33.333 19.0815 32.5863 18.3332 31.6663 18.3332Z" fill="url(#paint5_linear_2908_680)"/>
</g>
<defs>
<linearGradient id="paint0_linear_2908_680" x1="35.8774" y1="7.46138" x2="-0.332445" y2="20.0285" gradientUnits="userSpaceOnUse">
<stop stop-color="#FF8139"/>
<stop offset="0.311383" stop-color="#FF4646"/>
<stop offset="1" stop-color="#9A5BEB"/>
</linearGradient>
<linearGradient id="paint1_linear_2908_680" x1="25.5308" y1="13.7307" x2="9.4224" y2="18.5709" gradientUnits="userSpaceOnUse">
<stop stop-color="#FF8139"/>
<stop offset="0.311383" stop-color="#FF4646"/>
<stop offset="1" stop-color="#9A5BEB"/>
</linearGradient>
<linearGradient id="paint2_linear_2908_680" x1="28.1846" y1="10.596" x2="4.1187" y2="17.7927" gradientUnits="userSpaceOnUse">
<stop stop-color="#FF8139"/>
<stop offset="0.311383" stop-color="#FF4646"/>
<stop offset="1" stop-color="#9A5BEB"/>
</linearGradient>
<linearGradient id="paint3_linear_2908_680" x1="22.877" y1="16.8653" x2="14.7266" y2="19.3495" gradientUnits="userSpaceOnUse">
<stop stop-color="#FF8139"/>
<stop offset="0.311383" stop-color="#FF4646"/>
<stop offset="1" stop-color="#9A5BEB"/>
</linearGradient>
<linearGradient id="paint4_linear_2908_680" x1="32.8136" y1="8.45588" x2="19.0396" y2="13.2365" gradientUnits="userSpaceOnUse">
<stop stop-color="#FF8139"/>
<stop offset="0.311383" stop-color="#FF4646"/>
<stop offset="1" stop-color="#9A5BEB"/>
</linearGradient>
<linearGradient id="paint5_linear_2908_680" x1="34.3126" y1="17.9101" x2="28.2776" y2="20.0046" gradientUnits="userSpaceOnUse">
<stop stop-color="#FF8139"/>
<stop offset="0.311383" stop-color="#FF4646"/>
<stop offset="1" stop-color="#9A5BEB"/>
</linearGradient>
<clipPath id="clip0_2908_680">
<rect width="40" height="40" fill="white"/>
</clipPath>
</defs>
</svg>
