<svg width="32" height="32" viewBox="0 0 32 32" fill="none" xmlns="http://www.w3.org/2000/svg">
<g clip-path="url(#clip0_1646_596)">
<path d="M1.91992 17.1454C1.91992 18.2031 2.78048 19.0636 3.83811 19.0636C4.89573 19.0636 5.7563 18.203 5.7563 17.1454C5.7563 17.0033 5.7403 16.8649 5.71086 16.7316L8.46673 15.3514C8.8188 15.7592 9.33886 16.0181 9.91861 16.0181C11.4067 16.0181 12.3287 14.3882 11.564 13.1152L15.0172 9.65613C15.809 10.1299 16.8354 9.97375 17.451 9.2605L20.2069 10.6408C19.9412 11.8444 20.8632 12.9727 22.0797 12.9727C23.7385 12.9727 24.6159 10.9959 23.5 9.76656L27.52 3.72619C28.7698 4.17006 30.0785 3.23537 30.0785 1.91825C30.0784 0.860562 29.2179 0 28.1602 0C27.1025 0 26.242 0.860562 26.242 1.91819C26.242 2.41344 26.4307 2.8655 26.74 3.20619L22.72 9.24656C21.9833 8.98488 21.1524 9.19538 20.6279 9.80306L17.872 8.42275C17.9014 8.28944 17.9174 8.15112 17.9174 8.00906C17.9174 6.95138 17.0569 6.09088 15.9992 6.09088C14.5117 6.09088 13.5889 7.72038 14.3539 8.99381L10.9007 12.4529C9.47105 11.5973 7.6823 12.8667 8.04598 14.5136L5.29011 15.8939C4.13436 14.5551 1.91992 15.3697 1.91992 17.1454ZM28.1602 0.9375C28.701 0.9375 29.1409 1.37744 29.1409 1.91819C29.1409 2.45894 28.701 2.89887 28.1602 2.89887C27.6195 2.89887 27.1795 2.45894 27.1795 1.91819C27.1795 1.37744 27.6194 0.9375 28.1602 0.9375ZM22.0797 10.0738C22.6205 10.0738 23.0604 10.5138 23.0604 11.0545C23.0604 11.5952 22.6205 12.0352 22.0797 12.0352C21.539 12.0352 21.099 11.5952 21.099 11.0545C21.099 10.5138 21.5389 10.0738 22.0797 10.0738ZM15.9992 7.02838C16.5399 7.02838 16.9799 7.46831 16.9799 8.00906C16.9799 8.54981 16.5399 8.98975 15.9992 8.98975C15.4584 8.98975 15.0185 8.54981 15.0185 8.00906C15.0185 7.46831 15.4584 7.02838 15.9992 7.02838ZM9.91861 13.1192C10.4594 13.1192 10.8993 13.5591 10.8993 14.0999C10.8993 14.6406 10.4594 15.0806 9.91861 15.0806C9.37786 15.0806 8.93792 14.6406 8.93792 14.0999C8.93792 13.5591 9.37786 13.1192 9.91861 13.1192ZM3.83811 18.1261C3.29736 18.1261 2.85742 17.6862 2.85742 17.1454C2.85742 16.6047 3.29736 16.1647 3.83811 16.1647C4.37886 16.1647 4.8188 16.6047 4.8188 17.1454C4.8188 17.6862 4.37892 18.1261 3.83811 18.1261Z" fill="black"/>
<path d="M31.1691 31.0622H30.589V20.7617C30.589 20.5028 30.3792 20.293 30.1203 20.293C29.8613 20.293 29.6515 20.5028 29.6515 20.7617V31.0622H26.6697V7.70898H29.6515V18.5743C29.6515 18.8332 29.8613 19.043 30.1203 19.043C30.3792 19.043 30.589 18.8332 30.589 18.5743V7.63223C30.589 7.15761 30.2028 6.77148 29.7283 6.77148H26.593C26.1184 6.77148 25.7323 7.15767 25.7323 7.63223V31.0622H24.5085V16.8113C24.5085 16.3367 24.1224 15.9505 23.6478 15.9505H23.174C22.915 15.9505 22.7052 16.1604 22.7052 16.4193C22.7052 16.6782 22.915 16.888 23.174 16.888H23.5711V31.0622H20.5893V16.888H20.9865C21.2454 16.888 21.4552 16.6782 21.4552 16.4193C21.4552 16.1604 21.2454 15.9505 20.9865 15.9505H20.5125C20.0379 15.9505 19.6518 16.3367 19.6518 16.8113V31.0622H18.4281V13.7393C18.4281 13.2647 18.0419 12.8786 17.5673 12.8786H14.4321C13.9575 12.8786 13.5714 13.2647 13.5714 13.7393V31.0622H12.3476V19.8567C12.3476 19.3821 11.9615 18.996 11.4869 18.996H8.35164C7.87702 18.996 7.49089 19.3822 7.49089 19.8567V31.0622H6.26714V22.9021C6.26714 22.4275 5.88102 22.0414 5.40645 22.0414H2.27089C1.79627 22.0414 1.41014 22.4275 1.41014 22.9021V31.0622H0.830078C0.571141 31.0622 0.361328 31.272 0.361328 31.5309C0.361328 31.7899 0.571141 31.9997 0.830078 31.9997H31.1691C31.4281 31.9997 31.6379 31.7899 31.6379 31.5309C31.6379 31.272 31.428 31.0622 31.1691 31.0622ZM2.34764 31.0622V22.9789H5.32939V31.0622H2.34764ZM8.42814 31.0622V19.9334H11.41V31.0622H8.42814ZM14.5087 31.0622V13.8161H17.4905V31.0622H14.5087Z" fill="black"/>
</g>
<defs>
<clipPath id="clip0_1646_596">
<rect width="32" height="32" fill="white"/>
</clipPath>
</defs>
</svg>
