<svg width="195" height="46" viewBox="0 0 195 46" fill="none" xmlns="http://www.w3.org/2000/svg">
<path d="M20.5 2.13397L20 1.8453L19.5 2.13397L2.17949 12.134L1.67949 12.4226V13V33V33.5774L2.17949 33.866L19.5 43.866L20 44.1547L20.5 43.866L37.8205 33.866L38.3205 33.5774V33V13V12.4226L37.8205 12.134L20.5 2.13397Z" fill="#422FBD" stroke="white" stroke-width="2"/>
<path d="M20.6072 26.4668L15.2402 28.531L19.7815 32.6594L25.3549 30.3888L20.6072 26.4668Z" fill="#422FBD"/>
<mask id="mask0_1598_771" style="mask-type:luminance" maskUnits="userSpaceOnUse" x="13" y="25" width="15" height="9">
<path d="M14.4263 27.5066L19.2527 25.8613L25.5593 31.3771C25.9418 31.712 26.5237 31.6733 26.8586 31.2902C26.9696 31.1632 27.0394 31.0146 27.0695 30.8605H27.0705C27.0153 31.1838 26.7893 31.467 26.457 31.5794L20.1404 33.7328L20.1399 33.7318C19.8392 33.8332 19.4942 33.7765 19.2382 33.5526L14.1547 29.1067C14.0176 28.9998 13.9087 28.8532 13.8489 28.6759C13.6853 28.1934 13.9438 27.6698 14.4263 27.5066ZM20.8513 27.2646L16.53 28.7377L20.049 31.8154L24.3553 30.3473L20.8513 27.2646Z" fill="white"/>
</mask>
<g mask="url(#mask0_1598_771)">
<path d="M27.0698 25.8613H13.6846V33.8342H27.0698V25.8613Z" fill="white"/>
</g>
<path d="M23.7069 13.4619L17.7207 15.5261L22.6748 20.0674L28.2482 17.3839L23.7069 13.4619Z" fill="#422FBD"/>
<mask id="mask1_1598_771" style="mask-type:luminance" maskUnits="userSpaceOnUse" x="17" y="12" width="13" height="9">
<path d="M28.9544 18.5789L24.1701 20.2101L17.9891 14.8033C17.7331 14.5794 17.3882 14.5226 17.0874 14.6241L17.0869 14.623L23.3829 12.4762L23.3834 12.4772C23.6841 12.3758 24.0291 12.4325 24.2851 12.6564L29.2265 16.9783C29.3636 17.0852 29.4725 17.2318 29.5323 17.409C29.6954 17.8915 29.4369 18.4152 28.9544 18.5789ZM22.5675 18.8073L26.8507 17.3473L23.4738 14.3936L19.1906 15.8536L22.5675 18.8073Z" fill="white"/>
</mask>
<g mask="url(#mask1_1598_771)">
<path d="M29.6945 12.375H17.0859V20.2088H29.6945V12.375Z" fill="white"/>
</g>
<path d="M16.891 15.9395L11.7305 17.7972L24.5286 29.7696L26.3863 29.3568L27.4184 23.9899L22.2579 19.655L16.891 15.9395Z" fill="#422FBD"/>
<mask id="mask2_1598_771" style="mask-type:luminance" maskUnits="userSpaceOnUse" x="10" y="14" width="19" height="18">
<path d="M28.3343 24.4667L27.0711 30.8601L27.0691 30.8596C27.039 31.0138 26.9692 31.1629 26.8582 31.2894C26.5233 31.672 25.9414 31.7106 25.5589 31.3762L10.6398 18.3274C10.5027 18.2205 10.3938 18.0739 10.334 17.8966C10.1709 17.4141 10.4294 16.8905 10.9119 16.7273L17.0804 14.6246L17.0809 14.6256C17.3816 14.5242 17.7265 14.5809 17.9826 14.8049L27.9849 23.5535C28.257 23.7593 28.4041 24.1088 28.3343 24.4667ZM25.5689 28.9382L26.4199 24.6309L17.1713 16.5415L13.0156 17.9584L25.5689 28.9382Z" fill="white"/>
</mask>
<g mask="url(#mask2_1598_771)">
<path d="M28.4051 14.5234H10.1719V31.7108H28.4051V14.5234Z" fill="white"/>
</g>
<path d="M59.2566 34.646L52 11H57.7345L62.3363 28.1327L66.6903 11H72.177L76.531 28.1327L81.0973 11H86.8319L79.6106 34.646H73.9115L69.4513 18.0442L64.9558 34.646H59.2566Z" fill="white"/>
<path d="M94.448 35C92.7253 35 91.156 34.6814 89.74 34.0442C88.3241 33.3835 87.1914 32.4159 86.3418 31.1416C85.4923 29.8437 85.0675 28.2389 85.0675 26.3274C85.0675 24.5575 85.4569 23.0236 86.2356 21.7257C87.0144 20.4277 88.0645 19.4248 89.3861 18.7168C90.7076 18.0089 92.1943 17.6549 93.8462 17.6549C95.5218 17.6549 96.9849 17.9617 98.2356 18.5752C99.51 19.1888 100.501 20.0501 101.209 21.1593C101.917 22.2448 102.271 23.4956 102.271 24.9115C102.271 25.3363 102.212 25.8083 102.094 26.3274C101.976 26.823 101.823 27.2478 101.634 27.6018H90.0586C90.1766 28.3569 90.4362 28.9941 90.8374 29.5133C91.2386 30.0089 91.7931 30.3864 92.5011 30.646C93.2091 30.9056 94.0232 31.0354 94.9436 31.0354C95.9111 31.0354 96.8197 30.8938 97.6692 30.6106C98.5188 30.3038 99.3212 29.9027 100.076 29.4071L101.563 32.8407C100.548 33.5487 99.4392 34.0914 98.2356 34.469C97.0557 34.823 95.7931 35 94.448 35ZM90.0586 24.4159H97.2445C97.2681 24.3687 97.2799 24.3215 97.2799 24.2743C97.2799 24.2271 97.2799 24.1563 97.2799 24.0619C97.2799 23.5192 97.1619 23.059 96.9259 22.6814C96.6899 22.2802 96.3241 21.9735 95.8285 21.7611C95.3566 21.5251 94.743 21.4071 93.9878 21.4071C93.3035 21.4071 92.6781 21.5369 92.1117 21.7965C91.569 22.0324 91.1206 22.3746 90.7666 22.823C90.4126 23.2714 90.1766 23.8024 90.0586 24.4159Z" fill="white"/>
<path d="M115.636 35C114.409 35 113.347 34.7758 112.45 34.3274C111.554 33.8791 110.846 33.2773 110.327 32.5221V34.646H105.689V11H110.574V19.8142C111.094 19.1534 111.778 18.6342 112.627 18.2566C113.477 17.8555 114.48 17.6549 115.636 17.6549C117.147 17.6549 118.492 18.0089 119.672 18.7168C120.875 19.4012 121.831 20.3923 122.539 21.6903C123.247 22.9882 123.601 24.5339 123.601 26.3274C123.601 28.1209 123.247 29.6667 122.539 30.9646C121.831 32.2625 120.875 33.2655 119.672 33.9735C118.492 34.6578 117.147 35 115.636 35ZM114.504 30.7522C115.306 30.7522 116.014 30.5752 116.627 30.2212C117.265 29.8673 117.748 29.3599 118.079 28.6991C118.433 28.0147 118.61 27.2242 118.61 26.3274C118.61 25.4071 118.433 24.6165 118.079 23.9558C117.748 23.295 117.265 22.7876 116.627 22.4336C116.014 22.0796 115.306 21.9027 114.504 21.9027C113.701 21.9027 112.981 22.0796 112.344 22.4336C111.707 22.7876 111.223 23.295 110.893 23.9558C110.563 24.6165 110.397 25.4071 110.397 26.3274C110.397 27.2242 110.563 28.0147 110.893 28.6991C111.223 29.3599 111.695 29.8673 112.309 30.2212C112.946 30.5752 113.678 30.7522 114.504 30.7522Z" fill="white"/>
<path d="M133.886 34.646V13.6903H126.453V11H144.329V13.6903H136.931V34.646H133.886Z" fill="white"/>
<path d="M149.443 35C147.791 35 146.305 34.6578 144.983 33.9735C143.662 33.2891 142.623 32.3097 141.868 31.0354C141.113 29.7375 140.735 28.1681 140.735 26.3274C140.735 24.5575 141.101 23.0236 141.833 21.7257C142.564 20.4277 143.555 19.4248 144.806 18.7168C146.057 18.0089 147.449 17.6549 148.983 17.6549C150.611 17.6549 152.016 17.9735 153.196 18.6106C154.375 19.2478 155.284 20.1091 155.921 21.1947C156.558 22.2566 156.877 23.472 156.877 24.8407C156.877 25.2183 156.818 25.6431 156.7 26.115C156.606 26.5634 156.476 26.9292 156.311 27.2124H143.673C143.791 28.3451 144.098 29.3127 144.594 30.115C145.113 30.8938 145.809 31.4838 146.682 31.885C147.555 32.2861 148.558 32.4867 149.691 32.4867C150.8 32.4867 151.768 32.3215 152.594 31.9911C153.443 31.6372 154.257 31.1416 155.036 30.5044L156.169 32.6637C155.272 33.4425 154.257 34.0324 153.125 34.4336C151.992 34.8112 150.765 35 149.443 35ZM143.673 24.8053H153.903C153.927 24.7581 153.939 24.7109 153.939 24.6637C153.939 24.6165 153.939 24.5457 153.939 24.4513C153.939 23.6018 153.762 22.8584 153.408 22.2212C153.054 21.5605 152.511 21.0531 151.78 20.6991C151.072 20.3451 150.175 20.1681 149.089 20.1681C148.24 20.1681 147.437 20.3569 146.682 20.7345C145.927 21.0885 145.29 21.6077 144.771 22.292C144.252 22.9764 143.886 23.8142 143.673 24.8053Z" fill="white"/>
<path d="M169.145 35C167.469 35 165.983 34.646 164.685 33.9381C163.387 33.2065 162.372 32.1917 161.64 30.8938C160.909 29.5959 160.543 28.0737 160.543 26.3274C160.543 24.5811 160.909 23.059 161.64 21.7611C162.372 20.4631 163.387 19.4602 164.685 18.7522C165.983 18.0206 167.469 17.6549 169.145 17.6549C170.348 17.6549 171.434 17.8319 172.402 18.1858C173.393 18.5398 174.266 19.0472 175.021 19.708L173.924 21.8673C173.168 21.2773 172.378 20.8525 171.552 20.5929C170.726 20.3097 169.924 20.1681 169.145 20.1681C168.012 20.1681 167.021 20.4159 166.171 20.9115C165.322 21.4071 164.661 22.115 164.189 23.0354C163.717 23.9558 163.481 25.0531 163.481 26.3274C163.481 27.6018 163.717 28.6991 164.189 29.6195C164.661 30.5398 165.322 31.2478 166.171 31.7434C167.021 32.2389 168.012 32.4867 169.145 32.4867C169.924 32.4867 170.726 32.3569 171.552 32.0973C172.378 31.8142 173.168 31.3776 173.924 30.7876L175.021 32.9469C174.266 33.6077 173.393 34.115 172.402 34.469C171.434 34.823 170.348 35 169.145 35Z" fill="white"/>
<path d="M179.475 34.646V11H182.342V26.2212L190.731 18.0088H194.271L187.191 24.8407L194.625 34.646H191.085L185.174 26.7876L182.342 29.5133V34.646H179.475Z" fill="white"/>
</svg>
