<svg width="195" height="36" viewBox="0 0 195 36" fill="none" xmlns="http://www.w3.org/2000/svg">
<path d="M21.2516 23.6394L10.2031 27.1158L19.5518 34.0685L31.0252 30.2445L21.2516 23.6394Z" fill="#1C1C25"/>
<mask id="mask0_1699_565" style="mask-type:luminance" maskUnits="userSpaceOnUse" x="7" y="22" width="28" height="14">
<path d="M8.52609 25.389L18.4618 22.6182L31.4445 31.9074C32.232 32.4714 33.4299 32.4062 34.1193 31.7611C34.3478 31.5472 34.4914 31.2969 34.5534 31.0373H34.5555C34.4418 31.5818 33.9767 32.0587 33.2925 32.2481L20.2891 35.8747L20.2881 35.873C19.669 36.0438 18.9589 35.9483 18.4318 35.5711L7.96693 28.0838C7.68476 27.9037 7.46048 27.6568 7.33748 27.3583C7.00054 26.5457 7.53283 25.6638 8.52609 25.389ZM21.7527 24.9815L12.8567 27.4623L20.101 32.6455L28.966 30.1732L21.7527 24.9815Z" fill="white"/>
</mask>
<g mask="url(#mask0_1699_565)">
<path d="M34.5569 22.6174H7.00195V36.0448H34.5569V22.6174Z" fill="#D9F900"/>
<g filter="url(#filter0_f_1699_565)">
<path d="M27.6789 15.2961L11.0508 21.9592L18.8106 31.2875L36.5472 24.6244L27.6789 15.2961Z" fill="#D9F900"/>
</g>
<g filter="url(#filter1_f_1699_565)">
<path d="M37.8781 22.2488L21.25 28.9118L29.0098 38.2401L46.7464 31.5771L37.8781 22.2488Z" fill="#D9F900"/>
</g>
</g>
<path d="M27.6299 1.73828L15.3066 5.21466L25.5052 12.8627L36.9786 8.3434L27.6299 1.73828Z" fill="#1C1C25"/>
<mask id="mask1_1699_565" style="mask-type:luminance" maskUnits="userSpaceOnUse" x="14" y="0" width="26" height="14">
<path d="M38.4324 10.3576L28.5836 13.1048L15.8593 3.99908C15.3322 3.62197 14.6221 3.52642 14.003 3.69722L14.002 3.69553L26.9629 0.0799611L26.9639 0.0816522C27.5831 -0.0891488 28.2931 0.00639834 28.8202 0.383514L38.9926 7.66201C39.2748 7.84211 39.4991 8.08901 39.6221 8.38749C39.958 9.20006 39.4257 10.082 38.4324 10.3576ZM25.2844 10.7423L34.1018 8.28348L27.15 3.30912L18.3326 5.76797L25.2844 10.7423Z" fill="white"/>
</mask>
<g mask="url(#mask1_1699_565)">
<path d="M39.958 -0.0891113H14.002V13.104H39.958V-0.0891113Z" fill="#D9F900"/>
<g filter="url(#filter2_f_1699_565)">
<path d="M15.4181 -2.78101L-5.08984 5.62024L4.48054 17.382L26.3557 8.98074L15.4181 -2.78101Z" fill="#D9F900"/>
</g>
<g filter="url(#filter3_f_1699_565)">
<path d="M29.0158 8.34326L8.50781 16.7445L18.0782 28.5063L39.9534 20.105L29.0158 8.34326Z" fill="#D9F900"/>
</g>
</g>
<path d="M13.5981 5.90967L2.97461 9.03841L29.3209 29.2014L33.1453 28.5061L35.27 19.4675L24.6465 12.1671L13.5981 5.90967Z" fill="#1C1C25"/>
<mask id="mask2_1699_565" style="mask-type:luminance" maskUnits="userSpaceOnUse" x="0" y="3" width="38" height="30">
<path d="M37.1562 20.2708L34.5557 31.038L34.5516 31.0371C34.4896 31.2967 34.3459 31.5479 34.1175 31.7609C33.4281 32.4052 32.2302 32.4703 31.4426 31.9072L0.730087 9.93137C0.447922 9.75127 0.223638 9.50437 0.100643 9.20589C-0.235267 8.39331 0.297021 7.51141 1.29028 7.2366L13.9887 3.69544L13.9897 3.69713C14.6089 3.52633 15.3189 3.62188 15.846 3.99899L36.4368 18.7327C36.997 19.0794 37.2998 19.6679 37.1562 20.2708ZM31.4633 27.8012L33.2152 20.5472L14.1758 6.92375L5.62094 9.30989L31.4633 27.8012Z" fill="white"/>
</mask>
<g mask="url(#mask2_1699_565)">
<path d="M37.2988 3.52539H-0.236328V32.4711H37.2988V3.52539Z" fill="#D9F900"/>
</g>
<path d="M64.3518 27.8109L57.3828 9.23315H62.89L67.3094 22.6937L71.4908 9.23315H76.7601L80.9415 22.6937L85.3269 9.23315H90.8341L83.8991 27.8109H78.4258L74.1424 14.7675L69.8251 27.8109H64.3518Z" fill="white"/>
<path d="M98.1484 28.089C96.4939 28.089 94.9868 27.8387 93.627 27.3381C92.2672 26.819 91.1793 26.0588 90.3635 25.0576C89.5476 24.0379 89.1396 22.7771 89.1396 21.2753C89.1396 19.8848 89.5136 18.6796 90.2615 17.6599C91.0094 16.6402 92.0179 15.8522 93.287 15.296C94.5562 14.7397 95.984 14.4616 97.5704 14.4616C99.1795 14.4616 100.585 14.7027 101.786 15.1847C103.01 15.6668 103.962 16.3435 104.641 17.2149C105.321 18.0678 105.661 19.0504 105.661 20.1629C105.661 20.4966 105.605 20.8674 105.491 21.2753C105.378 21.6647 105.231 21.9984 105.049 22.2765H93.933C94.0463 22.8698 94.2956 23.3704 94.6808 23.7783C95.0661 24.1677 95.5987 24.4643 96.2786 24.6683C96.9585 24.8722 97.7404 24.9742 98.6243 24.9742C99.5535 24.9742 100.426 24.863 101.242 24.6405C102.058 24.3994 102.828 24.0842 103.554 23.6949L104.981 26.3926C104.007 26.9488 102.942 27.3752 101.786 27.6719C100.653 27.95 99.4402 28.089 98.1484 28.089ZM93.933 19.7735H100.834C100.857 19.7365 100.868 19.6994 100.868 19.6623C100.868 19.6252 100.868 19.5696 100.868 19.4954C100.868 19.069 100.755 18.7074 100.528 18.4108C100.301 18.0956 99.9501 17.8546 99.4742 17.6877C99.0209 17.5023 98.4317 17.4096 97.7064 17.4096C97.0492 17.4096 96.4486 17.5116 95.9047 17.7155C95.3834 17.9009 94.9528 18.1698 94.6129 18.522C94.2729 18.8743 94.0463 19.2915 93.933 19.7735Z" fill="white"/>
<path d="M118.497 28.089C117.318 28.089 116.299 27.9129 115.437 27.5606C114.576 27.2083 113.896 26.7356 113.398 26.1423V27.8109H108.944V9.23315H113.636V16.1581C114.134 15.639 114.791 15.2311 115.607 14.9344C116.423 14.6192 117.386 14.4616 118.497 14.4616C119.947 14.4616 121.239 14.7397 122.372 15.296C123.528 15.8336 124.446 16.6123 125.126 17.6321C125.806 18.6518 126.146 19.8662 126.146 21.2753C126.146 22.6844 125.806 23.8988 125.126 24.9186C124.446 25.9383 123.528 26.7263 122.372 27.2825C121.239 27.8202 119.947 28.089 118.497 28.089ZM117.409 24.7517C118.18 24.7517 118.859 24.6127 119.449 24.3345C120.061 24.0564 120.525 23.6578 120.843 23.1387C121.182 22.601 121.352 21.9799 121.352 21.2753C121.352 20.5522 121.182 19.9311 120.843 19.412C120.525 18.8929 120.061 18.4942 119.449 18.2161C118.859 17.938 118.18 17.799 117.409 17.799C116.638 17.799 115.947 17.938 115.335 18.2161C114.723 18.4942 114.259 18.8929 113.942 19.412C113.624 19.9311 113.466 20.5522 113.466 21.2753C113.466 21.9799 113.624 22.601 113.942 23.1387C114.259 23.6578 114.712 24.0564 115.301 24.3345C115.913 24.6127 116.616 24.7517 117.409 24.7517Z" fill="white"/>
<path d="M136.024 27.8109V11.3468H128.885V9.23315H146.052V11.3468H138.947V27.8109H136.024Z" fill="white"/>
<path d="M150.964 28.089C149.377 28.089 147.95 27.8202 146.68 27.2825C145.411 26.7448 144.414 25.9754 143.689 24.9742C142.964 23.9545 142.601 22.7215 142.601 21.2753C142.601 19.8848 142.952 18.6796 143.655 17.6599C144.357 16.6402 145.309 15.8522 146.51 15.296C147.712 14.7397 149.049 14.4616 150.522 14.4616C152.086 14.4616 153.434 14.7119 154.567 15.2125C155.701 15.7131 156.573 16.3899 157.185 17.2427C157.797 18.0771 158.103 19.0319 158.103 20.1073C158.103 20.4039 158.046 20.7376 157.933 21.1085C157.842 21.4607 157.718 21.7481 157.559 21.9706H145.423C145.536 22.8606 145.831 23.6207 146.307 24.2511C146.805 24.863 147.474 25.3265 148.312 25.6417C149.151 25.9569 150.114 26.1144 151.202 26.1144C152.267 26.1144 153.196 25.9847 153.989 25.7251C154.805 25.447 155.587 25.0576 156.335 24.557L157.423 26.2535C156.562 26.8653 155.587 27.3289 154.499 27.6441C153.412 27.9407 152.233 28.089 150.964 28.089ZM145.423 20.0795H155.247C155.27 20.0424 155.281 20.0053 155.281 19.9682C155.281 19.9311 155.281 19.8755 155.281 19.8013C155.281 19.1339 155.111 18.5498 154.771 18.0493C154.431 17.5301 153.91 17.1315 153.208 16.8534C152.528 16.5753 151.666 16.4362 150.624 16.4362C149.808 16.4362 149.037 16.5845 148.312 16.8812C147.587 17.1593 146.975 17.5672 146.477 18.1049C145.978 18.6426 145.627 19.3007 145.423 20.0795Z" fill="white"/>
<path d="M169.885 28.089C168.275 28.089 166.848 27.8109 165.601 27.2547C164.355 26.6799 163.38 25.8827 162.678 24.863C161.975 23.8432 161.624 22.6473 161.624 21.2753C161.624 19.9033 161.975 18.7074 162.678 17.6877C163.38 16.668 164.355 15.88 165.601 15.3238C166.848 14.749 168.275 14.4616 169.885 14.4616C171.04 14.4616 172.083 14.6007 173.012 14.8788C173.964 15.1569 174.803 15.5555 175.528 16.0747L174.474 17.7711C173.749 17.3076 172.989 16.9739 172.196 16.7699C171.403 16.5475 170.632 16.4362 169.885 16.4362C168.797 16.4362 167.845 16.6309 167.029 17.0202C166.213 17.4096 165.579 17.9658 165.125 18.6889C164.672 19.412 164.445 20.2741 164.445 21.2753C164.445 22.2765 164.672 23.1387 165.125 23.8618C165.579 24.5848 166.213 25.1411 167.029 25.5304C167.845 25.9198 168.797 26.1144 169.885 26.1144C170.632 26.1144 171.403 26.0125 172.196 25.8085C172.989 25.586 173.749 25.243 174.474 24.7795L175.528 26.476C174.803 26.9951 173.964 27.3938 173.012 27.6719C172.083 27.95 171.04 28.089 169.885 28.089Z" fill="white"/>
<path d="M179.805 27.8109V9.23315H182.558V21.1919L190.615 14.7397H194.015L187.216 20.1073L194.355 27.8109H190.955L185.278 21.6369L182.558 23.7783V27.8109H179.805Z" fill="white"/>
<defs>
<filter id="filter0_f_1699_565" x="7.05078" y="11.2961" width="33.4961" height="23.9915" filterUnits="userSpaceOnUse" color-interpolation-filters="sRGB">
<feFlood flood-opacity="0" result="BackgroundImageFix"/>
<feBlend mode="normal" in="SourceGraphic" in2="BackgroundImageFix" result="shape"/>
<feGaussianBlur stdDeviation="2" result="effect1_foregroundBlur_1699_565"/>
</filter>
<filter id="filter1_f_1699_565" x="17.25" y="18.2488" width="33.4961" height="23.9915" filterUnits="userSpaceOnUse" color-interpolation-filters="sRGB">
<feFlood flood-opacity="0" result="BackgroundImageFix"/>
<feBlend mode="normal" in="SourceGraphic" in2="BackgroundImageFix" result="shape"/>
<feGaussianBlur stdDeviation="2" result="effect1_foregroundBlur_1699_565"/>
</filter>
<filter id="filter2_f_1699_565" x="-9.08984" y="-6.78101" width="39.4453" height="28.1631" filterUnits="userSpaceOnUse" color-interpolation-filters="sRGB">
<feFlood flood-opacity="0" result="BackgroundImageFix"/>
<feBlend mode="normal" in="SourceGraphic" in2="BackgroundImageFix" result="shape"/>
<feGaussianBlur stdDeviation="2" result="effect1_foregroundBlur_1699_565"/>
</filter>
<filter id="filter3_f_1699_565" x="4.50781" y="4.34326" width="39.4453" height="28.1631" filterUnits="userSpaceOnUse" color-interpolation-filters="sRGB">
<feFlood flood-opacity="0" result="BackgroundImageFix"/>
<feBlend mode="normal" in="SourceGraphic" in2="BackgroundImageFix" result="shape"/>
<feGaussianBlur stdDeviation="2" result="effect1_foregroundBlur_1699_565"/>
</filter>
</defs>
</svg>
