<svg width="222" height="50" viewBox="0 0 222 50" fill="none" xmlns="http://www.w3.org/2000/svg">
<path d="M24.2703 32.874L11.6504 37.7084L22.3288 47.3772L35.434 42.0594L24.2703 32.874Z" fill="white"/>
<mask id="mask0_2427_23189" style="mask-type:luminance" maskUnits="userSpaceOnUse" x="8" y="31" width="32" height="19">
<path d="M9.73492 35.3069L21.0838 31.4536L35.913 44.3716C36.8126 45.1559 38.1809 45.0653 38.9684 44.1681C39.2293 43.8707 39.3934 43.5226 39.4642 43.1616H39.4666C39.3367 43.9189 38.8054 44.582 38.0239 44.8454L23.1711 49.8887L23.1699 49.8863C22.4627 50.1239 21.6517 49.991 21.0496 49.4665L9.09623 39.0543C8.77393 38.8039 8.51775 38.4605 8.37726 38.0455C7.99239 36.9155 8.60039 35.689 9.73492 35.3069ZM24.8428 34.7401L14.6815 38.1901L22.9562 45.3981L33.082 41.9599L24.8428 34.7401Z" fill="white"/>
</mask>
<g mask="url(#mask0_2427_23189)">
<path d="M39.4683 31.4526H7.99414V50.1252H39.4683V31.4526Z" fill="#00B893"/>
<g filter="url(#filter0_f_2427_23189)">
<path d="M31.6142 21.2715L12.6211 30.5374L21.4846 43.5097L41.7439 34.2438L31.6142 21.2715Z" fill="#1C1C25" fill-opacity="0.33"/>
</g>
<g filter="url(#filter1_f_2427_23189)">
<path d="M43.2627 30.9399L24.2695 40.2059L33.133 53.1781L53.3923 43.9122L43.2627 30.9399Z" fill="#1C1C25" fill-opacity="0.33"/>
</g>
</g>
<path d="M31.5506 2.41724L17.4746 7.25163L29.1237 17.8873L42.229 11.6026L31.5506 2.41724Z" fill="white"/>
<mask id="mask1_2427_23189" style="mask-type:luminance" maskUnits="userSpaceOnUse" x="15" y="0" width="31" height="19">
<path d="M43.8858 14.4037L32.6361 18.2241L18.102 5.56129C17.4999 5.03686 16.6888 4.90399 15.9817 5.14151L15.9805 5.13916L30.7849 0.111197L30.7861 0.113549C31.4933 -0.123974 32.3043 0.00889779 32.9064 0.533329L44.5256 10.6551C44.8479 10.9056 45.1041 11.2489 45.2446 11.664C45.6283 12.794 45.0203 14.0204 43.8858 14.4037ZM28.8676 14.9387L38.9391 11.5194L30.9986 4.60179L20.9271 8.02118L28.8676 14.9387Z" fill="white"/>
</mask>
<g mask="url(#mask1_2427_23189)">
<path d="M45.6283 -0.124023H15.9805V18.2229H45.6283V-0.124023Z" fill="#00B893"/>
<g filter="url(#filter2_f_2427_23189)">
<path d="M17.6046 -3.86743L-5.82031 7.81568L5.1113 24.172L30.0978 12.4889L17.6046 -3.86743Z" fill="#1C1C25" fill-opacity="0.33"/>
</g>
<g filter="url(#filter3_f_2427_23189)">
<path d="M33.1319 11.6025L9.70703 23.2857L20.6386 39.642L45.6252 27.9589L33.1319 11.6025Z" fill="#1C1C25" fill-opacity="0.33"/>
</g>
</g>
<path d="M15.5329 8.21826L3.39844 12.5692L33.492 40.6087L37.8604 39.6418L40.2873 27.0724L28.1528 16.9202L15.5329 8.21826Z" fill="white"/>
<mask id="mask2_2427_23189" style="mask-type:luminance" maskUnits="userSpaceOnUse" x="0" y="5" width="43" height="40">
<path d="M42.441 28.1893L39.4707 43.1627L39.466 43.1615C39.3951 43.5225 39.231 43.8717 38.9701 44.168C38.1827 45.064 36.8144 45.1546 35.9148 44.3715L0.833929 13.811C0.511632 13.5605 0.255447 13.2172 0.114958 12.8021C-0.26873 11.6721 0.339268 10.4457 1.4738 10.0635L15.9784 5.13903L15.9796 5.14138C16.6867 4.90386 17.4978 5.03673 18.0999 5.56116L41.6193 26.0505C42.2592 26.5326 42.6051 27.3509 42.441 28.1893ZM35.9384 38.6615L37.9395 28.5738L16.1921 9.62845L6.42042 12.9467L35.9384 38.6615Z" fill="white"/>
</mask>
<g mask="url(#mask2_2427_23189)">
<path d="M42.6023 4.90259H-0.271484V45.1557H42.6023V4.90259Z" fill="#00B893"/>
</g>
<path d="M73.5052 38.6751L65.5449 12.8401H71.8355L76.8834 31.5589L81.6595 12.8401H87.6783L92.4544 31.5589L97.4635 12.8401H103.754L95.8327 38.6751H89.581L84.6883 20.5364L79.7569 38.6751H73.5052Z" fill="#1C1C25"/>
<path d="M112.109 39.0618C110.219 39.0618 108.497 38.7138 106.944 38.0176C105.391 37.2957 104.148 36.2386 103.217 34.8462C102.285 33.4282 101.819 31.6749 101.819 29.5864C101.819 27.6527 102.246 25.9767 103.1 24.5587C103.954 23.1406 105.106 22.0448 106.556 21.2713C108.006 20.4978 109.636 20.111 111.449 20.111C113.287 20.111 114.892 20.4462 116.264 21.1166C117.661 21.7869 118.749 22.728 119.525 23.9399C120.302 25.1259 120.69 26.4924 120.69 28.0394C120.69 28.5035 120.625 29.0192 120.496 29.5864C120.367 30.1279 120.198 30.592 119.991 30.9787H107.294C107.423 31.8038 107.708 32.5 108.148 33.0672C108.588 33.6086 109.196 34.0212 109.973 34.3048C110.75 34.5884 111.643 34.7302 112.652 34.7302C113.714 34.7302 114.71 34.5755 115.642 34.2661C116.574 33.9309 117.454 33.4926 118.283 32.9512L119.914 36.7027C118.8 37.4762 117.584 38.0692 116.264 38.4817C114.969 38.8685 113.584 39.0618 112.109 39.0618ZM107.294 27.498H115.176C115.202 27.4464 115.215 27.3948 115.215 27.3433C115.215 27.2917 115.215 27.2143 115.215 27.1112C115.215 26.5182 115.086 26.0154 114.827 25.6029C114.568 25.1646 114.167 24.8294 113.623 24.5973C113.105 24.3395 112.432 24.2106 111.604 24.2106C110.853 24.2106 110.167 24.3524 109.546 24.636C108.95 24.8938 108.459 25.2677 108.07 25.7576C107.682 26.2475 107.423 26.8276 107.294 27.498Z" fill="#1C1C25"/>
<path d="M135.351 39.0618C134.005 39.0618 132.84 38.8169 131.857 38.327C130.873 37.8371 130.096 37.1796 129.527 36.3546V38.6751H124.44V12.8401H129.799V22.4702C130.368 21.7483 131.119 21.181 132.051 20.7685C132.983 20.3302 134.083 20.111 135.351 20.111C137.008 20.111 138.484 20.4978 139.778 21.2713C141.098 22.019 142.147 23.1019 142.923 24.52C143.7 25.9381 144.088 27.6269 144.088 29.5864C144.088 31.546 143.7 33.2348 142.923 34.6529C142.147 36.071 141.098 37.1668 139.778 37.9403C138.484 38.688 137.008 39.0618 135.351 39.0618ZM134.109 34.4208C134.989 34.4208 135.766 34.2274 136.439 33.8407C137.138 33.4539 137.668 32.8996 138.031 32.1777C138.419 31.4299 138.613 30.5662 138.613 29.5864C138.613 28.5809 138.419 27.7171 138.031 26.9952C137.668 26.2733 137.138 25.7189 136.439 25.3322C135.766 24.9454 134.989 24.752 134.109 24.752C133.229 24.752 132.439 24.9454 131.74 25.3322C131.041 25.7189 130.511 26.2733 130.148 26.9952C129.786 27.7171 129.604 28.5809 129.604 29.5864C129.604 30.5662 129.786 31.4299 130.148 32.1777C130.511 32.8996 131.028 33.4539 131.701 33.8407C132.4 34.2274 133.203 34.4208 134.109 34.4208Z" fill="#1C1C25"/>
<path d="M155.371 38.6751V15.7794H147.217V12.8401H166.826V15.7794H158.71V38.6751H155.371Z" fill="#1C1C25"/>
<path d="M172.436 39.0618C170.624 39.0618 168.993 38.688 167.544 37.9403C166.094 37.1925 164.955 36.1225 164.127 34.7302C163.298 33.3121 162.884 31.5975 162.884 29.5864C162.884 27.6527 163.285 25.9767 164.088 24.5587C164.89 23.1406 165.977 22.0448 167.349 21.2713C168.722 20.4978 170.249 20.111 171.931 20.111C173.718 20.111 175.258 20.4591 176.552 21.1552C177.847 21.8514 178.843 22.7925 179.542 23.9785C180.241 25.1388 180.591 26.4666 180.591 27.9621C180.591 28.3746 180.526 28.8387 180.397 29.3544C180.293 29.8443 180.151 30.2439 179.969 30.5533H166.107C166.236 31.7909 166.573 32.848 167.117 33.7247C167.686 34.5755 168.45 35.2201 169.408 35.6584C170.365 36.0967 171.466 36.3159 172.708 36.3159C173.925 36.3159 174.986 36.1354 175.892 35.7744C176.824 35.3877 177.717 34.8462 178.571 34.1501L179.814 36.5093C178.83 37.3601 177.717 38.0047 176.475 38.443C175.232 38.8556 173.886 39.0618 172.436 39.0618ZM166.107 27.9234H177.329C177.355 27.8718 177.368 27.8203 177.368 27.7687C177.368 27.7171 177.368 27.6398 177.368 27.5366C177.368 26.6084 177.174 25.7963 176.785 25.1001C176.397 24.3782 175.802 23.8238 174.999 23.4371C174.222 23.0503 173.239 22.857 172.048 22.857C171.116 22.857 170.236 23.0632 169.408 23.4758C168.579 23.8625 167.88 24.4297 167.311 25.1775C166.741 25.9252 166.34 26.8405 166.107 27.9234Z" fill="#1C1C25"/>
<path d="M194.048 39.0618C192.21 39.0618 190.579 38.6751 189.156 37.9016C187.732 37.1023 186.619 35.9936 185.816 34.5755C185.014 33.1574 184.612 31.4944 184.612 29.5864C184.612 27.6785 185.014 26.0154 185.816 24.5973C186.619 23.1792 187.732 22.0834 189.156 21.3099C190.579 20.5107 192.21 20.111 194.048 20.111C195.368 20.111 196.559 20.3044 197.621 20.6911C198.708 21.0779 199.666 21.6322 200.494 22.3542L199.29 24.7134C198.462 24.0688 197.595 23.6047 196.689 23.3211C195.783 23.0117 194.902 22.857 194.048 22.857C192.806 22.857 191.718 23.1277 190.786 23.6691C189.854 24.2106 189.13 24.9841 188.612 25.9896C188.094 26.9952 187.835 28.1941 187.835 29.5864C187.835 30.9787 188.094 32.1777 188.612 33.1832C189.13 34.1888 189.854 34.9623 190.786 35.5037C191.718 36.0452 192.806 36.3159 194.048 36.3159C194.902 36.3159 195.783 36.1741 196.689 35.8905C197.595 35.5811 198.462 35.1041 199.29 34.4595L200.494 36.8187C199.666 37.5406 198.708 38.095 197.621 38.4817C196.559 38.8685 195.368 39.0618 194.048 39.0618Z" fill="#1C1C25"/>
<path d="M205.379 38.6751V12.8401H208.525V29.4704L217.727 20.4978H221.61L213.844 27.9621L221.999 38.6751H218.116L211.631 30.0892L208.525 33.0672V38.6751H205.379Z" fill="#1C1C25"/>
<defs>
<filter id="filter0_f_2427_23189" x="8.62109" y="17.2715" width="37.123" height="30.2383" filterUnits="userSpaceOnUse" color-interpolation-filters="sRGB">
<feFlood flood-opacity="0" result="BackgroundImageFix"/>
<feBlend mode="normal" in="SourceGraphic" in2="BackgroundImageFix" result="shape"/>
<feGaussianBlur stdDeviation="2" result="effect1_foregroundBlur_2427_23189"/>
</filter>
<filter id="filter1_f_2427_23189" x="20.2695" y="26.9399" width="37.123" height="30.2383" filterUnits="userSpaceOnUse" color-interpolation-filters="sRGB">
<feFlood flood-opacity="0" result="BackgroundImageFix"/>
<feBlend mode="normal" in="SourceGraphic" in2="BackgroundImageFix" result="shape"/>
<feGaussianBlur stdDeviation="2" result="effect1_foregroundBlur_2427_23189"/>
</filter>
<filter id="filter2_f_2427_23189" x="-9.82031" y="-7.86743" width="43.918" height="36.0396" filterUnits="userSpaceOnUse" color-interpolation-filters="sRGB">
<feFlood flood-opacity="0" result="BackgroundImageFix"/>
<feBlend mode="normal" in="SourceGraphic" in2="BackgroundImageFix" result="shape"/>
<feGaussianBlur stdDeviation="2" result="effect1_foregroundBlur_2427_23189"/>
</filter>
<filter id="filter3_f_2427_23189" x="5.70703" y="7.60254" width="43.918" height="36.0396" filterUnits="userSpaceOnUse" color-interpolation-filters="sRGB">
<feFlood flood-opacity="0" result="BackgroundImageFix"/>
<feBlend mode="normal" in="SourceGraphic" in2="BackgroundImageFix" result="shape"/>
<feGaussianBlur stdDeviation="2" result="effect1_foregroundBlur_2427_23189"/>
</filter>
</defs>
</svg>
