<svg width="197" height="36" viewBox="0 0 197 36" fill="none" xmlns="http://www.w3.org/2000/svg">
<mask id="mask0_1766_6913" style="mask-type:luminance" maskUnits="userSpaceOnUse" x="6" y="22" width="28" height="14">
<path d="M8.21539 25.389L17.7889 22.6182L30.2982 31.9074C31.0571 32.4714 32.2113 32.4062 32.8756 31.7611C33.0956 31.5472 33.2341 31.2969 33.2938 31.0373H33.2958C33.1863 31.5818 32.7381 32.0587 32.0788 32.2481L19.5496 35.8747L19.5486 35.873C18.9521 36.0438 18.2679 35.9483 17.76 35.5711L7.67662 28.0838C7.40474 27.9037 7.18863 27.6568 7.07012 27.3583C6.74546 26.5457 7.25835 25.6638 8.21539 25.389ZM20.9598 24.9815L12.3882 27.4623L19.3683 32.6455L27.9101 30.1732L20.9598 24.9815Z" fill="white"/>
</mask>
<g mask="url(#mask0_1766_6913)">
<path d="M33.2964 22.6174H6.74609V36.0448H33.2964V22.6174Z" fill="url(#paint0_linear_1766_6913)"/>
<g filter="url(#filter0_f_1766_6913)">
<path d="M33.5128 15.2961L16.8848 21.9592L24.6445 31.2875L42.3812 24.6244L33.5128 15.2961Z" fill="url(#paint1_linear_1766_6913)"/>
</g>
<g filter="url(#filter1_f_1766_6913)">
<path d="M43.7121 22.2488L27.084 28.9118L34.8438 38.2401L52.5804 31.5771L43.7121 22.2488Z" fill="url(#paint2_linear_1766_6913)"/>
</g>
</g>
<mask id="mask1_1766_6913" style="mask-type:luminance" maskUnits="userSpaceOnUse" x="13" y="0" width="26" height="14">
<path d="M37.032 10.3576L27.5422 13.1048L15.2818 3.99908C14.7739 3.62197 14.0897 3.52642 13.4932 3.69722L13.4922 3.69553L25.9806 0.0799611L25.9816 0.0816522C26.5781 -0.0891488 27.2623 0.00639834 27.7702 0.383514L37.5717 7.66201C37.8436 7.84211 38.0597 8.08901 38.1782 8.38749C38.5019 9.20006 37.989 10.082 37.032 10.3576ZM24.3633 10.7423L32.8592 8.28348L26.1609 3.30912L17.665 5.76797L24.3633 10.7423Z" fill="white"/>
</mask>
<g mask="url(#mask1_1766_6913)">
<path d="M38.5019 -0.0891113H13.4922V13.104H38.5019V-0.0891113Z" fill="url(#paint3_linear_1766_6913)"/>
<g filter="url(#filter2_f_1766_6913)">
<path d="M21.2521 -2.78101L0.744141 5.62024L10.3145 17.382L32.1897 8.98074L21.2521 -2.78101Z" fill="url(#paint4_linear_1766_6913)"/>
</g>
<g filter="url(#filter3_f_1766_6913)">
<path d="M34.8498 8.34326L14.3418 16.7445L23.9122 28.5063L45.7873 20.105L34.8498 8.34326Z" fill="url(#paint5_linear_1766_6913)"/>
</g>
</g>
<mask id="mask2_1766_6913" style="mask-type:luminance" maskUnits="userSpaceOnUse" x="0" y="3" width="36" height="30">
<path d="M35.8015 20.2708L33.2959 31.038L33.2919 31.0371C33.2321 31.2967 33.0937 31.5479 32.8736 31.7609C32.2094 32.4052 31.0551 32.4703 30.2963 31.9072L0.703469 9.93137C0.431592 9.75127 0.215484 9.50437 0.0969738 9.20589C-0.226689 8.39331 0.286192 7.51141 1.24324 7.2366L13.4787 3.69544L13.4797 3.69713C14.0762 3.52633 14.7604 3.62188 15.2683 3.99899L35.1084 18.7327C35.6481 19.0794 35.9399 19.6679 35.8015 20.2708ZM30.3162 27.8012L32.0042 20.5472L13.659 6.92375L5.41601 9.30989L30.3162 27.8012Z" fill="white"/>
</mask>
<g mask="url(#mask2_1766_6913)">
<path d="M35.9381 3.52539H-0.228516V32.4711H35.9381V3.52539Z" fill="url(#paint6_linear_1766_6913)"/>
</g>
<path d="M66.1858 27.8109L59.2168 9.23315H64.724L69.1434 22.6937L73.3248 9.23315H78.5941L82.7755 22.6937L87.1608 9.23315H92.6681L85.733 27.8109H80.2598L75.9764 14.7675L71.659 27.8109H66.1858Z" fill="white"/>
<path d="M99.9823 28.089C98.3279 28.089 96.8208 27.8387 95.461 27.3381C94.1012 26.819 93.0133 26.0588 92.1974 25.0576C91.3816 24.0379 90.9736 22.7771 90.9736 21.2753C90.9736 19.8848 91.3476 18.6796 92.0955 17.6599C92.8433 16.6402 93.8519 15.8522 95.121 15.296C96.3902 14.7397 97.818 14.4616 99.4044 14.4616C101.014 14.4616 102.419 14.7027 103.62 15.1847C104.844 15.6668 105.796 16.3435 106.475 17.2149C107.155 18.0678 107.495 19.0504 107.495 20.1629C107.495 20.4966 107.439 20.8674 107.325 21.2753C107.212 21.6647 107.065 21.9984 106.883 22.2765H95.7669C95.8803 22.8698 96.1296 23.3704 96.5148 23.7783C96.9001 24.1677 97.4327 24.4643 98.1126 24.6683C98.7925 24.8722 99.5744 24.9742 100.458 24.9742C101.387 24.9742 102.26 24.863 103.076 24.6405C103.892 24.3994 104.662 24.0842 105.388 23.6949L106.815 26.3926C105.841 26.9488 104.776 27.3752 103.62 27.6719C102.487 27.95 101.274 28.089 99.9823 28.089ZM95.7669 19.7735H102.668C102.691 19.7365 102.702 19.6994 102.702 19.6623C102.702 19.6252 102.702 19.5696 102.702 19.4954C102.702 19.069 102.589 18.7074 102.362 18.4108C102.135 18.0956 101.784 17.8546 101.308 17.6877C100.855 17.5023 100.266 17.4096 99.5404 17.4096C98.8832 17.4096 98.2826 17.5116 97.7387 17.7155C97.2174 17.9009 96.7868 18.1698 96.4468 18.522C96.1069 18.8743 95.8803 19.2915 95.7669 19.7735Z" fill="white"/>
<path d="M120.331 28.089C119.152 28.089 118.132 27.9129 117.271 27.5606C116.41 27.2083 115.73 26.7356 115.232 26.1423V27.8109H110.778V9.23315H115.47V16.1581C115.968 15.639 116.625 15.2311 117.441 14.9344C118.257 14.6192 119.22 14.4616 120.331 14.4616C121.781 14.4616 123.073 14.7397 124.206 15.296C125.362 15.8336 126.28 16.6123 126.96 17.6321C127.64 18.6518 127.98 19.8662 127.98 21.2753C127.98 22.6844 127.64 23.8988 126.96 24.9186C126.28 25.9383 125.362 26.7263 124.206 27.2825C123.073 27.8202 121.781 28.089 120.331 28.089ZM119.243 24.7517C120.014 24.7517 120.693 24.6127 121.283 24.3345C121.895 24.0564 122.359 23.6578 122.677 23.1387C123.016 22.601 123.186 21.9799 123.186 21.2753C123.186 20.5522 123.016 19.9311 122.677 19.412C122.359 18.8929 121.895 18.4942 121.283 18.2161C120.693 17.938 120.014 17.799 119.243 17.799C118.472 17.799 117.781 17.938 117.169 18.2161C116.557 18.4942 116.093 18.8929 115.775 19.412C115.458 19.9311 115.3 20.5522 115.3 21.2753C115.3 21.9799 115.458 22.601 115.775 23.1387C116.093 23.6578 116.546 24.0564 117.135 24.3345C117.747 24.6127 118.45 24.7517 119.243 24.7517Z" fill="white"/>
<path d="M137.857 27.8109V11.3468H130.719V9.23315H147.886V11.3468H140.781V27.8109H137.857Z" fill="white"/>
<path d="M152.798 28.089C151.211 28.089 149.784 27.8202 148.514 27.2825C147.245 26.7448 146.248 25.9754 145.523 24.9742C144.798 23.9545 144.435 22.7215 144.435 21.2753C144.435 19.8848 144.786 18.6796 145.489 17.6599C146.191 16.6402 147.143 15.8522 148.344 15.296C149.546 14.7397 150.883 14.4616 152.356 14.4616C153.92 14.4616 155.268 14.7119 156.401 15.2125C157.535 15.7131 158.407 16.3899 159.019 17.2427C159.631 18.0771 159.937 19.0319 159.937 20.1073C159.937 20.4039 159.88 20.7376 159.767 21.1085C159.676 21.4607 159.552 21.7481 159.393 21.9706H147.257C147.37 22.8606 147.665 23.6207 148.141 24.2511C148.639 24.863 149.308 25.3265 150.146 25.6417C150.985 25.9569 151.948 26.1144 153.036 26.1144C154.101 26.1144 155.03 25.9847 155.823 25.7251C156.639 25.447 157.421 25.0576 158.169 24.557L159.257 26.2535C158.396 26.8653 157.421 27.3289 156.333 27.6441C155.246 27.9407 154.067 28.089 152.798 28.089ZM147.257 20.0795H157.081C157.104 20.0424 157.115 20.0053 157.115 19.9682C157.115 19.9311 157.115 19.8755 157.115 19.8013C157.115 19.1339 156.945 18.5498 156.605 18.0493C156.265 17.5301 155.744 17.1315 155.042 16.8534C154.362 16.5753 153.5 16.4362 152.458 16.4362C151.642 16.4362 150.871 16.5845 150.146 16.8812C149.421 17.1593 148.809 17.5672 148.31 18.1049C147.812 18.6426 147.461 19.3007 147.257 20.0795Z" fill="white"/>
<path d="M171.719 28.089C170.109 28.089 168.682 27.8109 167.435 27.2547C166.189 26.6799 165.214 25.8827 164.512 24.863C163.809 23.8432 163.458 22.6473 163.458 21.2753C163.458 19.9033 163.809 18.7074 164.512 17.6877C165.214 16.668 166.189 15.88 167.435 15.3238C168.682 14.749 170.109 14.4616 171.719 14.4616C172.874 14.4616 173.917 14.6007 174.846 14.8788C175.798 15.1569 176.637 15.5555 177.362 16.0747L176.308 17.7711C175.583 17.3076 174.823 16.9739 174.03 16.7699C173.237 16.5475 172.466 16.4362 171.719 16.4362C170.631 16.4362 169.679 16.6309 168.863 17.0202C168.047 17.4096 167.413 17.9658 166.959 18.6889C166.506 19.412 166.279 20.2741 166.279 21.2753C166.279 22.2765 166.506 23.1387 166.959 23.8618C167.413 24.5848 168.047 25.1411 168.863 25.5304C169.679 25.9198 170.631 26.1144 171.719 26.1144C172.466 26.1144 173.237 26.0125 174.03 25.8085C174.823 25.586 175.583 25.243 176.308 24.7795L177.362 26.476C176.637 26.9951 175.798 27.3938 174.846 27.6719C173.917 27.95 172.874 28.089 171.719 28.089Z" fill="white"/>
<path d="M181.639 27.8109V9.23315H184.392V21.1919L192.449 14.7397H195.849L189.05 20.1073L196.189 27.8109H192.789L187.112 21.6369L184.392 23.7783V27.8109H181.639Z" fill="white"/>
<defs>
<filter id="filter0_f_1766_6913" x="12.8848" y="11.2961" width="33.4966" height="23.9915" filterUnits="userSpaceOnUse" color-interpolation-filters="sRGB">
<feFlood flood-opacity="0" result="BackgroundImageFix"/>
<feBlend mode="normal" in="SourceGraphic" in2="BackgroundImageFix" result="shape"/>
<feGaussianBlur stdDeviation="2" result="effect1_foregroundBlur_1766_6913"/>
</filter>
<filter id="filter1_f_1766_6913" x="23.084" y="18.2488" width="33.4966" height="23.9915" filterUnits="userSpaceOnUse" color-interpolation-filters="sRGB">
<feFlood flood-opacity="0" result="BackgroundImageFix"/>
<feBlend mode="normal" in="SourceGraphic" in2="BackgroundImageFix" result="shape"/>
<feGaussianBlur stdDeviation="2" result="effect1_foregroundBlur_1766_6913"/>
</filter>
<filter id="filter2_f_1766_6913" x="-3.25586" y="-6.78101" width="39.4453" height="28.1631" filterUnits="userSpaceOnUse" color-interpolation-filters="sRGB">
<feFlood flood-opacity="0" result="BackgroundImageFix"/>
<feBlend mode="normal" in="SourceGraphic" in2="BackgroundImageFix" result="shape"/>
<feGaussianBlur stdDeviation="2" result="effect1_foregroundBlur_1766_6913"/>
</filter>
<filter id="filter3_f_1766_6913" x="10.3418" y="4.34326" width="39.4453" height="28.1631" filterUnits="userSpaceOnUse" color-interpolation-filters="sRGB">
<feFlood flood-opacity="0" result="BackgroundImageFix"/>
<feBlend mode="normal" in="SourceGraphic" in2="BackgroundImageFix" result="shape"/>
<feGaussianBlur stdDeviation="2" result="effect1_foregroundBlur_1766_6913"/>
</filter>
<linearGradient id="paint0_linear_1766_6913" x1="30.56" y1="25.1221" x2="12.2524" y2="37.6859" gradientUnits="userSpaceOnUse">
<stop stop-color="#FF8139"/>
<stop offset="0.311383" stop-color="#FF4646"/>
<stop offset="1" stop-color="#9A5BEB"/>
</linearGradient>
<linearGradient id="paint1_linear_1766_6913" x1="39.7534" y1="18.2791" x2="19.955" y2="29.2346" gradientUnits="userSpaceOnUse">
<stop stop-color="#FF8139"/>
<stop offset="0.311383" stop-color="#FF4646"/>
<stop offset="1" stop-color="#9A5BEB"/>
</linearGradient>
<linearGradient id="paint2_linear_1766_6913" x1="49.9526" y1="25.2317" x2="30.1542" y2="36.1872" gradientUnits="userSpaceOnUse">
<stop stop-color="#FF8139"/>
<stop offset="0.311383" stop-color="#FF4646"/>
<stop offset="1" stop-color="#9A5BEB"/>
</linearGradient>
<linearGradient id="paint3_linear_1766_6913" x1="35.9243" y1="2.37186" x2="18.2204" y2="14.0195" gradientUnits="userSpaceOnUse">
<stop stop-color="#FF8139"/>
<stop offset="0.311383" stop-color="#FF4646"/>
<stop offset="1" stop-color="#9A5BEB"/>
</linearGradient>
<linearGradient id="paint4_linear_1766_6913" x1="28.9488" y1="0.980088" x2="4.28096" y2="14.332" gradientUnits="userSpaceOnUse">
<stop stop-color="#FF8139"/>
<stop offset="0.311383" stop-color="#FF4646"/>
<stop offset="1" stop-color="#9A5BEB"/>
</linearGradient>
<linearGradient id="paint5_linear_1766_6913" x1="42.5464" y1="12.1044" x2="17.8786" y2="25.4563" gradientUnits="userSpaceOnUse">
<stop stop-color="#FF8139"/>
<stop offset="0.311383" stop-color="#FF4646"/>
<stop offset="1" stop-color="#9A5BEB"/>
</linearGradient>
<linearGradient id="paint6_linear_1766_6913" x1="32.2106" y1="8.92476" x2="1.33362" y2="22.3144" gradientUnits="userSpaceOnUse">
<stop stop-color="#FF8139"/>
<stop offset="0.311383" stop-color="#FF4646"/>
<stop offset="1" stop-color="#9A5BEB"/>
</linearGradient>
</defs>
</svg>
