<svg width="195" height="40" viewBox="0 0 195 40" fill="none" xmlns="http://www.w3.org/2000/svg">
<path d="M11.375 3.83691C16.9433 0.86471 23.6689 0.9635 29.1602 4.13379L29.6855 4.44922C35.0435 7.78552 38.3203 13.6594 38.3203 20C38.3203 26.3406 35.0435 32.2145 29.6855 35.5508L29.1602 35.8662C23.4918 39.1387 16.5081 39.1387 10.8398 35.8662C5.17146 32.5936 1.67969 26.5453 1.67969 20C1.67969 13.4547 5.17146 7.40643 10.8398 4.13379L11.375 3.83691Z" fill="url(#paint0_linear_1816_308)" stroke="white" stroke-width="2"/>
<path d="M20.6067 23.4668L15.2397 25.531L19.781 29.6594L25.3544 27.3888L20.6067 23.4668Z" fill="url(#paint1_linear_1816_308)"/>
<mask id="mask0_1816_308" style="mask-type:luminance" maskUnits="userSpaceOnUse" x="13" y="22" width="15" height="9">
<path d="M14.4263 24.5066L19.2527 22.8613L25.5593 28.3771C25.9418 28.712 26.5237 28.6733 26.8586 28.2902C26.9696 28.1632 27.0394 28.0146 27.0695 27.8605H27.0705C27.0153 28.1838 26.7893 28.467 26.457 28.5794L20.1404 30.7328L20.1399 30.7318C19.8392 30.8332 19.4942 30.7765 19.2382 30.5526L14.1547 26.1067C14.0176 25.9998 13.9087 25.8532 13.8489 25.6759C13.6853 25.1934 13.9438 24.6698 14.4263 24.5066ZM20.8513 24.2646L16.53 25.7377L20.049 28.8154L24.3553 27.3473L20.8513 24.2646Z" fill="white"/>
</mask>
<g mask="url(#mask0_1816_308)">
<path d="M27.0698 22.8613H13.6846V30.8342H27.0698V22.8613Z" fill="white"/>
</g>
<path d="M23.7079 10.4619L17.7217 12.5261L22.6758 17.0674L28.2491 14.3839L23.7079 10.4619Z" fill="url(#paint2_linear_1816_308)"/>
<mask id="mask1_1816_308" style="mask-type:luminance" maskUnits="userSpaceOnUse" x="17" y="9" width="13" height="9">
<path d="M28.9549 15.5789L24.1706 17.2101L17.9896 11.8033C17.7336 11.5794 17.3886 11.5226 17.0879 11.6241L17.0874 11.623L23.3834 9.47619L23.3839 9.47719C23.6846 9.37578 24.0295 9.43251 24.2856 9.65643L29.227 13.9783C29.3641 14.0852 29.473 14.2318 29.5328 14.409C29.6959 14.8915 29.4374 15.4152 28.9549 15.5789ZM22.568 15.8073L26.8512 14.3473L23.4743 11.3936L19.1911 12.8536L22.568 15.8073Z" fill="white"/>
</mask>
<g mask="url(#mask1_1816_308)">
<path d="M29.6954 9.375H17.0869V17.2088H29.6954V9.375Z" fill="white"/>
</g>
<path d="M16.8905 12.9395L11.73 14.7972L24.5281 26.7696L26.3859 26.3568L27.418 20.9899L22.2574 16.655L16.8905 12.9395Z" fill="url(#paint3_linear_1816_308)"/>
<mask id="mask2_1816_308" style="mask-type:luminance" maskUnits="userSpaceOnUse" x="10" y="11" width="19" height="18">
<path d="M28.3343 21.4667L27.0711 27.8601L27.0691 27.8596C27.039 28.0138 26.9692 28.1629 26.8582 28.2894C26.5233 28.672 25.9414 28.7106 25.5589 28.3762L10.6398 15.3274C10.5027 15.2205 10.3938 15.0739 10.334 14.8966C10.1709 14.4141 10.4294 13.8905 10.9119 13.7273L17.0804 11.6246L17.0809 11.6256C17.3816 11.5242 17.7265 11.5809 17.9826 11.8049L27.9849 20.5535C28.257 20.7593 28.4041 21.1088 28.3343 21.4667ZM25.5689 25.9382L26.4199 21.6309L17.1713 13.5415L13.0156 14.9584L25.5689 25.9382Z" fill="white"/>
</mask>
<g mask="url(#mask2_1816_308)">
<path d="M28.4051 11.5234H10.1719V28.7108H28.4051V11.5234Z" fill="white"/>
</g>
<path d="M59.2566 31.646L52 8H57.7345L62.3363 25.1327L66.6903 8H72.177L76.531 25.1327L81.0973 8H86.8319L79.6106 31.646H73.9115L69.4513 15.0442L64.9558 31.646H59.2566Z" fill="white"/>
<path d="M94.448 32C92.7253 32 91.156 31.6814 89.74 31.0442C88.3241 30.3835 87.1914 29.4159 86.3418 28.1416C85.4923 26.8437 85.0675 25.2389 85.0675 23.3274C85.0675 21.5575 85.4569 20.0236 86.2356 18.7257C87.0144 17.4277 88.0645 16.4248 89.3861 15.7168C90.7076 15.0089 92.1943 14.6549 93.8462 14.6549C95.5218 14.6549 96.9849 14.9617 98.2356 15.5752C99.51 16.1888 100.501 17.0501 101.209 18.1593C101.917 19.2448 102.271 20.4956 102.271 21.9115C102.271 22.3363 102.212 22.8083 102.094 23.3274C101.976 23.823 101.823 24.2478 101.634 24.6018H90.0586C90.1766 25.3569 90.4362 25.9941 90.8374 26.5133C91.2386 27.0089 91.7931 27.3864 92.5011 27.646C93.2091 27.9056 94.0232 28.0354 94.9436 28.0354C95.9111 28.0354 96.8197 27.8938 97.6692 27.6106C98.5188 27.3038 99.3212 26.9027 100.076 26.4071L101.563 29.8407C100.548 30.5487 99.4392 31.0914 98.2356 31.469C97.0557 31.823 95.7931 32 94.448 32ZM90.0586 21.4159H97.2445C97.2681 21.3687 97.2799 21.3215 97.2799 21.2743C97.2799 21.2271 97.2799 21.1563 97.2799 21.0619C97.2799 20.5192 97.1619 20.059 96.9259 19.6814C96.6899 19.2802 96.3241 18.9735 95.8285 18.7611C95.3566 18.5251 94.743 18.4071 93.9878 18.4071C93.3035 18.4071 92.6781 18.5369 92.1117 18.7965C91.569 19.0324 91.1206 19.3746 90.7666 19.823C90.4126 20.2714 90.1766 20.8024 90.0586 21.4159Z" fill="white"/>
<path d="M115.636 32C114.409 32 113.347 31.7758 112.45 31.3274C111.554 30.8791 110.846 30.2773 110.327 29.5221V31.646H105.689V8H110.574V16.8142C111.094 16.1534 111.778 15.6342 112.627 15.2566C113.477 14.8555 114.48 14.6549 115.636 14.6549C117.147 14.6549 118.492 15.0089 119.672 15.7168C120.875 16.4012 121.831 17.3923 122.539 18.6903C123.247 19.9882 123.601 21.5339 123.601 23.3274C123.601 25.1209 123.247 26.6667 122.539 27.9646C121.831 29.2625 120.875 30.2655 119.672 30.9735C118.492 31.6578 117.147 32 115.636 32ZM114.504 27.7522C115.306 27.7522 116.014 27.5752 116.627 27.2212C117.265 26.8673 117.748 26.3599 118.079 25.6991C118.433 25.0147 118.61 24.2242 118.61 23.3274C118.61 22.4071 118.433 21.6165 118.079 20.9558C117.748 20.295 117.265 19.7876 116.627 19.4336C116.014 19.0796 115.306 18.9027 114.504 18.9027C113.701 18.9027 112.981 19.0796 112.344 19.4336C111.707 19.7876 111.223 20.295 110.893 20.9558C110.563 21.6165 110.397 22.4071 110.397 23.3274C110.397 24.2242 110.563 25.0147 110.893 25.6991C111.223 26.3599 111.695 26.8673 112.309 27.2212C112.946 27.5752 113.678 27.7522 114.504 27.7522Z" fill="white"/>
<path d="M133.886 31.646V10.6903H126.453V8H144.329V10.6903H136.931V31.646H133.886Z" fill="white"/>
<path d="M149.443 32C147.791 32 146.305 31.6578 144.983 30.9735C143.662 30.2891 142.623 29.3097 141.868 28.0354C141.113 26.7375 140.735 25.1681 140.735 23.3274C140.735 21.5575 141.101 20.0236 141.833 18.7257C142.564 17.4277 143.555 16.4248 144.806 15.7168C146.057 15.0089 147.449 14.6549 148.983 14.6549C150.611 14.6549 152.016 14.9735 153.196 15.6106C154.375 16.2478 155.284 17.1091 155.921 18.1947C156.558 19.2566 156.877 20.472 156.877 21.8407C156.877 22.2183 156.818 22.6431 156.7 23.115C156.606 23.5634 156.476 23.9292 156.311 24.2124H143.673C143.791 25.3451 144.098 26.3127 144.594 27.115C145.113 27.8938 145.809 28.4838 146.682 28.885C147.555 29.2861 148.558 29.4867 149.691 29.4867C150.8 29.4867 151.768 29.3215 152.594 28.9911C153.443 28.6372 154.257 28.1416 155.036 27.5044L156.169 29.6637C155.272 30.4425 154.257 31.0324 153.125 31.4336C151.992 31.8112 150.765 32 149.443 32ZM143.673 21.8053H153.903C153.927 21.7581 153.939 21.7109 153.939 21.6637C153.939 21.6165 153.939 21.5457 153.939 21.4513C153.939 20.6018 153.762 19.8584 153.408 19.2212C153.054 18.5605 152.511 18.0531 151.78 17.6991C151.072 17.3451 150.175 17.1681 149.089 17.1681C148.24 17.1681 147.437 17.3569 146.682 17.7345C145.927 18.0885 145.29 18.6077 144.771 19.292C144.252 19.9764 143.886 20.8142 143.673 21.8053Z" fill="white"/>
<path d="M169.145 32C167.469 32 165.983 31.646 164.685 30.9381C163.387 30.2065 162.372 29.1917 161.64 27.8938C160.909 26.5959 160.543 25.0737 160.543 23.3274C160.543 21.5811 160.909 20.059 161.64 18.7611C162.372 17.4631 163.387 16.4602 164.685 15.7522C165.983 15.0206 167.469 14.6549 169.145 14.6549C170.348 14.6549 171.434 14.8319 172.402 15.1858C173.393 15.5398 174.266 16.0472 175.021 16.708L173.924 18.8673C173.168 18.2773 172.378 17.8525 171.552 17.5929C170.726 17.3097 169.924 17.1681 169.145 17.1681C168.012 17.1681 167.021 17.4159 166.171 17.9115C165.322 18.4071 164.661 19.115 164.189 20.0354C163.717 20.9558 163.481 22.0531 163.481 23.3274C163.481 24.6018 163.717 25.6991 164.189 26.6195C164.661 27.5398 165.322 28.2478 166.171 28.7434C167.021 29.2389 168.012 29.4867 169.145 29.4867C169.924 29.4867 170.726 29.3569 171.552 29.0973C172.378 28.8142 173.168 28.3776 173.924 27.7876L175.021 29.9469C174.266 30.6077 173.393 31.115 172.402 31.469C171.434 31.823 170.348 32 169.145 32Z" fill="white"/>
<path d="M179.475 31.646V8H182.342V23.2212L190.731 15.0088H194.271L187.191 21.8407L194.625 31.646H191.085L185.174 23.7876L182.342 26.5133V31.646H179.475Z" fill="white"/>
<defs>
<linearGradient id="paint0_linear_1816_308" x1="35.8774" y1="7.46138" x2="-0.332445" y2="20.0285" gradientUnits="userSpaceOnUse">
<stop stop-color="#FF8139"/>
<stop offset="0.311383" stop-color="#FF4646"/>
<stop offset="1" stop-color="#9A5BEB"/>
</linearGradient>
<linearGradient id="paint1_linear_1816_308" x1="24.3119" y1="24.6219" x2="16.5477" y2="29.0232" gradientUnits="userSpaceOnUse">
<stop stop-color="#FF8139"/>
<stop offset="0.311383" stop-color="#FF4646"/>
<stop offset="1" stop-color="#9A5BEB"/>
</linearGradient>
<linearGradient id="paint2_linear_1816_308" x1="27.1641" y1="11.6941" x2="18.9879" y2="16.2166" gradientUnits="userSpaceOnUse">
<stop stop-color="#FF8139"/>
<stop offset="0.311383" stop-color="#FF4646"/>
<stop offset="1" stop-color="#9A5BEB"/>
</linearGradient>
<linearGradient id="paint3_linear_1816_308" x1="25.8011" y1="15.5193" x2="12.0242" y2="20.943" gradientUnits="userSpaceOnUse">
<stop stop-color="#FF8139"/>
<stop offset="0.311383" stop-color="#FF4646"/>
<stop offset="1" stop-color="#9A5BEB"/>
</linearGradient>
</defs>
</svg>
